<svg xmlns="http://www.w3.org/2000/svg" xmlns:xlink="http://www.w3.org/1999/xlink" width="359.696" height="218.336" viewBox="0 0 359.696 218.336">
  <defs>
    <clipPath id="clip-path">
      <rect id="Rectángulo_401888" data-name="Rectángulo 401888" width="359.696" height="218.336" fill="none"/>
    </clipPath>
    <clipPath id="clip-path-2">
      <path id="Trazado_894681" data-name="Trazado 894681" d="M2855.91,1456.794a4.475,4.475,0,1,0,4.475-4.475,4.475,4.475,0,0,0-4.475,4.475" transform="translate(-2855.91 -1452.319)" fill="none"/>
    </clipPath>
    <linearGradient id="linear-gradient" x1="-15.341" y1="10.346" x2="-15.336" y2="10.346" gradientUnits="objectBoundingBox">
      <stop offset="0" stop-color="#45b5ff"/>
      <stop offset="1" stop-color="#8fe7ff"/>
    </linearGradient>
    <clipPath id="clip-path-3">
      <path id="Trazado_894682" data-name="Trazado 894682" d="M2909.7,1549.464c3.373.738,6.29,3.717,3.23,8.942l7.373-3.86c-6.038-.463-6.823-4.557-5.508-7.75Z" transform="translate(-2909.697 -1546.797)" fill="none"/>
    </clipPath>
    <linearGradient id="linear-gradient-2" x1="-12.372" y1="8.041" x2="-12.367" y2="8.041" xlink:href="#linear-gradient"/>
    <clipPath id="clip-path-4">
      <path id="Trazado_894683" data-name="Trazado 894683" d="M2715.037,1551.887l4.155,3.227c-1-3.438,5.812-12.206,9.39-12.092l-4.155-3.227c1,3.438-5.812,12.206-9.39,12.092" transform="translate(-2715.037 -1539.795)" fill="none"/>
    </clipPath>
    <linearGradient id="linear-gradient-3" x1="-8.789" y1="6.26" x2="-8.786" y2="6.26" xlink:href="#linear-gradient"/>
    <clipPath id="clip-path-5">
      <path id="Trazado_894684" data-name="Trazado 894684" d="M2979.689,1480.524v5.26c2.1-2.9,10.311-2.9,12.415,0v-5.26c-2.1,2.9-10.311,2.9-12.415,0" transform="translate(-2979.689 -1480.524)" fill="none"/>
    </clipPath>
    <linearGradient id="linear-gradient-4" x1="-18.828" y1="9.345" x2="-18.821" y2="9.345" xlink:href="#linear-gradient"/>
    <clipPath id="clip-path-6">
      <path id="Trazado_894685" data-name="Trazado 894685" d="M3156.454,1456.794a4.475,4.475,0,1,0,4.475-4.475,4.475,4.475,0,0,0-4.475,4.475" transform="translate(-3156.454 -1452.319)" fill="none"/>
    </clipPath>
    <linearGradient id="linear-gradient-5" x1="-16.969" y1="10.346" x2="-16.964" y2="10.346" xlink:href="#linear-gradient"/>
    <clipPath id="clip-path-7">
      <path id="Trazado_894686" data-name="Trazado 894686" d="M3061.356,1550.59l7.122,4.373c-2.78-5.63.674-8.86,4.217-9.376l-4.885-3c1.143,3.393-.175,7.935-6.454,8" transform="translate(-3061.356 -1542.587)" fill="none"/>
    </clipPath>
    <linearGradient id="linear-gradient-6" x1="-12.197" y1="7.553" x2="-12.193" y2="7.553" xlink:href="#linear-gradient"/>
    <clipPath id="clip-path-8">
      <path id="Trazado_894687" data-name="Trazado 894687" d="M3227.943,1542.228c3.576-.16,11.176,9.37,10.223,12.82l4.113-3.28c-3.576.16-11.176-9.37-10.223-12.821Z" transform="translate(-3227.943 -1538.948)" fill="none"/>
    </clipPath>
    <linearGradient id="linear-gradient-7" x1="-9.942" y1="5.94" x2="-9.939" y2="5.94" xlink:href="#linear-gradient"/>
    <clipPath id="clip-path-9">
      <path id="Trazado_894688" data-name="Trazado 894688" d="M2890.555,1851.411l4.961,2.836c-1.258-3.352.374-8.647,6.647-8.928l-7.287-4.165c2.94,5.548-.794,9.641-4.321,10.258" transform="translate(-2890.555 -1841.153)" fill="none"/>
    </clipPath>
    <linearGradient id="linear-gradient-8" x1="-10.977" y1="6.09" x2="-10.974" y2="6.09" xlink:href="#linear-gradient"/>
    <clipPath id="clip-path-10">
      <path id="Trazado_894689" data-name="Trazado 894689" d="M3047.068,1852.555c6.226.815,8.263,7.814,6.724,11.047l5.14-2.414c-3.47-.88-7.555-6.918-4.206-12.229Z" transform="translate(-3047.068 -1848.959)" fill="none"/>
    </clipPath>
    <linearGradient id="linear-gradient-9" x1="-10.611" y1="5.711" x2="-10.608" y2="5.711" xlink:href="#linear-gradient"/>
    <clipPath id="clip-path-11">
      <path id="Trazado_894690" data-name="Trazado 894690" d="M3214.752,1835.407l4.112,3.281c-.951-3.451,7.509-14.053,11.085-13.891l-4.112-3.281c.951,3.451-7.509,14.053-11.085,13.891" transform="translate(-3214.752 -1821.516)" fill="none"/>
    </clipPath>
    <linearGradient id="linear-gradient-10" x1="-9.29" y1="4.732" x2="-9.287" y2="4.732" xlink:href="#linear-gradient"/>
    <clipPath id="clip-path-12">
      <path id="Trazado_894691" data-name="Trazado 894691" d="M3381.792,1739.386a4.475,4.475,0,1,0,4.475-4.475,4.475,4.475,0,0,0-4.475,4.475" transform="translate(-3381.792 -1734.911)" fill="none"/>
    </clipPath>
    <linearGradient id="linear-gradient-11" x1="-18.19" y1="8.816" x2="-18.184" y2="8.816" xlink:href="#linear-gradient"/>
    <clipPath id="clip-path-13">
      <path id="Trazado_894692" data-name="Trazado 894692" d="M3160.161,1733.061c3.661-5.1,13.244-3.605,15.365-.721l.267-5.633c-2.385,2.67-12.067,3.253-15.228-2.172Z" transform="translate(-3160.161 -1724.534)" fill="none"/>
    </clipPath>
    <linearGradient id="linear-gradient-12" x1="-14.005" y1="6.189" x2="-14.001" y2="6.189" xlink:href="#linear-gradient"/>
    <clipPath id="clip-path-14">
      <path id="Trazado_894693" data-name="Trazado 894693" d="M2764.708,1724.33l.132,5.678c2.207-2.819,9.337-4.117,12.842,1.092l-.2-8.457c-3.26,5.366-10.442,4.4-12.778,1.687" transform="translate(-2764.708 -1722.643)" fill="none"/>
    </clipPath>
    <linearGradient id="linear-gradient-13" x1="-13.378" y1="7.081" x2="-13.373" y2="7.081" xlink:href="#linear-gradient"/>
    <clipPath id="clip-path-15">
      <path id="Trazado_894694" data-name="Trazado 894694" d="M2942.642,1672.791a7.849,7.849,0,1,0,7.849-7.849,7.849,7.849,0,0,0-7.849,7.849" transform="translate(-2942.642 -1664.942)" fill="none"/>
    </clipPath>
    <linearGradient id="linear-gradient-14" x1="-8.959" y1="5.298" x2="-8.956" y2="5.298" xlink:href="#linear-gradient"/>
    <clipPath id="clip-path-16">
      <path id="Trazado_894695" data-name="Trazado 894695" d="M2833.923,2001.458a4.475,4.475,0,1,0,4.475-4.475,4.475,4.475,0,0,0-4.475,4.475" transform="translate(-2833.923 -1996.983)" fill="none"/>
    </clipPath>
    <linearGradient id="linear-gradient-15" x1="-15.122" y1="7.352" x2="-15.117" y2="7.352" xlink:href="#linear-gradient"/>
    <clipPath id="clip-path-17">
      <path id="Trazado_894696" data-name="Trazado 894696" d="M2711.455,1818.545c3.579.073,9.433,8.486,8.258,11.867l4.318-3c-3.579-.073-9.433-8.486-8.258-11.867Z" transform="translate(-2711.455 -1815.54)" fill="none"/>
    </clipPath>
    <linearGradient id="linear-gradient-16" x1="-9.121" y1="5.57" x2="-9.117" y2="5.57" xlink:href="#linear-gradient"/>
    <clipPath id="clip-path-18">
      <path id="Trazado_894697" data-name="Trazado 894697" d="M2952.553,2037.245c2.432-2.627,11.293-1.571,13.04,1.554l.623-5.224c-2.432,2.627-11.293,1.571-13.04-1.554Z" transform="translate(-2952.553 -2032.022)" fill="none"/>
    </clipPath>
    <linearGradient id="linear-gradient-17" x1="-15.481" y1="5.885" x2="-15.475" y2="5.885" xlink:href="#linear-gradient"/>
    <clipPath id="clip-path-19">
      <path id="Trazado_894698" data-name="Trazado 894698" d="M3143.236,2038.324a4.475,4.475,0,1,0,4.475-4.475,4.475,4.475,0,0,0-4.475,4.475" transform="translate(-3143.236 -2033.849)" fill="none"/>
    </clipPath>
    <linearGradient id="linear-gradient-18" x1="-16.787" y1="7.154" x2="-16.782" y2="7.154" xlink:href="#linear-gradient"/>
    <clipPath id="clip-path-20">
      <path id="Trazado_894699" data-name="Trazado 894699" d="M2644.428,1729.126a4.475,4.475,0,1,0,4.475-4.475,4.475,4.475,0,0,0-4.475,4.475" transform="translate(-2644.428 -1724.651)" fill="none"/>
    </clipPath>
    <linearGradient id="linear-gradient-19" x1="-14.102" y1="8.818" x2="-14.097" y2="8.818" xlink:href="#linear-gradient"/>
    <clipPath id="clip-path-22">
      <path id="Trazado_894705" data-name="Trazado 894705" d="M2481.374,1556.522a2.978,2.978,0,1,0,2.174-.942,2.978,2.978,0,0,0-2.174.942" transform="translate(-2480.57 -1555.58)" fill="none"/>
    </clipPath>
    <linearGradient id="linear-gradient-20" x1="-19.401" y1="14.498" x2="-19.393" y2="14.498" xlink:href="#linear-gradient"/>
    <clipPath id="clip-path-23">
      <path id="Trazado_894706" data-name="Trazado 894706" d="M2331.684,1582.077l.551,3.457c1.08-2.123,8.375-3.285,10.061-1.6l-.551-3.457c-1.08,2.124-8.375,3.286-10.061,1.6" transform="translate(-2331.684 -1580.475)" fill="none"/>
    </clipPath>
    <linearGradient id="linear-gradient-21" x1="-13.001" y1="14.065" x2="-12.995" y2="14.065" xlink:href="#linear-gradient"/>
    <clipPath id="clip-path-24">
      <path id="Trazado_894707" data-name="Trazado 894707" d="M2254.792,1592.613a2.978,2.978,0,1,0,2.174-.943,2.978,2.978,0,0,0-2.174.943" transform="translate(-2253.988 -1591.671)" fill="none"/>
    </clipPath>
    <linearGradient id="linear-gradient-22" x1="-17.792" y1="14.357" x2="-17.784" y2="14.357" xlink:href="#linear-gradient"/>
    <clipPath id="clip-path-26">
      <path id="Trazado_894711" data-name="Trazado 894711" d="M3784.168,1451.041l5.09.542c-3-2.379-1.917-5.58-.1-6.788l-3.465-.369c1.523,1.564,1.909,4.921-1.526,6.615" transform="translate(-3784.168 -1444.426)" fill="none"/>
    </clipPath>
    <linearGradient id="linear-gradient-23" x1="-32.911" y1="22.132" x2="-32.903" y2="22.132" xlink:href="#linear-gradient"/>
    <clipPath id="clip-path-27">
      <path id="Trazado_894712" data-name="Trazado 894712" d="M3580.545,1507.241l3.1.826c-1.376-1.695.753-9.688,2.791-10.474l-3.1-.826c1.376,1.695-.753,9.688-2.79,10.474" transform="translate(-3580.545 -1496.767)" fill="none"/>
    </clipPath>
    <linearGradient id="linear-gradient-24" x1="-19.817" y1="17.793" x2="-19.812" y2="17.793" xlink:href="#linear-gradient"/>
    <clipPath id="clip-path-28">
      <path id="Trazado_894713" data-name="Trazado 894713" d="M3555.449,1654.339a2.727,2.727,0,1,0,1.095-.23,2.729,2.729,0,0,0-1.095.23" transform="translate(-3553.815 -1654.109)" fill="none"/>
    </clipPath>
    <linearGradient id="linear-gradient-25" x1="-37.188" y1="16.778" x2="-37.177" y2="16.778" xlink:href="#linear-gradient"/>
    <clipPath id="clip-path-29">
      <path id="Trazado_894714" data-name="Trazado 894714" d="M3616.412,1600.178l1.23,3.212c.678-2.075,5.943-4.771,9.038-2.515l-1.862-4.862c-.8,3.746-6.515,5.257-8.406,4.166" transform="translate(-3616.412 -1596.013)" fill="none"/>
    </clipPath>
    <linearGradient id="linear-gradient-26" x1="-29.511" y1="10.766" x2="-29.503" y2="10.766" xlink:href="#linear-gradient"/>
    <clipPath id="clip-path-30">
      <path id="Trazado_894715" data-name="Trazado 894715" d="M3746.189,1538.407a4.783,4.783,0,1,0,1.919-.4,4.787,4.787,0,0,0-1.919.4" transform="translate(-3743.323 -1538.003)" fill="none"/>
    </clipPath>
    <linearGradient id="linear-gradient-27" x1="-22.308" y1="10.247" x2="-22.302" y2="10.247" xlink:href="#linear-gradient"/>
    <clipPath id="clip-path-31">
      <path id="Trazado_894716" data-name="Trazado 894716" d="M3797.292,1373.8a2.727,2.727,0,1,0,1.094-.23,2.729,2.729,0,0,0-1.094.23" transform="translate(-3795.658 -1373.57)" fill="none"/>
    </clipPath>
    <linearGradient id="linear-gradient-28" x1="-38.963" y1="19.245" x2="-38.953" y2="19.245" xlink:href="#linear-gradient"/>
    <clipPath id="clip-path-32">
      <path id="Trazado_894717" data-name="Trazado 894717" d="M3615.5,1428.949a2.727,2.727,0,1,0,1.094-.23,2.729,2.729,0,0,0-1.094.23" transform="translate(-3613.862 -1428.719)" fill="none"/>
    </clipPath>
    <linearGradient id="linear-gradient-29" x1="-37.094" y1="18.707" x2="-37.084" y2="18.707" xlink:href="#linear-gradient"/>
  </defs>
  <g id="Grupo_1102016" data-name="Grupo 1102016" transform="translate(0 -0.002)">
    <g id="Grupo_1101951" data-name="Grupo 1101951" transform="translate(0 0.002)">
      <g id="Grupo_1101950" data-name="Grupo 1101950" transform="translate(0 0)" clip-path="url(#clip-path)">
        <path id="Trazado_894544" data-name="Trazado 894544" d="M10.795,615.233s-37.964-89.76,28.5-148.425c93.575-82.6,196.838-21.638,252.7-2.373,109.838,37.879,53,150.8,53,150.8Z" transform="translate(0 -396.897)" fill="#d2f1ff"/>
        <path id="Trazado_894545" data-name="Trazado 894545" d="M2536.46,2696.5c-6.857-9.005-29.013-15.6-55.286-15.6s-48.429,6.594-55.287,15.6h-2.193v5.9c0,11.875,25.734,21.5,57.48,21.5s57.479-9.627,57.479-21.5v-5.9Z" transform="translate(-2265.183 -2505.565)" fill="#83cce2"/>
        <path id="Trazado_894546" data-name="Trazado 894546" d="M2538.654,2612.147c0,11.875-25.735,21.5-57.48,21.5s-57.479-9.627-57.479-21.5,25.734-21.5,57.479-21.5,57.48,9.627,57.48,21.5" transform="translate(-2265.184 -2421.216)" fill="#9fd9ed"/>
        <path id="Trazado_894547" data-name="Trazado 894547" d="M2563.618,2622.188c0,11.488-24.893,20.8-55.6,20.8s-55.6-9.312-55.6-20.8,24.894-20.8,55.6-20.8,55.6,9.312,55.6,20.8" transform="translate(-2292.027 -2431.257)" fill="#e6f0f4"/>
        <path id="Trazado_894548" data-name="Trazado 894548" d="M2508.017,2605.6c28.806,0,52.494,8.194,55.319,18.691a8.075,8.075,0,0,0,.283-2.108c0-11.487-24.893-20.8-55.6-20.8s-55.6,9.312-55.6,20.8a8.085,8.085,0,0,0,.283,2.108c2.824-10.5,26.513-18.691,55.318-18.691" transform="translate(-2292.027 -2431.257)" fill="#b0ecff"/>
        <path id="Trazado_894549" data-name="Trazado 894549" d="M4433.368,1556.79c-.939,6.472-8.715,22.3-11.713,25.013-2.3,2.084-5.344.766-4.732-4.065.838-6.622,5.69-17.817,8.009-22.379,3.3-6.492,9.225-4,8.436,1.431" transform="translate(-4127.979 -1450.016)" fill="#edf5ff"/>
        <path id="Trazado_894550" data-name="Trazado 894550" d="M4212.219,1805.292a7.321,7.321,0,0,1-3.833-2.251c-.817-1.1.232-3.384.9-3.556.815-.209.641,1.432,1.564,1.709s2.658.829,2.972,2.341c.178.858-.285,2.04-1.608,1.757" transform="translate(-3932.877 -1681.781)" fill="#ffc891"/>
        <path id="Trazado_894551" data-name="Trazado 894551" d="M4266.475,1845.268c-2.386-2.986-10.751-5.809-13.421-7.214-1.1-.578-3.133,3.723-2.5,4.31,2.217,2.066,8.885,6.943,11.567,7.964,3.645,1.386,6.361-2.551,4.357-5.059" transform="translate(-3972.452 -1717.795)" fill="#edf5ff"/>
        <path id="Trazado_894552" data-name="Trazado 894552" d="M4359.452,1980.571c-1.176,1.272-3.018.771-4.384.141a20.519,20.519,0,0,1-4.055-2.488c-.073-.057-.178.045-.1.1a19.845,19.845,0,0,0,4.5,2.7c1.332.561,3.049.831,4.14-.35.064-.069-.04-.172-.1-.1" transform="translate(-4066.335 -1848.831)" fill="#b0d3ff"/>
        <path id="Trazado_894553" data-name="Trazado 894553" d="M4496.425,1970.353a8.265,8.265,0,0,1-1.341,1.909c-.064.068.039.172.1.1a8.409,8.409,0,0,0,1.364-1.938c.043-.083-.083-.157-.126-.073" transform="translate(-4201.084 -1841.457)" fill="#b0d3ff"/>
        <path id="Trazado_894554" data-name="Trazado 894554" d="M3654.732,1481.717c1.335.777,3.7,2.723.791,7.479l-14.535,23.745c-4.88,7.971-15.706,21.924-23.917,34.591s-21.3,33.122-22.483,32.435,11.072-21.632,18.609-34.691,14.995-28.974,19.874-36.945l14.535-23.745c2.912-4.757,5.792-3.646,7.126-2.869" transform="translate(-3359.426 -1384.161)" fill="#6aaaea"/>
        <path id="Trazado_894555" data-name="Trazado 894555" d="M3810.034,2549.81l-1.994,3.494a.064.064,0,0,0,.111.065l1.995-3.494a.065.065,0,0,0-.111-.065" transform="translate(-3558.984 -2383.022)" fill="#fff"/>
        <path id="Trazado_894556" data-name="Trazado 894556" d="M2946.692,2739.059a5.138,5.138,0,0,1,1.153-5.242c1.925-2.214.133-3.545,2.132-4.859s3.891-3.233,6.978-4.01,4.975.047,7.771.386,3.18-.709,5.312-1.932,3.39-1.607,5.836-1.013,3.669-.448,5.522-.172,3.438-1.034,7.555.384,3.022,2.523,5.608,3.1,3.681,2.284,5.778,3.025,3.553,1.579,3.151,5.866-2.033,3.945-5.388,7.192-10.2,1.988-14.4,3.013-6.337-.373-12.721,0-12.6.958-16.682-.772-6.838-1.24-7.607-4.971" transform="translate(-2753.728 -2543.914)" fill="#c7464c"/>
        <path id="Trazado_894557" data-name="Trazado 894557" d="M3050.835,2784.93a7,7,0,0,1-4.487-1.59c-.233-.2-.453-.406-.672-.618a4.414,4.414,0,0,0-.9-.743c-.746-.383-1.873-.036-3.065.332-.443.137-.884.272-1.317.378a7.517,7.517,0,0,1-6.167-.933,5.164,5.164,0,0,1-1.769-6.444,6.064,6.064,0,0,1,3.054-2.594,16.188,16.188,0,0,1,7.286-1.155l.659.032a6.315,6.315,0,0,0,5.357-1.5c.368-.251.735-.5,1.11-.736,2.083-1.294,4.059-1.607,5.713-.9a1.492,1.492,0,0,1-1.167,2.745c-.958-.411-2.275.257-2.974.691-.337.21-.667.436-1,.662a11.475,11.475,0,0,1-3.354,1.775,11.726,11.726,0,0,1-3.844.244l-.624-.03a13.175,13.175,0,0,0-5.958.9,3.243,3.243,0,0,0-1.625,1.26,2.238,2.238,0,0,0,.863,2.622,4.632,4.632,0,0,0,3.723.466c.378-.093.763-.214,1.149-.333,1.549-.478,3.479-1.074,5.307-.136a6.767,6.767,0,0,1,1.613,1.253c.168.163.335.326.513.475a4.184,4.184,0,0,0,5,.106,11.209,11.209,0,0,0,1.09-1.021,6.365,6.365,0,0,1,3.729-2.3,6.19,6.19,0,0,1,3.722.969l.143.078a5,5,0,0,0,1.974.766.8.8,0,0,0,.62-.257,1.476,1.476,0,0,1,1.556-1.4,1.5,1.5,0,0,1,1.416,1.577,3.413,3.413,0,0,1-3.673,3.063,7.306,7.306,0,0,1-3.312-1.124l-.137-.074a3.79,3.79,0,0,0-1.939-.636c-.646.08-1.259.7-1.967,1.427a13.458,13.458,0,0,1-1.4,1.3,6.966,6.966,0,0,1-4.243,1.406" transform="translate(-2833.658 -2587.055)" fill="#e04e55"/>
        <path id="Trazado_894558" data-name="Trazado 894558" d="M3374.95,2739.362a1.491,1.491,0,0,1-.555-2.875,3.879,3.879,0,0,0,.944-.469.667.667,0,0,0,.063-.061,1.111,1.111,0,0,0-.369-.175,6.319,6.319,0,0,0-.893-.141,8.439,8.439,0,0,1-1.385-.238,2.373,2.373,0,0,1-1.233-.76,2.337,2.337,0,0,1-.159-2.58,11.68,11.68,0,0,1,.972-1.736,6.566,6.566,0,0,0-1.737-.923,2.248,2.248,0,0,0-.43-.08,2.992,2.992,0,0,1-.612,3.911l-.258.256a3.276,3.276,0,0,0-.555.625c.018.01.022.05.03.106a2.766,2.766,0,0,1-.06,1.343,2.808,2.808,0,0,1-1.893,1.676,5.318,5.318,0,0,1-4.208-.007,6,6,0,0,1-1.065-.719,3.2,3.2,0,0,0-.574-.4,1.1,1.1,0,0,0-.939.131,2.784,2.784,0,0,0-.975,1.17,1.491,1.491,0,0,1-2.678-1.312,5.679,5.679,0,0,1,2.124-2.418,4.021,4.021,0,0,1,3.667-.3,5.562,5.562,0,0,1,1.23.8,3.663,3.663,0,0,0,.544.387,2.607,2.607,0,0,0,1.846-.127,3.291,3.291,0,0,1-.025-.415,3.837,3.837,0,0,1,1.445-2.667l.216-.213a1.265,1.265,0,0,0,.108-.126,2.331,2.331,0,0,1-1.041-1.238,2.367,2.367,0,0,1,.877-2.569,4.46,4.46,0,0,1,4.052-.673,10.166,10.166,0,0,1,2.917,1.547,2.6,2.6,0,0,1,1.234,1.731,2.627,2.627,0,0,1-.623,1.97,8.516,8.516,0,0,0-.559.881l.078.009a8.782,8.782,0,0,1,1.339.225,3.335,3.335,0,0,1,2.623,2.872,3.139,3.139,0,0,1-1.194,2.54,6.278,6.278,0,0,1-1.737.94,1.487,1.487,0,0,1-.554.107" transform="translate(-3136.733 -2548.03)" fill="#e04e55"/>
        <path id="Trazado_894559" data-name="Trazado 894559" d="M3497.939,2854.75a8.159,8.159,0,0,1-2.611-.425c-.331-.112-.655-.246-.979-.38a6.985,6.985,0,0,0-1.212-.425,1.032,1.032,0,0,0-.814.092,1.491,1.491,0,0,1-2.381-1.8,3.719,3.719,0,0,1,3.787-1.219,9.39,9.39,0,0,1,1.767.6c.26.108.519.218.785.308a5.4,5.4,0,0,0,4.936-.841,2.117,2.117,0,0,0,.443-.436,1.491,1.491,0,0,1-.5-2.147,5.065,5.065,0,0,1,3.777-1.836,6.1,6.1,0,0,0,1.592-.379c1.13-.545,1.532-2.282,1.669-3.644a1.491,1.491,0,0,1,2.967.3c-.312,3.081-1.435,5.11-3.341,6.029a8.39,8.39,0,0,1-2.434.64c-.3.046-.561.088-.791.137a2.838,2.838,0,0,1,.052,1.353,4,4,0,0,1-1.6,2.333,8.345,8.345,0,0,1-5.115,1.741" transform="translate(-3261.419 -2655.081)" fill="#e04e55"/>
        <path id="Trazado_894560" data-name="Trazado 894560" d="M3142.189,2878.774a7.443,7.443,0,0,1-3.364-1.024,4.928,4.928,0,0,0-2.442-.829,4.529,4.529,0,0,0-1.069.349c-.276.113-.553.225-.835.318a3.648,3.648,0,0,1-3.67-.532,1.491,1.491,0,0,1,1.988-2.223,1.33,1.33,0,0,0,.751-.078c.214-.071.425-.159.637-.246a6.9,6.9,0,0,1,1.856-.552,7.17,7.17,0,0,1,4.1,1.116,3.957,3.957,0,0,0,2.347.683,4.239,4.239,0,0,0,.679-.273,4.277,4.277,0,0,1,3.627-.3,4.661,4.661,0,0,0,.652.152,1.491,1.491,0,1,1-.368,2.959,7.31,7.31,0,0,1-1.08-.238,2.978,2.978,0,0,0-.81-.157,2.936,2.936,0,0,0-.766.285,6.406,6.406,0,0,1-1.235.467,4.205,4.205,0,0,1-1,.118" transform="translate(-2925.59 -2685.973)" fill="#e04e55"/>
        <path id="Trazado_894561" data-name="Trazado 894561" d="M3433.988,2726.92a1.491,1.491,0,0,1-.431-2.918.48.48,0,0,1-.049-.059,3.626,3.626,0,0,1-.371-.6,2.887,2.887,0,0,1,.2-2.734,4.128,4.128,0,0,1,1.564-1.435,1.491,1.491,0,1,1,1.465,2.6,1.358,1.358,0,0,0-.477.38l.029.039a4.309,4.309,0,0,1,.285.433,2.915,2.915,0,0,1-1.873,4.259,1.5,1.5,0,0,1-.344.04" transform="translate(-3208.01 -2541.158)" fill="#e04e55"/>
        <path id="Trazado_894562" data-name="Trazado 894562" d="M3173.945,2726.606a6.466,6.466,0,0,1-1.341-.175c-.6-.122-1.1-.206-1.613-.27-.132-.017-.207-.022-.251-.023a1.491,1.491,0,0,1-1.3-2.683,3.142,3.142,0,0,1,1.919-.252q.878.11,1.743.287l.1.021a3.057,3.057,0,0,0,.825.107,1.463,1.463,0,0,0,.339-.1,2.942,2.942,0,0,0,.85-.515c.123-.11.236-.229.35-.348.191-.2.383-.394.591-.572,1.63-1.4,3.864-1.493,5.342-1.558a1.492,1.492,0,0,1,.13,2.98c-1.468.063-2.747.171-3.533.844-.136.117-.258.247-.382.375-.167.174-.335.346-.515.507a5.911,5.911,0,0,1-1.713,1.051,4.322,4.322,0,0,1-1.081.3,3.656,3.656,0,0,1-.467.029m-3.1-.516h0Z" transform="translate(-2961.418 -2542.598)" fill="#e04e55"/>
        <path id="Trazado_894563" data-name="Trazado 894563" d="M2997.586,2781.248a1.491,1.491,0,0,1-.335-2.943,2.219,2.219,0,0,0,.528-.177c0-.017,0-.035,0-.052a3.932,3.932,0,0,1,.091-.67,3.471,3.471,0,0,1,1.016-1.65,8.773,8.773,0,0,1,2.343-1.6,1.491,1.491,0,0,1,1.307,2.681,5.871,5.871,0,0,0-1.564,1.054,1.067,1.067,0,0,0-.212.249c0,.025,0,.084-.005.143a3.429,3.429,0,0,1-.137.831,3.3,3.3,0,0,1-2.7,2.1,1.488,1.488,0,0,1-.338.039" transform="translate(-2800.15 -2592.58)" fill="#e04e55"/>
        <path id="Trazado_894564" data-name="Trazado 894564" d="M2975.321,2919.7a6.73,6.73,0,0,1-1.486-.166,11.715,11.715,0,0,1-1.646-.54c-.279-.107-.558-.215-.843-.306a2.249,2.249,0,0,0-1.432-.1,3.085,3.085,0,0,0-.428.243,6,6,0,0,1-.823.448,5.273,5.273,0,0,1-2.515.318,6.513,6.513,0,0,1-4.982-2.543,4.564,4.564,0,0,1-.661-3.606,3.711,3.711,0,0,1,1.82-2.459,1.491,1.491,0,0,1,1.423,2.621.792.792,0,0,0-.342.528,1.606,1.606,0,0,0,.211,1.218,3.694,3.694,0,0,0,2.778,1.27,2.509,2.509,0,0,0,1.094-.087,3.238,3.238,0,0,0,.424-.241,5.841,5.841,0,0,1,.852-.46,4.981,4.981,0,0,1,3.48.008c.342.108.678.236,1.014.365a9.318,9.318,0,0,0,1.236.415,3.89,3.89,0,0,0,2.807-.456,1.491,1.491,0,0,1,1.551,2.547,6.819,6.819,0,0,1-3.532.984" transform="translate(-2766.773 -2720.438)" fill="#e04e55"/>
        <path id="Trazado_894565" data-name="Trazado 894565" d="M3262.49,2992.737q-.2,0-.415-.02a6.264,6.264,0,0,1-1.241-.28c-.142-.043-.285-.086-.429-.121a8.326,8.326,0,0,0-2.413-.063,1.491,1.491,0,0,1-.193-2.976,10.851,10.851,0,0,1,3.307.141c.2.047.395.107.591.166a2.4,2.4,0,0,0,2.6-.523,8.648,8.648,0,0,1,2.491-1,1.491,1.491,0,0,1,.541,2.934,6.236,6.236,0,0,0-1.628.7,6.764,6.764,0,0,1-3.21,1.045" transform="translate(-3043.434 -2792.621)" fill="#e04e55"/>
        <path id="Trazado_894566" data-name="Trazado 894566" d="M3678.549,2789.919a1.488,1.488,0,0,1-.989-.376,2.757,2.757,0,0,0-.87-.611,1.874,1.874,0,0,0-.362-.009l-.149,0a10.382,10.382,0,0,1-2.053-.218,1.491,1.491,0,1,1,.641-2.912,5.871,5.871,0,0,0,1.391.147l.124,0a4.738,4.738,0,0,1,.92.053,4.822,4.822,0,0,1,2.339,1.319,1.491,1.491,0,0,1-.99,2.606" transform="translate(-3432.74 -2603.569)" fill="#e04e55"/>
        <path id="Trazado_894567" data-name="Trazado 894567" d="M3124.06,2807.86s-1.177.326-.769-.49,1.922-1.13,2.691-1.06.2.967-.431,1.235a4.9,4.9,0,0,1-1.491.315" transform="translate(-2918.946 -2622.767)" fill="#ff8287"/>
        <path id="Trazado_894568" data-name="Trazado 894568" d="M3580.563,2729.2s-1.1-.488-.373-.785,2.1.4,2.681.908-.322.761-.959.562a5.765,5.765,0,0,1-1.35-.684" transform="translate(-3345.81 -2549.91)" fill="#ff8287"/>
        <path id="Trazado_894569" data-name="Trazado 894569" d="M3326.05,2873.952s-1.177.326-.769-.489,1.922-1.13,2.691-1.06.2.967-.432,1.235a4.882,4.882,0,0,1-1.491.314" transform="translate(-3107.725 -2684.537)" fill="#ff8287"/>
        <path id="Trazado_894570" data-name="Trazado 894570" d="M3428.209,2769.566s-.518-.511.326-.56a1.464,1.464,0,0,1,1.483,1.068c.071.425-.88.415-1.246.172a1.722,1.722,0,0,1-.563-.679" transform="translate(-3203.855 -2587.909)" fill="#ff8287"/>
        <path id="Trazado_894571" data-name="Trazado 894571" d="M3261.994,2734.656s-.865.805-.708.341a7.24,7.24,0,0,1,1.913-1.925c.623-.452.354.134-.089.589a13.791,13.791,0,0,1-1.115.995" transform="translate(-3047.978 -2554.176)" fill="#ff8287"/>
        <path id="Trazado_894572" data-name="Trazado 894572" d="M3156.076,2879.019s-1.009-.233-.444-.6,1.831,0,2.4.334-.144.687-.712.622a4.994,4.994,0,0,1-1.248-.358" transform="translate(-2949.092 -2690.03)" fill="#ff8287"/>
        <path id="Trazado_894573" data-name="Trazado 894573" d="M3041.227,2845.02s-.908.764-.772.22,1.332-1.485,2-1.872.413.278-.049.724a9.852,9.852,0,0,1-1.176.928" transform="translate(-2841.594 -2657.301)" fill="#ff8287"/>
        <path id="Trazado_894574" data-name="Trazado 894574" d="M3708.12,2890.973a35.251,35.251,0,0,0-2.491,5.365c-.029.078.1.111.124.034a35.055,35.055,0,0,1,2.478-5.334.064.064,0,0,0-.111-.065" transform="translate(-3463.276 -2701.873)" fill="#fff"/>
        <path id="Trazado_894575" data-name="Trazado 894575" d="M3187.087,2770.491c-.687-.1-1.374-.219-2.064-.3a2.22,2.22,0,0,0-1.607.261c-.067.047,0,.159.065.111a2.32,2.32,0,0,1,1.726-.219c.616.087,1.231.182,1.847.274.081.012.116-.112.034-.124" transform="translate(-2975.192 -2588.98)" fill="#ff8287"/>
        <path id="Trazado_894576" data-name="Trazado 894576" d="M3315.858,2735.89a6.223,6.223,0,0,0-1.683.365c-.077.028-.044.153.034.124a6.1,6.1,0,0,1,1.649-.36c.082-.006.083-.135,0-.129" transform="translate(-3097.386 -2556.961)" fill="#ff8287"/>
        <path id="Trazado_894577" data-name="Trazado 894577" d="M3240.678,2780.837a13.308,13.308,0,0,0-2.527.574,11.445,11.445,0,0,0-1.855.931,9.782,9.782,0,0,1-4.078,1.758c-.082.006-.083.135,0,.129a9.115,9.115,0,0,0,3.881-1.619,12.729,12.729,0,0,1,2.04-1.057,13.044,13.044,0,0,1,2.574-.592c.082-.013.047-.137-.034-.124" transform="translate(-3020.771 -2598.968)" fill="#ff8287"/>
        <path id="Trazado_894578" data-name="Trazado 894578" d="M3066.028,2831.19a33.86,33.86,0,0,0-5.906.692,5.991,5.991,0,0,0-3.841,2.705c-.04.073.071.138.111.065a5.982,5.982,0,0,1,3.992-2.7,37.107,37.107,0,0,1,5.643-.63c.082-.007.083-.135,0-.129" transform="translate(-2856.391 -2646.028)" fill="#ff8287"/>
        <path id="Trazado_894579" data-name="Trazado 894579" d="M3021.266,2783.547a5.167,5.167,0,0,0-2.2,1.54c-.593.842-.337,2.407-1.68,2.521-.082.007-.083.136,0,.129a1.368,1.368,0,0,0,1.026-.565,5.653,5.653,0,0,0,.477-1.462,4.108,4.108,0,0,1,2.44-2.052c.075-.034.01-.145-.064-.111" transform="translate(-2819.99 -2601.496)" fill="#ff8287"/>
        <path id="Trazado_894580" data-name="Trazado 894580" d="M2970.546,2917.561a3.013,3.013,0,0,0-1.17,4.059c.039.073.15.008.111-.065a2.882,2.882,0,0,1,1.124-3.883.064.064,0,0,0-.065-.111" transform="translate(-2774.838 -2726.742)" fill="#ff8287"/>
        <path id="Trazado_894581" data-name="Trazado 894581" d="M3398.977,2760.378a1.187,1.187,0,0,0-1.024.7,1.347,1.347,0,0,0,.126,1.187,2.609,2.609,0,0,1,.326.814.915.915,0,0,1-.347.8,10.248,10.248,0,0,0-1.015.812c-.386.451-.246,1.011-.422,1.536a1.5,1.5,0,0,1-1.827.77c-1.309-.273-2.4-1.177-3.738-1.382a2.579,2.579,0,0,0-2.7,1.074c-.04.073.071.138.111.065a2.564,2.564,0,0,1,2.919-.94c1.24.306,2.323,1.177,3.6,1.345a1.781,1.781,0,0,0,1.362-.328,1.551,1.551,0,0,0,.495-1.172,1.49,1.49,0,0,1,.317-.906,3.167,3.167,0,0,1,.552-.451,1.985,1.985,0,0,0,.756-.752c.208-.479-.069-.933-.277-1.356a1.256,1.256,0,0,1-.152-.99,1.062,1.062,0,0,1,.939-.707c.083,0,.083-.133,0-.129" transform="translate(-3166.749 -2579.848)" fill="#ff8287"/>
        <path id="Trazado_894582" data-name="Trazado 894582" d="M3228.538,2888.731a7.565,7.565,0,0,1-2.153-.128,8.464,8.464,0,0,1-.949-.192,4.09,4.09,0,0,1-.958-.463,5.566,5.566,0,0,0-3.406-.824c-.082.007-.083.136,0,.129a5.342,5.342,0,0,1,1.943.176,9.188,9.188,0,0,1,1.8.864,5.429,5.429,0,0,0,1.72.465,7.219,7.219,0,0,0,2.007.1c.081-.01.082-.138,0-.129" transform="translate(-3010.355 -2698.285)" fill="#ff8287"/>
        <path id="Trazado_894583" data-name="Trazado 894583" d="M3089.691,2940.1a5.08,5.08,0,0,1-3.73,1.22,7.733,7.733,0,0,1-3.562-1.585,5.458,5.458,0,0,0-3.317-1.194,9.547,9.547,0,0,0-2.1.52,11.14,11.14,0,0,1-2.377.49,5.563,5.563,0,0,1-4.551-1.5c-.057-.06-.148.031-.091.091a5.347,5.347,0,0,0,3.631,1.555,8.749,8.749,0,0,0,2.326-.219c.81-.177,1.581-.484,2.385-.678a3.853,3.853,0,0,1,2.252.083,8.562,8.562,0,0,1,1.782.963,8.13,8.13,0,0,0,3.434,1.584,5.212,5.212,0,0,0,4.014-1.238c.063-.055-.029-.146-.091-.091" transform="translate(-2869.165 -2745.886)" fill="#ff8287"/>
        <path id="Trazado_894584" data-name="Trazado 894584" d="M3402.355,2927.612a6.282,6.282,0,0,0-4.164,1.125c-.067.047,0,.159.065.111a6.173,6.173,0,0,1,4.1-1.107c.083.007.082-.121,0-.128" transform="translate(-3175.921 -2736.123)" fill="#ff8287"/>
        <path id="Trazado_894585" data-name="Trazado 894585" d="M3312.524,3000.73a7.186,7.186,0,0,0-2.876.736,4.188,4.188,0,0,1-1.615.489,9.389,9.389,0,0,1-1.59-.077c-.082-.009-.082.12,0,.129a5.418,5.418,0,0,0,2.868-.235,12.007,12.007,0,0,1,1.513-.635,7.009,7.009,0,0,1,1.7-.278c.083,0,.083-.132,0-.129" transform="translate(-3090.144 -2804.481)" fill="#ff8287"/>
        <path id="Trazado_894586" data-name="Trazado 894586" d="M3532,3000.726a9.87,9.87,0,0,1-4.925-.184c-.732-.187-1.441-.462-2.175-.641a2.068,2.068,0,0,0-1.689.162c-.068.045,0,.157.065.111a2.432,2.432,0,0,1,2.127.007c.733.234,1.467.46,2.22.625a9.484,9.484,0,0,0,4.412.045.064.064,0,0,0-.034-.124" transform="translate(-3292.76 -2803.61)" fill="#ff8287"/>
        <path id="Trazado_894587" data-name="Trazado 894587" d="M3654.543,2838.724a3.794,3.794,0,0,0-1.722-.982c-.075-.033-.141.078-.065.111a4.9,4.9,0,0,1,1.552.787,2.313,2.313,0,0,1,.36,2.035c-.017.081.107.115.124.034a2.649,2.649,0,0,0-.248-1.985" transform="translate(-3413.832 -2652.146)" fill="#ff8287"/>
        <path id="Trazado_894588" data-name="Trazado 894588" d="M3628.709,2766.843c-.06-.057-.151.034-.091.091a1.55,1.55,0,0,1,.388,1.674c-.029.078.1.111.124.034a1.675,1.675,0,0,0-.421-1.8" transform="translate(-3391.286 -2585.873)" fill="#ff8287"/>
        <path id="Trazado_894589" data-name="Trazado 894589" d="M3702.753,2795.809a7.015,7.015,0,0,1-2.152-.221.064.064,0,0,0-.034.124,7.136,7.136,0,0,0,2.187.225c.083,0,.083-.133,0-.129" transform="translate(-3458.504 -2612.753)" fill="#ff8287"/>
        <path id="Trazado_894590" data-name="Trazado 894590" d="M3062.074,2992.23a2.431,2.431,0,0,1-1-.356,6.382,6.382,0,0,0-.783-.33,5.127,5.127,0,0,0-1.809-.291,4.174,4.174,0,0,0-1.607.388,3.6,3.6,0,0,1-1.911.552c-.082-.01-.081.118,0,.129a2.787,2.787,0,0,0,1.535-.361,4.933,4.933,0,0,1,1.983-.579,5.1,5.1,0,0,1,1.932.343,5.558,5.558,0,0,0,1.657.635c.083,0,.083-.126,0-.129" transform="translate(-2855.113 -2795.621)" fill="#ff8287"/>
        <path id="Trazado_894591" data-name="Trazado 894591" d="M3186.677,3010.451a3.621,3.621,0,0,1-1.992,0,.064.064,0,0,0-.034.124,3.755,3.755,0,0,0,2.061,0,.064.064,0,0,0-.034-.124" transform="translate(-2976.33 -2813.562)" fill="#ff8287"/>
        <path id="Trazado_894592" data-name="Trazado 894592" d="M3729.47,1489.083c-1.335-.777-4.2-1.877-6.9,3l-13.479,24.36c-4.525,8.178-11.318,24.479-18.283,37.872s-18.295,34.875-17.115,35.561,13.351-20.3,20.99-33.3,17.8-27.34,22.325-35.518l13.479-24.36c2.7-4.88.314-6.836-1.021-7.614" transform="translate(-3433.356 -1391.057)" fill="#78b5ff"/>
        <path id="Trazado_894593" data-name="Trazado 894593" d="M4009.774,1756.717c-3.206,5.415-6.131,10.992-8.875,16.654s-5.313,11.422-7.813,17.2q-2.106,4.868-4.169,9.754c-.032.075.079.141.111.065,2.463-5.8,4.928-11.6,7.509-17.344s5.274-11.434,8.2-17.009q2.46-4.692,5.151-9.257a.064.064,0,0,0-.111-.065" transform="translate(-3728.034 -1641.798)" fill="#fff"/>
        <path id="Trazado_894594" data-name="Trazado 894594" d="M4334.753,1655.039a36,36,0,0,0-1.97,3.654c-.035.075.076.14.111.065a36.086,36.086,0,0,1,1.971-3.654c.044-.071-.068-.135-.111-.065" transform="translate(-4049.41 -1546.77)" fill="#fff"/>
        <path id="Trazado_894595" data-name="Trazado 894595" d="M4582.068,3211.1c.013,1.309-.191,4.388-.162,4.939.049.915-2.423,1.122-2.514-.272-.085-1.323-.315-3.365-.351-4.459-.044-1.353,3.019-.956,3.026-.208" transform="translate(-4279.57 -3000.453)" fill="#ffb76e"/>
        <path id="Trazado_894596" data-name="Trazado 894596" d="M4516.673,3277.492c.635.335.851,2.584.45,3.061s-2.016.4-4.79.286c-1.318-.055-3.5-.167-3.369-.95.249-1.535,1.736-.83,3.473-2.183.9-.7,1.042-1.113,1.5-.527,1.08,1.373,1.7-.229,2.732.313" transform="translate(-4214.07 -3062.589)" fill="#1a6cc7"/>
        <path id="Trazado_894597" data-name="Trazado 894597" d="M4528.567,2135.3c2.36,9.768-5.654,31.185-6.718,37.364s-1.5,30.207-1.668,32.607-7.67,2.162-8.043.8-3.182-26.867-3.18-32.711,2.475-34.259,3.465-37.184,15.527-3.426,16.144-.874" transform="translate(-4214.071 -1994.105)" fill="#1a6cc7"/>
        <path id="Trazado_894598" data-name="Trazado 894598" d="M5019.06,3193.351c.509,1.207,1.487,4.134,1.724,4.632.393.827-1.817,1.957-2.429.7-.581-1.192-1.568-2.993-2.016-3.993-.554-1.236,2.431-2.029,2.721-1.34" transform="translate(-4688.203 -2984.266)" fill="#ffb76e"/>
        <path id="Trazado_894599" data-name="Trazado 894599" d="M4994.515,3256.884c.712.089,1.709,2.116,1.5,2.7s-1.744,1.088-4.379,1.96c-1.253.415-3.33,1.08-3.487.3-.31-1.524,1.331-1.39,2.477-3.27.592-.97.582-1.41,1.22-1.024,1.5.9,1.513-.817,2.667-.673" transform="translate(-4661.887 -3043.874)" fill="#1a6cc7"/>
        <path id="Trazado_894600" data-name="Trazado 894600" d="M4718.635,2162.241c2.594,9.174,1.27,23.842,2.656,33.791.877,6.3,6.39,31.045,6.8,33.453s-6.946,3.912-7.635,2.652-7.221-20.927-10.833-31.182c-2.612-7.417-8.023-25.1-6.8-37.473.308-3.112,15.086-3.807,15.811-1.241" transform="translate(-4395.09 -2019.362)" fill="#1a6cc7"/>
        <path id="Trazado_894601" data-name="Trazado 894601" d="M4575.374,1585.834c.206,5.206-27.751,3.8-27.172-1.274,1.771-15.509-1.859-37.992,1.551-41.943,2.213-2.564,20.771-3.568,25.347.9,3.011,2.941-.715,17.29.274,42.317" transform="translate(-4250.739 -1439.685)" fill="#45b5ff"/>
        <path id="Trazado_894602" data-name="Trazado 894602" d="M4523.468,1538.463c-.442.841-2.88,4.918-5.5,21.688s-2.342,38.452-2.623,39.51-3.654.121-3.842-1.659,1.33-25.96,1.555-35.688.014-18.924,2.189-21.526,8.225-2.326,8.225-2.326" transform="translate(-4216.43 -1437.839)" fill="#fff"/>
        <path id="Trazado_894603" data-name="Trazado 894603" d="M4620.105,1534.611a6.617,6.617,0,0,0-3.128.516,33.193,33.193,0,0,0-1.817,5.713c.193.02,1.522-.165,1.521-.115s-1.771,1.046-1.784,1.389c-.358,9.353.474,9.414.474,9.414,2.713-10.663,4.735-16.917,4.735-16.917" transform="translate(-4312.997 -1434.211)" fill="#edf5ff"/>
        <path id="Trazado_894604" data-name="Trazado 894604" d="M4681.071,1506.6a5.11,5.11,0,0,1,1.387,2.2,7.506,7.506,0,0,1-3.723,5.3c-.261.116-2.649-2.333-2.99-2.542s-2.261,1.681-2.531,1.462.974-5.252,1.906-6.122,5.555-.476,5.951-.3" transform="translate(-4367.549 -1407.842)" fill="#5ebfff"/>
        <path id="Trazado_894605" data-name="Trazado 894605" d="M4779.294,1526.515c-.832.878-3.009,22.795-1.646,36.755s2.393,23.142,2.768,24.266,10.9-1.106,10.9-2.37-1.832-13.023-1.48-22.369,2.033-24.847,1.295-29.133-3.636-5.305-5.288-5.9-6-1.824-6.549-1.246" transform="translate(-4464.778 -1426.539)" fill="#fff"/>
        <path id="Trazado_894606" data-name="Trazado 894606" d="M4782.411,1522.543a6.354,6.354,0,0,1,2.751.118c.466.369.828,4.966.539,5.016s-2.273.418-2.3.468,1.887.828,1.733,1.171c-4.183,9.37-4.354,10.605-4.354,10.605a123.292,123.292,0,0,1,1.627-17.379" transform="translate(-4468.119 -1422.872)" fill="#edf5ff"/>
        <path id="Trazado_894607" data-name="Trazado 894607" d="M4830.892,2201.868c-.049-1.288-.129-2.575-.193-3.863,0-.083-.133-.083-.129,0q.094,1.869.188,3.738c.016.328.042.653-.3.832a3.939,3.939,0,0,1-.791.24q-.9.245-1.8.478t-1.81.454c-.265.065-.862.312-1.094.089-.186-.178-.192-.533-.225-.772q-.263-1.884-.525-3.769c-.012-.082-.136-.047-.125.034q.241,1.727.481,3.455c.048.347.027.875.3,1.143s.729.063,1.039-.012q1.662-.4,3.314-.846a5.742,5.742,0,0,0,1.339-.4.769.769,0,0,0,.333-.8" transform="translate(-4508.587 -2054.197)" fill="#b0d3ff"/>
        <path id="Trazado_894608" data-name="Trazado 894608" d="M4565.56,1941.123q-1.108,12.273-1.369,24.6-.073,3.447-.078,6.9a.064.064,0,0,0,.129,0q.022-12.323.893-24.625.244-3.439.555-6.873c.007-.082-.122-.082-.129,0" transform="translate(-4265.617 -1814.115)" fill="#b0d3ff"/>
        <path id="Trazado_894609" data-name="Trazado 894609" d="M4620.78,1550.844a19.945,19.945,0,0,0-1.645,5.123c-.017.092.124.131.14.039a19.873,19.873,0,0,1,1.63-5.088c.041-.084-.085-.158-.125-.074" transform="translate(-4317.04 -1449.383)" fill="#b0d3ff"/>
        <path id="Trazado_894610" data-name="Trazado 894610" d="M4614.414,1649.04q-.04,2.4-.081,4.8a.073.073,0,0,0,.146,0q.04-2.4.081-4.8a.073.073,0,0,0-.146,0" transform="translate(-4312.553 -1541.126)" fill="#b0d3ff"/>
        <path id="Trazado_894611" data-name="Trazado 894611" d="M4967.653,1771.587c.26-3.076.56-6.148.862-9.22.009-.093-.137-.093-.146,0-.539,5.484-1.073,10.97-1.379,16.473a131.027,131.027,0,0,0,0,16.39,86.707,86.707,0,0,0,1.105,9.092c.016.092.157.053.141-.039a95.587,95.587,0,0,1-1.357-16.346c-.02-5.459.314-10.912.773-16.35" transform="translate(-4641.907 -1647.043)" fill="#b0d3ff"/>
        <path id="Trazado_894612" data-name="Trazado 894612" d="M4917.194,2429.11a16.289,16.289,0,0,1-4.954,1.677c-.092.02-.053.16.039.141a16.4,16.4,0,0,0,4.989-1.692.073.073,0,0,0-.074-.126" transform="translate(-4590.928 -2270.235)" fill="#b0d3ff"/>
        <path id="Trazado_894613" data-name="Trazado 894613" d="M4387.658,1526.747a6.691,6.691,0,0,1-3.893-2.288c-.8-1.176.415-3.754,1.126-3.98.863-.274.6,1.551,1.55,1.808s2.736.778,2.988,2.433c.143.94-.4,2.271-1.771,2.027" transform="translate(-4096.82 -1421.013)" fill="#ffc891"/>
        <path id="Trazado_894614" data-name="Trazado 894614" d="M4456.369,1582.566c-5.32,3.7-11.164,7.384-17.31,7.016-5.217-.313-13.367-16.045-13.529-17.167s2.565-2.894,3.648-2.342,8.87,11.18,11.6,11.358c1.088.071,8.722-7.955,14.467-11.662,6.265-4.043,11.526,5.564,1.121,12.8" transform="translate(-4136.092 -1466.208)" fill="#edf5ff"/>
        <path id="Trazado_894615" data-name="Trazado 894615" d="M4455.945,1677.793a12.864,12.864,0,0,1-5.137-4.177,61.542,61.542,0,0,1-4.2-6.276q-1.185-1.948-2.285-3.945c-.045-.082-.172-.009-.126.074q2.017,3.654,4.31,7.146a26.177,26.177,0,0,0,4.308,5.379,10.653,10.653,0,0,0,3.087,1.94c.087.035.125-.106.039-.141" transform="translate(-4153.539 -1554.575)" fill="#b0d3ff"/>
        <path id="Trazado_894616" data-name="Trazado 894616" d="M4681.354,1730.458a39.371,39.371,0,0,1-13.917,8.825q-1.091.4-2.2.738a5.088,5.088,0,0,1-2.641.3c-.092-.022-.13.119-.039.141,1.362.321,2.844-.317,4.116-.755a39.392,39.392,0,0,0,14.788-9.15c.067-.066-.036-.169-.1-.1" transform="translate(-4357.572 -1617.265)" fill="#b0d3ff"/>
        <path id="Trazado_894617" data-name="Trazado 894617" d="M4887.615,1692.552a18.533,18.533,0,0,1-4.573,4.554c-.077.053,0,.18.074.126a18.732,18.732,0,0,0,4.625-4.606c.054-.077-.072-.15-.126-.074" transform="translate(-4563.659 -1581.828)" fill="#b0d3ff"/>
        <path id="Trazado_894618" data-name="Trazado 894618" d="M4509.657,1616.608c-.738.211-1.389-.4-1.917-.831q-.661-.536-1.292-1.106c-.891-.8-1.74-1.652-2.559-2.528-1.628-1.743-3.136-3.593-4.642-5.441-.06-.073-.162.031-.1.1,1.616,1.984,3.235,3.969,5,5.822.873.915,1.781,1.8,2.738,2.623.446.385.9.779,1.38,1.12a1.667,1.667,0,0,0,1.431.379.073.073,0,0,0-.039-.141" transform="translate(-4204.882 -1501.599)" fill="#b0d3ff"/>
        <path id="Trazado_894619" data-name="Trazado 894619" d="M4769.107,1570.509a13.8,13.8,0,0,0-5.3,2.742,63.152,63.152,0,0,0-5.033,4.5c-.067.065.036.169.1.1,1.555-1.5,3.143-3,4.839-4.344a13.921,13.921,0,0,1,5.434-2.858c.091-.021.053-.162-.039-.141" transform="translate(-4447.524 -1467.796)" fill="#b0d3ff"/>
        <path id="Trazado_894620" data-name="Trazado 894620" d="M4703.588,1381.01s.2,6.488.03,8.785c-.046.61-.047,2.918.562,3.12.773.257,5.205-2.595,5.086-4.839-.306-5.772-.6-8.4-.6-8.4Z" transform="translate(-4395.971 -1289.444)" fill="#ffb76e"/>
        <path id="Trazado_894621" data-name="Trazado 894621" d="M4631.642,1324.009c.192,2.423-1.83,8.284-6.118,7.592-4.741-.765-4.551-8.866-4.136-10.762,1.1-5.045,4.325-3.972,6.457-2.865s3.656,4.248,3.8,6.034" transform="translate(-4318.964 -1230.913)" fill="#ffc891"/>
        <path id="Trazado_894622" data-name="Trazado 894622" d="M4616.136,1283.783c-1.77-.078-3.118-1.283-5.9-.187-1.467.577-2.56-.339-3.607,1.76-.683,1.369-.154,3.85.768,4.343a6.215,6.215,0,0,0,4.4.719c2.358-.457,3.247.117,3.294,1.269.07,1.722.307,1.858,1.265.5.394-.556.5.437.762,1.034.1.218.194.63.444.747.413.192.743-.26.89-.61a9.384,9.384,0,0,0,1.463-4.2c.287-1.465-.079-5.212-3.779-5.376" transform="translate(-4305.061 -1199.22)" fill="#541a10"/>
        <path id="Trazado_894623" data-name="Trazado 894623" d="M4755.843,1411.333c-.095.968.367,1.805,1.031,1.87s1.279-.667,1.374-1.635-.367-1.8-1.032-1.87-1.279.667-1.374,1.635" transform="translate(-4444.797 -1317.5)" fill="#ffc891"/>
        <path id="Trazado_894624" data-name="Trazado 894624" d="M4617.135,1327.735a2.782,2.782,0,0,1-1.179-3.11.064.064,0,0,0-.124-.034,2.913,2.913,0,0,0,1.238,3.256c.071.044.135-.067.065-.111" transform="translate(-4313.847 -1237.919)" fill="#802718"/>
        <path id="Trazado_894625" data-name="Trazado 894625" d="M4634.725,1352.466a2.837,2.837,0,0,1-2.593-1.668c-.034-.075-.145-.01-.111.065a2.964,2.964,0,0,0,2.7,1.732.064.064,0,0,0,0-.129" transform="translate(-4329.078 -1262.424)" fill="#802718"/>
        <path id="Trazado_894626" data-name="Trazado 894626" d="M4666.618,1359.865c-1.175-.73-3.13.017-3.966-1.29-.044-.07-.156-.005-.111.065.87,1.361,2.811.589,4.013,1.336.07.044.135-.068.064-.111" transform="translate(-4357.599 -1269.696)" fill="#802718"/>
        <path id="Trazado_894627" data-name="Trazado 894627" d="M4658.355,1332.747a.755.755,0,0,1-.129-.477c.005-.083-.124-.082-.128,0a.871.871,0,0,0,.146.542c.046.069.157,0,.111-.065" transform="translate(-4353.454 -1245.081)" fill="#802718"/>
        <path id="Trazado_894628" data-name="Trazado 894628" d="M4712.222,1361.09c-.077-.031-.11.093-.034.124,1.162.471,2.869,1.318,2.449,2.874a.064.064,0,0,0,.124.034c.44-1.634-1.31-2.534-2.539-3.033" transform="translate(-4403.968 -1272.07)" fill="#802718"/>
        <path id="Trazado_894629" data-name="Trazado 894629" d="M4750.164,1370.855c-.054-.063-.145.029-.09.091a2.782,2.782,0,0,1,.683,1.7c0,.083.133.083.129,0a2.932,2.932,0,0,0-.721-1.787" transform="translate(-4439.4 -1281.181)" fill="#802718"/>
        <path id="Trazado_894630" data-name="Trazado 894630" d="M1015.872,1523.157a3.117,3.117,0,0,0,2.934-1.668c.586-1.025.743-2.371.058-2.92-.513-.411-.814.482-2.748,1.349-2.506,1.123-1.222,3.083-.244,3.24" transform="translate(-948.3 -1419.156)" fill="#ffc891"/>
        <path id="Trazado_894631" data-name="Trazado 894631" d="M620.84,1458.4c3,5.982,12.011,17.129,16.262,15.8,2.449-.767,7.59-8.235,9.734-15.08.541-1.727-1.794-3.443-2.324-2.452-1.456,2.722-7.6,9.763-8.354,9.975-.841.238-5.619-12.369-11.027-16.367-5.162-3.816-7.414,1.894-4.291,8.126" transform="translate(-578.902 -1354.277)" fill="#edf5ff"/>
        <path id="Trazado_894632" data-name="Trazado 894632" d="M971.1,1458.042l-3.929,6.105a1.486,1.486,0,0,1-2.053.445l-25.392-16.339,5.536-8.6,25.392,16.339a1.486,1.486,0,0,1,.445,2.053" transform="translate(-878.269 -1345.496)" fill="#2e3192"/>
        <rect id="Rectángulo_401884" data-name="Rectángulo 401884" width="12.265" height="2.168" transform="translate(60.908 103.613) rotate(-57.241)" fill="#212968"/>
        <rect id="Rectángulo_401885" data-name="Rectángulo 401885" width="7.26" height="5.34" transform="matrix(0.541, -0.841, 0.841, 0.541, 88.904, 118.651)" fill="#599eff"/>
        <path id="Trazado_894633" data-name="Trazado 894633" d="M1094.965,1521q-6.989-4-13.815-8.272-1.938-1.214-3.862-2.45c-.07-.045-.135.066-.065.111q6.775,4.351,13.719,8.43,1.972,1.158,3.958,2.293a.064.064,0,0,0,.065-.111" transform="translate(-1006.744 -1411.49)" fill="#fff"/>
        <path id="Trazado_894634" data-name="Trazado 894634" d="M1214.706,1617.68l-3.875-2.232a.064.064,0,0,0-.065.111l3.875,2.232a.064.064,0,0,0,.065-.111" transform="translate(-1131.552 -1509.789)" fill="#fff"/>
        <path id="Trazado_894635" data-name="Trazado 894635" d="M1407.747,1664.064l-12.125,18.844a4.525,4.525,0,0,1-6.254,1.357l-32.927-21.187a4.525,4.525,0,0,1-1.357-6.254l12.125-18.844a4.525,4.525,0,0,1,6.254-1.357l32.926,21.187a4.525,4.525,0,0,1,1.357,6.254" transform="translate(-1265.788 -1528.914)" fill="#fff"/>
        <rect id="Rectángulo_401886" data-name="Rectángulo 401886" width="22.408" height="28.661" transform="matrix(0.541, -0.841, 0.841, 0.541, 129.834, 153.994)" fill="#2e3192"/>
        <rect id="Rectángulo_401887" data-name="Rectángulo 401887" width="16.328" height="1.452" transform="matrix(0.541, -0.841, 0.841, 0.541, 159.489, 169.46)" fill="#2e3192"/>
        <path id="Trazado_894636" data-name="Trazado 894636" d="M2353.742,2322.476l5.553-.043,8.835-13.731-2.262-5.071Z" transform="translate(-2199.806 -2152.973)" fill="#212968"/>
        <path id="Trazado_894637" data-name="Trazado 894637" d="M2219.11,2134.176q-7.14-4.184-14.036-8.765-1.969-1.309-3.917-2.649c-.069-.047-.133.064-.065.111q6.818,4.69,13.892,8.991,2.021,1.228,4.061,2.423a.064.064,0,0,0,.065-.111" transform="translate(-2057.113 -1983.922)" fill="#fff"/>
        <path id="Trazado_894638" data-name="Trazado 894638" d="M2222.383,2167.071l-5.475-3.182a.064.064,0,0,0-.065.111l5.474,3.182a.064.064,0,0,0,.065-.111" transform="translate(-2071.832 -2022.36)" fill="#fff"/>
        <path id="Trazado_894639" data-name="Trazado 894639" d="M2395.635,2393.55a47.648,47.648,0,0,0-6.173,9.509c-.036.074.075.139.111.065a47.512,47.512,0,0,1,6.153-9.482c.052-.063-.038-.155-.091-.091" transform="translate(-2233.184 -2236.99)" fill="#fff"/>
        <path id="Trazado_894640" data-name="Trazado 894640" d="M1392.165,2001.211a5.1,5.1,0,0,1-2.62-2.224.064.064,0,0,0-.111.065,5.235,5.235,0,0,0,2.7,2.284c.078.029.111-.1.034-.124" transform="translate(-1298.556 -1868.223)" fill="#d1ebff"/>
        <path id="Trazado_894641" data-name="Trazado 894641" d="M1808.418,2271.633l-6.939-4.362c-.07-.044-.135.067-.065.111l6.939,4.362c.07.044.135-.067.065-.111" transform="translate(-1683.573 -2118.981)" fill="#d1ebff"/>
        <path id="Trazado_894642" data-name="Trazado 894642" d="M1822.459,2249.049a24.634,24.634,0,0,1-3.042-2.144c-.063-.052-.155.038-.091.091a24.849,24.849,0,0,0,3.068,2.164.064.064,0,0,0,.065-.111" transform="translate(-1700.321 -2099.941)" fill="#d1ebff"/>
        <path id="Trazado_894643" data-name="Trazado 894643" d="M1270.564,1938.994h-68.441s-6.965-58.153,27.264-87.257c9.553-8.123,24.055,1.991,14.839,15.9s-19.275,36.171-10.979,45.385,22.561,2.89,31.274,7.481,6.043,18.488,6.043,18.488" transform="translate(-1122.958 -1727.923)" fill="#e3f3ff"/>
        <path id="Trazado_894644" data-name="Trazado 894644" d="M1268.468,1937.059h-68.721l-.017-.144a142.761,142.761,0,0,1,.8-32.757,109.857,109.857,0,0,1,7.78-28.673,70.59,70.59,0,0,1,18.744-25.971,11.109,11.109,0,0,1,14.673-.308c3.28,2.91,5.355,8.958.407,16.427-8.136,12.282-19.607,35.619-10.993,45.185,4.823,5.357,11.692,5.409,18.334,5.46,4.763.037,9.262.071,12.895,1.985,8.719,4.594,6.154,18.523,6.127,18.663Zm-68.43-.326H1268.2c.239-1.429,2.073-13.936-5.982-18.18-3.562-1.877-8.023-1.911-12.745-1.948-6.713-.052-13.655-.1-18.574-5.568-8.747-9.714,2.776-33.224,10.964-45.584,4.827-7.287,2.984-13.044-.351-16a10.786,10.786,0,0,0-14.245.313c-17.64,15-24.1,37.88-26.411,54.433a143.372,143.372,0,0,0-.813,32.537" transform="translate(-1120.728 -1725.825)" fill="#5cbaff"/>
        <path id="Trazado_894645" data-name="Trazado 894645" d="M1655.085,1923.8a5.569,5.569,0,1,0,5.569-5.569,5.569,5.569,0,0,0-5.569,5.569" transform="translate(-1546.842 -1792.78)" fill="#599eff"/>
        <path id="Trazado_894646" data-name="Trazado 894646" d="M1195.565,3227.36h-72.844a3.963,3.963,0,0,0-3.963,3.963v3.3h19.33v-.8a2.014,2.014,0,0,1,2.014-2.014h38.081a2.014,2.014,0,0,1,2.013,2.014v.8h19.33v-3.3a3.963,3.963,0,0,0-3.962-3.963" transform="translate(-1045.592 -3016.289)" fill="#2e3192"/>
        <path id="Trazado_894647" data-name="Trazado 894647" d="M1288.6,1989.557a65.471,65.471,0,0,0-7.406,9.353,74.7,74.7,0,0,0-5.724,10.55,88.8,88.8,0,0,0-4.11,11.292,105.611,105.611,0,0,0-2.708,11.892c-.674,3.979-1.139,7.993-1.419,12.019q-.052.753-.1,1.506c0,.083.124.083.129,0,.237-4.048.654-8.086,1.282-12.093a107.812,107.812,0,0,1,2.51-11.782,90.59,90.59,0,0,1,3.946-11.44,76.192,76.192,0,0,1,5.469-10.578,65.939,65.939,0,0,1,7.189-9.527q.507-.557,1.028-1.1c.057-.06-.034-.151-.091-.091" transform="translate(-1184.267 -1859.421)" fill="#fff"/>
        <path id="Trazado_894648" data-name="Trazado 894648" d="M1603.484,2692.983a15.584,15.584,0,0,1-3.453-11.35c.008-.082-.121-.082-.129,0a15.712,15.712,0,0,0,3.491,11.441c.053.064.143-.028.091-.091" transform="translate(-1495.199 -2506.196)" fill="#fff"/>
        <path id="Trazado_894649" data-name="Trazado 894649" d="M1324.92,3182.385l-22.134.148-22.07.147-12.418.083a.064.064,0,0,0,0,.129l22.134-.148,22.07-.147,12.418-.083a.064.064,0,0,0,0-.129" transform="translate(-1185.293 -2974.255)" fill="#d1ebff"/>
        <path id="Trazado_894650" data-name="Trazado 894650" d="M1900.3,3166.371l-14.522-.112-4.158-.032a.064.064,0,0,0,0,.129l14.522.112,4.158.032a.064.064,0,0,0,0-.129" transform="translate(-1758.507 -2959.154)" fill="#d1ebff"/>
        <path id="Trazado_894651" data-name="Trazado 894651" d="M1749.04,2010.826c0-.083-.132-.083-.129,0a9.883,9.883,0,0,1-.987,4.282,41.076,41.076,0,0,1-1.969,3.85c-1.468,2.585-3.061,5.1-4.609,7.638l-2.709,4.44c-.043.071.068.136.111.065l4.883-8a68.563,68.563,0,0,0,4.356-7.818,10.165,10.165,0,0,0,1.052-4.456" transform="translate(-1624.921 -1879.259)" fill="#d1ebff"/>
        <path id="Trazado_894652" data-name="Trazado 894652" d="M1811.188,1995.955a8.293,8.293,0,0,1-2.1,5.419c-.055.062.036.153.091.091a8.432,8.432,0,0,0,2.134-5.51.064.064,0,0,0-.129,0" transform="translate(-1690.76 -1865.36)" fill="#d1ebff"/>
        <path id="Trazado_894653" data-name="Trazado 894653" d="M524.278,3275.406a8.149,8.149,0,0,1,2.023,1.017c.57.3,2.748,1.523,2.729,2.026-.056,1.448-3.916.677-5.235.269-1.415-.439-2.094-1.007-2-1.705.059-.45.282-1.1.317-1.508.029-.331,1.126-.388,2.168-.1" transform="translate(-487.66 -3061.018)" fill="#1a6cc7"/>
        <path id="Trazado_894654" data-name="Trazado 894654" d="M531.094,3229.967c.213-.318-2.142-.75-1.978-3.678.118-2.1-2.511-.955-2.477-.063.048,1.3-.031,2.038.048,2.8.145,1.41,3.792,1.86,4.407.94" transform="translate(-492.196 -3014.177)" fill="#ffb76e"/>
        <path id="Trazado_894655" data-name="Trazado 894655" d="M465.705,2030.8c2.945,7.439-.843,22.954-2.9,34.1-2.04,11.037-6.522,34.73-6.361,37.879.092,1.8-6.844,3.076-6.949,1.08-.2-3.811-1.253-22.084,1.511-35.857,3.8-18.946-6.277-25.055-3.3-35.5s14.969-9.372,18-1.7" transform="translate(-417.899 -1892.427)" fill="#1a6cc7"/>
        <path id="Trazado_894656" data-name="Trazado 894656" d="M598.2,3234.209a8.14,8.14,0,0,1,.948,2.056c.261.587,1.2,2.9.871,3.286-.946,1.1-3.485-1.911-4.262-3.053-.833-1.225-1.01-2.093-.5-2.581.327-.315.908-.687,1.188-.982.229-.241,1.122.4,1.757,1.274" transform="translate(-556.056 -3021.452)" fill="#1a6cc7"/>
        <path id="Trazado_894657" data-name="Trazado 894657" d="M615.328,3203.465c.365-.117-.858-2.556.311-4.239,1.2-1.73-1.6-2.407-1.943-1.582a13.232,13.232,0,0,1-1.229,2.339c-.766,1.193,1.806,3.818,2.861,3.481" transform="translate(-572.28 -2988.19)" fill="#ffc891"/>
        <path id="Trazado_894658" data-name="Trazado 894658" d="M565.636,2048.942c3.117,6.674,11.383,29.414,10.2,37.412-1.641,11.1-14.537,33.748-15.665,35.557-1.117,1.792-7.308-.933-6.512-2.766,1.183-2.723,7.8-22.91,10.571-29.879,2.061-5.175-17.007-25.653-13.847-36.045s11.71-11.861,15.251-4.279" transform="translate(-514.058 -1910.479)" fill="#1a6cc7"/>
        <path id="Trazado_894659" data-name="Trazado 894659" d="M562.081,2267.407c-1.082-2.073-2.376-4.042-3.631-6.014a86.106,86.106,0,0,1-6.781-11.91,30.2,30.2,0,0,1-2.174-7.34c-.013-.082-.137-.047-.124.034a36.551,36.551,0,0,0,4.708,12.363c2.238,3.937,4.844,7.648,7.127,11.557,1.39,2.38,2.7,5.076,2.3,7.911-.011.081.112.116.124.034a11.132,11.132,0,0,0-1.55-6.636" transform="translate(-513.44 -2095.462)" fill="#1e7be3"/>
        <path id="Trazado_894660" data-name="Trazado 894660" d="M712.029,1259.406c1.249,2.6,4.046,6.271,7.552,5.7,3.92-.636,3.726-9.127,2.245-11.641-2.483-4.214-7.929-2.947-9.551-.777-1.222,1.634-1.288,4.548-.246,6.716" transform="translate(-664.78 -1168.886)" fill="#ffc891"/>
        <path id="Trazado_894661" data-name="Trazado 894661" d="M676.952,1353.2c-1.084,2.933-2.688,6.135-3.187,7.9-.737,2.61-6.115-.258-5.2-1.951.709-1.309,3.23-7,4.426-9.677.425-.95,4.32,2.752,3.96,3.728" transform="translate(-624.744 -1261.067)" fill="#ffb76e"/>
        <path id="Trazado_894662" data-name="Trazado 894662" d="M691.277,1216.026a10.761,10.761,0,0,1-1.928-5.2c-.405-4.085,2.936-8.011,7.16-7.031,8.959,2.078,8.156,6.267,5.543,8.155-1.4,1.014-3.293.344-4.057,1.954s-1.962.884-2.664,2.681c-.369.945-2.922.641-4.054-.561" transform="translate(-644.233 -1124.926)" fill="#ffbb52"/>
        <path id="Trazado_894663" data-name="Trazado 894663" d="M780.651,1360.122c.269,1.318,1.244,2.062,1.868,1.87.3-.093.655-.539.662-1.885s-.642-2.2-1.5-2.087a1.65,1.65,0,0,0-1.026,2.1" transform="translate(-729.547 -1269.195)" fill="#ffc891"/>
        <path id="Trazado_894664" data-name="Trazado 894664" d="M472.723,1448.62c1.429-3.171,6.537-3.445,9.743-1.76,3.763,1.977,6.191,8.1,6.66,13.258.522,5.74-3.045,6.793-3.54,9.354-1.643,8.5-.56,11.285-1.641,19.219-.644,4.724-22.409,6.157-20.772-1.027,4.263-18.706,6.566-32.424,9.55-39.043" transform="translate(-432.799 -1351.28)" fill="#fbe3bf"/>
        <path id="Trazado_894665" data-name="Trazado 894665" d="M428.6,1490.356c-.071,1.64,3.766.336,7.964,1.5s15.214,2.4,16.443.047c.851-2.956-.444-15.24,1.218-25.248.853-5.133,4.627-17.077.8-22.236-2.966-4-11.217-6.5-14.526-1.657-2.827,4.139-4.215,14-6.816,22.415s-4.71,16.6-5.083,25.181" transform="translate(-400.569 -1345.916)" fill="#fff"/>
        <path id="Trazado_894666" data-name="Trazado 894666" d="M706.714,2044.958a35.454,35.454,0,0,0,.246,3.724c.141.141,6.64.176,6.781-.281a12.665,12.665,0,0,0-.5-3.355c-.132-.229-6.542-.544-6.527-.088" transform="translate(-660.494 -1910.999)" fill="#edf5ff"/>
        <path id="Trazado_894667" data-name="Trazado 894667" d="M707.807,2056.387c-.274-.153-.265-.494-.277-.769-.012-.294-.023-.588-.035-.882q-.035-.882-.069-1.765c0-.083-.132-.083-.129,0l.089,2.269c.016.4-.064,1.024.356,1.258.072.04.137-.071.065-.111" transform="translate(-661.039 -1918.649)" fill="#b8d7ff"/>
        <path id="Trazado_894668" data-name="Trazado 894668" d="M789.394,1843.059a46.7,46.7,0,0,0-1.1,9.364.064.064,0,0,0,.129,0,46.516,46.516,0,0,1,1.094-9.33c.018-.081-.106-.115-.124-.034" transform="translate(-736.74 -1722.479)" fill="#b8d7ff"/>
        <path id="Trazado_894669" data-name="Trazado 894669" d="M439.008,1536.145q-2.323,8.5-4.644,17.007c-1.519,5.6-2.981,11.226-4.032,16.937-.581,3.156-1.033,6.337-1.3,9.536-.008.094.138.093.146,0a115.708,115.708,0,0,1,2.922-17.106c1.339-5.612,2.909-11.167,4.429-16.732l2.624-9.6a.073.073,0,0,0-.141-.039" transform="translate(-400.97 -1435.632)" fill="#b8d7ff"/>
        <path id="Trazado_894670" data-name="Trazado 894670" d="M1128.829,1613.033a3.117,3.117,0,0,0,3.131-1.261c.718-.938,1.053-2.25.447-2.886-.453-.476-.871.369-2.9.969-2.634.777-1.623,2.892-.675,3.178" transform="translate(-1054.06 -1503.532)" fill="#ffc891"/>
        <path id="Trazado_894671" data-name="Trazado 894671" d="M743.541,1493.417c2.171,6.329,9.614,18.58,14,17.828,2.53-.433,8.623-7.147,11.662-13.644.767-1.64-1.318-3.652-1.976-2.74-1.806,2.5-8.84,8.659-9.613,8.769-.865.124-3.916-13.009-8.741-17.693-4.606-4.472-7.6.886-5.338,7.48" transform="translate(-694.192 -1387.217)" fill="#edf5ff"/>
        <path id="Trazado_894672" data-name="Trazado 894672" d="M764.382,1636.081a22.739,22.739,0,0,1-5.4-5.962,62.164,62.164,0,0,1-4.385-7.051,21.828,21.828,0,0,1-1.7-4.447.064.064,0,0,0-.124.034,27.149,27.149,0,0,0,3.54,7.663c.765,1.216,1.568,2.409,2.377,3.6.748,1.1,1.519,2.185,2.372,3.206a17.2,17.2,0,0,0,3.262,3.072c.068.048.132-.064.065-.111" transform="translate(-703.532 -1512.72)" fill="#b8d7ff"/>
        <path id="Trazado_894673" data-name="Trazado 894673" d="M996.383,1747.037a28.949,28.949,0,0,1-7.8,8.967c-.065.049,0,.161.065.111a29.1,29.1,0,0,0,7.849-9.013c.04-.073-.071-.137-.111-.065" transform="translate(-923.901 -1632.75)" fill="#b8d7ff"/>
        <path id="Trazado_894674" data-name="Trazado 894674" d="M562.916,1231.968c-1.118-1.2-3.846-1.813-6.542-.8-2.752,1.035-1.944,2.9-4.579,5-1.937,1.549-2.307,4.638.6,7.05,2.5,2.075-1.093,4.945-.14,6.23s7.526-.212,8.1-3.748-2.155-6.168-.281-6.98-1.392-3.619,2.014-4.415c.55-.129,1.672-1.438.827-2.343" transform="translate(-514.288 -1150.173)" fill="#ffb23b"/>
        <path id="Trazado_894675" data-name="Trazado 894675" d="M572.838,1251.4a3.7,3.7,0,0,0-1.971,1.733c-.249.472-.408.984-.651,1.459A7.264,7.264,0,0,1,569.2,1256a6.36,6.36,0,0,0-1.57,2.435,2.175,2.175,0,0,0,.537,2.151c.061.056.152-.035.091-.091a2.185,2.185,0,0,1-.331-2.516,10.4,10.4,0,0,1,1.657-2.236,6.161,6.161,0,0,0,.74-1.088c.208-.407.355-.842.55-1.255a3.619,3.619,0,0,1,2-1.878c.077-.029.043-.154-.034-.124" transform="translate(-530.434 -1169.553)" fill="#e39b2d"/>
        <path id="Trazado_894676" data-name="Trazado 894676" d="M598.314,1249.2a5.813,5.813,0,0,0-3.6.871,3.383,3.383,0,0,0-1.019,1.137,6.107,6.107,0,0,0-.457,1.764,3.409,3.409,0,0,1-1.043,1.791,4.348,4.348,0,0,0-.981,1.341,3.646,3.646,0,0,0,.462,3.382,8.132,8.132,0,0,1,1.074,2.08,3.224,3.224,0,0,1-.586,2.494.064.064,0,0,0,.111.065,4.456,4.456,0,0,0,.673-1.642,3.081,3.081,0,0,0-.359-1.7c-.575-1.193-1.575-2.2-1.491-3.613a3.158,3.158,0,0,1,.767-1.867,13.129,13.129,0,0,0,1.094-1.229,4.361,4.361,0,0,0,.515-1.726,3.214,3.214,0,0,1,.785-1.706,5.179,5.179,0,0,1,4.051-1.311.064.064,0,0,0,0-.129" transform="translate(-552.328 -1167.501)" fill="#e39b2d"/>
        <path id="Trazado_894677" data-name="Trazado 894677" d="M592.422,1492.415l-.4.621c-.045.07.067.135.111.065l.4-.62c.045-.07-.067-.135-.111-.065" transform="translate(-553.297 -1394.782)" fill="#e39b2d"/>
        <path id="Trazado_894678" data-name="Trazado 894678" d="M622.166,1269.79a2.691,2.691,0,0,0-1.928,1.628,13.132,13.132,0,0,1-.531,1.671,11.691,11.691,0,0,1-.94,1.3,3.916,3.916,0,0,0-.7,2.965,20.187,20.187,0,0,1,.508,3.613,6.075,6.075,0,0,1-1.477,3.626c-.054.062.037.154.091.091a6.217,6.217,0,0,0,1.364-2.663,7.2,7.2,0,0,0-.071-3.168,5.758,5.758,0,0,1-.025-3.724c.427-.881,1.26-1.506,1.576-2.45a5.649,5.649,0,0,1,.665-1.806,2.58,2.58,0,0,1,1.507-.954c.081-.018.047-.142-.034-.124" transform="translate(-576.72 -1186.744)" fill="#e39b2d"/>
        <path id="Trazado_894679" data-name="Trazado 894679" d="M667.9,1288.857a2.535,2.535,0,0,0-.738,1.455,10.8,10.8,0,0,1-.019,1.781c-.111.358-.418.5-.653.759a1.722,1.722,0,0,0-.333.567,4.266,4.266,0,0,0-.155,1.646c0,.083.132.083.129,0a4.131,4.131,0,0,1,.151-1.611,1.709,1.709,0,0,1,.552-.738,1.229,1.229,0,0,0,.4-.5,3.762,3.762,0,0,0,.032-1.482,2.4,2.4,0,0,1,.721-1.781.064.064,0,0,0-.091-.091" transform="translate(-622.429 -1204.547)" fill="#e39b2d"/>
        <path id="Trazado_894680" data-name="Trazado 894680" d="M656.586,1404.747c-.03-.076-.155-.043-.124.034a4.431,4.431,0,0,1-.73,4.468c-.053.063.037.154.091.091a4.558,4.558,0,0,0,.763-4.593" transform="translate(-612.831 -1312.836)" fill="#e39b2d"/>
      </g>
    </g>
    <g id="Grupo_1101953" data-name="Grupo 1101953" transform="translate(186.778 94.984)">
      <g id="Grupo_1101952" data-name="Grupo 1101952" clip-path="url(#clip-path-2)">
        <rect id="Rectángulo_401889" data-name="Rectángulo 401889" width="12.073" height="12.073" transform="translate(-3.669 7.037) rotate(-62.467)" fill="url(#linear-gradient)"/>
      </g>
    </g>
    <g id="Grupo_1101955" data-name="Grupo 1101955" transform="translate(190.296 101.163)">
      <g id="Grupo_1101954" data-name="Grupo 1101954" clip-path="url(#clip-path-3)">
        <rect id="Rectángulo_401890" data-name="Rectángulo 401890" width="15.196" height="14.769" transform="translate(-4.759 9.129) rotate(-62.467)" fill="url(#linear-gradient-2)"/>
      </g>
    </g>
    <g id="Grupo_1101957" data-name="Grupo 1101957" transform="translate(177.565 100.705)">
      <g id="Grupo_1101956" data-name="Grupo 1101956" clip-path="url(#clip-path-4)">
        <rect id="Rectángulo_401891" data-name="Rectángulo 401891" width="19.845" height="19.092" transform="translate(-6.279 12.045) rotate(-62.467)" fill="url(#linear-gradient-3)"/>
      </g>
    </g>
    <g id="Grupo_1101959" data-name="Grupo 1101959" transform="translate(194.873 96.829)">
      <g id="Grupo_1101958" data-name="Grupo 1101958" clip-path="url(#clip-path-5)">
        <rect id="Rectángulo_401892" data-name="Rectángulo 401892" width="10.404" height="13.441" transform="translate(-2.156 4.136) rotate(-62.467)" fill="url(#linear-gradient-4)"/>
      </g>
    </g>
    <g id="Grupo_1101961" data-name="Grupo 1101961" transform="translate(206.434 94.984)">
      <g id="Grupo_1101960" data-name="Grupo 1101960" clip-path="url(#clip-path-6)">
        <rect id="Rectángulo_401893" data-name="Rectángulo 401893" width="12.073" height="12.073" transform="translate(-3.669 7.037) rotate(-62.467)" fill="url(#linear-gradient-5)"/>
      </g>
    </g>
    <g id="Grupo_1101963" data-name="Grupo 1101963" transform="translate(200.214 100.888)">
      <g id="Grupo_1101962" data-name="Grupo 1101962" clip-path="url(#clip-path-7)">
        <rect id="Rectángulo_401894" data-name="Rectángulo 401894" width="16.216" height="15.776" transform="matrix(0.462, -0.887, 0.887, 0.462, -5.073, 9.731)" fill="url(#linear-gradient-6)"/>
      </g>
    </g>
    <g id="Grupo_1101965" data-name="Grupo 1101965" transform="translate(211.109 100.65)">
      <g id="Grupo_1101964" data-name="Grupo 1101964" clip-path="url(#clip-path-8)">
        <rect id="Rectángulo_401895" data-name="Rectángulo 401895" width="20.904" height="20.155" transform="matrix(0.462, -0.887, 0.887, 0.462, -6.6, 12.66)" fill="url(#linear-gradient-7)"/>
      </g>
    </g>
    <g id="Grupo_1101967" data-name="Grupo 1101967" transform="translate(189.044 120.414)">
      <g id="Grupo_1101966" data-name="Grupo 1101966" clip-path="url(#clip-path-9)">
        <rect id="Rectángulo_401896" data-name="Rectángulo 401896" width="16.977" height="16.346" transform="translate(-5.367 10.296) rotate(-62.467)" fill="url(#linear-gradient-8)"/>
      </g>
    </g>
    <g id="Grupo_1101969" data-name="Grupo 1101969" transform="translate(199.28 120.925)">
      <g id="Grupo_1101968" data-name="Grupo 1101968" clip-path="url(#clip-path-10)">
        <rect id="Rectángulo_401897" data-name="Rectángulo 401897" width="18.469" height="17.29" transform="translate(-6.002 11.514) rotate(-62.467)" fill="url(#linear-gradient-9)"/>
      </g>
    </g>
    <g id="Grupo_1101971" data-name="Grupo 1101971" transform="translate(210.246 119.13)">
      <g id="Grupo_1101970" data-name="Grupo 1101970" clip-path="url(#clip-path-11)">
        <rect id="Rectángulo_401898" data-name="Rectángulo 401898" width="22.253" height="21.414" transform="translate(-7.039 13.503) rotate(-62.467)" fill="url(#linear-gradient-10)"/>
      </g>
    </g>
    <g id="Grupo_1101973" data-name="Grupo 1101973" transform="translate(221.171 113.466)">
      <g id="Grupo_1101972" data-name="Grupo 1101972" clip-path="url(#clip-path-12)">
        <rect id="Rectángulo_401899" data-name="Rectángulo 401899" width="12.073" height="12.073" transform="matrix(0.462, -0.887, 0.887, 0.462, -3.669, 7.037)" fill="url(#linear-gradient-11)"/>
      </g>
    </g>
    <g id="Grupo_1101975" data-name="Grupo 1101975" transform="translate(206.676 112.787)">
      <g id="Grupo_1101974" data-name="Grupo 1101974" clip-path="url(#clip-path-13)">
        <rect id="Rectángulo_401900" data-name="Rectángulo 401900" width="14.787" height="17.804" transform="matrix(0.462, -0.887, 0.887, 0.462, -3.495, 6.705)" fill="url(#linear-gradient-12)"/>
      </g>
    </g>
    <g id="Grupo_1101977" data-name="Grupo 1101977" transform="translate(180.813 112.664)">
      <g id="Grupo_1101976" data-name="Grupo 1101976" clip-path="url(#clip-path-14)">
        <rect id="Rectángulo_401901" data-name="Rectángulo 401901" width="13.497" height="15.414" transform="matrix(0.462, -0.887, 0.887, 0.462, -3.467, 6.65)" fill="url(#linear-gradient-13)"/>
      </g>
    </g>
    <g id="Grupo_1101979" data-name="Grupo 1101979" transform="translate(192.45 108.89)">
      <g id="Grupo_1101978" data-name="Grupo 1101978" clip-path="url(#clip-path-15)">
        <rect id="Rectángulo_401902" data-name="Rectángulo 401902" width="21.176" height="21.176" transform="translate(-6.435 12.343) rotate(-62.467)" fill="url(#linear-gradient-14)"/>
      </g>
    </g>
    <g id="Grupo_1101981" data-name="Grupo 1101981" transform="translate(185.34 130.606)">
      <g id="Grupo_1101980" data-name="Grupo 1101980" clip-path="url(#clip-path-16)">
        <rect id="Rectángulo_401903" data-name="Rectángulo 401903" width="12.15" height="12.15" transform="translate(-3.773 6.882) rotate(-61.269)" fill="url(#linear-gradient-15)"/>
      </g>
    </g>
    <g id="Grupo_1101983" data-name="Grupo 1101983" transform="translate(177.331 118.739)">
      <g id="Grupo_1101982" data-name="Grupo 1101982" clip-path="url(#clip-path-17)">
        <rect id="Rectángulo_401904" data-name="Rectángulo 401904" width="19.086" height="18.176" transform="translate(-6.269 11.435) rotate(-61.269)" fill="url(#linear-gradient-16)"/>
      </g>
    </g>
    <g id="Grupo_1101985" data-name="Grupo 1101985" transform="translate(193.098 132.897)">
      <g id="Grupo_1101984" data-name="Grupo 1101984" clip-path="url(#clip-path-18)">
        <rect id="Rectángulo_401905" data-name="Rectángulo 401905" width="12.511" height="15.238" transform="translate(-2.857 5.212) rotate(-61.269)" fill="url(#linear-gradient-17)"/>
      </g>
    </g>
    <g id="Grupo_1101987" data-name="Grupo 1101987" transform="translate(205.569 133.017)">
      <g id="Grupo_1101986" data-name="Grupo 1101986" clip-path="url(#clip-path-19)">
        <rect id="Rectángulo_401906" data-name="Rectángulo 401906" width="12.15" height="12.15" transform="translate(-3.773 6.882) rotate(-61.269)" fill="url(#linear-gradient-18)"/>
      </g>
    </g>
    <g id="Grupo_1101989" data-name="Grupo 1101989" transform="translate(172.947 112.795)">
      <g id="Grupo_1101988" data-name="Grupo 1101988" clip-path="url(#clip-path-20)">
        <rect id="Rectángulo_401907" data-name="Rectángulo 401907" width="12.15" height="12.15" transform="translate(-3.773 6.882) rotate(-61.269)" fill="url(#linear-gradient-19)"/>
      </g>
    </g>
    <g id="Grupo_1101991" data-name="Grupo 1101991" transform="translate(0 0.002)">
      <g id="Grupo_1101990" data-name="Grupo 1101990" transform="translate(0 0)" clip-path="url(#clip-path)">
        <path id="Trazado_894700" data-name="Trazado 894700" d="M2662.852,1745.613a2.722,2.722,0,0,0-1.682,2.489.064.064,0,0,0,.129,0,2.589,2.589,0,0,1,1.587-2.365c.075-.031.042-.156-.034-.124" transform="translate(-2487.128 -1631.444)" fill="#fff"/>
        <path id="Trazado_894701" data-name="Trazado 894701" d="M2865.459,1485.337a3.5,3.5,0,0,0-.58,2.885,8.831,8.831,0,0,1,.08,1.855,5.721,5.721,0,0,1-.57,1.968c-.037.074.075.139.111.065a6,6,0,0,0,.575-3.279c-.111-1.138-.387-2.47.475-3.4.056-.061-.035-.152-.091-.091" transform="translate(-2677.049 -1388.177)" fill="#fff"/>
        <path id="Trazado_894702" data-name="Trazado 894702" d="M2957.52,1679.968a8.372,8.372,0,0,0-5.252,6.333c-.014.081.11.116.124.034a8.244,8.244,0,0,1,5.162-6.243c.077-.029.044-.153-.034-.124" transform="translate(-2759.188 -1570.094)" fill="#fff"/>
        <path id="Trazado_894703" data-name="Trazado 894703" d="M3172.162,2052.7a3.292,3.292,0,0,0-3.425,1.328c-.047.069.064.133.111.065a3.158,3.158,0,0,1,3.28-1.27c.08.019.115-.105.034-.124" transform="translate(-2961.49 -1918.379)" fill="#fff"/>
        <path id="Trazado_894704" data-name="Trazado 894704" d="M3411.675,1750.738c-1.6.9-1.449,2.939-.88,4.414.03.077.154.043.124-.034-.548-1.419-.728-3.4.82-4.269a.064.064,0,0,0-.065-.111" transform="translate(-3187.357 -1636.231)" fill="#fff"/>
      </g>
    </g>
    <g id="Grupo_1101993" data-name="Grupo 1101993" transform="translate(162.231 101.738)">
      <g id="Grupo_1101992" data-name="Grupo 1101992" clip-path="url(#clip-path-22)">
        <rect id="Rectángulo_401909" data-name="Rectángulo 401909" width="8.302" height="8.106" transform="matrix(0.944, -0.331, 0.331, 0.944, -2.281, 0.689)" fill="url(#linear-gradient-20)"/>
      </g>
    </g>
    <g id="Grupo_1101995" data-name="Grupo 1101995" transform="translate(152.493 103.366)">
      <g id="Grupo_1101994" data-name="Grupo 1101994" clip-path="url(#clip-path-23)">
        <rect id="Rectángulo_401910" data-name="Rectángulo 401910" width="11.688" height="8.289" transform="translate(-1.581 0.555) rotate(-19.347)" fill="url(#linear-gradient-21)"/>
      </g>
    </g>
    <g id="Grupo_1101997" data-name="Grupo 1101997" transform="translate(147.412 104.098)">
      <g id="Grupo_1101996" data-name="Grupo 1101996" clip-path="url(#clip-path-24)">
        <rect id="Rectángulo_401911" data-name="Rectángulo 401911" width="8.222" height="8.018" transform="translate(-2.177 0.609) rotate(-18.149)" fill="url(#linear-gradient-22)"/>
      </g>
    </g>
    <g id="Grupo_1101999" data-name="Grupo 1101999" transform="translate(0 0.002)">
      <g id="Grupo_1101998" data-name="Grupo 1101998" transform="translate(0 0)" clip-path="url(#clip-path)">
        <path id="Trazado_894708" data-name="Trazado 894708" d="M2266.98,1604.662a2.367,2.367,0,0,0-2.169,1.522c-.029.078.095.111.124.034a2.233,2.233,0,0,1,2.045-1.428.064.064,0,0,0,0-.129" transform="translate(-2116.687 -1499.716)" fill="#fff"/>
        <path id="Trazado_894709" data-name="Trazado 894709" d="M2480.255,1560.936a2.413,2.413,0,0,0-2.182.569,3.183,3.183,0,0,0-.74.86,2.468,2.468,0,0,1-.8,1.066c-.072.04-.007.151.065.111.606-.337.764-1.116,1.211-1.611a2.449,2.449,0,0,1,2.411-.871c.079.025.113-.1.034-.124" transform="translate(-2314.537 -1458.773)" fill="#fff"/>
        <path id="Trazado_894710" data-name="Trazado 894710" d="M2543.13,1566.577a3.06,3.06,0,0,0-.728-.721c-.068-.048-.132.064-.065.111a2.873,2.873,0,0,1,.681.674c.048.067.16,0,.111-.065" transform="translate(-2376.04 -1463.438)" fill="#fff"/>
      </g>
    </g>
    <g id="Grupo_1102001" data-name="Grupo 1102001" transform="translate(247.487 94.468)">
      <g id="Grupo_1102000" data-name="Grupo 1102000" clip-path="url(#clip-path-26)">
        <rect id="Rectángulo_401913" data-name="Rectángulo 401913" width="7.483" height="5.561" transform="matrix(0.067, -0.998, 0.998, 0.067, -0.481, 7.124)" fill="url(#linear-gradient-23)"/>
      </g>
    </g>
    <g id="Grupo_1102003" data-name="Grupo 1102003" transform="translate(234.169 97.891)">
      <g id="Grupo_1102002" data-name="Grupo 1102002" clip-path="url(#clip-path-27)">
        <rect id="Rectángulo_401914" data-name="Rectángulo 401914" width="11.671" height="6.638" transform="translate(-0.759 11.248) rotate(-86.138)" fill="url(#linear-gradient-24)"/>
      </g>
    </g>
    <g id="Grupo_1102005" data-name="Grupo 1102005" transform="translate(232.421 108.181)">
      <g id="Grupo_1102004" data-name="Grupo 1102004" clip-path="url(#clip-path-28)">
        <rect id="Rectángulo_401915" data-name="Rectángulo 401915" width="6.239" height="6.588" transform="translate(-0.767 5.808) rotate(-86.138)" fill="url(#linear-gradient-25)"/>
      </g>
    </g>
    <g id="Grupo_1102007" data-name="Grupo 1102007" transform="translate(236.515 104.382)">
      <g id="Grupo_1102006" data-name="Grupo 1102006" clip-path="url(#clip-path-29)">
        <rect id="Rectángulo_401916" data-name="Rectángulo 401916" width="8.052" height="10.741" transform="matrix(0.067, -0.998, 0.998, 0.067, -0.496, 7.344)" fill="url(#linear-gradient-26)"/>
      </g>
    </g>
    <g id="Grupo_1102009" data-name="Grupo 1102009" transform="translate(244.815 100.588)">
      <g id="Grupo_1102008" data-name="Grupo 1102008" clip-path="url(#clip-path-30)">
        <rect id="Rectángulo_401917" data-name="Rectángulo 401917" width="10.944" height="11.555" transform="translate(-1.345 10.187) rotate(-86.138)" fill="url(#linear-gradient-27)"/>
      </g>
    </g>
    <g id="Grupo_1102011" data-name="Grupo 1102011" transform="translate(248.238 89.834)">
      <g id="Grupo_1102010" data-name="Grupo 1102010" clip-path="url(#clip-path-31)">
        <rect id="Rectángulo_401918" data-name="Rectángulo 401918" width="6.36" height="6.7" transform="matrix(0.088, -0.996, 0.996, 0.088, -0.887, 5.789)" fill="url(#linear-gradient-28)"/>
      </g>
    </g>
    <g id="Grupo_1102013" data-name="Grupo 1102013" transform="translate(236.348 93.441)">
      <g id="Grupo_1102012" data-name="Grupo 1102012" clip-path="url(#clip-path-32)">
        <rect id="Rectángulo_401919" data-name="Rectángulo 401919" width="6.359" height="6.7" transform="matrix(0.088, -0.996, 0.996, 0.088, -0.888, 5.789)" fill="url(#linear-gradient-29)"/>
      </g>
    </g>
    <g id="Grupo_1102015" data-name="Grupo 1102015" transform="translate(0 0.002)">
      <g id="Grupo_1102014" data-name="Grupo 1102014" transform="translate(0 0)" clip-path="url(#clip-path)">
        <path id="Trazado_894718" data-name="Trazado 894718" d="M3621.393,1453.425a2.816,2.816,0,0,1-.331-1.139,1.914,1.914,0,0,1,.366-1.115c.048-.068-.064-.132-.111-.065a2.014,2.014,0,0,0-.26,1.856,10.114,10.114,0,0,1,.816,2.46c.008.082.137.083.129,0a6.5,6.5,0,0,0-.609-2" transform="translate(-3384.126 -1356.177)" fill="#fff"/>
        <path id="Trazado_894719" data-name="Trazado 894719" d="M3565.474,1651.661c-.43.58-1.148.8-1.667,1.28a2.232,2.232,0,0,0-.7,1.684.064.064,0,0,0,.129,0,2.172,2.172,0,0,1,1.026-1.873,4.837,4.837,0,0,0,1.325-1.026c.049-.067-.062-.131-.111-.065" transform="translate(-3330.076 -1543.616)" fill="#fff"/>
        <path id="Trazado_894720" data-name="Trazado 894720" d="M3737.989,1556.307a5.259,5.259,0,0,0-2.023,2.134c-.22.53-.323,1.1-.563,1.625a4.077,4.077,0,0,1-.995,1.333c-.062.056.029.146.091.091a4.206,4.206,0,0,0,.9-1.13,7.924,7.924,0,0,0,.518-1.4,3.689,3.689,0,0,1,.848-1.5,8.77,8.77,0,0,1,1.288-1.044c.067-.048,0-.159-.065-.111" transform="translate(-3490.157 -1454.513)" fill="#fff"/>
        <path id="Trazado_894721" data-name="Trazado 894721" d="M3806.18,1380.46a2.577,2.577,0,0,0-2.171,2.736c.006.082.134.083.129,0a2.451,2.451,0,0,1,2.076-2.612c.082-.013.047-.137-.034-.124" transform="translate(-3555.219 -1290.177)" fill="#fff"/>
        <path id="Trazado_894722" data-name="Trazado 894722" d="M3850.945,1383.016a1.954,1.954,0,0,0-.89-.57c-.079-.025-.113.1-.034.124a1.831,1.831,0,0,1,.833.537c.055.062.146-.029.091-.091" transform="translate(-3598.185 -1292.031)" fill="#fff"/>
        <path id="Trazado_894723" data-name="Trazado 894723" d="M1762.724,0H1623.461a12.239,12.239,0,0,0-12.239,12.239V71.276a12.239,12.239,0,0,0,12.239,12.239h139.262a12.239,12.239,0,0,0,12.24-12.239V12.241A12.239,12.239,0,0,0,1762.724,0" transform="translate(-1505.847 -0.002)" fill="#fff"/>
        <path id="Trazado_894724" data-name="Trazado 894724" d="M1762.724.212a12.043,12.043,0,0,1,12.029,12.029V71.276a12.043,12.043,0,0,1-12.029,12.029H1623.462a12.043,12.043,0,0,1-12.029-12.029V12.241A12.043,12.043,0,0,1,1623.462.212Zm0-.21H1623.462a12.239,12.239,0,0,0-12.24,12.239V71.276a12.239,12.239,0,0,0,12.24,12.239h139.262a12.239,12.239,0,0,0,12.24-12.239V12.241A12.239,12.239,0,0,0,1762.724,0" transform="translate(-1505.847 -0.002)" fill="#8cddff"/>
        <path id="Trazado_894725" data-name="Trazado 894725" d="M1673.4,302.683v26.934a.064.064,0,0,0,.129,0V302.683a.064.064,0,0,0-.129,0" transform="translate(-1563.963 -282.829)" fill="#d2f1ff"/>
        <path id="Trazado_894726" data-name="Trazado 894726" d="M3029.594,45.93q-10.578.51-21.168.745-10.524.233-21.052.192-5.969-.023-11.938-.134a.064.064,0,0,0,0,.129q10.589.2,21.181.117,10.526-.08,21.048-.432,5.966-.2,11.928-.488c.083,0,.083-.133,0-.129" transform="translate(-2780.783 -42.926)" fill="#d2f1ff"/>
        <path id="Trazado_894727" data-name="Trazado 894727" d="M3807.042,442.651c1.679-.045,7.3-1.157,11.265,5.708s1.117,14.748,2.239,20.888c.841,2.022,1.776,1.692,2.384,3.094a5.757,5.757,0,0,1,0,3.675c-.164.411-.281-.532-.351-.87s-.187,1.33-.421.411-.841.314-1-1.16a28.722,28.722,0,0,0-1.309-4.908c-.467-1.451.76-16.32-2.29-20.839a9.341,9.341,0,0,0-8.18-4.017Z" transform="translate(-3558.06 -413.615)" fill="#dbc9b4"/>
        <path id="Trazado_894728" data-name="Trazado 894728" d="M3605.352,484.148s-1.745,6.894,1.62,11.679,5.733,9.6,5.889,10.515a33.444,33.444,0,0,0,2.15,4.691c.405.819.156,7.776,0,8.531s-2.617,3.809-2.306,3.9,3.8,0,4.394,0,.717-3.368,1.278-3.778.927-.15.694-1.188-.881-7.249-.382-9.7-1.09-3.935-1.589-6.548,5.721-10.452,6.218-21.879-14.833-7.13-17.965,3.778" transform="translate(-3369.137 -442.641)" fill="#dbc9b4"/>
        <path id="Trazado_894729" data-name="Trazado 894729" d="M3074.39,623.189a78.794,78.794,0,0,0,2.29,12.152c.42,2.127-.077,3.642.3,5.48s1.364,4.771,1.329,7.156-2.985,6.318-2.393,6.318h3.8c.686,0,.838-3.513,1.384-3.868s.18-1.837-.055-2.417.748-7.543.159-9.219-.21-6.785,2.617-10.846-1.152-14.391-5.687-14.391c-2.648,0-4.219,4-3.75,9.637" transform="translate(-2873.246 -573.426)" fill="#dbc9b4"/>
        <path id="Trazado_894730" data-name="Trazado 894730" d="M3521.421,788.186a8.115,8.115,0,0,0,5.184,4.255c.561.451-.224,2.047.606,2.176s.651-2.047,1.01-2.1.022,2.143.786,2.192.224-2.127.628-2.24.674,2.063,1.437,1.982-.045-2.143.269-2.256.853,2.031,1.549,1.934-.471-2.289,0-2.385,4.893-1.434,4.556-8.01-16.025,4.448-16.025,4.448" transform="translate(-3291.118 -730.526)" fill="#eda6a8"/>
        <path id="Trazado_894731" data-name="Trazado 894731" d="M2901.93,385.8a23.31,23.31,0,0,1,5.348,7.294c1.863,4.258,6.4,13.227,13.379,12.465s8.845,2.465,19.879.872,22.947-8.472,25.143-17.267-1.536-14.281-5.961-13.773a154.514,154.514,0,0,1-21.19.609,122.413,122.413,0,0,1-17.883-2.126c-4.891-.814-10.54-1.684-13.512-3.145s-5.2,15.072-5.2,15.072" transform="translate(-2712.142 -346.395)" fill="#f7e2cb"/>
        <path id="Trazado_894732" data-name="Trazado 894732" d="M3034.159,397.9c1.449-2.975-3.926-5.585-2.291-7.906s4.721-.774,6.17-1.692.935-2.1,2.493-2.224,6,.973,6.988-1.109h0c-4.51.271-10.3.4-15.948.173a122.4,122.4,0,0,1-17.883-2.126c-4.246-.707-9.063-1.456-12.2-2.6h0a9.831,9.831,0,0,1,2.465,4.724c.5,2.482,4.051,2.1,5.578,2.482s.779,4.9,5.7,5.576,3.6-1.467,6.59-.548-1.262,5.56,1.122,8.123,9.769.1,11.218-2.876" transform="translate(-2805.185 -355.535)" fill="#41415e"/>
        <path id="Trazado_894733" data-name="Trazado 894733" d="M3340.792,888.279a32.118,32.118,0,0,1-14.471.808c-.081-.014-.116.11-.034.124a32.262,32.262,0,0,0,14.54-.808.064.064,0,0,0-.034-.124" transform="translate(-3108.702 -830.182)" fill="#dbc9b4"/>
        <path id="Trazado_894734" data-name="Trazado 894734" d="M3423.462,461.7q-5.373.235-10.753.115a.064.064,0,0,0,0,.129q5.377.12,10.753-.115c.083,0,.083-.132,0-.129" transform="translate(-3189.458 -431.502)" fill="#fff"/>
        <path id="Trazado_894735" data-name="Trazado 894735" d="M3553.734,564.609c.24-1.918-1.7-4.714,1.184-7.027s2.934,3.9,2.23,6.253-3.757,3.513-3.414.774" transform="translate(-3320.928 -520.642)" fill="#41415e"/>
        <path id="Trazado_894736" data-name="Trazado 894736" d="M3634.79,456.8s-.021,7.145,4.542,12.1,8.135,9.951,8.519,10.9a47.872,47.872,0,0,0,3.323,4.861c.61.848,2.1,8.058,2.134,8.841s-1.665,3.948-1.329,4.046,3.8,0,4.393,0-.126-3.491.333-3.915.889-.155.4-1.232-2.693-7.512-2.809-10.057-2.075-4.078-3.227-6.786,3.106-10.832.745-22.675-16.617-7.39-17.021,3.915" transform="translate(-3397.073 -416.721)" fill="#f7e2cb"/>
        <path id="Trazado_894737" data-name="Trazado 894737" d="M3763.911,472.236c.661-4.029,2.434-10.664.72-19.259-.948-4.756-3.815-6.882-6.932-6.993a8.3,8.3,0,0,1,2.871,5.561c.873,6.447-7.541,9.872-4.331,12.833s1.776,2.768,4.02,5.927a4.679,4.679,0,0,0,3.652,1.932" transform="translate(-3509.893 -416.816)" fill="#41415e"/>
        <path id="Trazado_894738" data-name="Trazado 894738" d="M3693.053,784.021a46.183,46.183,0,0,0-4.4-5.852c-1.7-1.982-3.443-3.93-5.167-5.891-.055-.062-.146.029-.091.091,1.7,1.931,3.413,3.851,5.091,5.8a46.423,46.423,0,0,1,4.458,5.915c.043.071.155.006.111-.065" transform="translate(-3442.482 -721.752)" fill="#dbc9b4"/>
        <path id="Trazado_894739" data-name="Trazado 894739" d="M3851.5,978.274c-.047-.068-.159,0-.111.065.212.306-.189.518-.436.471a.965.965,0,0,1-.348-.173,5.23,5.23,0,0,1-.648-.573,8.626,8.626,0,0,1-1.062-1.285c-.046-.068-.158,0-.111.065a6.6,6.6,0,0,0,1.842,1.962.656.656,0,0,0,.756.04.418.418,0,0,0,.117-.573" transform="translate(-3597.061 -912.871)" fill="#dbc9b4"/>
        <path id="Trazado_894740" data-name="Trazado 894740" d="M3924.635,1006.055a12.115,12.115,0,0,1-.99-3.75c0-.082-.133-.083-.129,0a12.229,12.229,0,0,0,1,3.784c.029.077.154.043.124-.034" transform="translate(-3666.916 -936.695)" fill="#dbc9b4"/>
        <path id="Trazado_894741" data-name="Trazado 894741" d="M3074.811,623.189a86.747,86.747,0,0,0,3.9,12.152c.7,2.127.4,3.642,1.028,5.48s1.994,4.771,2.274,7.156-2.15,6.318-1.558,6.318h3.8c.686,0,.374-3.513.873-3.868s-.062-1.837-.374-2.417-.25-7.543-1.06-9.219-1.106-6.785,1.184-10.846-3.054-14.391-7.587-14.391c-2.648,0-3.69,4-2.477,9.637" transform="translate(-2873.247 -573.426)" fill="#f7e2cb"/>
        <path id="Trazado_894742" data-name="Trazado 894742" d="M3212.536,822.067l-1.045,2.471a11.767,11.767,0,0,0-.839,2.305c-.016.081.108.116.124.034a12.228,12.228,0,0,1,.876-2.392l1-2.353c.032-.075-.079-.141-.111-.065" transform="translate(-3000.672 -768.272)" fill="#dbc9b4"/>
        <path id="Trazado_894743" data-name="Trazado 894743" d="M3216.5,1046.647a.064.064,0,0,0-.129,0,38.645,38.645,0,0,0,.341,5.507c.011.081.14.082.129,0a38.645,38.645,0,0,1-.341-5.507" transform="translate(-3006.018 -978.138)" fill="#dbc9b4"/>
        <path id="Trazado_894744" data-name="Trazado 894744" d="M3101.073,578.861c1.05.892,5.142.048,7.245,1.547s1.963,7.881-1.262,7.688-6.263-5.27-7.338-6.817-.467-3.965,1.355-2.417" transform="translate(-2896.498 -540.539)" fill="#41415e"/>
        <path id="Trazado_894745" data-name="Trazado 894745" d="M2799.464,317.338c-.058-.074-2.413-1.4-2.745-3.4s1.85,1.411,4.731,1.791-1.986,1.605-1.986,1.605" transform="translate(-2613.781 -292.83)" fill="#f7cd9c"/>
        <path id="Trazado_894746" data-name="Trazado 894746" d="M2768.871,361.623s-1.069-2.079-2.7-2.185-1.182,1.74-.533,2.63a3.27,3.27,0,0,0,2.591.918c.239-.081.873-.981.644-1.363" transform="translate(-2584.211 -335.927)" fill="#e0cdb8"/>
        <path id="Trazado_894747" data-name="Trazado 894747" d="M2717.262,349.991c-.727-.37-1.492-2.955-1.26-3.941s1.335-1.165,1.979-1.753a14.078,14.078,0,0,0,2.343-4.281c.172-.909-.141-2.7,1.414-4.026s4.7-4.541,6.867-4.239,4.8,1.086,5.775,5.185-.989,10.174-3.294,12.157a5.754,5.754,0,0,1-5.862,1.414c-1.878-.428-3.043.756-5.089,1.044a2.776,2.776,0,0,1-2.872-1.558" transform="translate(-2538.334 -310.035)" fill="#f7e2cb"/>
        <path id="Trazado_894748" data-name="Trazado 894748" d="M2945.883,316.214c.358-.112,1.241-.2,1.78-.394s.916-1.794,1.24-1.918.511,2.007-.045,3.267a3.263,3.263,0,0,1-2.309,1.776c-.632.189-1.149-2.581-.666-2.732" transform="translate(-2753.043 -293.368)" fill="#f7cd9c"/>
        <path id="Trazado_894749" data-name="Trazado 894749" d="M2763.186,336.771c-1-3.954-3.6-4.723-5.733-5.02-2.167-.3-5.312,2.911-6.867,4.239s-1.242,3.117-1.414,4.026a14.066,14.066,0,0,1-2.342,4.281,2.328,2.328,0,0,0,2.073,2.465c1.527.129,4.736-2,6.045-3.61s3.757-3.062,4.885-2.772c1.056.271,2.5-2.542,3.353-3.609" transform="translate(-2567.183 -310.035)" fill="#41415e"/>
        <path id="Trazado_894750" data-name="Trazado 894750" d="M2969.4,376.168c.091-.069,3.578-2.9,5.841-2.626s.2,3.985-1.483,4.393a7.78,7.78,0,0,1-3.542.223c-.254-.178-.985-1.863-.816-1.991" transform="translate(-2775.174 -349.094)" fill="#e0cdb8"/>
        <path id="Trazado_894751" data-name="Trazado 894751" d="M2896.466,552.594a15.763,15.763,0,0,1-3.367,2.841,7.994,7.994,0,0,1-4.031,1.587c-.083,0-.083.132,0,.129a7.988,7.988,0,0,0,4-1.543,15.988,15.988,0,0,0,3.486-2.923c.053-.063-.038-.154-.091-.091" transform="translate(-2700.063 -516.434)" fill="#dbc9b4"/>
        <path id="Trazado_894752" data-name="Trazado 894752" d="M3536.068,112.4c-2.387,1.977-4.652,4.076-6.826,6.264l-4.571-5.979c-1.24-1.622-4.035-.022-2.777,1.623l5.119,6.7c-1.813,1.954-3.569,3.962-5.22,6.072-1.261,1.612,1,3.9,2.274,2.274,1.562-2,3.221-3.9,4.928-5.754l4.4,5.755c1.24,1.622,4.035.022,2.777-1.623l-4.963-6.49a95.3,95.3,0,0,1,7.133-6.562c1.6-1.322-.691-3.586-2.274-2.274" transform="translate(-3291.119 -104.683)" fill="#c1272d"/>
        <path id="Trazado_894753" data-name="Trazado 894753" d="M2430.013,109.325a92.944,92.944,0,0,0-9.481,13.3q-.846-2.68-1.69-5.36c-.616-1.968-3.722-1.128-3.1.855q1.4,4.464,2.814,8.921a1.628,1.628,0,0,0,2.939.384,88.571,88.571,0,0,1,10.793-15.829c1.339-1.565-.926-3.85-2.274-2.274" transform="translate(-2257.674 -101.679)" fill="#42b522"/>
        <path id="Trazado_894754" data-name="Trazado 894754" d="M1759.684,177.338v-7.91h-29.56v7.91a78.213,78.213,0,0,1-2.508,19.646l-7.5,28.9a10.657,10.657,0,0,0,10.315,13.333h28.944a10.657,10.657,0,0,0,10.315-13.333l-7.5-28.9a78.218,78.218,0,0,1-2.508-19.646" transform="translate(-1607.296 -158.347)" fill="#94c9ff"/>
        <path id="Trazado_894755" data-name="Trazado 894755" d="M1749.884,237.856a9.3,9.3,0,0,1-9-11.632l7.5-28.9a79.625,79.625,0,0,0,2.551-19.988v-7.91h26.84v7.91a79.631,79.631,0,0,0,2.551,19.988l7.5,28.9a9.3,9.3,0,0,1-9,11.632Z" transform="translate(-1626.748 -158.347)" fill="#b3e0ff"/>
        <path id="Trazado_894756" data-name="Trazado 894756" d="M1883.137,134.358h-30.61a1.227,1.227,0,1,1,0-2.454h30.61a1.227,1.227,0,1,1,0,2.454" transform="translate(-1730.224 -123.278)" fill="#94c9ff"/>
        <path id="Trazado_894757" data-name="Trazado 894757" d="M1817.284,465.427c2.479-.492,9.8-.434,12.365,4.508s-.237,13.6-.019,18.056,4.982,13.155.711,17.547c-5.729,5.89-26.48,8.07-30.835-.291s5.323-18.747,6.661-26.5,4.33-11.976,11.117-13.323" transform="translate(-1680.772 -434.802)" fill="#ed4551"/>
        <path id="Trazado_894758" data-name="Trazado 894758" d="M1799.506,506.477c3.669,7.045,18.979,6.605,27.135,2.769-2.2-.885-4.318-2.3-6.6-2.924-3.924-1.083-9.366,3.989-11.36.987s3.206-6.464,1.718-11.142-.786-4.634,1.723-9.392,4.111-4.823,3.487-10.53.27-8.692,2.433-9.7c-.285.032-.542.07-.759.113-6.787,1.347-9.78,5.574-11.117,13.323s-11.016,18.136-6.661,26.5" transform="translate(-1680.772 -436.032)" fill="#c1364e"/>
        <path id="Trazado_894759" data-name="Trazado 894759" d="M1822.6,530c-.582-.86-.1,4.906-.729,6.658s-1.591,3.608-1.364,5.206-.973,3.485-1.973,4.44-2.386,1.33-4.023-.255-3.471-.077-3.307,3.267-1.516,3.9-4.562,3.794,1.566,1.225,3.23.913,1.97-2.917,4.311-2.06,3.415,3.175,5.342,2.423,2.625,3.042,2.585,5.651-3.052,4.668-4.888,5.468-4.787-.554-6.948.92-9.068,1.758-11.04.772a9.259,9.259,0,0,1-4.293-8.829c.635-4.085,3.9-5.92,2.846-9.32s.916-4.067,1.821-7.218.52-9.85.92-11.526,2.2-3.448,1.654-3.377-2.2,1.592-3.7,5.955-.021,3.291-2.711,8.662-8.448,15.424-4.393,21.848S1805.6,568.8,1808.7,568.7s14.341-2.426,15.392-7.714-.249-7.621-.177-10.728a58.017,58.017,0,0,0-.272-8.546c-.3-1.714-.052-10.245-1.048-11.716" transform="translate(-1672.911 -492.459)" fill="#ffb8c1"/>
        <path id="Trazado_894760" data-name="Trazado 894760" d="M1844.55,284.934a118.665,118.665,0,0,1-2.523,19.266c-1.309,6.338-2.965,12.6-4.639,18.846-.926,3.457-2.009,6.948-2.087,10.553a.064.064,0,0,0,.129,0,40.637,40.637,0,0,1,1.825-9.559c.838-3.125,1.675-6.251,2.47-9.387a184.587,184.587,0,0,0,3.94-18.969,104.07,104.07,0,0,0,1.013-10.75c0-.083-.125-.083-.129,0" transform="translate(-1715.271 -266.241)" fill="#fff"/>
        <path id="Trazado_894761" data-name="Trazado 894761" d="M1980.853,347.043l-.684,6.215c-.009.082.12.082.129,0q.342-3.108.684-6.215c.009-.082-.12-.082-.129,0" transform="translate(-1850.664 -324.289)" fill="#fff"/>
        <path id="Trazado_894762" data-name="Trazado 894762" d="M2311.029,306.981a101.481,101.481,0,0,1-6.471-27.381q-.368-3.945-.425-7.909a.064.064,0,0,0-.129,0,101.616,101.616,0,0,0,4.3,27.779q1.151,3.823,2.6,7.545c.03.076.154.043.124-.034" transform="translate(-2153.322 -253.864)" fill="#fff"/>
        <path id="Trazado_894763" data-name="Trazado 894763" d="M1917.838,142.766l-17.864.55-5.012.154c-.083,0-.083.131,0,.129l17.864-.55,5.012-.154c.083,0,.083-.131,0-.129" transform="translate(-1770.972 -133.43)" fill="#fff"/>
      </g>
    </g>
  </g>
</svg>
