<svg id="Grupo_1099893" data-name="Grupo 1099893" xmlns="http://www.w3.org/2000/svg" xmlns:xlink="http://www.w3.org/1999/xlink" width="155.949" height="114.882" viewBox="0 0 155.949 114.882">
  <defs>
    <clipPath id="clip-path">
      <rect id="Rectángulo_401525" data-name="Rectángulo 401525" width="155.949" height="114.882" fill="none"/>
    </clipPath>
  </defs>
  <g id="Grupo_1099892" data-name="Grupo 1099892" clip-path="url(#clip-path)">
    <path id="Trazado_884147" data-name="Trazado 884147" d="M11.995,66.565c29.618,24,33.5,27.611,40.235,30.779,4.929,2.319,10.361,3.532,15.078,6.256,3.9,2.255,7.191,5.479,11.148,7.642,16.426,8.984,36.2-2.98,44.47-5.364,5.591-1.611,23.713-2.507,30.721-24.459,4.2-13.161,1.4-34.738-6.113-42.115-3.408-3.346-8.157-4.861-12.272-7.284-5.349-3.15-9.692-7.884-15.272-10.6-4.115-2-8.725-2.816-12.848-4.8-3.576-1.721-6.676-4.269-10-6.434C73.923-4.929,33.76-.086,18.98,8.1,1.117,17.994-8.685,49.809,11.995,66.565Z" transform="translate(-0.016 -0.016)" fill="none" stroke="#8a4c45" stroke-linecap="round" stroke-linejoin="round" stroke-width="0.75"/>
    <path id="Trazado_884148" data-name="Trazado 884148" d="M1.549,34.03c7.909,23.807,39.994,25.938,57.973,39.9,11.361,8.821,21.539,26.226,37.977,26.524,6.124.112,32.194-7.14,41.484-12.643,8.389-4.969,14.31-12.587,14.242-22.338a65,65,0,0,1,1.259-9.118" transform="translate(-0.066 -1.452)" fill="none" stroke="#8a4c45" stroke-linecap="round" stroke-linejoin="round" stroke-width="0.75"/>
    <path id="Trazado_884149" data-name="Trazado 884149" d="M24.785,49.267C34.422,27.83,54.125,3.9,60.729,4.693" transform="translate(-1.058 -0.199)" fill="none" stroke="#8a4c45" stroke-linecap="round" stroke-linejoin="round" stroke-width="0.75"/>
    <path id="Trazado_884150" data-name="Trazado 884150" d="M46.1,52.824a98.242,98.242,0,0,1,44.876-46" transform="translate(-1.968 -0.291)" fill="none" stroke="#8a4c45" stroke-linecap="round" stroke-linejoin="round" stroke-width="0.75"/>
    <path id="Trazado_884151" data-name="Trazado 884151" d="M65.212,69.447c8.293-18.439,23.832-37.4,41.717-46.825" transform="translate(-2.783 -0.966)" fill="none" stroke="#8a4c45" stroke-linecap="round" stroke-linejoin="round" stroke-width="0.75"/>
    <path id="Trazado_884152" data-name="Trazado 884152" d="M86.212,84.826c7.059-20.29,20.768-42.225,40.5-50.729" transform="translate(-3.68 -1.455)" fill="none" stroke="#8a4c45" stroke-linecap="round" stroke-linejoin="round" stroke-width="0.75"/>
    <path id="Trazado_884153" data-name="Trazado 884153" d="M100.559,96.9c9.338-22.184,27.99-38.865,46.064-54.762" transform="translate(-4.292 -1.799)" fill="none" stroke="#8a4c45" stroke-linecap="round" stroke-linejoin="round" stroke-width="0.75"/>
    <path id="Trazado_884154" data-name="Trazado 884154" d="M26.052,15.873q27.131-4.923,54.4-9.026" transform="translate(-1.112 -0.292)" fill="none" stroke="#8a4c45" stroke-linecap="round" stroke-linejoin="round" stroke-width="0.75"/>
    <path id="Trazado_884155" data-name="Trazado 884155" d="M17.548,31.015c9.838,1.4,13.433.187,81.228-10.971" transform="translate(-0.749 -0.855)" fill="none" stroke="#8a4c45" stroke-linecap="round" stroke-linejoin="round" stroke-width="0.75"/>
    <path id="Trazado_884156" data-name="Trazado 884156" d="M18.377,44.824c5.249,2.369,10.678,4.323,93.44-5.93" transform="translate(-0.784 -1.66)" fill="none" stroke="#8a4c45" stroke-linecap="round" stroke-linejoin="round" stroke-width="0.75"/>
    <path id="Trazado_884157" data-name="Trazado 884157" d="M54.5,63.168c4.589,3.266,5.854,4.489,96.306-3.605" transform="translate(-2.326 -2.542)" fill="none" stroke="#8a4c45" stroke-linecap="round" stroke-linejoin="round" stroke-width="0.75"/>
    <path id="Trazado_884158" data-name="Trazado 884158" d="M78.633,80.762a243.853,243.853,0,0,0,54,4.035" transform="translate(-3.356 -3.447)" fill="none" stroke="#8a4c45" stroke-linecap="round" stroke-linejoin="round" stroke-width="0.75"/>
    <path id="Trazado_884159" data-name="Trazado 884159" d="M2.034,45.8a1.488,1.488,0,0,0,1.009-1" transform="translate(-0.087 -1.912)" fill="none" stroke="#8a4c45" stroke-linecap="round" stroke-linejoin="round" stroke-width="0.75"/>
    <path id="Trazado_884160" data-name="Trazado 884160" d="M1.861,42.684l.5-.335" transform="translate(-0.079 -1.807)" fill="none" stroke="#8a4c45" stroke-linecap="round" stroke-linejoin="round" stroke-width="0.75"/>
    <path id="Trazado_884161" data-name="Trazado 884161" d="M3.1,48.04l1.664-2.015" transform="translate(-0.132 -1.964)" fill="none" stroke="#8a4c45" stroke-linecap="round" stroke-linejoin="round" stroke-width="0.75"/>
    <path id="Trazado_884162" data-name="Trazado 884162" d="M3.761,51.281A9.234,9.234,0,0,1,7.3,48.128" transform="translate(-0.161 -2.054)" fill="none" stroke="#8a4c45" stroke-linecap="round" stroke-linejoin="round" stroke-width="0.75"/>
    <path id="Trazado_884163" data-name="Trazado 884163" d="M4.322,54.415a19.929,19.929,0,0,1,5-4.034" transform="translate(-0.184 -2.15)" fill="none" stroke="#8a4c45" stroke-linecap="round" stroke-linejoin="round" stroke-width="0.75"/>
    <path id="Trazado_884164" data-name="Trazado 884164" d="M5.909,57.133l2.829-2.361" transform="translate(-0.252 -2.338)" fill="none" stroke="#8a4c45" stroke-linecap="round" stroke-linejoin="round" stroke-width="0.75"/>
    <path id="Trazado_884165" data-name="Trazado 884165" d="M11.017,53.174l1.335-.675" transform="translate(-0.47 -2.241)" fill="none" stroke="#8a4c45" stroke-linecap="round" stroke-linejoin="round" stroke-width="0.75"/>
    <path id="Trazado_884166" data-name="Trazado 884166" d="M14.477,64.331A68.27,68.27,0,0,1,23.2,59.012" transform="translate(-0.618 -2.519)" fill="none" stroke="#8a4c45" stroke-linecap="round" stroke-linejoin="round" stroke-width="0.75"/>
    <path id="Trazado_884167" data-name="Trazado 884167" d="M18.694,65.3a38.439,38.439,0,0,1,7.587-5.126" transform="translate(-0.798 -2.568)" fill="none" stroke="#8a4c45" stroke-linecap="round" stroke-linejoin="round" stroke-width="0.75"/>
    <path id="Trazado_884168" data-name="Trazado 884168" d="M21.969,67.7a36.584,36.584,0,0,1,6.455-4.034" transform="translate(-0.938 -2.717)" fill="none" stroke="#8a4c45" stroke-linecap="round" stroke-linejoin="round" stroke-width="0.75"/>
    <path id="Trazado_884169" data-name="Trazado 884169" d="M24.982,70.541l3.545-2.486" transform="translate(-1.066 -2.905)" fill="none" stroke="#8a4c45" stroke-linecap="round" stroke-linejoin="round" stroke-width="0.75"/>
    <path id="Trazado_884170" data-name="Trazado 884170" d="M28.016,72.048l.446-.223" transform="translate(-1.196 -3.066)" fill="none" stroke="#8a4c45" stroke-linecap="round" stroke-linejoin="round" stroke-width="0.75"/>
    <path id="Trazado_884171" data-name="Trazado 884171" d="M43.664,82.76a49.555,49.555,0,0,1,10.631-6.6" transform="translate(-1.864 -3.25)" fill="none" stroke="#8a4c45" stroke-linecap="round" stroke-linejoin="round" stroke-width="0.75"/>
    <path id="Trazado_884172" data-name="Trazado 884172" d="M47.172,86.754A48.574,48.574,0,0,1,55.6,80.668" transform="translate(-2.013 -3.443)" fill="none" stroke="#8a4c45" stroke-linecap="round" stroke-linejoin="round" stroke-width="0.75"/>
    <path id="Trazado_884173" data-name="Trazado 884173" d="M51.59,89.161a48.044,48.044,0,0,1,7.076-4.336" transform="translate(-2.202 -3.62)" fill="none" stroke="#8a4c45" stroke-linecap="round" stroke-linejoin="round" stroke-width="0.75"/>
    <path id="Trazado_884174" data-name="Trazado 884174" d="M53.922,91.841a37.64,37.64,0,0,0,3.958-2.335" transform="translate(-2.301 -3.82)" fill="none" stroke="#8a4c45" stroke-linecap="round" stroke-linejoin="round" stroke-width="0.75"/>
    <path id="Trazado_884175" data-name="Trazado 884175" d="M55.541,93.937a.318.318,0,0,0,.192.451l2.231-1.358" transform="translate(-2.369 -3.971)" fill="none" stroke="#8a4c45" stroke-linecap="round" stroke-linejoin="round" stroke-width="0.75"/>
    <path id="Trazado_884176" data-name="Trazado 884176" d="M68.848,100.566a45.723,45.723,0,0,1,8.174-5.032" transform="translate(-2.938 -4.077)" fill="none" stroke="#8a4c45" stroke-linecap="round" stroke-linejoin="round" stroke-width="0.75"/>
    <path id="Trazado_884177" data-name="Trazado 884177" d="M72.631,103.473l7.012-4.652" transform="translate(-3.1 -4.218)" fill="none" stroke="#8a4c45" stroke-linecap="round" stroke-linejoin="round" stroke-width="0.75"/>
    <path id="Trazado_884178" data-name="Trazado 884178" d="M75.987,103.863c-.023.211-.047.422-.071.633l5.464-3.05" transform="translate(-3.24 -4.33)" fill="none" stroke="#8a4c45" stroke-linecap="round" stroke-linejoin="round" stroke-width="0.75"/>
    <path id="Trazado_884179" data-name="Trazado 884179" d="M78.863,106.654a10.684,10.684,0,0,0,2.827-1.315" transform="translate(-3.366 -4.496)" fill="none" stroke="#8a4c45" stroke-linecap="round" stroke-linejoin="round" stroke-width="0.75"/>
    <path id="Trazado_884180" data-name="Trazado 884180" d="M82.521,107.957a.961.961,0,0,0,1.315-.275" transform="translate(-3.522 -4.596)" fill="none" stroke="#8a4c45" stroke-linecap="round" stroke-linejoin="round" stroke-width="0.75"/>
    <path id="Trazado_884181" data-name="Trazado 884181" d="M99.9,112.3a81.311,81.311,0,0,1,7.7-6.692" transform="translate(-4.264 -4.508)" fill="none" stroke="#8a4c45" stroke-linecap="round" stroke-linejoin="round" stroke-width="0.75"/>
    <path id="Trazado_884182" data-name="Trazado 884182" d="M108.987,110.3l3.681-4.684" transform="translate(-4.652 -4.508)" fill="none" stroke="#8a4c45" stroke-linecap="round" stroke-linejoin="round" stroke-width="0.75"/>
    <path id="Trazado_884183" data-name="Trazado 884183" d="M115.274,109.258l4.016-4.349" transform="translate(-4.92 -4.478)" fill="none" stroke="#8a4c45" stroke-linecap="round" stroke-linejoin="round" stroke-width="0.75"/>
    <path id="Trazado_884184" data-name="Trazado 884184" d="M120.861,106.882l2.344-2.675" transform="translate(-5.158 -4.448)" fill="none" stroke="#8a4c45" stroke-linecap="round" stroke-linejoin="round" stroke-width="0.75"/>
    <path id="Trazado_884185" data-name="Trazado 884185" d="M134.507,105.406a21.221,21.221,0,0,0,11.364-5.394" transform="translate(-5.741 -4.269)" fill="none" stroke="#8a4c45" stroke-linecap="round" stroke-linejoin="round" stroke-width="0.75"/>
    <path id="Trazado_884186" data-name="Trazado 884186" d="M149.88,96.725l3.346-3.346" transform="translate(-6.397 -3.985)" fill="none" stroke="#8a4c45" stroke-linecap="round" stroke-linejoin="round" stroke-width="0.75"/>
    <path id="Trazado_884187" data-name="Trazado 884187" d="M25.551,77.746a21.764,21.764,0,0,1,8.86,6.334" transform="translate(-1.091 -3.318)" fill="none" stroke="#8a4c45" stroke-linecap="round" stroke-linejoin="round" stroke-width="0.75"/>
    <path id="Trazado_884188" data-name="Trazado 884188" d="M39.352,88.206l1.4,1.621" transform="translate(-1.68 -3.765)" fill="none" stroke="#8a4c45" stroke-linecap="round" stroke-linejoin="round" stroke-width="0.75"/>
    <line id="Línea_1203" data-name="Línea 1203" x2="1.944" y2="2.722" transform="translate(8.321 58.265)" fill="none" stroke="#8a4c45" stroke-linecap="round" stroke-linejoin="round" stroke-width="0.75"/>
    <path id="Trazado_884189" data-name="Trazado 884189" d="M83.4,112.687a13.071,13.071,0,0,0,7.772,3.171" transform="translate(-3.559 -4.81)" fill="none" stroke="#8a4c45" stroke-linecap="round" stroke-linejoin="round" stroke-width="0.75"/>
    <path id="Trazado_884190" data-name="Trazado 884190" d="M98.857,116.768l3.01-1.008" transform="translate(-4.219 -4.941)" fill="none" stroke="#8a4c45" stroke-linecap="round" stroke-linejoin="round" stroke-width="0.75"/>
    <path id="Trazado_884191" data-name="Trazado 884191" d="M138.966,96.165l-.333,2.343" transform="translate(-5.917 -4.104)" fill="none" stroke="#8a4c45" stroke-linecap="round" stroke-linejoin="round" stroke-width="0.75"/>
    <path id="Trazado_884192" data-name="Trazado 884192" d="M141.842,95.473a.486.486,0,0,1,.307.658" transform="translate(-6.054 -4.075)" fill="none" stroke="#8a4c45" stroke-linecap="round" stroke-linejoin="round" stroke-width="0.75"/>
    <line id="Línea_1204" data-name="Línea 1204" x2="0.335" y2="0.669" transform="translate(138.464 90.062)" fill="none" stroke="#8a4c45" stroke-linecap="round" stroke-linejoin="round" stroke-width="0.75"/>
    <path id="Trazado_884193" data-name="Trazado 884193" d="M26.392,21.035a29.753,29.753,0,0,0-2.7,6.682" transform="translate(-1.011 -0.898)" fill="none" stroke="#8a4c45" stroke-linecap="round" stroke-linejoin="round" stroke-width="0.75"/>
    <path id="Trazado_884194" data-name="Trazado 884194" d="M29.253,23.134l-1.326,2.349" transform="translate(-1.192 -0.987)" fill="none" stroke="#8a4c45" stroke-linecap="round" stroke-linejoin="round" stroke-width="0.75"/>
    <path id="Trazado_884195" data-name="Trazado 884195" d="M34.111,19.992l-2.342,4.684" transform="translate(-1.356 -0.853)" fill="none" stroke="#8a4c45" stroke-linecap="round" stroke-linejoin="round" stroke-width="0.75"/>
    <path id="Trazado_884196" data-name="Trazado 884196" d="M37.932,20.322,35.926,24" transform="translate(-1.533 -0.867)" fill="none" stroke="#8a4c45" stroke-linecap="round" stroke-linejoin="round" stroke-width="0.75"/>
    <path id="Trazado_884197" data-name="Trazado 884197" d="M38.325,5.664Q37.306,7.832,36.289,10" transform="translate(-1.549 -0.242)" fill="none" stroke="#8a4c45" stroke-linecap="round" stroke-linejoin="round" stroke-width="0.75"/>
    <path id="Trazado_884198" data-name="Trazado 884198" d="M42.148,4.95l-1.8,3.959" transform="translate(-1.722 -0.211)" fill="none" stroke="#8a4c45" stroke-linecap="round" stroke-linejoin="round" stroke-width="0.75"/>
    <path id="Trazado_884199" data-name="Trazado 884199" d="M45.3,6A3.112,3.112,0,0,1,44,8.042" transform="translate(-1.878 -0.256)" fill="none" stroke="#8a4c45" stroke-linecap="round" stroke-linejoin="round" stroke-width="0.75"/>
    <path id="Trazado_884200" data-name="Trazado 884200" d="M49.54,5.654a2.167,2.167,0,0,1-.317,1.671" transform="translate(-2.101 -0.241)" fill="none" stroke="#8a4c45" stroke-linecap="round" stroke-linejoin="round" stroke-width="0.75"/>
    <path id="Trazado_884201" data-name="Trazado 884201" d="M7.945,36.717C6.186,34.31,6.095,31,6.981,28.148a28.863,28.863,0,0,1,4.342-7.777" transform="translate(-0.274 -0.869)" fill="none" stroke="#8a4c45" stroke-linecap="round" stroke-linejoin="round" stroke-width="0.75"/>
    <path id="Trazado_884202" data-name="Trazado 884202" d="M15.29,14.994l1.677-1.333" transform="translate(-0.653 -0.583)" fill="none" stroke="#8a4c45" stroke-linecap="round" stroke-linejoin="round" stroke-width="0.75"/>
    <path id="Trazado_884203" data-name="Trazado 884203" d="M155,69.261a29.807,29.807,0,0,1-2.307,9.378" transform="translate(-6.517 -2.956)" fill="none" stroke="#8a4c45" stroke-linecap="round" stroke-linejoin="round" stroke-width="0.75"/>
    <path id="Trazado_884204" data-name="Trazado 884204" d="M144.292,86.328a6.28,6.28,0,0,0,3-1.7" transform="translate(-6.158 -3.612)" fill="none" stroke="#8a4c45" stroke-linecap="round" stroke-linejoin="round" stroke-width="0.75"/>
    <path id="Trazado_884205" data-name="Trazado 884205" d="M17.772,39.7A20.491,20.491,0,0,0,22.443,35" transform="translate(-0.759 -1.494)" fill="none" stroke="#8a4c45" stroke-linecap="round" stroke-linejoin="round" stroke-width="0.75"/>
    <path id="Trazado_884206" data-name="Trazado 884206" d="M21.646,41.166l2.981-3.7" transform="translate(-0.924 -1.599)" fill="none" stroke="#8a4c45" stroke-linecap="round" stroke-linejoin="round" stroke-width="0.75"/>
    <path id="Trazado_884207" data-name="Trazado 884207" d="M24.764,42.321a2.005,2.005,0,0,0,1.31-1.375" transform="translate(-1.057 -1.748)" fill="none" stroke="#8a4c45" stroke-linecap="round" stroke-linejoin="round" stroke-width="0.75"/>
    <path id="Trazado_884208" data-name="Trazado 884208" d="M37,39.631a62.768,62.768,0,0,1,6-6.375" transform="translate(-1.579 -1.419)" fill="none" stroke="#8a4c45" stroke-linecap="round" stroke-linejoin="round" stroke-width="0.75"/>
    <path id="Trazado_884209" data-name="Trazado 884209" d="M40.9,41.376l6.572-7.467" transform="translate(-1.746 -1.447)" fill="none" stroke="#8a4c45" stroke-linecap="round" stroke-linejoin="round" stroke-width="0.75"/>
    <path id="Trazado_884210" data-name="Trazado 884210" d="M46.774,40.512,48.782,38.5" transform="translate(-1.996 -1.643)" fill="none" stroke="#8a4c45" stroke-linecap="round" stroke-linejoin="round" stroke-width="0.75"/>
    <path id="Trazado_884211" data-name="Trazado 884211" d="M49.57,41.605l.669-1" transform="translate(-2.116 -1.733)" fill="none" stroke="#8a4c45" stroke-linecap="round" stroke-linejoin="round" stroke-width="0.75"/>
    <path id="Trazado_884212" data-name="Trazado 884212" d="M56.514,13.27l-6.559,9.792" transform="translate(-2.132 -0.566)" fill="none" stroke="#8a4c45" stroke-linecap="round" stroke-linejoin="round" stroke-width="0.75"/>
    <path id="Trazado_884213" data-name="Trazado 884213" d="M60.154,15.08,54.74,22.06" transform="translate(-2.336 -0.644)" fill="none" stroke="#8a4c45" stroke-linecap="round" stroke-linejoin="round" stroke-width="0.75"/>
    <path id="Trazado_884214" data-name="Trazado 884214" d="M63.067,15.786,60.055,20.47" transform="translate(-2.563 -0.674)" fill="none" stroke="#8a4c45" stroke-linecap="round" stroke-linejoin="round" stroke-width="0.75"/>
    <path id="Trazado_884215" data-name="Trazado 884215" d="M66.606,16.485A10.215,10.215,0,0,1,64.6,19.162" transform="translate(-2.757 -0.704)" fill="none" stroke="#8a4c45" stroke-linecap="round" stroke-linejoin="round" stroke-width="0.75"/>
    <path id="Trazado_884216" data-name="Trazado 884216" d="M84.461,14.039l-1.338,4.015" transform="translate(-3.548 -0.599)" fill="none" stroke="#8a4c45" stroke-linecap="round" stroke-linejoin="round" stroke-width="0.75"/>
    <path id="Trazado_884217" data-name="Trazado 884217" d="M87.249,14.731l-1.04,3.335" transform="translate(-3.679 -0.629)" fill="none" stroke="#8a4c45" stroke-linecap="round" stroke-linejoin="round" stroke-width="0.75"/>
    <path id="Trazado_884218" data-name="Trazado 884218" d="M90.155,14.746q-.174,1.17-.348,2.34" transform="translate(-3.833 -0.629)" fill="none" stroke="#8a4c45" stroke-linecap="round" stroke-linejoin="round" stroke-width="0.75"/>
    <path id="Trazado_884219" data-name="Trazado 884219" d="M95.354,14.74a1.163,1.163,0,0,1,0,1.67" transform="translate(-4.07 -0.629)" fill="none" stroke="#8a4c45" stroke-linecap="round" stroke-linejoin="round" stroke-width="0.75"/>
    <path id="Trazado_884220" data-name="Trazado 884220" d="M66.685,4.255l.336,1.338" transform="translate(-2.846 -0.182)" fill="none" stroke="#8a4c45" stroke-linecap="round" stroke-linejoin="round" stroke-width="0.75"/>
    <line id="Línea_1205" data-name="Línea 1205" y2="0.669" transform="translate(68.868 4.071)" fill="none" stroke="#8a4c45" stroke-linecap="round" stroke-linejoin="round" stroke-width="0.75"/>
    <path id="Trazado_884221" data-name="Trazado 884221" d="M75.084,3.9l.335.335" transform="translate(-3.205 -0.167)" fill="none" stroke="#8a4c45" stroke-linecap="round" stroke-linejoin="round" stroke-width="0.75"/>
    <path id="Trazado_884222" data-name="Trazado 884222" d="M37.008,50.394q-.184,1.169-.367,2.337" transform="translate(-1.564 -2.151)" fill="none" stroke="#8a4c45" stroke-linecap="round" stroke-linejoin="round" stroke-width="0.75"/>
    <path id="Trazado_884223" data-name="Trazado 884223" d="M41.254,50.42l-.443,1.3" transform="translate(-1.742 -2.152)" fill="none" stroke="#8a4c45" stroke-linecap="round" stroke-linejoin="round" stroke-width="0.75"/>
    <line id="Línea_1206" data-name="Línea 1206" y2="1.003" transform="translate(31.059 49.241)" fill="none" stroke="#8a4c45" stroke-linecap="round" stroke-linejoin="round" stroke-width="0.75"/>
    <path id="Trazado_884224" data-name="Trazado 884224" d="M55.7,50.022q-1.176,4.014-2.351,8.027" transform="translate(-2.277 -2.135)" fill="none" stroke="#8a4c45" stroke-linecap="round" stroke-linejoin="round" stroke-width="0.75"/>
    <path id="Trazado_884225" data-name="Trazado 884225" d="M60.678,49.355a28.135,28.135,0,0,0-2.439,8.005" transform="translate(-2.486 -2.106)" fill="none" stroke="#8a4c45" stroke-linecap="round" stroke-linejoin="round" stroke-width="0.75"/>
    <path id="Trazado_884226" data-name="Trazado 884226" d="M63.447,50.38q-.821,3.182-1.645,6.365" transform="translate(-2.638 -2.15)" fill="none" stroke="#8a4c45" stroke-linecap="round" stroke-linejoin="round" stroke-width="0.75"/>
    <path id="Trazado_884227" data-name="Trazado 884227" d="M67.39,51.106q-.681,2-1.36,4.007" transform="translate(-2.818 -2.181)" fill="none" stroke="#8a4c45" stroke-linecap="round" stroke-linejoin="round" stroke-width="0.75"/>
    <path id="Trazado_884228" data-name="Trazado 884228" d="M71.24,51.437l.335.334" transform="translate(-3.041 -2.195)" fill="none" stroke="#8a4c45" stroke-linecap="round" stroke-linejoin="round" stroke-width="0.75"/>
    <path id="Trazado_884229" data-name="Trazado 884229" d="M66.55,32.89a12.26,12.26,0,0,0-2.638,6.381" transform="translate(-2.728 -1.404)" fill="none" stroke="#8a4c45" stroke-linecap="round" stroke-linejoin="round" stroke-width="0.75"/>
    <path id="Trazado_884230" data-name="Trazado 884230" d="M71.757,30.442q-1.292,3.7-2.586,7.393" transform="translate(-2.952 -1.299)" fill="none" stroke="#8a4c45" stroke-linecap="round" stroke-linejoin="round" stroke-width="0.75"/>
    <path id="Trazado_884231" data-name="Trazado 884231" d="M75.786,30.5l-2.175,6.3" transform="translate(-3.142 -1.302)" fill="none" stroke="#8a4c45" stroke-linecap="round" stroke-linejoin="round" stroke-width="0.75"/>
    <path id="Trazado_884232" data-name="Trazado 884232" d="M80.16,30.435l-2.307,4.7" transform="translate(-3.323 -1.299)" fill="none" stroke="#8a4c45" stroke-linecap="round" stroke-linejoin="round" stroke-width="0.75"/>
    <path id="Trazado_884233" data-name="Trazado 884233" d="M84.164,30.13l-1,2.679" transform="translate(-3.55 -1.286)" fill="none" stroke="#8a4c45" stroke-linecap="round" stroke-linejoin="round" stroke-width="0.75"/>
    <path id="Trazado_884234" data-name="Trazado 884234" d="M88.009,28.722a1.438,1.438,0,0,1,0,1.333" transform="translate(-3.756 -1.226)" fill="none" stroke="#8a4c45" stroke-linecap="round" stroke-linejoin="round" stroke-width="0.75"/>
    <path id="Trazado_884235" data-name="Trazado 884235" d="M104.038,30.826l-1.716,3.324" transform="translate(-4.367 -1.316)" fill="none" stroke="#8a4c45" stroke-linecap="round" stroke-linejoin="round" stroke-width="0.75"/>
    <path id="Trazado_884236" data-name="Trazado 884236" d="M107.514,29.068l-1.673,4.35" transform="translate(-4.517 -1.241)" fill="none" stroke="#8a4c45" stroke-linecap="round" stroke-linejoin="round" stroke-width="0.75"/>
    <path id="Trazado_884237" data-name="Trazado 884237" d="M111.039,28.369q-.5,2.007-1,4.015" transform="translate(-4.696 -1.211)" fill="none" stroke="#8a4c45" stroke-linecap="round" stroke-linejoin="round" stroke-width="0.75"/>
    <path id="Trazado_884238" data-name="Trazado 884238" d="M113.91,29.08a9.85,9.85,0,0,1-1.44,4" transform="translate(-4.8 -1.241)" fill="none" stroke="#8a4c45" stroke-linecap="round" stroke-linejoin="round" stroke-width="0.75"/>
    <path id="Trazado_884239" data-name="Trazado 884239" d="M120.028,28.995a3.273,3.273,0,0,1-.619,3.029" transform="translate(-5.096 -1.238)" fill="none" stroke="#8a4c45" stroke-linecap="round" stroke-linejoin="round" stroke-width="0.75"/>
    <path id="Trazado_884240" data-name="Trazado 884240" d="M124.011,29.8a.846.846,0,0,1,.691.971" transform="translate(-5.293 -1.272)" fill="none" stroke="#8a4c45" stroke-linecap="round" stroke-linejoin="round" stroke-width="0.75"/>
    <path id="Trazado_884241" data-name="Trazado 884241" d="M80.943,51.79a63.321,63.321,0,0,1-2.371,9.363" transform="translate(-3.354 -2.21)" fill="none" stroke="#8a4c45" stroke-linecap="round" stroke-linejoin="round" stroke-width="0.75"/>
    <path id="Trazado_884242" data-name="Trazado 884242" d="M85.811,48.979A32.341,32.341,0,0,0,84.182,59.7" transform="translate(-3.593 -2.09)" fill="none" stroke="#8a4c45" stroke-linecap="round" stroke-linejoin="round" stroke-width="0.75"/>
    <path id="Trazado_884243" data-name="Trazado 884243" d="M90.081,49a41.047,41.047,0,0,0-1.536,8.342" transform="translate(-3.779 -2.091)" fill="none" stroke="#8a4c45" stroke-linecap="round" stroke-linejoin="round" stroke-width="0.75"/>
    <path id="Trazado_884244" data-name="Trazado 884244" d="M94.973,47.948q-.707,3.337-1.414,6.676" transform="translate(-3.993 -2.046)" fill="none" stroke="#8a4c45" stroke-linecap="round" stroke-linejoin="round" stroke-width="0.75"/>
    <path id="Trazado_884245" data-name="Trazado 884245" d="M99.247,46.9c-.12,1-.239,2.006-.359,3.01" transform="translate(-4.221 -2.002)" fill="none" stroke="#8a4c45" stroke-linecap="round" stroke-linejoin="round" stroke-width="0.75"/>
    <path id="Trazado_884246" data-name="Trazado 884246" d="M104.787,44.8q-.335,1-.668,2.008" transform="translate(-4.444 -1.912)" fill="none" stroke="#8a4c45" stroke-linecap="round" stroke-linejoin="round" stroke-width="0.75"/>
    <path id="Trazado_884247" data-name="Trazado 884247" d="M111.751,51.088a6.962,6.962,0,0,1-.66,3.683" transform="translate(-4.741 -2.18)" fill="none" stroke="#8a4c45" stroke-linecap="round" stroke-linejoin="round" stroke-width="0.75"/>
    <path id="Trazado_884248" data-name="Trazado 884248" d="M116.973,47.247a60.071,60.071,0,0,1-1.719,7.015" transform="translate(-4.919 -2.017)" fill="none" stroke="#8a4c45" stroke-linecap="round" stroke-linejoin="round" stroke-width="0.75"/>
    <path id="Trazado_884249" data-name="Trazado 884249" d="M120.851,44.446a23.835,23.835,0,0,1-1.414,8.019" transform="translate(-5.098 -1.897)" fill="none" stroke="#8a4c45" stroke-linecap="round" stroke-linejoin="round" stroke-width="0.75"/>
    <path id="Trazado_884250" data-name="Trazado 884250" d="M125.65,42.7q-1.338,4.852-2.678,9.7" transform="translate(-5.249 -1.822)" fill="none" stroke="#8a4c45" stroke-linecap="round" stroke-linejoin="round" stroke-width="0.75"/>
    <path id="Trazado_884251" data-name="Trazado 884251" d="M130.187,40.95a27.952,27.952,0,0,1-2.277,8.722" transform="translate(-5.459 -1.748)" fill="none" stroke="#8a4c45" stroke-linecap="round" stroke-linejoin="round" stroke-width="0.75"/>
    <path id="Trazado_884252" data-name="Trazado 884252" d="M135.108,40.95a21.292,21.292,0,0,1-1.954,5.713" transform="translate(-5.683 -1.748)" fill="none" stroke="#8a4c45" stroke-linecap="round" stroke-linejoin="round" stroke-width="0.75"/>
    <path id="Trazado_884253" data-name="Trazado 884253" d="M140.383,41.65l-1.338,2.677" transform="translate(-5.935 -1.778)" fill="none" stroke="#8a4c45" stroke-linecap="round" stroke-linejoin="round" stroke-width="0.75"/>
    <line id="Línea_1207" data-name="Línea 1207" y2="1.004" transform="translate(138.13 38.534)" fill="none" stroke="#8a4c45" stroke-linecap="round" stroke-linejoin="round" stroke-width="0.75"/>
    <path id="Trazado_884254" data-name="Trazado 884254" d="M75.434,69.979q-.731,2.659-1.461,5.32" transform="translate(-3.157 -2.987)" fill="none" stroke="#8a4c45" stroke-linecap="round" stroke-linejoin="round" stroke-width="0.75"/>
    <path id="Trazado_884255" data-name="Trazado 884255" d="M78.884,71.009q-.5,1.34-1,2.678" transform="translate(-3.324 -3.031)" fill="none" stroke="#8a4c45" stroke-linecap="round" stroke-linejoin="round" stroke-width="0.75"/>
    <path id="Trazado_884256" data-name="Trazado 884256" d="M82.729,71.708q-.5,1-1,2.007" transform="translate(-3.488 -3.061)" fill="none" stroke="#8a4c45" stroke-linecap="round" stroke-linejoin="round" stroke-width="0.75"/>
    <path id="Trazado_884257" data-name="Trazado 884257" d="M86.6,69.961a3.585,3.585,0,0,1-.348,2" transform="translate(-3.681 -2.986)" fill="none" stroke="#8a4c45" stroke-linecap="round" stroke-linejoin="round" stroke-width="0.75"/>
    <path id="Trazado_884258" data-name="Trazado 884258" d="M99.075,69.258A41.923,41.923,0,0,0,96.437,77.3" transform="translate(-4.116 -2.956)" fill="none" stroke="#8a4c45" stroke-linecap="round" stroke-linejoin="round" stroke-width="0.75"/>
    <path id="Trazado_884259" data-name="Trazado 884259" d="M101.334,71.369q-.35,2.341-.7,4.68" transform="translate(-4.295 -3.046)" fill="none" stroke="#8a4c45" stroke-linecap="round" stroke-linejoin="round" stroke-width="0.75"/>
    <path id="Trazado_884260" data-name="Trazado 884260" d="M106.048,70.328a12.908,12.908,0,0,1-1.359,4.952" transform="translate(-4.468 -3.002)" fill="none" stroke="#8a4c45" stroke-linecap="round" stroke-linejoin="round" stroke-width="0.75"/>
    <path id="Trazado_884261" data-name="Trazado 884261" d="M109.366,70.317,109,72.655" transform="translate(-4.652 -3.001)" fill="none" stroke="#8a4c45" stroke-linecap="round" stroke-linejoin="round" stroke-width="0.75"/>
    <path id="Trazado_884262" data-name="Trazado 884262" d="M115.263,67.514q-.167.837-.334,1.672" transform="translate(-4.905 -2.882)" fill="none" stroke="#8a4c45" stroke-linecap="round" stroke-linejoin="round" stroke-width="0.75"/>
    <path id="Trazado_884263" data-name="Trazado 884263" d="M124.038,71.028q-.705,3.171-1.409,6.341" transform="translate(-5.234 -3.032)" fill="none" stroke="#8a4c45" stroke-linecap="round" stroke-linejoin="round" stroke-width="0.75"/>
    <path id="Trazado_884264" data-name="Trazado 884264" d="M129.607,69.3a36.07,36.07,0,0,0-2.18,8.99" transform="translate(-5.439 -2.958)" fill="none" stroke="#8a4c45" stroke-linecap="round" stroke-linejoin="round" stroke-width="0.75"/>
    <path id="Trazado_884265" data-name="Trazado 884265" d="M134.457,68.58q-1.2,4.341-2.408,8.681" transform="translate(-5.636 -2.927)" fill="none" stroke="#8a4c45" stroke-linecap="round" stroke-linejoin="round" stroke-width="0.75"/>
    <path id="Trazado_884266" data-name="Trazado 884266" d="M139.7,67.543q-1.4,3.993-2.8,7.986" transform="translate(-5.843 -2.883)" fill="none" stroke="#8a4c45" stroke-linecap="round" stroke-linejoin="round" stroke-width="0.75"/>
    <path id="Trazado_884267" data-name="Trazado 884267" d="M143.922,68.236l-1.778,4.982" transform="translate(-6.067 -2.912)" fill="none" stroke="#8a4c45" stroke-linecap="round" stroke-linejoin="round" stroke-width="0.75"/>
    <line id="Línea_1208" data-name="Línea 1208" x1="0.69" y2="2.001" transform="translate(140.169 64.986)" fill="none" stroke="#8a4c45" stroke-linecap="round" stroke-linejoin="round" stroke-width="0.75"/>
    <path id="Trazado_884268" data-name="Trazado 884268" d="M142.238,53.234l-1.458,3.293" transform="translate(-6.009 -2.272)" fill="none" stroke="#8a4c45" stroke-linecap="round" stroke-linejoin="round" stroke-width="0.75"/>
    <path id="Trazado_884269" data-name="Trazado 884269" d="M144.6,52.484l-.7,3" transform="translate(-6.142 -2.24)" fill="none" stroke="#8a4c45" stroke-linecap="round" stroke-linejoin="round" stroke-width="0.75"/>
    <path id="Trazado_884270" data-name="Trazado 884270" d="M147.005,51.778q-.467,2.183-.932,4.365" transform="translate(-6.235 -2.21)" fill="none" stroke="#8a4c45" stroke-linecap="round" stroke-linejoin="round" stroke-width="0.75"/>
    <path id="Trazado_884271" data-name="Trazado 884271" d="M150.886,51.441a25.523,25.523,0,0,1-1.414,4.657" transform="translate(-6.38 -2.196)" fill="none" stroke="#8a4c45" stroke-linecap="round" stroke-linejoin="round" stroke-width="0.75"/>
    <path id="Trazado_884272" data-name="Trazado 884272" d="M155.173,52.144q-.167,1.338-.334,2.677" transform="translate(-6.609 -2.226)" fill="none" stroke="#8a4c45" stroke-linecap="round" stroke-linejoin="round" stroke-width="0.75"/>
    <path id="Trazado_884273" data-name="Trazado 884273" d="M91.449,89.878l-.7,4.009" transform="translate(-3.873 -3.836)" fill="none" stroke="#8a4c45" stroke-linecap="round" stroke-linejoin="round" stroke-width="0.75"/>
    <path id="Trazado_884274" data-name="Trazado 884274" d="M94.977,90.233l-.669,3.012" transform="translate(-4.025 -3.851)" fill="none" stroke="#8a4c45" stroke-linecap="round" stroke-linejoin="round" stroke-width="0.75"/>
    <path id="Trazado_884275" data-name="Trazado 884275" d="M97.781,89.186l-.67,2.677" transform="translate(-4.145 -3.807)" fill="none" stroke="#8a4c45" stroke-linecap="round" stroke-linejoin="round" stroke-width="0.75"/>
    <path id="Trazado_884276" data-name="Trazado 884276" d="M101.258,87.794a1.967,1.967,0,0,1-.287,1.681" transform="translate(-4.309 -3.747)" fill="none" stroke="#8a4c45" stroke-linecap="round" stroke-linejoin="round" stroke-width="0.75"/>
    <path id="Trazado_884277" data-name="Trazado 884277" d="M113.712,89.507a21.144,21.144,0,0,0-2.961,5.719" transform="translate(-4.727 -3.82)" fill="none" stroke="#8a4c45" stroke-linecap="round" stroke-linejoin="round" stroke-width="0.75"/>
    <path id="Trazado_884278" data-name="Trazado 884278" d="M116.951,91.281l-1.673,3.346" transform="translate(-4.92 -3.896)" fill="none" stroke="#8a4c45" stroke-linecap="round" stroke-linejoin="round" stroke-width="0.75"/>
    <path id="Trazado_884279" data-name="Trazado 884279" d="M120.809,90.925l-1,2.68" transform="translate(-5.114 -3.881)" fill="none" stroke="#8a4c45" stroke-linecap="round" stroke-linejoin="round" stroke-width="0.75"/>
    <path id="Trazado_884280" data-name="Trazado 884280" d="M124.351,90.582q-.168.837-.335,1.673" transform="translate(-5.293 -3.866)" fill="none" stroke="#8a4c45" stroke-linecap="round" stroke-linejoin="round" stroke-width="0.75"/>
    <line id="Línea_1209" data-name="Línea 1209" y2="1.004" transform="translate(124.077 85.378)" fill="none" stroke="#8a4c45" stroke-linecap="round" stroke-linejoin="round" stroke-width="0.75"/>
  </g>
</svg>
