<svg id="Grupo_1102066" data-name="Grupo 1102066" xmlns="http://www.w3.org/2000/svg" xmlns:xlink="http://www.w3.org/1999/xlink" width="61.841" height="54.245" viewBox="0 0 61.841 54.245">
  <defs>
    <clipPath id="clip-path">
      <rect id="Rectángulo_401965" data-name="Rectángulo 401965" width="61.841" height="54.245"/>
    </clipPath>
  </defs>
  <g id="Grupo_1102065" data-name="Grupo 1102065" clip-path="url(#clip-path)">
    <path id="Trazado_895030" data-name="Trazado 895030" d="M61.841,30.235c-.073.919-.159,1.837-.218,2.757a85.815,85.815,0,0,1-2.688,16.16,1.522,1.522,0,0,1-1.695,1.3c-2.174.009-4.348,0-6.521,0H16.789c0,.56.007,1.057,0,1.554A2.059,2.059,0,0,1,14.76,54.2c-1.748.061-3.5.061-5.251,0A2.04,2.04,0,0,1,7.48,52.022c-.007-.482,0-.964,0-1.565H5.558c-2.266,0-2.335-.071-2.89-2.252A85.623,85.623,0,0,1,.026,24.9,86.5,86.5,0,0,1,2.921,4.878,1.494,1.494,0,0,1,4.539,3.637c1.566-.009,3.133,0,4.8,0,0-.7,0-1.358,0-2.012C9.344.234,10.028-.256,11.318.2A24.168,24.168,0,0,0,28.038.172c1.158-.414,1.754-.1,2.034,1.093.092.391.179.783.269,1.175.085.371.172.742.277,1.193H56.983c1.323,0,1.687.288,2.022,1.575a85.281,85.281,0,0,1,2.743,18.036,5.021,5.021,0,0,0,.093.589Zm-46.9,3.288c1.3.538,1.826,1.107,1.836,2.117.021,2.214.024,4.428-.013,6.642a1.217,1.217,0,0,1-.45.844c-.606.435-1.334-.082-1.337-.924-.009-2.033-.016-4.066.006-6.1.005-.5-.107-.728-.666-.715-1.469.033-2.939.024-4.408,0-.464-.007-.633.136-.632.619q.021,7.88,0,15.761c0,.468.142.647.617.641q2.234-.028,4.468,0c.48.006.624-.185.618-.648-.02-1.65-.011-3.3-.006-4.952,0-.7.344-1.116.9-1.115s.9.414.906,1.117c.006.6,0,1.2,0,1.8.219.014.359.031.5.031q19.686,0,39.372.012c.438,0,.58-.159.68-.549a84.715,84.715,0,0,0,2.669-19.08A84.42,84.42,0,0,0,57.354,6.021a.651.651,0,0,0-.769-.587q-12.5.024-25,.013c-.2,0-.392.017-.628.028l.331,2.132c1.116-.076,2.174-.2,3.232-.21,2.616-.03,5.234-.034,7.85,0a16.572,16.572,0,0,1,2.936.271A13.71,13.71,0,0,1,55.331,25.907a1.54,1.54,0,0,1-.287.521.816.816,0,0,1-1.1.139.875.875,0,0,1-.353-1.156,12.368,12.368,0,0,0,.805-4.062A11.854,11.854,0,0,0,42.821,9.21c-2.978-.045-5.958-.022-8.937.007-.773.008-1.546.156-2.377.246.06.712.112,1.325.159,1.882,1.154-.071,2.27-.184,3.387-.2,2.335-.03,4.67-.02,7,0a15.26,15.26,0,0,1,2.164.138,9.956,9.956,0,0,1-.4,19.676,5.8,5.8,0,0,0-4.839,4.406c-.184.636-.3,1.292-.449,1.938a7.15,7.15,0,0,1-14.138-1.667c0-1.611.008-3.221-.013-4.831,0-.188-.137-.5-.27-.538a15.461,15.461,0,0,0-1.613-.277,3.177,3.177,0,0,0-.04.339c0,1.892-.019,3.784.005,5.676a9.08,9.08,0,0,0,16.944,4.35,15.873,15.873,0,0,0,1.409-4.337,3.961,3.961,0,0,1,3.276-3.144c.492-.1.989-.183,1.473-.312A11.869,11.869,0,0,0,51.4,28.987c.464-.509.95-.569,1.371-.206s.411.915-.044,1.435c-.106.121-.217.238-.33.353a13.6,13.6,0,0,1-7.723,4.03,2.332,2.332,0,0,0-2.15,2.038c-.13.589-.247,1.181-.392,1.766A10.886,10.886,0,0,1,30.9,46.681a10.751,10.751,0,0,1-10.113-9.364,57.783,57.783,0,0,1-.141-6.088c-.007-.438,0-.875,0-1.464-1.43.1-2.8.113-4.138.306a1.821,1.821,0,0,0-1.548,1.714,14.855,14.855,0,0,0-.013,1.737M11.2,2.132v31.4h1.9c0-.5-.015-.96,0-1.419a3.871,3.871,0,0,1,3.772-3.934c1.483-.1,2.974-.14,4.459-.1,1.135.033,2.265.239,3.432.372.046-.193.095-.385.139-.578A54.431,54.431,0,0,0,25.884,9.41c-.084-.728.208-1.2.783-1.268.551-.062.929.314,1.011,1.017A56.394,56.394,0,0,1,26.863,27.4c-.106.5-.206,1.007-.312,1.527l1.834.574a59.227,59.227,0,0,0,0-27.514l-1.765.557c-.022.078-.049.119-.042.153.113.551.243,1.1.346,1.651.123.658-.131,1.123-.649,1.237-.554.122-.981-.207-1.136-.883-.129-.562-.253-1.125-.376-1.677-7.205.553-7.205.553-13.561-.9M26.207,30.724c0,1.767-.017,3.456,0,5.144a5.331,5.331,0,0,0,10.5,1.248c.144-.565.247-1.139.383-1.706a7.8,7.8,0,0,1,6.241-6.221c.489-.113.992-.173,1.473-.313a8.122,8.122,0,0,0-2.175-15.92c-2.878-.022-5.757-.022-8.635.017a16.951,16.951,0,0,0-2.212.31c0,.346-.005.546,0,.747a60.507,60.507,0,0,1-1.714,16.213c-.284,1.167-.857,1.487-1.981,1.1-.6-.207-1.214-.4-1.884-.62M7.479,48.643V47.82q0-6.007,0-12.013a2.1,2.1,0,0,1,1.511-2.151c.107-.039.216-.072.292-.1V5.447c-1.46,0-2.867.012-4.274-.009-.374-.006-.412.219-.479.478A84.011,84.011,0,0,0,1.954,22.149,81.474,81.474,0,0,0,3.046,41.263c.411,2.312.976,4.6,1.494,6.889.042.184.253.46.4.468.819.045,1.642.022,2.542.022" transform="translate(0 0)"/>
    <path id="Trazado_895031" data-name="Trazado 895031" d="M29.4,94.913a.931.931,0,0,1,.909.931.9.9,0,0,1-.9.866.882.882,0,0,1-.9-.857.908.908,0,0,1,.89-.94" transform="translate(-17.279 -57.52)"/>
    <path id="Trazado_895032" data-name="Trazado 895032" d="M30.313,105.361a.9.9,0,0,1-.945.878.877.877,0,0,1-.855-.9.9.9,0,0,1,.875-.891.924.924,0,0,1,.925.911" transform="translate(-17.279 -63.299)"/>
    <path id="Trazado_895033" data-name="Trazado 895033" d="M29.411,115.772a.88.88,0,0,1-.9-.856.893.893,0,0,1,.891-.931.917.917,0,0,1,.908.924.905.905,0,0,1-.9.863" transform="translate(-17.279 -69.078)"/>
    <path id="Trazado_895034" data-name="Trazado 895034" d="M30.313,124.4a.9.9,0,0,1-.856.907.889.889,0,1,1-.1-1.776.905.905,0,0,1,.953.869" transform="translate(-17.28 -74.865)"/>
    <path id="Trazado_895035" data-name="Trazado 895035" d="M33.232,28.08q0-3.983,0-7.966a2.96,2.96,0,0,1,.046-.659.818.818,0,0,1,.923-.686.809.809,0,0,1,.814.743,3.829,3.829,0,0,1,.026.6q0,7.966,0,15.932c0,.962-.255,1.366-.87,1.385-.642.02-.941-.418-.942-1.384q0-3.983,0-7.966" transform="translate(-20.139 -11.373)"/>
    <path id="Trazado_895036" data-name="Trazado 895036" d="M99.836,51.835a4.656,4.656,0,0,1,.142-9.312,4.656,4.656,0,1,1-.142,9.312M97.09,47.157A2.823,2.823,0,0,0,99.9,50.024a2.845,2.845,0,1,0-2.808-2.867" transform="translate(-57.742 -25.77)"/>
    <path id="Trazado_895037" data-name="Trazado 895037" d="M106.6,52.995a.9.9,0,0,1-.953.868.862.862,0,0,1-.84-.906.872.872,0,0,1,.936-.873.911.911,0,0,1,.856.911" transform="translate(-63.517 -31.563)"/>
  </g>
</svg>
