<svg id="Grupo_1102068" data-name="Grupo 1102068" xmlns="http://www.w3.org/2000/svg" xmlns:xlink="http://www.w3.org/1999/xlink" width="60.243" height="54.245" viewBox="0 0 60.243 54.245">
  <defs>
    <clipPath id="clip-path">
      <rect id="Rectángulo_401966" data-name="Rectángulo 401966" width="60.243" height="54.245"/>
    </clipPath>
  </defs>
  <g id="Grupo_1102067" data-name="Grupo 1102067" transform="translate(0 0)" clip-path="url(#clip-path)">
    <path id="Trazado_895038" data-name="Trazado 895038" d="M54.528,23.315c.176.062.347.125.52.181a7.4,7.4,0,0,1,5.157,6.925c.04,5.039.06,10.078,0,15.116a8.967,8.967,0,0,1-8.885,8.69c-6.731.032-13.462.01-20.193.01q-10.881,0-21.761,0A9.031,9.031,0,0,1,0,44.865Q0,33.073,0,21.28A11,11,0,0,1,9.023,10.266a11.863,11.863,0,0,1,2.18-.19c2.488-.022,4.976.029,7.463-.019a9.7,9.7,0,0,1,6.011,1.583C26.508,6.112,30.09,2.354,35.659.68A15.561,15.561,0,0,1,47.073,1.6a16.126,16.126,0,0,1,7.455,21.712M2.009,39.791c0,1.749-.018,3.338.008,4.926A9.981,9.981,0,0,0,2.2,46.769a6.964,6.964,0,0,0,6.909,5.457q21.01.016,42.019,0c.146,0,.292,0,.439-.012a6.871,6.871,0,0,0,6.495-5.841c.226-1.983.112-4,.147-6.01,0-.152-.026-.3-.048-.539a7.649,7.649,0,0,1-5.576,2.363q-22.483,0-44.967-.008a8.993,8.993,0,0,1-1.8-.209,7.567,7.567,0,0,1-3.814-2.183M42.854,23.118c2.969,0,5.937-.009,8.906.01a.779.779,0,0,0,.821-.486,14.051,14.051,0,1,0-26.053-9.984,1.226,1.226,0,0,0,.187.9,10.036,10.036,0,0,1,1.905,4.578,5.53,5.53,0,0,0,5.768,4.984q4.233.006,8.466,0M30.044,40.184h8.529q6.961,0,13.922,0a5.527,5.527,0,0,0,5.719-5.745c0-1.129,0-2.258,0-3.387a5.515,5.515,0,0,0-5.9-5.924c-5.937,0-11.874.006-17.81-.009a9.243,9.243,0,0,1-2.049-.2,7.506,7.506,0,0,1-5.842-6.649,7.132,7.132,0,0,0-7.149-6.189q-4.107-.013-8.215,0A9.025,9.025,0,0,0,2.01,21.321Q2,27.813,2.01,34.305a5.537,5.537,0,0,0,5.9,5.878q11.069,0,22.137,0" transform="translate(0 0)"/>
    <path id="Trazado_895039" data-name="Trazado 895039" d="M17.332,106.33c-.941,0-1.882.006-2.822,0-.741-.006-1.187-.391-1.187-1s.446-1,1.186-1q2.822-.009,5.644,0c.738,0,1.188.393,1.188,1s-.449,1-1.187,1c-.941.008-1.882,0-2.822,0" transform="translate(-7.294 -57.112)"/>
    <path id="Trazado_895040" data-name="Trazado 895040" d="M76.963,32.193l5.81-5.161c.8-.708,1.59-1.419,2.388-2.126.6-.532,1.175-.567,1.6-.1s.35,1.058-.236,1.581q-4.354,3.879-8.716,7.747a1.04,1.04,0,0,1-1.61.02q-2.354-1.876-4.7-3.761a1.014,1.014,0,1,1,1.252-1.559c1.392,1.1,2.775,2.215,4.213,3.365" transform="translate(-38.854 -13.401)"/>
    <path id="Trazado_895041" data-name="Trazado 895041" d="M36.815,55.211H16.806a7.545,7.545,0,0,1-7.933-7.9c0-2.844-.005-5.688,0-8.532a7.531,7.531,0,0,1,7.675-7.656q3.858-.008,7.715,0a5.026,5.026,0,0,1,5.186,4.4,9.742,9.742,0,0,0,4.923,7.45,9.334,9.334,0,0,0,4.681,1.2c4.872,0,9.743-.022,14.615.008a7.531,7.531,0,0,1,7.389,7.242,3.511,3.511,0,0,1-3.671,3.79q-10.287.008-20.574,0M36.721,53.2H57.1c1.546,0,2.154-.729,1.895-2.268a5.5,5.5,0,0,0-5.583-4.756c-4.871-.011-9.742.044-14.612-.022A11.144,11.144,0,0,1,29.792,41.6a10.919,10.919,0,0,1-2.231-5.376,3.313,3.313,0,0,0-3.551-3.116c-2.442.087-4.891.017-7.336.021a5.523,5.523,0,0,0-5.792,5.793q-.006,4.2,0,8.405a5.538,5.538,0,0,0,5.9,5.878q9.971,0,19.943,0" transform="translate(-4.856 -17.035)"/>
    <path id="Trazado_895042" data-name="Trazado 895042" d="M33.433,55.588a4.514,4.514,0,1,1-4.516-4.5,4.53,4.53,0,0,1,4.516,4.5m-2.007.022a2.507,2.507,0,1,0-2.512,2.5,2.517,2.517,0,0,0,2.512-2.5" transform="translate(-13.361 -27.971)"/>
  </g>
</svg>
