<svg xmlns="http://www.w3.org/2000/svg" xmlns:xlink="http://www.w3.org/1999/xlink" width="92.344" height="92.344" viewBox="0 0 92.344 92.344">
  <defs>
    <clipPath id="clip-path">
      <rect id="Rect치ngulo_401506" data-name="Rect치ngulo 401506" width="92.344" height="92.344" fill="none"/>
    </clipPath>
    <clipPath id="clip-path-2">
      <rect id="Rect치ngulo_401977" data-name="Rect치ngulo 401977" width="56.814" height="56.762" fill="none"/>
    </clipPath>
  </defs>
  <g id="Grupo_1102120" data-name="Grupo 1102120" transform="translate(-4807 10678.344)">
    <g id="Grupo_1099827" data-name="Grupo 1099827" transform="translate(4807 -10678.344)" clip-path="url(#clip-path)">
      <path id="Trazado_883915" data-name="Trazado 883915" d="M92.344,46.173A46.172,46.172,0,1,1,46.172,0,46.172,46.172,0,0,1,92.344,46.173" transform="translate(0 -0.001)" fill="#464442"/>
    </g>
    <g id="Grupo_1102082" data-name="Grupo 1102082" transform="translate(4828 -10659.497)">
      <g id="Grupo_1102081" data-name="Grupo 1102081" clip-path="url(#clip-path-2)">
        <path id="Trazado_895078" data-name="Trazado 895078" d="M38.876,38.994c.77,0,1.46.021,2.15,0A9.123,9.123,0,0,1,49.6,43.425l.292-.47A4.532,4.532,0,0,1,54.3,40.869a3,3,0,0,1,2.247,4.194,6.869,6.869,0,0,1-.636,1.054c-.933,1.356-.935,2,.015,3.364.075.107.15.214.223.323a3.088,3.088,0,0,1,.046,3.765,3.2,3.2,0,0,1-3.479,1.075,4.787,4.787,0,0,1-3.053-2.368c-.094.126-.181.236-.26.352a8.664,8.664,0,0,1-7.431,4.115c-4.735.039-9.469.006-14.2.016A2.62,2.62,0,0,1,25.525,55.4a10.027,10.027,0,0,1-1.37-3.652c-.053-.256-.1-.513-.162-.838h-.656c-5.708,0-11.416.009-17.124,0a6,6,0,0,1-6.03-4.651,6.959,6.959,0,0,1-.175-1.611Q-.006,25.465,0,6.287A6.059,6.059,0,0,1,6.308,0Q19.446,0,32.584,0A6.039,6.039,0,0,1,38.873,6.3q.01,15.949,0,31.9v.8m-1.366-8.2a.716.716,0,0,0-.159-.059c-.917-.007-1.834,0-2.75-.018a2.031,2.031,0,0,1-2.213-2.2c-.012-2.059,0-4.118,0-6.177a1.846,1.846,0,0,1,.792-1.7,3.4,3.4,0,0,1,1.464-.432c.944-.066,1.9-.019,2.837-.019V15.632h-.663c-2.62,0-5.24,0-7.86-.016a1.166,1.166,0,0,1-.758-.244,6.107,6.107,0,0,0-2.811-1.563,21.906,21.906,0,0,0-12.283.155,7.988,7.988,0,0,0-2.216,1.254,1.672,1.672,0,0,1-1.038.42c-2.62-.012-5.24-.006-7.86-.006H1.374v4.555c.973,0,1.923-.007,2.872,0A2.046,2.046,0,0,1,6.5,22.456c0,1.909,0,3.819,0,5.728,0,1.83-.711,2.535-2.555,2.537H1.378v4.549h.631c2.62,0,5.24-.007,7.86.01a1.276,1.276,0,0,1,.815.247A6.643,6.643,0,0,0,13.558,37.1a22.107,22.107,0,0,0,10.387.349,7.812,7.812,0,0,0,4.015-1.73,1.6,1.6,0,0,1,1.2-.455c2.582.015,5.165.008,7.748.008h.6Zm-7.584,24.58a.131.131,0,0,0,.067.024c4.208,0,8.421.1,12.624-.046,4.112-.141,7.408-4.406,6.756-8.473a7.566,7.566,0,0,0-7.639-6.535c-3.816-.014-7.631,0-11.447,0-.139,0-.277.017-.372.023a18.2,18.2,0,0,1,.011,15.009M19.433,8.5c3.238,0,6.475.007,9.713,0a2.219,2.219,0,1,0-.01-4.435q-9.685-.011-19.37,0a2.222,2.222,0,1,0,.01,4.44q4.829,0,9.657,0m18.095,5.76v-.447c0-2.546.01-5.092,0-7.638a4.687,4.687,0,0,0-4.878-4.826q-13.2,0-26.391,0A4.714,4.714,0,0,0,1.35,6.27c-.005,2.471,0,4.943,0,7.414v.565H2.711V13.61c0-1.479-.022-2.958.007-4.437A6.543,6.543,0,0,1,9.129,2.724q10.3-.056,20.607,0a6.389,6.389,0,0,1,6.3,5.544c.2,1.756.1,3.549.126,5.325,0,.218,0,.436,0,.672ZM24.44,42.443a1.4,1.4,0,0,0-.235-.035c-4.848,0-9.7-.017-14.544.022a2.664,2.664,0,0,0-1.428.532,2.1,2.1,0,0,0-.646,2.434,2.189,2.189,0,0,0,2.126,1.451q6.879.009,13.758,0a1.5,1.5,0,0,0,.256-.034l.713-4.37M19.459,9.867H14.744c-1.721,0-3.442-.016-5.164.006a2.127,2.127,0,0,0-2.125,2.16,2.166,2.166,0,0,0,2,2.231,1.129,1.129,0,0,0,.566-.141,18.77,18.77,0,0,1,2.386-1.311,22.029,22.029,0,0,1,11.562-.724,9.917,9.917,0,0,1,4.9,2.057.709.709,0,0,0,.462.124,2.049,2.049,0,0,0,1.888-1.277,2.17,2.17,0,0,0-2-3.121c-3.255-.015-6.511,0-9.766,0M30.167,47.819a11.409,11.409,0,0,0-.078-1.475c-.234-1.339-.457-2.685-.81-3.994a4.527,4.527,0,0,0-.957-1.616.765.765,0,0,0-1.333.01,4.649,4.649,0,0,0-.9,1.461,17.352,17.352,0,0,0-.752,3.033,16.772,16.772,0,0,0,.611,7.971,6.627,6.627,0,0,0,.917,1.714c.479.651,1.021.661,1.534.029a5.982,5.982,0,0,0,.912-1.588,16.306,16.306,0,0,0,.856-5.545M31.4,39a2.17,2.17,0,0,0-1.858-2.352,1.381,1.381,0,0,0-.726.158,22.394,22.394,0,0,1-2.923,1.492,22.057,22.057,0,0,1-11.033.508,10.251,10.251,0,0,1-4.855-2.047.933.933,0,0,0-.628-.117,2.226,2.226,0,0,0,.562,4.417c4.847.006,9.694,0,14.541.011a.9.9,0,0,0,.932-.51,2.785,2.785,0,0,1,2.753-1.569c1.062.051,2.128.01,3.235.01M1.349,36.637c0,2.662,0,5.262,0,7.862a4.723,4.723,0,0,0,5.044,5.059q8.395,0,16.79,0h.591V48.2h-.715c-4.623,0-9.247.017-13.87-.008a6.427,6.427,0,0,1-6.369-5.667c-.177-1.648-.082-3.326-.108-4.991,0-.292,0-.584,0-.894Zm49.237,8.242c.555-.353,1.065-.7,1.6-1.012.51-.3.925-.235,1.129.134s.035.723-.455,1.043c-.562.367-1.108.759-1.642,1.165a1.383,1.383,0,0,0-.474,1.123,2.664,2.664,0,0,0,1.3,2.935.574.574,0,0,1,.118.892.617.617,0,0,1-.891.173c-.193-.116-.377-.248-.608-.4a3.183,3.183,0,0,0,3.011,2.485,1.676,1.676,0,0,0,1.521-2.587c-.255-.45-.574-.864-.88-1.319-.246.452-.575.684-1.032.448s-.4-.645-.241-1.031c.306-.762.594-1.536.969-2.264.341-.662.806-1.259,1.185-1.9a1.662,1.662,0,0,0-1.178-2.569,3.208,3.208,0,0,0-3.431,2.69M1.378,29.355c1.067,0,2.108.017,3.149-.008.428-.01.621-.323.623-.725q.011-3.17,0-6.339c0-.4-.188-.716-.619-.726-1.041-.023-2.083-.008-3.152-.008ZM37.5,21.55c-1.072,0-2.112-.016-3.153.008-.437.01-.6.343-.606.736q-.011,3.166,0,6.332c0,.368.163.7.568.711,1.056.029,2.113.01,3.189.01ZM6.274,5.094A4.376,4.376,0,0,0,4.189,8.285c-.132,1.955-.084,3.922-.109,5.884,0,.028.046.056.063.075H6.807a3.7,3.7,0,0,1,.719-5.068A3.751,3.751,0,0,1,6.274,5.094M7.518,41.74a3.745,3.745,0,0,1-.743-5.091H4.13c0,1.931-.063,3.834.022,5.729A4.553,4.553,0,0,0,5.814,45.52c.124.114.265.209.488.383A3.776,3.776,0,0,1,7.518,41.74M34.769,14.255c0-1.912.069-3.8-.024-5.678a4.608,4.608,0,0,0-1.688-3.195c-.124-.111-.265-.2-.457-.346a3.839,3.839,0,0,1-1.212,4.143,3.74,3.74,0,0,1,.714,5.076ZM32.191,36.63l.731,2.317h1.854V36.63Zm5.292.033H36.209v2.305h1.274Z" transform="translate(0 0)" fill="#fff"/>
        <path id="Trazado_895079" data-name="Trazado 895079" d="M30.984,59.477a4.035,4.035,0,0,1-3.358-1.045A.988.988,0,0,1,27.3,57.1c.147-.281.256-.583.416-.856a2.915,2.915,0,0,1,3.563-1.614c.2.039.4.088.588.13.218-.81.4-1.623.657-2.41A1.469,1.469,0,0,1,34,51.2a1.551,1.551,0,0,1,1.449,1.2c.038.105.072.213.115.316.449,1.094.551,1.153,1.715,1.131.561-.01,1.124.042,1.682,0a.9.9,0,0,0,.621-.317,6.971,6.971,0,0,0,.616-1.249A1.563,1.563,0,0,1,41.618,51.2a1.421,1.421,0,0,1,1.412,1c.277.807.473,1.642.713,2.5.173-.033.388-.077.6-.116a2.848,2.848,0,0,1,3.139,1.33c.112.172.224.345.319.527.694,1.322.562,1.76-.749,2.517a4.42,4.42,0,0,1-2.436.605,8.827,8.827,0,0,1-.244,1.528c-.217.644-.571,1.241-.836,1.87a1.43,1.43,0,0,0-.155.759,3.357,3.357,0,0,1-3.252,4.063q-2.329.035-4.659,0a3.371,3.371,0,0,1-3.252-4.065.839.839,0,0,0-.061-.614,5.409,5.409,0,0,1-1.117-3.286c-.006-.09-.032-.18-.061-.336m1.641,1.584a2.313,2.313,0,0,0,.826,1.4.767.767,0,0,1,.276,1.062,2,2,0,0,0,1.96,2.91c1.365,0,2.731,0,4.1,0,1.848,0,2.733-1.273,2.067-2.989a.783.783,0,0,1,.232-.943A2.986,2.986,0,0,0,42.9,61.4a8.465,8.465,0,0,0,.079-4.862,1.036,1.036,0,0,0-.475-.639,13.889,13.889,0,0,0-4.17-.7c0,.3,0,.54,0,.778-.017.728.016,1.463-.069,2.184a3.332,3.332,0,0,1-3.209,2.9c-.8.021-1.6,0-2.425,0m4.29-5.94c-1.163.215-2.309.43-3.456.635a.967.967,0,0,0-.853.843c-.12.752-.187,1.512-.28,2.268a.48.48,0,0,0,.428.605,19.246,19.246,0,0,0,2.263.228,1.864,1.864,0,0,0,1.875-1.607c.1-.936.022-1.89.022-2.972m-8.282,2.373a2.325,2.325,0,0,0,1.987.643.534.534,0,0,0,.38-.291c.123-.594.194-1.2.283-1.8-1.34-.451-2.126-.024-2.65,1.446m18.139.009c-.459-1.407-1.362-1.935-2.462-1.47.091.588.157,1.177.286,1.752a.591.591,0,0,0,.408.368,2.277,2.277,0,0,0,1.767-.65m-4.489-3.129-.519-1.822-.174.008-.69,1.529,1.383.286m-8.98,0,1.41-.287-.7-1.537-.163.006L33.3,54.373" transform="translate(-18.264 -34.425)" fill="#fff"/>
      </g>
    </g>
  </g>
</svg>
