<svg xmlns="http://www.w3.org/2000/svg" xmlns:xlink="http://www.w3.org/1999/xlink" width="92.344" height="92.344" viewBox="0 0 92.344 92.344">
  <defs>
    <clipPath id="clip-path">
      <rect id="Rect치ngulo_401975" data-name="Rect치ngulo 401975" width="56.588" height="61.855" fill="#fff"/>
    </clipPath>
  </defs>
  <g id="Grupo_1102118" data-name="Grupo 1102118" transform="translate(-5139.297 11155.344)">
    <path id="Trazado_883915" data-name="Trazado 883915" d="M92.344,46.173A46.172,46.172,0,1,1,46.172,0,46.172,46.172,0,0,1,92.344,46.173" transform="translate(5139.297 -11155.345)" fill="#464442"/>
    <rect id="Rect치ngulo_401506" data-name="Rect치ngulo 401506" width="92.344" height="92.344" transform="translate(5139.297 -11155.344)" fill="none"/>
    <g id="Grupo_1102078" data-name="Grupo 1102078" transform="translate(5156.074 -11139.602)">
      <g id="Grupo_1102077" data-name="Grupo 1102077" clip-path="url(#clip-path)">
        <path id="Trazado_895068" data-name="Trazado 895068" d="M22.862,61.856c-1.179-.238-2.379-.4-3.533-.726A17.141,17.141,0,0,1,6.935,45.994a61.527,61.527,0,0,1,.129-10.121,16.219,16.219,0,0,1,6.47-11.191c.078-.063.154-.128.195-.163l-2.1-2.105a3.045,3.045,0,0,1-2.236.7,2.867,2.867,0,0,1-2.56-2.284.935.935,0,0,1,.593-1.116.912.912,0,0,1,1.154.609c.454,1.185,1.223,1.35,2.13.445q3.421-3.412,6.835-6.831a3.146,3.146,0,0,1,.443-.408.89.89,0,0,1,1.264,1.207,2.507,2.507,0,0,1-.4.45q-2.688,2.692-5.385,5.377a3.71,3.71,0,0,1-.624.4C14.1,22.2,15.2,23.285,16.3,24.377q2.844,2.836,5.68,5.68c.515.515.616.515,1.125.007q3.483-3.478,6.962-6.961c.5-.5.5-.622-.006-1.127q-4.611-4.614-9.224-9.225c-.912-.912-.909-1.16-.037-2.084a1.981,1.981,0,0,0,.478-.745.968.968,0,0,0-.438-1.154A1.015,1.015,0,0,0,19.6,8.82a4.2,4.2,0,0,0-.441.411q-4.315,4.311-8.628,8.625a4.89,4.89,0,0,1-.391.377.866.866,0,0,1-1.246-.064.828.828,0,0,1-.01-1.2c.437-.471.923-.895,1.338-1.292L7.541,13c-.036.032-.174.138-.3.259-.786.78-1.547,1.586-2.358,2.339a2.877,2.877,0,0,1-4.033-.074A2.849,2.849,0,0,1,.816,11.5Q6.128,6.135,11.494.824a2.851,2.851,0,0,1,4.031.022,2.917,2.917,0,0,1,.044,4.083c-.424.457-.874.89-1.32,1.327s-.9.858-1.3,1.243l2.73,2.728c.821-.843,1.683-1.793,2.615-2.669a2.868,2.868,0,0,1,4.74,1.321,2.906,2.906,0,0,1-.668,2.792c.122.137.231.274.354.4q4.269,4.271,8.535,8.548a1.274,1.274,0,0,0,1.009.4c2.013-.017,4.027-.025,6.04,0A7.706,7.706,0,0,1,46,27.524a8.2,8.2,0,0,1,.09,1.142,5.654,5.654,0,0,0,3.536,5.3A11.494,11.494,0,0,1,55.386,39.4a10.755,10.755,0,0,1,1.18,4.759c.021,2.214.035,4.429,0,6.643A11.39,11.39,0,0,1,46.81,61.74a2.579,2.579,0,0,0-.39.115ZM37.984,39.439l-8.277-8.272a3.328,3.328,0,0,1-2.485,1.387,3.547,3.547,0,0,1-2.493-1.473c-2.122,1.659-2.672,1.622-4.56-.265l-.214-.213-2.227-2.238a12.013,12.013,0,0,0,6.714,22.116c6.825.026,13.65.01,20.475,0a7.224,7.224,0,0,0,1.615-.174A5.981,5.981,0,0,0,47.681,39.03C43.292,37,40.9,33.647,40.708,28.769A2.336,2.336,0,0,0,38.194,26.4c-1.751-.014-3.5,0-5.254,0-.152,0-.3.032-.5.054.408,1.473-.33,2.462-1.347,3.314.1.115.145.179.2.236q4.334,4.334,8.675,8.663a2.978,2.978,0,0,0,.605.359,8.575,8.575,0,0,1,1.318.806.88.88,0,0,1-1.121,1.34,1.432,1.432,0,0,0-2.055,0,.788.788,0,0,1-1.175-.2.835.835,0,0,1,.048-1.154,5.267,5.267,0,0,1,.4-.38M15.1,25.8c-4.514,2.929-7.221,9.3-6.326,14.844a15.6,15.6,0,0,0,15.719,13.4q9.965,0,19.93-.006c.822,0,1.645-.079,2.466-.143.614-.048,1.045.218,1.124.738a.891.891,0,0,1-.887,1.058,17.468,17.468,0,0,1-2.1.159c-6.9.011-13.81.057-20.715-.008C17.7,55.78,12.689,52.814,9.2,47.231c-.091-.146-.192-.284-.369-.545.026.3.026.464.056.618a15.626,15.626,0,0,0,15.26,12.732c7.045.035,14.092.023,21.137,0a9.526,9.526,0,0,0,9.066-6.79c.23-.767.319-1.575.474-2.364l-.169-.047q-.195.257-.389.513a11.185,11.185,0,0,1-3.157,2.861.91.91,0,1,1-1-1.512c.066-.046.137-.085.2-.13A9.6,9.6,0,0,0,49.178,35.76a11.7,11.7,0,0,1-2.209-1.334,7.653,7.653,0,0,1-2.723-6.065,5.8,5.8,0,0,0-5.357-5.5c-2.09-.09-4.186-.033-6.28-.034-.129,0-.328.029-.375.113-.3.524-.562,1.068-.859,1.648h.638c2.013,0,4.026-.007,6.039.006a5.63,5.63,0,0,1,1.315.136A4.127,4.127,0,0,1,42.52,28.8a9.308,9.308,0,0,0,5.844,8.555,7.808,7.808,0,0,1-3.273,14.94c-6.925.026-13.85.01-20.775,0a14.262,14.262,0,0,1-1.926-.131,13.824,13.824,0,0,1-9.244-21.944,38.436,38.436,0,0,1,3.094-3.3L15.1,25.8M3.117,14.576a4.751,4.751,0,0,0,.8-.564Q8.974,8.988,14,3.941a2.341,2.341,0,0,0,.393-.455,1.024,1.024,0,0,0-.144-1.328,1,1,0,0,0-1.323-.164,2.448,2.448,0,0,0-.455.393Q7.433,7.422,2.4,12.463a2.5,2.5,0,0,0-.425.505c-.4.714.11,1.593,1.145,1.608m5.952-3,2.5,2.5L14.1,11.549l-2.492-2.5L9.069,11.575M25.975,29.854c.153.125.321.241.464.381.687.675.963.677,1.648-.006q1.069-1.067,2.135-2.135c.714-.715.712-.966-.015-1.69-.137-.137-.283-.266-.4-.374l-3.834,3.824" transform="translate(0 0)" fill="#fff"/>
        <path id="Trazado_895069" data-name="Trazado 895069" d="M105.01,44.541a2.742,2.742,0,0,1,1.83-2.59q1.471-.539,2.967-1.008a2.684,2.684,0,0,1,3.462,1.78,5.105,5.105,0,0,1,.224,2.173,2.547,2.547,0,0,1-2.217,2.1c-.885.186-1.775.347-2.664.514a2.883,2.883,0,0,1-3.6-2.97m6.783-.276c-.149-1.149-.478-1.857-1.474-1.582-.967.267-1.91.621-2.852.971a1.121,1.121,0,0,0,.541,2.127q1.545-.261,3.075-.609a.892.892,0,0,0,.709-.908" transform="translate(-59.083 -22.959)" fill="#fff"/>
        <path id="Trazado_895070" data-name="Trazado 895070" d="M76.431,4.428a9.919,9.919,0,0,1,1.658.541A2.669,2.669,0,0,1,79.4,8.159c-.316,1.037-.66,2.068-1.049,3.08A2.932,2.932,0,0,1,72.766,9.6c.184-.967.365-1.936.567-2.9a2.89,2.89,0,0,1,3.1-2.269m-1.9,5.543a1.057,1.057,0,0,0,.9,1.2.978.978,0,0,0,1.252-.656c.325-.886.621-1.783.922-2.677a.992.992,0,0,0-.316-1.242,1.715,1.715,0,0,0-1.815-.143.908.908,0,0,0-.31.431c-.234,1.059-.44,2.125-.635,3.09" transform="translate(-40.911 -2.491)" fill="#fff"/>
        <path id="Trazado_895071" data-name="Trazado 895071" d="M101.137,20.827a2.636,2.636,0,0,1-.88,2.042c-.79.716-1.584,1.43-2.411,2.1a2.929,2.929,0,0,1-4.086-4.121q1-1.211,2.063-2.363a2.764,2.764,0,0,1,4-.127,3.13,3.13,0,0,1,1.317,2.468m-1.793.158a1.807,1.807,0,0,0-1.081-1.5A.982.982,0,0,0,97,19.874c-.568.677-1.166,1.33-1.736,2.005a1.117,1.117,0,0,0,1.582,1.573c.706-.6,1.41-1.2,2.086-1.827a2.765,2.765,0,0,0,.417-.641" transform="translate(-52.38 -9.883)" fill="#fff"/>
        <path id="Trazado_895072" data-name="Trazado 895072" d="M47.162,88.026A25.069,25.069,0,0,1,43.913,88a4.753,4.753,0,0,1,.188-9.426,40.583,40.583,0,0,1,5.964-.01,4.651,4.651,0,0,1,4.3,4.981A4.787,4.787,0,0,1,49.7,88.1c-.844.033-1.689.005-2.534.005v-.077M47.1,86.3c.785,0,1.57.009,2.354,0a2.982,2.982,0,0,0,3.1-2.943,2.952,2.952,0,0,0-3-3.037q-2.443-.06-4.889,0a2.99,2.99,0,1,0,.078,5.978c.785.014,1.57,0,2.354,0" transform="translate(-22.427 -44.146)" fill="#fff"/>
      </g>
    </g>
  </g>
</svg>
