<svg xmlns="http://www.w3.org/2000/svg" xmlns:xlink="http://www.w3.org/1999/xlink" width="92.344" height="92.344" viewBox="0 0 92.344 92.344">
  <defs>
    <clipPath id="clip-path">
      <rect id="Rect치ngulo_401506" data-name="Rect치ngulo 401506" width="92.344" height="92.344" fill="none"/>
    </clipPath>
    <clipPath id="clip-path-2">
      <rect id="Rect치ngulo_401972" data-name="Rect치ngulo 401972" width="51.788" height="66.814" fill="none"/>
    </clipPath>
  </defs>
  <g id="Grupo_1102115" data-name="Grupo 1102115" transform="translate(-1082.348 -882.819)">
    <g id="Grupo_1099827" data-name="Grupo 1099827" transform="translate(1082.348 882.819)" clip-path="url(#clip-path)">
      <path id="Trazado_883915" data-name="Trazado 883915" d="M92.344,46.173A46.172,46.172,0,1,1,46.172,0,46.172,46.172,0,0,1,92.344,46.173" transform="translate(0 -0.001)" fill="#464442"/>
    </g>
    <g id="Grupo_1102072" data-name="Grupo 1102072" transform="translate(1101.051 896.349)">
      <g id="Grupo_1102071" data-name="Grupo 1102071" clip-path="url(#clip-path-2)">
        <path id="Trazado_895046" data-name="Trazado 895046" d="M51.778,16.2h0a8.337,8.337,0,0,0-3.756-7.5C42.036,4.939,29.8-1.165,15.088.193A16.509,16.509,0,0,0,.014,16.233c0,.026,0,.075-.014,7.467a17.593,17.593,0,0,0,3.724,9.74A16.505,16.505,0,0,0,26.867,54.694L33.8,61.63l3.9,3.9a4.407,4.407,0,0,0,6.233-6.233l-3.9-3.9L33.1,48.461a16.553,16.553,0,0,0-1.607-18.635,5.87,5.87,0,0,1,1.365-.193L44.811,29.5a7.374,7.374,0,0,0,6.148-3.584,5.608,5.608,0,0,0,.828-2.976ZM15.29,2.387c14.072-1.3,25.81,4.567,31.56,8.178a6.239,6.239,0,0,1,2.724,5.544,6.571,6.571,0,0,1-.38,1.909,5.287,5.287,0,0,1-4.808,3.7l-11.56.126A9.058,9.058,0,0,0,25.782,25.4,16.535,16.535,0,0,0,7.293,28.411,15.233,15.233,0,0,1,2.236,17.976c0-.032-.019-.057-.023-.088,0-.874,0-1.516,0-1.572A14.329,14.329,0,0,1,15.29,2.387ZM2.6,26.211a16.456,16.456,0,0,0,3.2,3.823c-.331.415-.642.84-.927,1.278A15.382,15.382,0,0,1,2.6,26.211ZM42.373,63.967a2.207,2.207,0,0,1-3.117,0l-3.117-3.117,3.117-3.117,3.117,3.117a2.207,2.207,0,0,1,0,3.117M37.7,56.176l-3.116,3.117-5.839-5.838a14.818,14.818,0,0,0,3.117-3.117ZM28.86,50.454a14.317,14.317,0,1,1,0-20.258,14.342,14.342,0,0,1,0,20.258m20.23-25.7a5.183,5.183,0,0,1-4.3,2.545l-11.955.129a8.163,8.163,0,0,0-3.048.637,16.486,16.486,0,0,0-2.049-1.6,6.849,6.849,0,0,1,5.113-2.424l11.56-.126a7.115,7.115,0,0,0,5.172-2.372l0,1.4A3.415,3.415,0,0,1,49.089,24.756Z" transform="translate(0 0)" fill="#fff"/>
        <path id="Trazado_895047" data-name="Trazado 895047" d="M20.565,25.523a7.853,7.853,0,1,0-7.853-7.853,7.863,7.863,0,0,0,7.853,7.853m0-13.5a5.649,5.649,0,1,1-5.649,5.649,5.655,5.655,0,0,1,5.649-5.649" transform="translate(-6.421 -4.958)" fill="#fff"/>
        <path id="Trazado_895048" data-name="Trazado 895048" d="M47.45,29.025a1.1,1.1,0,0,0,1.428-.624l3.862-9.849a1.1,1.1,0,1,0-2.052-.8L46.826,27.6a1.1,1.1,0,0,0,.624,1.429" transform="translate(-23.613 -8.61)" fill="#fff"/>
        <path id="Trazado_895049" data-name="Trazado 895049" d="M62.276,27.174A1.1,1.1,0,0,0,63.7,26.55l3.135-8a1.1,1.1,0,1,0-2.052-.805l-3.136,8A1.1,1.1,0,0,0,62.276,27.174Z" transform="translate(-31.101 -8.61)" fill="#fff"/>
        <path id="Trazado_895050" data-name="Trazado 895050" d="M76.787,28.462a1.1,1.1,0,0,0,1.428-.624l1.512-3.857a1.1,1.1,0,0,0-2.052-.8l-1.511,3.857a1.1,1.1,0,0,0,.624,1.428" transform="translate(-38.43 -11.353)" fill="#fff"/>
        <path id="Trazado_895051" data-name="Trazado 895051" d="M15.007,58.64a13.223,13.223,0,1,0,18.7,0A13.239,13.239,0,0,0,15.007,58.64ZM32.149,75.782a11.014,11.014,0,1,1,0-15.583,11.033,11.033,0,0,1,0,15.583" transform="translate(-5.627 -27.665)" fill="#fff"/>
        <path id="Trazado_895052" data-name="Trazado 895052" d="M34.474,66.8a5.38,5.38,0,0,0-4.523-3.013V62.542a1.1,1.1,0,0,0-2.2,0v1.542a5.511,5.511,0,0,0-.665.255A5.449,5.449,0,0,0,24.644,66.8l-1.6-1.7A1.1,1.1,0,1,0,21.436,66.6l2.356,2.507-.866,2.6c-.041.123-.053.249-.085.374l-1.212-.606a1.1,1.1,0,1,0-.985,1.971l2.125,1.063a5.032,5.032,0,0,0,1.14,2.436L22.863,77.99a1.1,1.1,0,1,0,1.558,1.558l1.218-1.217a5.112,5.112,0,0,0,2.52.63A5.522,5.522,0,0,0,32.923,76.2l2.719-.453a1.1,1.1,0,0,0-.363-2.174l-1.443.241.936-2.808c.046-.137.06-.278.1-.416l1.17.632a1.1,1.1,0,0,0,1.048-1.94l-2.172-1.173A5.51,5.51,0,0,0,34.474,66.8Zm-4.843,9.6a3.287,3.287,0,0,1-2.524.179h0a3.306,3.306,0,0,1-2.09-4.181l1.394-4.182a3.306,3.306,0,0,1,6.272,2.091l-1.394,4.182A3.286,3.286,0,0,1,29.631,76.4Z" transform="translate(-10.119 -31.032)" fill="#fff"/>
        <path id="Trazado_895053" data-name="Trazado 895053" d="M39.757,74.621A1.178,1.178,0,1,0,40.935,75.8a1.178,1.178,0,0,0-1.178-1.178" transform="translate(-19.486 -37.69)" fill="#fff"/>
        <path id="Trazado_895054" data-name="Trazado 895054" d="M35.3,81.3a1.178,1.178,0,1,0,1.178,1.178A1.178,1.178,0,0,0,35.3,81.3" transform="translate(-17.236 -41.063)" fill="#fff"/>
      </g>
    </g>
  </g>
</svg>
