<svg xmlns="http://www.w3.org/2000/svg" xmlns:xlink="http://www.w3.org/1999/xlink" width="92.344" height="92.344" viewBox="0 0 92.344 92.344">
  <defs>
    <clipPath id="clip-path">
      <rect id="Rect치ngulo_401506" data-name="Rect치ngulo 401506" width="92.344" height="92.344" fill="none"/>
    </clipPath>
    <clipPath id="clip-path-2">
      <rect id="Rect치ngulo_401974" data-name="Rect치ngulo 401974" width="65.264" height="63.344" fill="none"/>
    </clipPath>
  </defs>
  <g id="Grupo_1102123" data-name="Grupo 1102123" transform="translate(-4804.297 11155.344)">
    <g id="Grupo_1102117" data-name="Grupo 1102117">
      <g id="Grupo_1099827" data-name="Grupo 1099827" transform="translate(4804.297 -11155.344)" clip-path="url(#clip-path)">
        <path id="Trazado_883915" data-name="Trazado 883915" d="M92.344,46.173A46.172,46.172,0,1,1,46.172,0,46.172,46.172,0,0,1,92.344,46.173" transform="translate(0 -0.001)" fill="#464442"/>
      </g>
      <g id="Grupo_1102076" data-name="Grupo 1102076" transform="translate(4815.488 -11141.828)">
        <g id="Grupo_1102075" data-name="Grupo 1102075" clip-path="url(#clip-path-2)">
          <path id="Trazado_895062" data-name="Trazado 895062" d="M61.319,26.968a25.95,25.95,0,0,0-3.993-4.91,3.261,3.261,0,0,0,2.279-3.1V12.329a.956.956,0,0,0-1.912,0v6.627A1.349,1.349,0,0,1,56.341,20.3H49.017a1.685,1.685,0,0,0-1.461.849L46.392,23.19,45.15,21.115a1.69,1.69,0,0,0-1.442-.817H36.486a1.349,1.349,0,0,1-1.353-1.342V3.255a1.35,1.35,0,0,1,1.353-1.343H56.341a1.35,1.35,0,0,1,1.353,1.343V7.74a.956.956,0,0,0,1.912,0V3.255A3.264,3.264,0,0,0,56.341,0H36.486A3.264,3.264,0,0,0,33.22,3.255V15.291a66.2,66.2,0,0,0-16.751,4.2C11.49,21.4,5.8,24.273,1.358,31.1A15.253,15.253,0,0,0,.053,37.023a21.958,21.958,0,0,0,1.435,9.672c2.035,4.877,5.944,7.943,11.619,9.112a.956.956,0,1,0,.386-1.872C8.475,52.9,5.029,50.216,3.253,45.958c-2.418-5.8-.929-12.839-.292-13.817,4.133-6.349,9.264-8.971,14.193-10.86A64.575,64.575,0,0,1,33.22,17.212v1.744a3.262,3.262,0,0,0,2.472,3.157c.146.457.292.927.444,1.42,1.005,3.245,2.045,6.6,3.813,8.585.386.434.787.863,1.175,1.279A22.411,22.411,0,0,1,44.4,37.5c1.914,3.955,2.424,8.5,2.919,12.9.221,1.968.449,4,.8,5.968a.964.964,0,0,0,.042.158,2.735,2.735,0,0,0,2.616,2.118c.049,0,.1,0,.14,0,3.144-.16,7.4-5.97,7.971-7.566A21.8,21.8,0,0,0,51.115,22.21H54.6a23.449,23.449,0,0,1,5.114,5.8l.035.051a21.049,21.049,0,0,1,3.576,13.241,25.258,25.258,0,0,1-4.36,13.337,16.2,16.2,0,0,1-7,5.808,14.368,14.368,0,0,1-9.559.337c-1.254-.707-2.362-1.345-3.343-1.909-4.07-2.341-6.313-3.631-9.112-4.226s-6.164-.5-12.338-.25a.956.956,0,0,0,.077,1.911c12.226-.49,12.38-.4,20.419,4.222,1.01.581,2.155,1.239,3.455,1.972a.935.935,0,0,0,.2.085,18.078,18.078,0,0,0,5.067.75c5.367,0,10.194-2.629,13.695-7.6a27.186,27.186,0,0,0,4.707-14.356,22.969,22.969,0,0,0-3.919-14.42M58.53,34.434a20.123,20.123,0,0,1-1.374,15.823.883.883,0,0,0-.077.2,16.3,16.3,0,0,1-2.525,3.525c-1.52,1.7-2.926,2.725-3.761,2.744-.151,0-.5.012-.806-.784-.332-1.88-.553-3.853-.768-5.761-.513-4.568-1.044-9.292-3.112-13.548-.008-.017-.017-.035-.027-.051a24.043,24.043,0,0,0-3.558-4.49c-.38-.408-.773-.829-1.145-1.246-1.492-1.675-2.513-4.971-3.414-7.88-.08-.258-.158-.508-.235-.756h5.85l1.64,2.739a1.387,1.387,0,0,0,1.187.673h.015a1.387,1.387,0,0,0,1.187-.7l1.079-1.895A20.108,20.108,0,0,1,58.53,34.434" transform="translate(0)" fill="#fff"/>
          <path id="Trazado_895063" data-name="Trazado 895063" d="M35.064,45.293a1.936,1.936,0,0,0-1.919-.721l-.026.006c-5.248,1.244-10.744,2.763-15.39,5.437-5.791,3.333-8.873,7.8-9.16,13.289,0,.013,0,.026,0,.039-.053,4.488,1.241,7.966,3.845,10.337,2.564,2.333,6.257,3.508,11.011,3.508a33.645,33.645,0,0,0,3.516-.194,2.656,2.656,0,0,0,2.279-1.453c.723-1.16,1.445-2.285,2.143-3.373,1.588-2.472,3.088-4.808,4.568-7.487,2.591-3.574,3.687-6.717,3.449-9.888-.22-2.919-1.55-5.849-4.316-9.5M34.35,63.6a.918.918,0,0,0-.064.1c-1.459,2.645-2.951,4.969-4.531,7.43-.71,1.106-1.445,2.25-2.183,3.435a.955.955,0,0,0-.051.094.764.764,0,0,1-.67.42c-.026,0-.051,0-.077,0-5.843.619-10.364-.357-13.073-2.823-2.18-1.984-3.263-4.972-3.222-8.881.261-4.854,2.945-8.686,8.2-11.713,4.426-2.547,9.752-4.018,14.851-5.227a.019.019,0,0,1,.008.005c2.528,3.338,3.74,5.956,3.931,8.487.2,2.707-.789,5.462-3.123,8.668" transform="translate(-4.744 -24.66)" fill="#fff"/>
          <path id="Trazado_895064" data-name="Trazado 895064" d="M76.32,83.084a2.818,2.818,0,0,0-2.863,1.059A6.473,6.473,0,0,0,72.4,86.38a44.591,44.591,0,0,1-1.618,4.5,34.593,34.593,0,0,1-2.945,5.23,1.954,1.954,0,0,0-.2,1.751,1.92,1.92,0,0,0,1.286,1.195,30.091,30.091,0,0,1,6.63,3.073,1.95,1.95,0,0,0,2.9-1.457l0-.014a50.073,50.073,0,0,0,.076-14.4h0c-.307-1.789-1.049-2.856-2.206-3.169m.232,17.335,0,.016a.032.032,0,0,1-.021.029.031.031,0,0,1-.036,0,31.646,31.646,0,0,0-7.047-3.248c-.007,0-.012,0-.018-.018a.031.031,0,0,1,0-.032,36.426,36.426,0,0,0,3.1-5.518,46.381,46.381,0,0,0,1.691-4.69,4.885,4.885,0,0,1,.713-1.6,1.109,1.109,0,0,1,.769-.437.44.44,0,0,1,.113.014c.365.1.656.683.822,1.646a48.3,48.3,0,0,1-.089,13.843" transform="translate(-37.387 -45.962)" fill="#fff"/>
          <path id="Trazado_895065" data-name="Trazado 895065" d="M29.71,68.726a7.514,7.514,0,1,0,7.514,7.514,7.523,7.523,0,0,0-7.514-7.514m0,13.116a5.6,5.6,0,1,1,5.6-5.6,5.608,5.608,0,0,1-5.6,5.6" transform="translate(-12.291 -38.057)" fill="#fff"/>
          <path id="Trazado_895066" data-name="Trazado 895066" d="M34.759,77.844A3.445,3.445,0,1,0,38.2,81.289a3.449,3.449,0,0,0-3.445-3.445m0,4.978a1.533,1.533,0,1,1,1.533-1.533,1.535,1.535,0,0,1-1.533,1.533" transform="translate(-17.34 -43.106)" fill="#fff"/>
          <path id="Trazado_895067" data-name="Trazado 895067" d="M101.124,17.634l-4.788,4.718-2.389-2.212a.956.956,0,1,0-1.3,1.4l3.059,2.833a.957.957,0,0,0,1.321-.021L102.466,19a.956.956,0,1,0-1.342-1.362" transform="translate(-51.134 -9.612)" fill="#fff"/>
        </g>
      </g>
    </g>
  </g>
</svg>
