<svg xmlns="http://www.w3.org/2000/svg" xmlns:xlink="http://www.w3.org/1999/xlink" width="92.344" height="92.344" viewBox="0 0 92.344 92.344">
  <defs>
    <clipPath id="clip-path">
      <rect id="Rectángulo_401506" data-name="Rectángulo 401506" width="92.344" height="92.344" fill="none"/>
    </clipPath>
    <clipPath id="clip-path-2">
      <rect id="Rectángulo_401971" data-name="Rectángulo 401971" width="43.379" height="57.199" fill="none"/>
    </clipPath>
  </defs>
  <g id="Grupo_1102114" data-name="Grupo 1102114" transform="translate(-768.051 -882.819)">
    <g id="Grupo_1101876" data-name="Grupo 1101876" transform="translate(768.051 882.819)">
      <g id="Grupo_1099827" data-name="Grupo 1099827" clip-path="url(#clip-path)">
        <path id="Trazado_883915" data-name="Trazado 883915" d="M92.344,46.173A46.172,46.172,0,1,1,46.172,0,46.172,46.172,0,0,1,92.344,46.173" transform="translate(0 -0.001)" fill="#464442"/>
      </g>
    </g>
    <g id="Grupo_1102070" data-name="Grupo 1102070" transform="translate(794.051 899.349)">
      <g id="Grupo_1102069" data-name="Grupo 1102069" clip-path="url(#clip-path-2)">
        <path id="Trazado_895043" data-name="Trazado 895043" d="M1.889,57.2h39.6a1.891,1.891,0,0,0,1.889-1.889V3.646a.259.259,0,0,0-.259-.259H39.863q-6.4,0-12.8.007a1.154,1.154,0,0,1-1.16-.707A4.423,4.423,0,0,0,21.69,0a4.429,4.429,0,0,0-4.213,2.687,1.151,1.151,0,0,1-1.159.707q-4.82-.009-9.64-.007H.259A.26.26,0,0,0,0,3.646V55.31A1.891,1.891,0,0,0,1.889,57.2M19.636,4.151A2.05,2.05,0,0,1,21.8,2.506a2.117,2.117,0,0,1,2.011,1.9,12.376,12.376,0,0,1,.02,1.334c0,.2-.008.4-.008.6v.442H19.608V6.339c0-.214-.008-.428-.017-.642a7.906,7.906,0,0,1,.045-1.545M12.758,5.938h4.237V9.271h9.35V5.936H30.6v7.626H12.758ZM2.565,5.949H10.2v10.16H33.137V5.945h7.691V54.65H2.565Z" transform="translate(0 0.001)" fill="#fff"/>
        <path id="Trazado_895044" data-name="Trazado 895044" d="M23.089,53.852a8.173,8.173,0,0,0,4.3,7.64,7.63,7.63,0,0,0,8.251-.458,11.074,11.074,0,0,1,6.044-2.022,4.643,4.643,0,0,0,.025-9.267,11.192,11.192,0,0,1-6.094-2.039,7.5,7.5,0,0,0-8.241-.427,7.679,7.679,0,0,0-4.283,6.573m8.294-5.022h.035a5.137,5.137,0,0,1,2.905,1.017,11.673,11.673,0,0,0,7.068,2.392,2.137,2.137,0,0,1,.033,4.273,12.117,12.117,0,0,0-7.133,2.408,5.344,5.344,0,0,1-3.134,1.026A5.589,5.589,0,0,1,25.9,52.607a5.638,5.638,0,0,1,5.483-3.778" transform="translate(-12.873 -25.785)" fill="#fff"/>
        <rect id="Rectángulo_401967" data-name="Rectángulo 401967" width="19.493" height="2.443" transform="translate(17.064 41.096)" fill="#fff"/>
        <rect id="Rectángulo_401968" data-name="Rectángulo 401968" width="19.473" height="2.45" transform="translate(17.05 47.9)" fill="#fff"/>
        <rect id="Rectángulo_401969" data-name="Rectángulo 401969" width="5.845" height="2.47" transform="translate(6.845 41.073)" fill="#fff"/>
        <rect id="Rectángulo_401970" data-name="Rectángulo 401970" width="5.853" height="2.449" transform="translate(6.856 47.911)" fill="#fff"/>
        <path id="Trazado_895045" data-name="Trazado 895045" d="M40.707,62.894a1.586,1.586,0,1,1-1.586-1.586,1.586,1.586,0,0,1,1.586,1.586" transform="translate(-20.927 -34.182)" fill="#fff"/>
      </g>
    </g>
  </g>
</svg>
