<svg xmlns="http://www.w3.org/2000/svg" xmlns:xlink="http://www.w3.org/1999/xlink" width="293.916" height="117" viewBox="0 0 293.916 117">
  <defs>
    <clipPath id="clip-path">
      <rect id="Rectángulo_401868" data-name="Rectángulo 401868" width="198.967" height="102.192" fill="none"/>
    </clipPath>
    <clipPath id="clip-path-3">
      <rect id="Rectángulo_401864" data-name="Rectángulo 401864" width="191.849" height="60.333" fill="none"/>
    </clipPath>
    <clipPath id="clip-path-4">
      <rect id="Rectángulo_401865" data-name="Rectángulo 401865" width="96.163" height="46.279" fill="none"/>
    </clipPath>
    <clipPath id="clip-path-5">
      <rect id="Rectángulo_401866" data-name="Rectángulo 401866" width="30.793" height="23.833" fill="none"/>
    </clipPath>
  </defs>
  <g id="Grupo_1102055" data-name="Grupo 1102055" transform="translate(-1125.051 -790)">
    <g id="Grupo_1101474" data-name="Grupo 1101474" transform="translate(0 -23)">
      <path id="Rectángulo_401603" data-name="Rectángulo 401603" d="M58.5,0H210a0,0,0,0,1,0,0V117a0,0,0,0,1,0,0H58.5A58.5,58.5,0,0,1,0,58.5v0A58.5,58.5,0,0,1,58.5,0Z" transform="translate(1125.051 813)" fill="#eaded2"/>
    </g>
    <g id="Grupo_1101911" data-name="Grupo 1101911" transform="translate(1220 797.824)">
      <g id="Grupo_1101910" data-name="Grupo 1101910" clip-path="url(#clip-path)">
        <g id="Grupo_1101909" data-name="Grupo 1101909" transform="translate(0 0)">
          <g id="Grupo_1101908" data-name="Grupo 1101908" clip-path="url(#clip-path)">
            <path id="Trazado_894157" data-name="Trazado 894157" d="M195.409,44.3a22.755,22.755,0,0,1-3.063,6.1c-4.474,5.767-11.355,9.316-17.472,13.035a32.252,32.252,0,0,1-5.287,2.754,17.547,17.547,0,0,1-5.981.94c-2.19.039-4.381-.082-6.567.1-2.364.2-4.724.4-7.093.545-4.637.284-9.293.5-13.893,1.17a62.637,62.637,0,0,0-12.8,3.383c-4.074,1.516-8.045,3.292-12.116,4.816a60.158,60.158,0,0,1-12.834,2.932c-4.364.613-8.716,1.27-13.075,1.915-4.6.68-9.238,1.2-13.783,2.221-4.226.951-8.345,2.329-12.6,3.172a43.393,43.393,0,0,1-12.929.388,72.746,72.746,0,0,1-12.51-2.35c-3.949-1.113-7.69-2.7-11.5-4.191-6.3-2.472-13.126-5-16.867-11.033-.065-.1-.123-.215-.187-.322.533,2.372,1,4.748,1.5,7.148a28.87,28.87,0,0,0,3.762,10.118c1.933,2.916,5.05,4.8,8.067,6.433a66.64,66.64,0,0,0,10.3,4.471,84.274,84.274,0,0,0,26.233,4.82c9.32.075,18.748-1.791,27.87-3.541,9.3-1.784,18.519-3.964,27.7-6.293,8.981-2.279,17.894-4.921,26.967-6.82,4.348-.909,8.72-1.764,12.965-3.092a46.57,46.57,0,0,0,11.517-5.761,68.805,68.805,0,0,1,10.59-6.177c3.374-1.426,6.911-2.42,10.28-3.856,6.869-2.928,12.414-8.646,13.8-16.155a20.182,20.182,0,0,0-.372-8.636c-.2.63-.421,1.23-.622,1.761" transform="translate(-0.386 -3.381)" fill="#b3374c"/>
            <g id="Grupo_1101901" data-name="Grupo 1101901" transform="translate(4.472 39.154)" opacity="0.46" style="mix-blend-mode: multiply;isolation: isolate">
              <g id="Grupo_1101900" data-name="Grupo 1101900">
                <g id="Grupo_1101899" data-name="Grupo 1101899" clip-path="url(#clip-path-3)">
                  <path id="Trazado_894158" data-name="Trazado 894158" d="M196.031,42.535c-.2.63-.421,1.23-.622,1.761a22.757,22.757,0,0,1-3.063,6.1c-4.473,5.766-11.355,9.316-17.471,13.035a32.471,32.471,0,0,1-5.287,2.754,17.55,17.55,0,0,1-5.981.94c-2.19.038-4.382-.083-6.568.1q-1.251.1-2.5.206c-2.5,1.616-5.044,3.162-7.653,4.613C125.561,83.9,101.341,89.258,77.508,94.471c-11.673,2.554-23.818,5.109-35.456,2.391C29.948,94.032,20.26,86.033,11.806,76.62A19.8,19.8,0,0,1,5.045,70.2c-.065-.1-.124-.215-.188-.322.535,2.372,1,4.748,1.5,7.148a28.843,28.843,0,0,0,3.763,10.118c1.931,2.916,5.049,4.8,8.066,6.433a66.712,66.712,0,0,0,10.3,4.472,84.285,84.285,0,0,0,26.235,4.82c9.32.074,18.747-1.791,27.869-3.541,9.3-1.785,18.521-3.964,27.7-6.293,8.981-2.279,17.893-4.921,26.966-6.82,4.348-.91,8.719-1.764,12.964-3.092a46.608,46.608,0,0,0,11.518-5.761,68.732,68.732,0,0,1,10.59-6.177c3.374-1.426,6.911-2.42,10.279-3.856,6.87-2.928,12.415-8.646,13.8-16.156a20.163,20.163,0,0,0-.371-8.635" transform="translate(-4.858 -42.535)" fill="#b3374c"/>
                </g>
              </g>
            </g>
            <path id="Trazado_894159" data-name="Trazado 894159" d="M9.766,70.094c2.8,2.417,6.3,3.918,9.716,5.242,3.72,1.444,7.428,2.985,11.226,4.211a72.8,72.8,0,0,0,11.57,2.705,50.346,50.346,0,0,0,12.552.652,77.615,77.615,0,0,0,11.859-2.679,103.342,103.342,0,0,1,12.2-2.432c4.314-.617,8.615-1.333,12.93-1.929,3.963-.548,7.947-.983,11.867-1.8,7.985-1.662,15.192-5.725,22.957-8.117,8.063-2.484,16.472-2.732,24.827-3.269,2.248-.145,4.495-.426,6.745-.51,1.931-.071,3.864.037,5.8-.023a14.4,14.4,0,0,0,6.082-1.4c1.618-.788,3.129-1.776,4.672-2.7,3.017-1.8,6.041-3.583,8.9-5.632a28.056,28.056,0,0,0,7.071-6.594,26.7,26.7,0,0,0,3-5.656,15.353,15.353,0,0,0,.956-3.77,29.489,29.489,0,0,0-3.853-6.538c-4.639-5.988-11.327-9.962-18.182-12.947A84.7,84.7,0,0,0,157.9,12.144a28.708,28.708,0,0,1,3.9,4.233,24.316,24.316,0,0,1,4.841,9.709c.46,2.207.5,4.607,1.225,6.749.539,1.589,1.838,2.852,2.849,4.15a3.986,3.986,0,0,1,1.132,3.267c-.317,1.364-1.645,2.4-2.761,3.122a20.407,20.407,0,0,1-4.817,2.132,16.675,16.675,0,0,1-2.683.678,9.633,9.633,0,0,0-3.262.721c-1.583.86-1.8,2.919-3,4.163a9.823,9.823,0,0,1-3.035,2.02c-1.214.546-4.314,1.495-4.142-.886a6.127,6.127,0,0,1,1.751-3.207,21.642,21.642,0,0,1,4.111-3.631,32.519,32.519,0,0,1,4.24-2.527,14.841,14.841,0,0,0,4.446-2.932c3.051-3.349.525-8.392-1.173-11.771-.86-1.71-1.784-3.386-2.585-5.125-.86-1.87-1.711-3.916-3.358-5.241-1.917-1.541-4.359-1.725-6.711-1.872a29.8,29.8,0,0,1-6.117-1.05,34.955,34.955,0,0,0-6.422-1.332c-2.386-.191-4.736-.653-7.118-.842-2.331-.185-4.557.378-6.856.646a15.52,15.52,0,0,1-5.414-.29c-2.291-.541-4.464-1.388-6.8-1.791a42.574,42.574,0,0,0-7.5-.547,93.01,93.01,0,0,0-12.525,1.057c-1.176.168-2.352.365-3.509.637-.815.191-2.345.39-2.932,1.062-.041.048-.065.078-.083.1a1.385,1.385,0,0,0,.35.277,4.36,4.36,0,0,0,2.388.554,9.6,9.6,0,0,1,4.82.8c1.442.755,2.457,2.135,3.778,3.066a22.377,22.377,0,0,0,5.25,2.641,36.963,36.963,0,0,0,11.88,2.244.768.768,0,0,1,.2,1.5c-4.791,1.475-10.062-.453-14.7-1.644a96.113,96.113,0,0,1-14.94-4.742,31.166,31.166,0,0,0-7.433-2.48,28.868,28.868,0,0,0-7.679.029,53.03,53.03,0,0,0-10.246,2.335,35,35,0,0,1-3.424.944c-1.129.565-2.273,1.1-3.454,1.571-4.267,1.695-8.537,3.185-12.685,5.174-4.127,1.98-8.223,4.036-12.25,6.211C19.4,35.29,13.506,39.209,8.88,44.355a25.218,25.218,0,0,0-5.343,8.713C2.464,59.148,5.3,66.235,9.766,70.094" transform="translate(-0.263 -0.849)" fill="#cf4058"/>
            <g id="Grupo_1101904" data-name="Grupo 1101904" transform="translate(25.356 21.668)" opacity="0.34" style="mix-blend-mode: screen;isolation: isolate">
              <g id="Grupo_1101903" data-name="Grupo 1101903">
                <g id="Grupo_1101902" data-name="Grupo 1101902" clip-path="url(#clip-path-4)">
                  <path id="Trazado_894160" data-name="Trazado 894160" d="M38.82,35.722a39.706,39.706,0,0,0-11.275,27.6,7.363,7.363,0,0,0,1.035,4.4c1.568,2.138,4.68,2.209,7.326,2.043a349.646,349.646,0,0,0,73.96-12.719c6.309-1.8,13.823-5.368,13.842-11.928.016-5.189-5.2-9.1-10.344-9.8s-10.278.871-15.377,1.835S87.2,38.359,82.939,35.4c-2.757-1.911-4.532-4.9-6.785-7.387-9.511-10.49-29.444-.308-37.333,7.706" transform="translate(-27.545 -23.539)" fill="#ab3549"/>
                </g>
              </g>
            </g>
            <g id="Grupo_1101907" data-name="Grupo 1101907" transform="translate(123.689 18.917)" opacity="0.34" style="mix-blend-mode: screen;isolation: isolate">
              <g id="Grupo_1101906" data-name="Grupo 1101906">
                <g id="Grupo_1101905" data-name="Grupo 1101905" clip-path="url(#clip-path-5)">
                  <path id="Trazado_894161" data-name="Trazado 894161" d="M153.1,42.06a13.4,13.4,0,0,1-11.8,1.6,10.59,10.59,0,0,1-6.93-9.344c-.071-4.118,3.092-8.181,7.176-8.722,3.715-3.073,9.661-5.841,14.375-4.824s8.831,5.052,9.226,9.858S157.923,42.044,153.1,42.06" transform="translate(-134.369 -20.551)" fill="#ab3549"/>
                </g>
              </g>
            </g>
            <path id="Trazado_894162" data-name="Trazado 894162" d="M75.9,13.742c4.63-.121,8.662,1.278,12.848,3.112a88.181,88.181,0,0,0,13.58,4.239c-.673-.31-1.338-.639-1.978-1.005a23.991,23.991,0,0,1-3.9-3.016C94.9,15.7,93.2,15.635,91.226,15.665c-1.4.02-5.409-.861-4.162-3.149.907-1.663,4.076-1.989,5.7-2.282,7.679-1.381,16-2.171,23.691-.6,2.332.476,4.551,1.438,6.909,1.773a18.57,18.57,0,0,0,5.869-.363,20.449,20.449,0,0,1,6.588-.2c2.431.335,4.885.481,7.308.841A56.84,56.84,0,0,1,149,13.074a40.529,40.529,0,0,0,6.557.857,10.505,10.505,0,0,1,9.109,6.359c1.721,3.551,3.74,7.07,5.1,10.78,1.211,3.31,1.662,7.049-.879,9.86-2.28,2.522-5.889,3.381-8.664,5.237a27.6,27.6,0,0,0-4.455,3.531c-.442.455-1.349,1.411-1.366,2.1-.012.49.037.415.613.326a8.765,8.765,0,0,0,3.395-1.615c1.4-.97,1.775-2.353,2.745-3.654,1.18-1.581,2.929-1.888,4.764-2.172a21.02,21.02,0,0,0,5.257-1.674c1.324-.593,4.146-1.854,4.2-3.59.047-1.4-1.79-2.753-2.607-3.705-2.706-3.147-2.3-7.555-3.575-11.324a26.469,26.469,0,0,0-5.913-9.34,18.406,18.406,0,0,0-5.455-4.209c-1.238-.229-2.478-.446-3.719-.639A223.972,223.972,0,0,0,129.281,8.16c-9.682-.419-19.369-.835-29.061-.885a74.518,74.518,0,0,0-9.814.609,10.468,10.468,0,0,1-3.582.536,91.688,91.688,0,0,0-13.1,3.344q-1.015.336-2.034.664c-1.574.639-3.134,1.312-4.673,2.039-.738.349-1.464.719-2.186,1.1l.1-.034A37.945,37.945,0,0,1,75.9,13.742" transform="translate(-5.153 -0.578)" fill="#ffd8cc"/>
            <path id="Trazado_894163" data-name="Trazado 894163" d="M48.409,20.1c2.93-2.4,6.494-3.83,10.006-5.141,3.347-1.249,6.77-2.291,10.162-3.415a81.877,81.877,0,0,1,26.49-4.488c9.693.049,19.379.466,29.061.885a224.156,224.156,0,0,1,24.822,2.046,95.341,95.341,0,0,1,23.443,6.435c6.855,2.986,13.543,6.959,18.183,12.947,4.062,5.242,6.671,12.1,5.441,18.779-1.381,7.51-6.926,13.227-13.8,16.156-3.368,1.436-6.906,2.429-10.279,3.856a68.732,68.732,0,0,0-10.59,6.177,46.6,46.6,0,0,1-11.518,5.76c-4.244,1.328-8.616,2.183-12.964,3.093C127.8,85.084,118.885,87.726,109.9,90c-9.177,2.329-18.4,4.509-27.7,6.293-9.122,1.75-18.549,3.616-27.87,3.541A84.247,84.247,0,0,1,28.1,95.018a66.6,66.6,0,0,1-10.3-4.471c-3.017-1.633-6.134-3.516-8.066-6.433A28.885,28.885,0,0,1,5.971,74c-.749-3.569-1.394-7.083-2.341-10.613-.98-3.654-1.591-7.06-.386-10.734a25.135,25.135,0,0,1,5.371-8.79c4.627-5.146,10.518-9.066,16.571-12.334,4.028-2.174,8.124-4.231,12.25-6.21,4.149-1.99,8.419-3.48,12.686-5.175,4.1-1.627,7.777-4.021,11.747-5.9A76.288,76.288,0,0,1,74.045,9.611a36.349,36.349,0,0,1,6.57-1.357c1.83-.152,3.431.046,5.126-.8.884-.444.107-1.769-.776-1.326a7.023,7.023,0,0,1-3.421.439,16.941,16.941,0,0,0-3.159.294,61.015,61.015,0,0,0-6.557,1.479,98.791,98.791,0,0,0-12.436,4.711c-4.356,1.893-8.453,4.169-12.943,5.761a119.889,119.889,0,0,0-13.061,5.621C26.252,27.949,19.114,31.563,12.832,36.5,7.326,40.826,2.056,46.476.377,53.474c-.933,3.89.029,7.717,1.069,11.484,1,3.62,1.521,7.292,2.379,10.939A27.789,27.789,0,0,0,8.038,86.037c2.11,2.878,5.214,4.868,8.295,6.575A83.111,83.111,0,0,0,40,100.961,76.183,76.183,0,0,0,53.8,102.536a92.837,92.837,0,0,0,14.285-1.121c19.532-2.667,38.648-7.633,57.68-12.653,4.628-1.221,9.255-2.334,13.941-3.308a86.952,86.952,0,0,0,13.588-3.58,59.36,59.36,0,0,0,11.345-6.341,53.1,53.1,0,0,1,11.08-5.889,77.442,77.442,0,0,0,10.63-4.289,25.316,25.316,0,0,0,8.718-7.962,23.05,23.05,0,0,0,2.806-19.905c-4.768-15.377-20.817-23.336-35.238-27.377C145.362,5.269,127.1,5.216,109.3,4.684,99.677,4.4,89.909,3.99,80.423,5.935a95.086,95.086,0,0,0-13.347,3.9c-3.54,1.286-7.139,2.438-10.6,3.94a31.282,31.282,0,0,0-8.9,5.491c-.564.522.256,1.3.83.83" transform="translate(0 -0.353)" fill="#591621"/>
            <path id="Trazado_894164" data-name="Trazado 894164" d="M4.049,50.31C.1,56,1.3,64,4.784,69.618c3.742,6.031,10.569,8.561,16.867,11.033,3.811,1.495,7.552,3.078,11.5,4.191a72.657,72.657,0,0,0,12.51,2.349A43.332,43.332,0,0,0,58.59,86.8c4.251-.842,8.37-2.221,12.6-3.171,4.545-1.022,9.18-1.541,13.783-2.221,4.359-.645,8.711-1.3,13.075-1.915a60.158,60.158,0,0,0,12.834-2.932c4.071-1.524,8.042-3.3,12.116-4.816a62.7,62.7,0,0,1,12.8-3.384c4.6-.674,9.257-.885,13.893-1.17,2.368-.145,4.729-.347,7.093-.545,2.186-.183,4.377-.063,6.567-.1a17.547,17.547,0,0,0,5.981-.94,32.4,32.4,0,0,0,5.287-2.754c6.117-3.72,13-7.269,17.472-13.035a22.727,22.727,0,0,0,3.063-6.1c.741-1.948,1.772-4.793.851-6.845a3.066,3.066,0,0,0-1.844-1.586c-.537-.242-1.005.551-.465.8,1.812.818.343,4.846-.093,6.04a26.674,26.674,0,0,1-3,5.656,28.056,28.056,0,0,1-7.071,6.594c-2.859,2.049-5.884,3.829-8.9,5.632-1.543.921-3.053,1.909-4.672,2.7a14.411,14.411,0,0,1-6.083,1.4c-1.931.06-3.863-.048-5.795.023-2.25.083-4.5.365-6.745.51-8.356.537-16.764.784-24.827,3.269-7.765,2.392-14.971,6.454-22.957,8.117-3.92.816-7.9,1.252-11.867,1.8-4.315.6-8.616,1.313-12.93,1.929a103.3,103.3,0,0,0-12.2,2.431,77.509,77.509,0,0,1-11.859,2.68A50.3,50.3,0,0,1,42.14,84.2a72.673,72.673,0,0,1-11.57-2.7c-3.8-1.226-7.506-2.767-11.226-4.211-3.413-1.326-6.918-2.825-9.716-5.242-5.556-4.8-8.6-14.594-4.721-21.234.328-.56-.5-1.021-.858-.5" transform="translate(-0.126 -2.801)" fill="#591621"/>
            <path id="Trazado_894165" data-name="Trazado 894165" d="M54.594,18.73a2.82,2.82,0,0,0,2.31.342,26.319,26.319,0,0,0,4.422-1.114,53.029,53.029,0,0,1,10.246-2.335,28.868,28.868,0,0,1,7.679-.03,31.189,31.189,0,0,1,7.434,2.481,96.169,96.169,0,0,0,14.939,4.742c4.642,1.191,9.913,3.118,14.7,1.644a.768.768,0,0,0-.2-1.5,36.988,36.988,0,0,1-11.88-2.244A22.346,22.346,0,0,1,99,18.071c-1.321-.932-2.335-2.311-3.778-3.065a9.584,9.584,0,0,0-4.82-.8,4.36,4.36,0,0,1-2.388-.554c-.078-.043-.386-.241-.39-.352.006.151.006.111.123-.023.587-.672,2.117-.872,2.932-1.063,1.157-.272,2.333-.469,3.509-.637a92.859,92.859,0,0,1,12.525-1.056,42.487,42.487,0,0,1,7.5.547c2.333.4,4.505,1.25,6.8,1.791a15.5,15.5,0,0,0,5.414.289c2.3-.268,4.525-.831,6.856-.645,2.382.19,4.732.652,7.118.841a34.881,34.881,0,0,1,6.422,1.333,29.935,29.935,0,0,0,6.117,1.05c2.352.146,4.795.331,6.711,1.872,1.648,1.326,2.5,3.372,3.358,5.241.8,1.74,1.725,3.415,2.585,5.125,1.7,3.378,4.223,8.421,1.173,11.77a14.823,14.823,0,0,1-4.446,2.932,32.692,32.692,0,0,0-4.24,2.528,21.634,21.634,0,0,0-4.111,3.631,6.13,6.13,0,0,0-1.751,3.207c-.171,2.382,2.928,1.433,4.142.887a9.823,9.823,0,0,0,3.035-2.02c1.208-1.245,1.421-3.3,3-4.164a9.632,9.632,0,0,1,3.262-.72,16.651,16.651,0,0,0,2.683-.678,20.444,20.444,0,0,0,4.817-2.132c1.116-.719,2.444-1.758,2.761-3.123a3.986,3.986,0,0,0-1.132-3.266c-1.011-1.3-2.311-2.561-2.849-4.151-.725-2.141-.765-4.541-1.225-6.748a24.327,24.327,0,0,0-4.84-9.709c-2.137-2.777-4.824-5.613-8.17-6.882a9.793,9.793,0,0,0-4.538-.649c-.938.106-.979,1.567,0,1.5,3.65-.248,6.929,2.475,9.292,4.979a26.49,26.49,0,0,1,5.913,9.34c1.272,3.77.868,8.177,3.574,11.324.818.952,2.654,2.306,2.608,3.705-.058,1.736-2.88,3-4.2,3.59a21.021,21.021,0,0,1-5.257,1.674c-1.835.284-3.584.592-4.763,2.172-.97,1.3-1.347,2.683-2.746,3.654a8.765,8.765,0,0,1-3.395,1.615c-.576.089-.624.164-.613-.326.017-.693.924-1.65,1.366-2.1a27.634,27.634,0,0,1,4.455-3.531c2.774-1.855,6.384-2.715,8.664-5.237,2.541-2.81,2.09-6.549.879-9.86-1.358-3.71-3.376-7.229-5.1-10.78a10.505,10.505,0,0,0-9.109-6.359,40.529,40.529,0,0,1-6.557-.857,56.784,56.784,0,0,0-5.865-1.395c-2.423-.361-4.877-.506-7.308-.841a20.45,20.45,0,0,0-6.588.2,18.569,18.569,0,0,1-5.869.363c-2.358-.335-4.578-1.3-6.909-1.773-7.694-1.569-16.011-.78-23.69.6-1.626.293-4.795.619-5.7,2.282C84.99,14.912,89,15.793,90.4,15.771c1.973-.029,3.67.04,5.225,1.408a23.991,23.991,0,0,0,3.9,3.016A34.384,34.384,0,0,0,110.8,23.941a38.136,38.136,0,0,0,5.324.546q-.1-.751-.2-1.5c-4.272,1.275-8.963-.35-13.1-1.441-5.074-1.337-10.07-2.466-14.9-4.581-4.187-1.835-8.217-3.233-12.849-3.112a37.938,37.938,0,0,0-10.965,1.787c-1.619.544-3.225,1.127-4.859,1.621-.706.214-3.237,1.282-3.914.732-.513-.418-1.245.274-.741.741" transform="translate(-4.326 -0.686)" fill="#591621"/>
            <path id="Trazado_894166" data-name="Trazado 894166" d="M13.139,45.243A15.848,15.848,0,0,0,8.1,54.353a36.931,36.931,0,0,0-.654,5.378c-.051.9-.063,1.8-.065,2.693a7.921,7.921,0,0,0,.232,2.536.465.465,0,0,0,.888,0,8.179,8.179,0,0,0,.254-2.434c.019-.828.054-1.655.089-2.483a35.544,35.544,0,0,1,.539-5.122,16.656,16.656,0,0,1,4.408-9.028c.432-.421-.2-1.031-.651-.652" transform="translate(-0.586 -3.587)" fill="#591621"/>
            <path id="Trazado_894167" data-name="Trazado 894167" d="M10.864,54.254a34.659,34.659,0,0,0-.666,7.626c.073,2.369.321,5.275,1.806,7.23.246.323.834.157.7-.3A29.892,29.892,0,0,1,11.3,61.767a33.483,33.483,0,0,1,.482-7.26c.1-.594-.8-.856-.915-.252" transform="translate(-0.809 -4.285)" fill="#591621"/>
            <path id="Trazado_894168" data-name="Trazado 894168" d="M13.852,63.2a12.634,12.634,0,0,0,.836,3.84,10.4,10.4,0,0,0,.862,1.739,4,4,0,0,0,1.325,1.435c.2.113.532-.08.431-.331a11.254,11.254,0,0,0-.9-1.541,11.574,11.574,0,0,1-.819-1.607,11.791,11.791,0,0,1-.806-3.535c-.043-.593-.97-.6-.931,0" transform="translate(-1.101 -4.988)" fill="#591621"/>
            <path id="Trazado_894169" data-name="Trazado 894169" d="M17.766,67.623l.026.019-.09-.07a.936.936,0,0,1,.164.161l-.069-.089a.8.8,0,0,1,.1.171l-.044-.1a.673.673,0,0,1,.03.086,1.412,1.412,0,0,0,.073.178c-.014-.034-.029-.067-.042-.1a1.061,1.061,0,0,1,.046.142l.039.091a.3.3,0,0,0,.1.109.367.367,0,0,0,.233.082.443.443,0,0,0,.193-.052.39.39,0,0,0,.177-.229,1.237,1.237,0,0,0,.042-.3,1,1,0,0,0-.113-.392,1.242,1.242,0,0,0-.167-.248.94.94,0,0,0-.155-.154.44.44,0,0,0-.2-.115l-.119-.017a.454.454,0,0,0-.226.062.328.328,0,0,0-.125.115.4.4,0,0,0-.088.33.33.33,0,0,0,.053.167.445.445,0,0,0,.16.16" transform="translate(-1.394 -5.309)" fill="#591621"/>
            <path id="Trazado_894170" data-name="Trazado 894170" d="M29.244,35.942A35.993,35.993,0,0,1,40,29.065c3.834-1.715,7.865-3.1,11.477-5.263.33-.2.041-.662-.3-.507-3.906,1.78-7.9,3.366-11.791,5.179a36.121,36.121,0,0,0-10.6,7.021.317.317,0,0,0,.447.447" transform="translate(-2.282 -1.849)" fill="#591621"/>
            <path id="Trazado_894171" data-name="Trazado 894171" d="M39.462,32.691A43.139,43.139,0,0,1,47.1,28.55a77.9,77.9,0,0,0,7.916-3.63c.3-.174.1-.712-.244-.578-2.7,1.048-5.356,2.214-7.979,3.437a43.5,43.5,0,0,0-7.645,4.373c-.316.236-.017.773.315.539" transform="translate(-3.101 -1.933)" fill="#591621"/>
            <path id="Trazado_894172" data-name="Trazado 894172" d="M35.022,39.506a61.739,61.739,0,0,0-4.365,7.441A39.051,39.051,0,0,0,27.58,54.82c-.089.366.464.64.636.268,1.188-2.554,2.15-5.2,3.351-7.755a64.544,64.544,0,0,1,4.117-7.439c.271-.419-.387-.793-.663-.388" transform="translate(-2.191 -3.126)" fill="#591621"/>
            <path id="Trazado_894173" data-name="Trazado 894173" d="M27.644,48.756c-.371,1.445-.812,2.869-1.254,4.294-.217.7-.434,1.4-.642,2.109a7.975,7.975,0,0,0-.437,2.167.4.4,0,0,0,.741.2,10.752,10.752,0,0,0,.691-2.093c.192-.709.4-1.415.6-2.121.411-1.433.824-2.866,1.164-4.319a.448.448,0,0,0-.863-.237" transform="translate(-2.012 -3.85)" fill="#591621"/>
            <path id="Trazado_894174" data-name="Trazado 894174" d="M24.94,52.453a11.538,11.538,0,0,0-.395,2.107,6.462,6.462,0,0,0,.092,2.142c.091.392.652.282.674-.091.021-.349.048-.69.041-1.04-.006-.324,0-.649.018-.973a10.422,10.422,0,0,1,.3-1.943.38.38,0,0,0-.732-.2" transform="translate(-1.947 -4.148)" fill="#591621"/>
            <path id="Trazado_894175" data-name="Trazado 894175" d="M37.363,71.9c6.6,2.1,13.271.1,19.8-1.236,6.589-1.35,13.251-2.511,19.934-3.276,3.681-.422,7.382-.6,11.072-.92a.339.339,0,0,0,0-.677,50.8,50.8,0,0,0-9.731.3c-3.288.338-6.56.813-9.819,1.355-3.235.538-6.457,1.146-9.676,1.772-3.272.635-6.5,1.473-9.781,2.069a25.866,25.866,0,0,1-11.6-.108.376.376,0,0,0-.2.724" transform="translate(-2.949 -5.22)" fill="#591621"/>
            <path id="Trazado_894176" data-name="Trazado 894176" d="M74.734,69.678c2.124.923,4.477.666,6.693.252a56.34,56.34,0,0,1,7.354-1.3c.306-.016.417-.518.077-.568-2.331-.345-4.581.3-6.844.791S77.257,69.891,75.02,69c-.387-.154-.67.51-.285.677" transform="translate(-5.926 -5.402)" fill="#591621"/>
            <path id="Trazado_894177" data-name="Trazado 894177" d="M83.741,71.6l1.551,0a8.311,8.311,0,0,0,1.549-.1.219.219,0,0,0,0-.419,8.39,8.39,0,0,0-1.549-.106l-1.551,0a.312.312,0,0,0,0,.623" transform="translate(-6.632 -5.641)" fill="#591621"/>
            <path id="Trazado_894178" data-name="Trazado 894178" d="M10.54,77.477c2.187,6.472,4.968,12.768,6.323,19.493.151.747,1.292.43,1.142-.315-1.367-6.778-4.263-13.069-6.97-19.387-.121-.281-.593-.081-.5.209" transform="translate(-0.837 -6.131)" fill="#591621"/>
            <path id="Trazado_894179" data-name="Trazado 894179" d="M8.843,76.6c-.29,3.336,1.257,6.71,2.4,9.757.607,1.616,1.156,3.254,1.743,4.878.292.808.586,1.615.862,2.429.194.573.27,1.48.89,1.731a.388.388,0,0,0,.434-.177c.368-.5-.145-1.422-.32-1.938-.265-.781-.543-1.558-.828-2.331-.585-1.591-1.166-3.185-1.786-4.762s-1.262-3.152-1.8-4.762a13.321,13.321,0,0,1-.9-4.826c.022-.452-.657-.44-.7,0" transform="translate(-0.7 -6.062)" fill="#591621"/>
            <path id="Trazado_894180" data-name="Trazado 894180" d="M20.4,85.753c.351,1.574.674,3.155.99,4.736q.232,1.163.464,2.327c.08.4.153.8.241,1.2a1.724,1.724,0,0,0,.362.932.261.261,0,0,0,.431-.113,1.844,1.844,0,0,0-.07-1.019c-.082-.4-.179-.8-.267-1.193q-.257-1.157-.512-2.314c-.35-1.572-.706-3.144-1.091-4.708-.087-.357-.629-.206-.549.151" transform="translate(-1.621 -6.788)" fill="#591621"/>
            <path id="Trazado_894181" data-name="Trazado 894181" d="M23.088,89.754a24.742,24.742,0,0,1,.733,3.309,14.96,14.96,0,0,0,.39,1.631,8.749,8.749,0,0,0,.3.825c.112.265.193.478.476.58a.288.288,0,0,0,.351-.2c.081-.284-.085-.512-.2-.767-.106-.238-.2-.482-.283-.73a15.89,15.89,0,0,1-.434-1.618,23.477,23.477,0,0,0-.822-3.173c-.12-.316-.626-.188-.515.142" transform="translate(-1.834 -7.108)" fill="#591621"/>
            <path id="Trazado_894182" data-name="Trazado 894182" d="M25.985,90.48a37.142,37.142,0,0,0,.881,5.163,18.7,18.7,0,0,0,.777,2.554,3.226,3.226,0,0,0,1.164,1.669.346.346,0,0,0,.47-.47,15.258,15.258,0,0,1-1.658-4.148A43.093,43.093,0,0,1,26.562,90.4c-.051-.324-.609-.251-.577.078" transform="translate(-2.065 -7.169)" fill="#591621"/>
            <path id="Trazado_894183" data-name="Trazado 894183" d="M31.275,87.634a31.916,31.916,0,0,1,1.112,7.522,26.446,26.446,0,0,0,.513,3.516,6.445,6.445,0,0,0,1.352,3.179.437.437,0,0,0,.724-.423,13.375,13.375,0,0,0-.685-1.545,12.548,12.548,0,0,1-.518-1.669,28.9,28.9,0,0,1-.581-3.715,29.113,29.113,0,0,0-1.246-7.051c-.153-.414-.817-.243-.671.185" transform="translate(-2.484 -6.932)" fill="#591621"/>
            <path id="Trazado_894184" data-name="Trazado 894184" d="M35.36,87.887a26.457,26.457,0,0,1,1.106,5.369c.11.862.212,1.724.334,2.584.062.436.129.873.207,1.307.064.365.064.8.441.974a.279.279,0,0,0,.329-.042c.266-.314.143-.6.064-.98-.1-.459-.186-.919-.267-1.381-.154-.879-.283-1.763-.423-2.645a26.6,26.6,0,0,0-1.269-5.331c-.122-.32-.639-.189-.522.145" transform="translate(-2.809 -6.96)" fill="#591621"/>
            <path id="Trazado_894185" data-name="Trazado 894185" d="M38.567,91.621a7.859,7.859,0,0,1,.324,1.446c.033.261.05.523.076.784a2.5,2.5,0,0,0,.043.382.33.33,0,0,0,.367.246c.308-.086.237-.488.211-.726-.029-.272-.069-.544-.117-.814a8.1,8.1,0,0,0-.391-1.46.274.274,0,0,0-.328-.186.269.269,0,0,0-.186.328" transform="translate(-3.065 -7.256)" fill="#591621"/>
            <path id="Trazado_894186" data-name="Trazado 894186" d="M47,90.039A38.99,38.99,0,0,1,49.3,100.2c.089,1.254.057,2.513.211,3.762.12.968.3,2.561,1.325,3.027a.4.4,0,0,0,.584-.449c-.142-.493-.428-.931-.582-1.422a9.084,9.084,0,0,1-.338-1.85c-.115-1.2-.1-2.414-.251-3.611a41.71,41.71,0,0,0-2.544-9.813c-.168-.432-.866-.255-.706.194" transform="translate(-3.734 -7.122)" fill="#591621"/>
            <path id="Trazado_894187" data-name="Trazado 894187" d="M51.334,91.362c.126.679.228,1.363.373,2.04.071.331.152.66.251.984a3.139,3.139,0,0,0,.464.937.222.222,0,0,0,.4-.171c-.157-.655-.373-1.293-.518-1.952s-.252-1.334-.381-2c-.075-.389-.665-.224-.593.163" transform="translate(-4.08 -7.231)" fill="#591621"/>
            <path id="Trazado_894188" data-name="Trazado 894188" d="M88.368,31.059c1.338,6.171,8.985,6.618,14.06,5.987a20.469,20.469,0,0,0,4.343-.994.439.439,0,0,0-.233-.845,44.317,44.317,0,0,1-7.563.906c-2.555.037-5.376-.268-7.531-1.767a6.021,6.021,0,0,1-2.37-3.48.366.366,0,0,0-.706.194" transform="translate(-7.023 -2.432)" fill="#591621"/>
            <path id="Trazado_894189" data-name="Trazado 894189" d="M95.919,33.634a7.628,7.628,0,0,0,5.545,1.6,15.96,15.96,0,0,0,5.9-1.164c.226-.1.106-.46-.123-.455-1.839.045-3.635.57-5.472.684-1.791.111-3.878.017-5.31-1.2-.372-.317-.911.2-.543.543" transform="translate(-7.614 -2.622)" fill="#591621"/>
            <path id="Trazado_894190" data-name="Trazado 894190" d="M104.312,31.505a3.369,3.369,0,0,0,1.611.338,1.993,1.993,0,0,0,.581-.122.253.253,0,0,0-.067-.5c-.171.006-.342,0-.514,0a3.439,3.439,0,0,1-.477-.02l-.017,0-.051-.008-.115-.021c-.075-.016-.151-.034-.226-.056s-.145-.045-.217-.073l-.06-.024c.026.01.021.008-.014-.007l-.115-.056a.316.316,0,0,0-.319.546" transform="translate(-8.279 -2.458)" fill="#591621"/>
            <path id="Trazado_894191" data-name="Trazado 894191" d="M106.572,30.606c.35.05.7.089,1.052.113.165.012.33.02.5.024a2.6,2.6,0,0,0,.533-.059.256.256,0,0,0,.185-.283.258.258,0,0,0-.253-.223,3.558,3.558,0,0,0-.465.006c-.165.017-.33.032-.5.043-.335.023-.67.032-1.005.031-.191,0-.249.318-.047.346" transform="translate(-8.461 -2.398)" fill="#591621"/>
            <path id="Trazado_894192" data-name="Trazado 894192" d="M72.27,19.976a18.534,18.534,0,0,1,10.855-.444c.429.107.725-.516.309-.735a10.881,10.881,0,0,0-5.724-.8A16.689,16.689,0,0,0,72,19.332c-.361.161-.1.788.272.644" transform="translate(-5.709 -1.426)" fill="#591621"/>
            <path id="Trazado_894193" data-name="Trazado 894193" d="M78.524,20.641c.025-.012.049-.024.075-.035l-.1.043a1.134,1.134,0,0,1,.278-.076l-.114.016a1.009,1.009,0,0,1,.236,0l-.114-.015a1.071,1.071,0,0,1,.261.073l-.1-.043c.071.03.133.074.2.11a2.144,2.144,0,0,1,.212.115.364.364,0,0,0,.438-.056.372.372,0,0,0,.056-.438,1.69,1.69,0,0,0-.131-.19.925.925,0,0,0-.232-.212,1.24,1.24,0,0,0-.414-.176,1.474,1.474,0,0,0-.98.144.432.432,0,0,0-.154.587.439.439,0,0,0,.587.154" transform="translate(-6.19 -1.568)" fill="#591621"/>
            <path id="Trazado_894194" data-name="Trazado 894194" d="M79.579,21.635a1.091,1.091,0,0,1,.186.059l-.071-.029a1.01,1.01,0,0,1,.22.128l-.064-.049a1,1,0,0,1,.1.087,1.662,1.662,0,0,0,.16.129l-.063-.049a1.293,1.293,0,0,1,.148.135.274.274,0,0,0,.362.022.261.261,0,0,0,.1-.144c0-.024.007-.049.01-.073a.272.272,0,0,0-.038-.139,1.18,1.18,0,0,0-.115-.215.555.555,0,0,0-.082-.1c-.033-.029-.068-.054-.1-.081s-.064-.044-.1-.064a1.364,1.364,0,0,0-.576-.174.281.281,0,0,0-.2.083.3.3,0,0,0-.077.164.282.282,0,0,0,.2.312" transform="translate(-6.309 -1.675)" fill="#591621"/>
            <path id="Trazado_894195" data-name="Trazado 894195" d="M33.29,75.834c8.078,4.7,17.149.863,25.743.447a38.531,38.531,0,0,1,7.51.573c.375.055.7-.481.285-.678C62.963,74.356,58.2,75,54.109,75.6c-4.338.636-8.7,1.639-13.111,1.414a18.251,18.251,0,0,1-7.334-1.817.371.371,0,0,0-.374.64" transform="translate(-2.632 -5.96)" fill="#591621"/>
            <path id="Trazado_894196" data-name="Trazado 894196" d="M56.021,78.4c1.828.863,3.816-.08,5.683-.281,2.3-.249,4.473.9,6.748,1.031.309.017.349-.436.071-.524-2.078-.654-4.256-1.529-6.477-1.394-1.882.115-3.943,1.388-5.8.631-.307-.125-.527.395-.226.537" transform="translate(-4.441 -6.138)" fill="#591621"/>
            <path id="Trazado_894197" data-name="Trazado 894197" d="M62.642,80.817a9.868,9.868,0,0,1,4.831.383,10.212,10.212,0,0,0,4.5.591c.215-.04.224-.412,0-.445-1.6-.227-3.163-.6-4.737-.967a9.251,9.251,0,0,0-4.723-.025.24.24,0,0,0,.127.462" transform="translate(-4.955 -6.363)" fill="#591621"/>
            <path id="Trazado_894198" data-name="Trazado 894198" d="M67.378,83.309a8.821,8.821,0,0,1,2.252.33,3.715,3.715,0,0,0,2.288.061.237.237,0,0,0-.056-.429,9.763,9.763,0,0,0-1.144-.144c-.367-.036-.729-.11-1.09-.181a8.716,8.716,0,0,0-2.251-.243c-.386.025-.392.619,0,.606" transform="translate(-5.332 -6.573)" fill="#591621"/>
            <path id="Trazado_894199" data-name="Trazado 894199" d="M77.662,81.094a3.487,3.487,0,0,0,1.751.589,7.162,7.162,0,0,0,1.882-.076.251.251,0,0,0,0-.48,4.305,4.305,0,0,0-.883-.067c-.3.006-.591.03-.887.026a3.008,3.008,0,0,1-1.608-.429c-.279-.177-.515.251-.255.437" transform="translate(-6.164 -6.408)" fill="#591621"/>
            <path id="Trazado_894200" data-name="Trazado 894200" d="M86.472,79.384a4.119,4.119,0,0,0,1.222.04,1.732,1.732,0,0,0,.634-.189,2.025,2.025,0,0,0,.422-.3.287.287,0,0,0-.277-.476,1.5,1.5,0,0,1-.188.053.512.512,0,0,1-.1.018c.1,0-.019,0-.041,0l-.229.017c-.068.006-.135.014-.2.025-.024,0-.162.033-.044.008a2.478,2.478,0,0,1-.522.029c-.088,0-.177-.006-.265-.013a.787.787,0,0,1-.132-.014c.11.028-.028,0-.051-.008a.425.425,0,0,0-.511.291.42.42,0,0,0,.29.511" transform="translate(-6.849 -6.235)" fill="#591621"/>
            <path id="Trazado_894201" data-name="Trazado 894201" d="M127.381,40.251c2.155,2.3,4.362,6.084,2.487,9.131-1.628,2.647-4.49,4.278-6.705,6.375-.306.289.082.737.433.561a20.83,20.83,0,0,0,4.185-2.848,12.427,12.427,0,0,0,3.36-4.065c1.519-3.4-.942-7.261-3.338-9.574a.3.3,0,0,0-.422.422" transform="translate(-9.781 -3.159)" fill="#591621"/>
            <path id="Trazado_894202" data-name="Trazado 894202" d="M130.757,54.753c-3.218,2.94-7.156,4.708-11.148,6.334a.294.294,0,0,0,.156.566,23.065,23.065,0,0,0,11.453-6.44c.3-.3-.152-.742-.46-.46" transform="translate(-9.491 -4.345)" fill="#591621"/>
            <path id="Trazado_894203" data-name="Trazado 894203" d="M128.524,59.969a23.1,23.1,0,0,1-6.294,2.986,38.467,38.467,0,0,0-6.422,2.275c-.3.162-.078.558.215.512a38.328,38.328,0,0,0,6.883-1.919,21.645,21.645,0,0,0,6.1-3.229c.353-.275-.114-.886-.481-.624" transform="translate(-9.194 -4.762)" fill="#591621"/>
            <path id="Trazado_894204" data-name="Trazado 894204" d="M124.324,64.778a22.891,22.891,0,0,1-4.511,1.812c-.776.238-1.552.475-2.326.718a4.319,4.319,0,0,0-2.047,1.01.343.343,0,0,0,.239.578,5.268,5.268,0,0,0,2.258-.522c.793-.275,1.59-.538,2.376-.832a23.2,23.2,0,0,0,4.408-2.084.394.394,0,0,0-.4-.679" transform="translate(-9.168 -5.144)" fill="#591621"/>
            <path id="Trazado_894205" data-name="Trazado 894205" d="M118.917,69.006c-.1.082-.192.162-.292.238l.106-.082c-.19.146-.391.275-.584.418a1.95,1.95,0,0,0-.391.307.736.736,0,0,0-.074.11c-.034.066.066-.074.01-.008l-.115.133a.34.34,0,0,0-.07.365.331.331,0,0,0,.306.205l.2-.017c.035,0,.07,0,.1,0a.693.693,0,0,0,.3-.078,2.914,2.914,0,0,0,.419-.218,7.867,7.867,0,0,0,.824-.634.524.524,0,0,0-.37-.895.583.583,0,0,0-.371.154" transform="translate(-9.338 -5.473)" fill="#591621"/>
            <path id="Trazado_894206" data-name="Trazado 894206" d="M146.215,70.65c.7,3.042.275,6.219-.018,9.287-.138,1.442-.188,2.874-.233,4.321-.023.738.085,1.476-.008,2.206-.09.708-.3,1.386-.388,2.093-.108.9,1.218,1.13,1.627.441a6.383,6.383,0,0,0,.67-2.276c.113-.723.3-1.418.361-2.148.122-1.543.168-3.093.274-4.638.226-3.279.4-6.571-.576-9.758a.886.886,0,0,0-1.708.471" transform="translate(-11.57 -5.528)" fill="#591621"/>
            <path id="Trazado_894207" data-name="Trazado 894207" d="M152.014,72.3c-.033,2-.127,3.991-.221,5.986-.045.959-.091,1.917-.128,2.877-.033.889-.186,2.055.486,2.751a.448.448,0,0,0,.626,0c.674-.684.549-1.865.557-2.751q.012-1.439.038-2.877c.031-1.995.063-3.99.034-5.986a.7.7,0,0,0-1.392,0" transform="translate(-12.052 -5.693)" fill="#591621"/>
            <path id="Trazado_894208" data-name="Trazado 894208" d="M154,77.109c-.009.676.033,1.352.064,2.027.015.337.029.673.036,1.01,0,.144,0,.287,0,.431a2.179,2.179,0,0,0,.028.336c.013.093-.022-.209-.012-.088a1.539,1.539,0,0,0,.038.259.754.754,0,0,0,.718.548.776.776,0,0,0,.719-.548,2.2,2.2,0,0,0,.013-.937c-.041-.382-.094-.762-.145-1.143-.024-.173-.047-.345-.071-.518-.006-.046-.012-.091-.018-.137-.012-.085.016.122,0-.011-.012-.09-.024-.179-.035-.27-.041-.319-.079-.637-.1-.957a.614.614,0,1,0-1.229,0" transform="translate(-12.241 -6.08)" fill="#591621"/>
            <path id="Trazado_894209" data-name="Trazado 894209" d="M160.52,69.016c.889,2.823.093,5.971-.354,8.807-.185,1.172-.284,2.347-.386,3.529-.054.62-.11,1.239-.19,1.856a5.539,5.539,0,0,0-.13,1.614.854.854,0,0,0,1.42.375c.734-.846.644-2.466.727-3.521.1-1.284.191-2.566.342-3.847.351-2.983.967-6.271-.088-9.182-.3-.83-1.615-.5-1.342.37" transform="translate(-12.672 -5.418)" fill="#591621"/>
            <path id="Trazado_894210" data-name="Trazado 894210" d="M163.89,69.629A83.659,83.659,0,0,1,163,78.385c-.184,1.361-.363,2.722-.5,4.089-.118,1.211-.5,3.177.272,4.216a.718.718,0,0,0,1.217,0,3.506,3.506,0,0,0,.422-1.967c.038-.75.081-1.5.12-2.249.072-1.39.191-2.776.317-4.163a81.946,81.946,0,0,0,.485-8.682.724.724,0,0,0-1.446,0" transform="translate(-12.901 -5.479)" fill="#591621"/>
            <path id="Trazado_894211" data-name="Trazado 894211" d="M167.847,70.376a16.817,16.817,0,0,1-.052,7.608c-.227,1.263-.466,2.524-.658,3.793a8.981,8.981,0,0,0-.143,3.858.967.967,0,0,0,1.849,0,21.718,21.718,0,0,0,.462-3.8c.184-1.37.422-2.73.589-4.1a17.586,17.586,0,0,0-.426-7.8.841.841,0,0,0-1.621.446" transform="translate(-13.26 -5.512)" fill="#591621"/>
            <path id="Trazado_894212" data-name="Trazado 894212" d="M173.319,68.63a13.6,13.6,0,0,0-.655,4.441c-.036,1.562.01,3.14.1,4.7.04.668-.029,1.694.646,2.055a.774.774,0,0,0,.873-.089,1.345,1.345,0,0,0,.413-1.155c.012-1.5-.228-3-.307-4.495a14.179,14.179,0,0,1,.355-5.061c.294-.921-1.1-1.273-1.43-.394" transform="translate(-13.723 -5.415)" fill="#591621"/>
            <path id="Trazado_894213" data-name="Trazado 894213" d="M176.889,68.2a13.239,13.239,0,0,0-.135,1.674c0,.257.006.524.029.779a1.288,1.288,0,0,0,.174.609,1.45,1.45,0,0,0,.351.423.491.491,0,0,0,.591-.076,1.021,1.021,0,0,0,.214-.368,1.037,1.037,0,0,0,.122-.424,2.167,2.167,0,0,0-.014-.218,6.722,6.722,0,0,0-.156-.874c-.118-.509-.26-1.006-.339-1.523a.434.434,0,0,0-.837,0" transform="translate(-14.049 -5.396)" fill="#591621"/>
            <path id="Trazado_894214" data-name="Trazado 894214" d="M187.523,64.559q-.033,1.941-.067,3.884l-.033,1.9a5.66,5.66,0,0,0,.283,1.972.547.547,0,0,0,1.046,0,5.682,5.682,0,0,0,.283-1.972l-.033-1.9q-.034-1.941-.067-3.884a.706.706,0,0,0-1.41,0" transform="translate(-14.897 -5.077)" fill="#591621"/>
            <path id="Trazado_894215" data-name="Trazado 894215" d="M191.512,62.795a26.347,26.347,0,0,1,.059,4.8c-.033.766-.089,1.538-.047,2.3a3.653,3.653,0,0,0,.641,2.241c.222.282.665.094.754-.2a6.265,6.265,0,0,0,.036-2.368c-.062-.77-.123-1.538-.175-2.309a15.9,15.9,0,0,0-.8-4.6.244.244,0,0,0-.469.13" transform="translate(-15.222 -4.967)" fill="#591621"/>
            <path id="Trazado_894216" data-name="Trazado 894216" d="M194.763,62.343a8.54,8.54,0,0,1,.2,2.936c-.032.526-.079,1.051-.118,1.577a2.66,2.66,0,0,0,.027.9.851.851,0,0,0,1.011.666c.775-.2.689-1.136.695-1.757,0-.527.016-1.053.006-1.581a9.448,9.448,0,0,0-.462-3.111.724.724,0,0,0-.867-.492.714.714,0,0,0-.492.867" transform="translate(-15.478 -4.884)" fill="#591621"/>
            <path id="Trazado_894217" data-name="Trazado 894217" d="M208.019,53.08q-.015,1.651-.029,3.3-.008.826-.016,1.65c0,.52.1,1.45.8,1.45s.805-.932.8-1.45c0-.55-.01-1.1-.014-1.65l-.03-3.3a.759.759,0,0,0-1.517,0" transform="translate(-16.531 -4.161)" fill="#591621"/>
            <path id="Trazado_894218" data-name="Trazado 894218" d="M204.994,52.58a44.089,44.089,0,0,0-.016,6.344c.05,1.057.137,2.112.176,3.169.033.879-.16,2.16.665,2.716a.5.5,0,0,0,.511,0c.846-.586.583-1.824.5-2.716-.094-1.05-.21-2.1-.361-3.144-.308-2.115-.637-4.235-.791-6.369a.344.344,0,0,0-.687,0" transform="translate(-16.284 -4.153)" fill="#591621"/>
            <path id="Trazado_894219" data-name="Trazado 894219" d="M202.457,56.55c.126,1.552.391,3.089.59,4.633.1.763.188,1.529.232,2.3.019.335.03.672.023,1.009a1.951,1.951,0,0,0,.151,1.156.857.857,0,0,0,1.329.171c.525-.544.354-1.527.286-2.218-.08-.817-.207-1.631-.348-2.439-.267-1.536-.618-3.063-.817-4.61a.746.746,0,0,0-.724-.723.728.728,0,0,0-.723.723" transform="translate(-16.092 -4.437)" fill="#591621"/>
            <path id="Trazado_894220" data-name="Trazado 894220" d="M208.382,47.4c.488,1.668.852,3.368,1.217,5.067.178.823.355,1.647.55,2.466.189.792.323,1.9,1.082,2.339a.556.556,0,0,0,.755-.2c.388-.8-.052-1.764-.27-2.573s-.422-1.629-.624-2.446c-.416-1.686-.83-3.373-1.368-5.025a.7.7,0,0,0-1.342.37" transform="translate(-16.56 -3.699)" fill="#591621"/>
            <path id="Trazado_894221" data-name="Trazado 894221" d="M210.391,45.931a23.3,23.3,0,0,1,1.051,3.482q.231.931.409,1.872a8.437,8.437,0,0,0,.591,1.72c.225.529.937.188.977-.264.026-.286.072-.582.069-.868a5.386,5.386,0,0,0-.156-1.056q-.207-.967-.467-1.921a18.927,18.927,0,0,0-1.4-3.595.632.632,0,0,0-.853-.224.64.64,0,0,0-.224.853" transform="translate(-16.717 -3.577)" fill="#591621"/>
            <path id="Trazado_894222" data-name="Trazado 894222" d="M15,80.907c1.443,2.815,1.616,6.142,2.159,9.207.235,1.328.5,2.658.761,3.981a16.507,16.507,0,0,0,.531,2.114,8.892,8.892,0,0,0,.359.9c.071.15.4.753.409.631l.331-.578-.063.029.469-.062a.951.951,0,0,0-.56.017.4.4,0,0,0-.272.478,1.409,1.409,0,0,0,.289.589.68.68,0,0,0,.947,0l.116-.1a.731.731,0,0,0,.114-.887,9.122,9.122,0,0,1-1.313-3.891c-.261-1.375-.581-2.738-.828-4.115C17.91,86.2,17.6,83,16.143,80.241c-.4-.753-1.526-.088-1.14.666" transform="translate(-1.186 -6.352)" fill="#591621"/>
            <path id="Trazado_894223" data-name="Trazado 894223" d="M5.717,74.982c-.176,3.16.9,6.213,1.861,9.174.481,1.477.871,2.96,1.226,4.471.352,1.491.65,3.341,1.59,4.59a.6.6,0,0,0,1.09-.459c-.2-.809-.594-1.569-.839-2.369-.214-.7-.389-1.4-.562-2.114-.354-1.456-.736-2.891-1.21-4.314-.969-2.915-2.189-5.852-2.109-8.978.017-.678-1.012-.67-1.048,0" transform="translate(-0.453 -5.92)" fill="#591621"/>
            <path id="Trazado_894224" data-name="Trazado 894224" d="M38.809,88.327c-.475,4.945.409,10.022,1.211,14.9a2.254,2.254,0,0,0,.354,1.158,2.289,2.289,0,0,0,.22.187c-.121-.111-.191-.116,0-.013.057.031.365.191.266.158.469.156,1.008-.428.986-1.057a19.648,19.648,0,0,0-.411-2.62c-.167-.953-.337-1.9-.5-2.857a52.078,52.078,0,0,1-1.1-9.853c.017-.673-.967-.648-1.03,0" transform="translate(-3.074 -6.981)" fill="#591621"/>
            <path id="Trazado_894225" data-name="Trazado 894225" d="M41.531,90.979a59.085,59.085,0,0,0,.657,10.888c.192,1.063.427,2.118.665,3.172.176.775.221,1.468,1.015,1.8a.385.385,0,0,0,.387-.1c.53-.633.306-1.208.145-1.955-.227-1.064-.457-2.128-.668-3.2a56.5,56.5,0,0,1-.755-10.608.724.724,0,0,0-1.446,0" transform="translate(-3.301 -7.176)" fill="#591621"/>
            <path id="Trazado_894226" data-name="Trazado 894226" d="M45.561,95a36.766,36.766,0,0,0,.8,7.325c.15.9.237,1.806.319,2.719a7.977,7.977,0,0,0,.352,2.294c.314.76,1.538.48,1.272-.351a39.253,39.253,0,0,1-.725-4.772A43.985,43.985,0,0,1,46.465,95a.452.452,0,0,0-.9,0" transform="translate(-3.621 -7.517)" fill="#591621"/>
            <path id="Trazado_894227" data-name="Trazado 894227" d="M55.957,90.86a49.176,49.176,0,0,1,1.053,8.692,22.931,22.931,0,0,0,1.59,7.883c.428.922,1.823.119,1.373-.8-1.154-2.371-1.362-5.239-1.68-7.82a45.64,45.64,0,0,0-1.413-8.207.479.479,0,0,0-.923.255" transform="translate(-4.446 -7.175)" fill="#591621"/>
            <path id="Trazado_894228" data-name="Trazado 894228" d="M77.371,87.784a60.591,60.591,0,0,0-.007,7.325,28.749,28.749,0,0,0,.469,3.58,6.256,6.256,0,0,0,1.341,3.165.447.447,0,0,0,.756-.313,17.871,17.871,0,0,0-.654-3.138,26.227,26.227,0,0,1-.528-3.63,62.56,62.56,0,0,1-.093-6.989c.026-.828-1.244-.822-1.283,0" transform="translate(-6.141 -6.928)" fill="#591621"/>
            <path id="Trazado_894229" data-name="Trazado 894229" d="M79.611,87.278a30.4,30.4,0,0,0,.491,8.484c.238,1.456.53,2.9.769,4.359a22.485,22.485,0,0,0,.735,4.249c.168.448.914.562,1.028,0a10.5,10.5,0,0,0-.3-4c-.268-1.445-.584-2.881-.888-4.319a45.219,45.219,0,0,1-1.234-8.769.3.3,0,0,0-.6,0" transform="translate(-6.317 -6.914)" fill="#591621"/>
            <path id="Trazado_894230" data-name="Trazado 894230" d="M84.872,87.251a69.943,69.943,0,0,0,.357,8.285c.136,1.347.31,2.692.543,4.026a9.336,9.336,0,0,0,.981,3.617.757.757,0,0,0,1.4-.379,18.717,18.717,0,0,0-.791-3.439c-.284-1.347-.5-2.707-.677-4.072a70.045,70.045,0,0,1-.566-8.037.624.624,0,0,0-1.247,0" transform="translate(-6.745 -6.887)" fill="#591621"/>
            <path id="Trazado_894231" data-name="Trazado 894231" d="M88.856,84.848a78.214,78.214,0,0,0,.838,9.306c.218,1.545.488,3.081.769,4.615a24.073,24.073,0,0,0,1.008,4.7c.391.956,1.965.537,1.569-.432a3.662,3.662,0,0,1-.192-.612.419.419,0,0,0-.8,0,2.743,2.743,0,0,0-.1.4l.5-.384-.194,0,.814.813a24.141,24.141,0,0,0-.781-4.307c-.32-1.576-.615-3.156-.909-4.737a76.677,76.677,0,0,1-1.239-9.361c-.05-.817-1.3-.832-1.283,0" transform="translate(-7.063 -6.695)" fill="#591621"/>
            <path id="Trazado_894232" data-name="Trazado 894232" d="M101.331,84.323a9.2,9.2,0,0,1,.91,3.707c.13,1.539.123,3.089.162,4.633a33.965,33.965,0,0,0,.3,4.378c.175,1.132.493,2.433,1.51,2.982.5.272,1.326-.2,1.071-.823a14.78,14.78,0,0,1-.923-3.025A43.216,43.216,0,0,1,104,91.8a39.94,39.94,0,0,0-.464-4.48,7.854,7.854,0,0,0-1.3-3.526c-.4-.518-1.245-.078-.9.529" transform="translate(-8.048 -6.642)" fill="#591621"/>
            <path id="Trazado_894233" data-name="Trazado 894233" d="M107.666,82.064c.555,2.795.39,5.741.667,8.572a26.073,26.073,0,0,0,.716,4.4c.285,1.034.78,2.693,1.955,3.03a.83.83,0,0,0,1.013-1.013,11.8,11.8,0,0,0-.78-1.318,7.945,7.945,0,0,1-.587-1.551,28.224,28.224,0,0,1-.805-4.307,58.19,58.19,0,0,0-1.134-8.1.543.543,0,0,0-1.046.288" transform="translate(-8.557 -6.469)" fill="#591621"/>
            <path id="Trazado_894234" data-name="Trazado 894234" d="M113.546,82.862a17.15,17.15,0,0,1,.554,2.589c.064.43.107.866.191,1.291a1.672,1.672,0,0,0,.574,1.195.36.36,0,0,0,.482-.126,1.88,1.88,0,0,0,.1-1.314c-.054-.453-.149-.9-.231-1.353a17.2,17.2,0,0,0-.638-2.566.546.546,0,0,0-.655-.372.538.538,0,0,0-.373.655" transform="translate(-9.023 -6.533)" fill="#591621"/>
            <path id="Trazado_894235" data-name="Trazado 894235" d="M117.469,82.737q.072.555.136,1.111.032.269.062.54a2.109,2.109,0,0,0,.159.746.537.537,0,0,0,.6.246.555.555,0,0,0,.392-.515,1.831,1.831,0,0,0-.143-.635q-.086-.262-.173-.525-.178-.532-.361-1.06a.346.346,0,0,0-.376-.246.337.337,0,0,0-.3.337" transform="translate(-9.337 -6.549)" fill="#591621"/>
            <path id="Trazado_894236" data-name="Trazado 894236" d="M122.944,78.048c.59,3.4.886,6.844,1.329,10.267.184,1.422.3,2.872.588,4.278a20.628,20.628,0,0,0,.532,2.061c.108.341.351.8.746.854a.678.678,0,0,0,.728-.3,1.137,1.137,0,0,0,.124-.479c.042-.287-.173-.6-.5-.5l.144.1.319.556c-.013.563.067-.086.09-.233a2.187,2.187,0,0,0-.087-.9c-.17-.634-.422-1.228-.561-1.875-.31-1.453-.483-2.947-.712-4.413-.505-3.239-1.059-6.479-1.817-9.669-.145-.608-1.026-.342-.923.255" transform="translate(-9.771 -6.156)" fill="#591621"/>
            <path id="Trazado_894237" data-name="Trazado 894237" d="M128.084,74.973a38.8,38.8,0,0,0,.98,9.655c.324,1.622.673,3.24.978,4.866.3,1.6.365,3.245.692,4.827a.785.785,0,0,0,1.419.186c.293-.434.09-.688-.089-1.092a.454.454,0,0,0-.71-.091,2.562,2.562,0,0,1-.2.247l.665-.176-.128-.029.57.748a19.808,19.808,0,0,0-.607-4.7c-.3-1.564-.673-3.113-1.025-4.666a38.813,38.813,0,0,1-1.26-9.776c.026-.828-1.239-.821-1.283,0" transform="translate(-10.178 -5.91)" fill="#591621"/>
            <path id="Trazado_894238" data-name="Trazado 894238" d="M131.6,74.072c.963,4.186.97,8.512,1.544,12.755a36.793,36.793,0,0,1,.688,5.977,1.1,1.1,0,0,0,.631,1.162.661.661,0,0,0,.886-.529.465.465,0,0,0-.567-.567l-.044.017.488.279q-.3.811.011.506a.825.825,0,0,0,.214-.366,3.414,3.414,0,0,0,.058-.812,10.671,10.671,0,0,0-.229-2.172c-.313-1.941-.634-3.882-.858-5.835A74.24,74.24,0,0,0,132.8,73.741a.624.624,0,0,0-1.2.331" transform="translate(-10.458 -5.826)" fill="#591621"/>
            <path id="Trazado_894239" data-name="Trazado 894239" d="M138.129,72.449c.573,4.1,1.657,8.123,2.09,12.24.123,1.165.207,2.335.349,3.5a7.126,7.126,0,0,0,.707,3.04c.451.666,1.707.27,1.388-.585-.737-1.976-.744-4.277-1.05-6.348-.6-4.082-1.8-8.052-2.508-12.114-.113-.649-1.064-.362-.976.269" transform="translate(-10.979 -5.708)" fill="#591621"/>
            <path id="Trazado_894240" data-name="Trazado 894240" d="M95.242,84.579a46.469,46.469,0,0,0,.863,7.545c.213,1.272.424,2.546.557,3.829s.095,2.55.145,3.832c.035.886,1.5,1.193,1.636.221.337-2.494-.255-5.15-.726-7.594a49.327,49.327,0,0,1-1.154-7.834.66.66,0,0,0-1.319,0" transform="translate(-7.57 -6.672)" fill="#591621"/>
            <path id="Trazado_894241" data-name="Trazado 894241" d="M64.687,90.194a44.147,44.147,0,0,0,.842,8.669,33.36,33.36,0,0,1,.348,3.644,6.479,6.479,0,0,0,.411,2.82.678.678,0,0,0,1.253-.34,38.324,38.324,0,0,0-.658-6.209,44.718,44.718,0,0,1-1.13-8.586.533.533,0,0,0-1.066,0" transform="translate(-5.14 -7.128)" fill="#591621"/>
            <path id="Trazado_894242" data-name="Trazado 894242" d="M68.595,89.243a29.1,29.1,0,0,1,1.189,8.621c.062,1.372.135,2.742.318,4.1.115.854.163,3.016,1.226,3.251a.37.37,0,0,0,.36-.095c.373-.455.218-.908.072-1.429a18.4,18.4,0,0,1-.427-1.98c-.236-1.445-.343-2.911-.465-4.369a28.238,28.238,0,0,0-1.523-8.31c-.182-.454-.921-.272-.749.206" transform="translate(-5.45 -7.056)" fill="#591621"/>
            <path id="Trazado_894243" data-name="Trazado 894243" d="M72.466,91.4a27.562,27.562,0,0,1,.714,3.857c.08.646.15,1.293.22,1.94.065.6.073,1.378.6,1.764a.378.378,0,0,0,.46-.06c.408-.515.217-1.265.133-1.865-.093-.667-.185-1.334-.289-2a28.351,28.351,0,0,0-.845-3.911.516.516,0,0,0-.993.274" transform="translate(-5.758 -7.214)" fill="#591621"/>
            <path id="Trazado_894244" data-name="Trazado 894244" d="M137.707,67.73c2.7-2.086,6.613-2.091,9.862-2.084,1.781,0,3.562.1,5.344.051,2.352-.061,4.7-.272,7.041-.465,2.592-.213,5.248-.207,7.81-.639a.382.382,0,0,0,0-.732,27.188,27.188,0,0,0-7.247.079c-2.438.205-4.875.441-7.322.526-3.655.128-7.345-.177-10.961.515a10.938,10.938,0,0,0-5.077,2.2c-.389.327.164.848.55.55" transform="translate(-10.891 -5.058)" fill="#591621"/>
            <path id="Trazado_894245" data-name="Trazado 894245" d="M150.926,63.053c3.471-1.122,7.284-.36,10.861-.71,3.852-.376,7.7-.857,11.186-2.646.26-.133.08-.579-.2-.479a48.393,48.393,0,0,1-11.56,2.185c-3.462.324-7.143-.238-10.48.943-.439.156-.259.852.194.706" transform="translate(-11.961 -4.706)" fill="#591621"/>
            <path id="Trazado_894246" data-name="Trazado 894246" d="M169.542,57.838A2.556,2.556,0,0,0,171,57.709a1.391,1.391,0,0,0,.565-.4,2.225,2.225,0,0,0,.359-.638c.078-.214-.249-.412-.393-.228a1.968,1.968,0,0,1-.191.212c-.033.032-.069.063-.1.092-.067.057.048-.029-.024.017-.015.01-.029.021-.043.03-.075.05-.156.088-.231.136-.038.024-.076.047-.115.069-.024.012-.047.025-.072.036-.009.006-.08.037-.03.016s-.029.01-.031.011c-.021.008-.043.016-.064.022-.043.015-.087.027-.132.038s-.09.02-.135.029c-.022,0-.084.023,0,0a.371.371,0,0,1-.071.007,2.208,2.208,0,0,1-.292,0c-.051,0-.1-.006-.151-.011s-.061-.009-.01,0l-.093-.016a.375.375,0,0,0-.45.256.371.371,0,0,0,.256.45" transform="translate(-13.455 -4.48)" fill="#591621"/>
            <path id="Trazado_894247" data-name="Trazado 894247" d="M172.076,52.689a3.536,3.536,0,0,0,.932-.707,3.142,3.142,0,0,0,.591-1.047.274.274,0,0,0-.159-.325.28.28,0,0,0-.344.113c-.015.018-.029.038-.042.056.041-.055-.006.006-.011.013-.026.032-.052.064-.079.095-.054.062-.11.122-.168.18-.12.119-.246.233-.371.345-.062.056-.124.11-.187.164-.031.028-.064.054-.1.08-.012.01-.08.063-.021.017s0,0-.013.009a3.9,3.9,0,0,1-.451.287.42.42,0,0,0-.149.569.424.424,0,0,0,.569.149" transform="translate(-13.628 -4.021)" fill="#591621"/>
            <path id="Trazado_894248" data-name="Trazado 894248" d="M86.025,11.485a22.2,22.2,0,0,1,4.2-2.421A14.63,14.63,0,0,0,94.157,6.7c.185-.177-.05-.448-.263-.341-1.41.71-2.822,1.419-4.243,2.112A19.956,19.956,0,0,0,85.545,11c-.338.283.144.746.48.48" transform="translate(-6.79 -0.504)" fill="#591621"/>
            <path id="Trazado_894249" data-name="Trazado 894249" d="M92.011,9.41c1.277-.661,2.542-1.348,3.86-1.928a19.776,19.776,0,0,1,2-.774c.344-.109.693-.2,1.047-.279.3-.064.637-.1.8-.389a.289.289,0,0,0-.044-.344c-.441-.419-1.408,0-1.906.154a16.232,16.232,0,0,0-2.131.84c-1.359.644-2.654,1.412-3.962,2.151-.371.21-.042.764.333.57" transform="translate(-7.274 -0.438)" fill="#591621"/>
            <path id="Trazado_894250" data-name="Trazado 894250" d="M95.525,8.844a18.714,18.714,0,0,1,4.048-1.666c.709-.209,1.424-.4,2.147-.553a10.777,10.777,0,0,0,1.969-.515.237.237,0,0,0-.056-.43,5.664,5.664,0,0,0-2.06.165,23.3,23.3,0,0,0-2.272.6,19.451,19.451,0,0,0-4.122,1.806.344.344,0,0,0,.347.593" transform="translate(-7.552 -0.448)" fill="#591621"/>
            <path id="Trazado_894251" data-name="Trazado 894251" d="M98.918,8.733c1.453-.466,2.927-.884,4.407-1.253.718-.18,1.437-.354,2.161-.507.36-.075.721-.138,1.08-.214a1.669,1.669,0,0,0,.968-.385.215.215,0,0,0-.042-.333A1.453,1.453,0,0,0,106.52,6c-.361.059-.719.141-1.076.222-.771.176-1.543.365-2.3.587a32.7,32.7,0,0,0-4.352,1.614c-.172.078-.051.363.129.306" transform="translate(-7.846 -0.472)" fill="#591621"/>
            <path id="Trazado_894252" data-name="Trazado 894252" d="M106.351,8.919a6.9,6.9,0,0,1,2.852-.977,13.788,13.788,0,0,0,2.92-.551c.211-.076.2-.431-.057-.417-2.066.11-4.26.2-6.025,1.415-.322.221-.026.747.31.53" transform="translate(-8.418 -0.554)" fill="#591621"/>
            <path id="Trazado_894253" data-name="Trazado 894253" d="M128.7,11.7c3.344-1.937,7.331-1.733,10.773-3.376.222-.107.064-.446-.164-.388-3.677.941-7.659,1.142-11,3.1a.385.385,0,0,0,.388.664" transform="translate(-10.184 -0.63)" fill="#591621"/>
            <path id="Trazado_894254" data-name="Trazado 894254" d="M133.459,11.346a23.8,23.8,0,0,1,6.176-2.087,32.21,32.21,0,0,1,3.3-.516,21.416,21.416,0,0,0,3.048-.373.251.251,0,0,0,0-.48,9.855,9.855,0,0,0-3.15.016,34.241,34.241,0,0,0-3.415.562,22.892,22.892,0,0,0-6.286,2.317c-.366.205-.041.755.329.562" transform="translate(-10.569 -0.617)" fill="#591621"/>
            <path id="Trazado_894255" data-name="Trazado 894255" d="M144.626,10.564a9.448,9.448,0,0,1,3.97-.677,11.167,11.167,0,0,0,3.854-.524.28.28,0,0,0-.149-.54,30.78,30.78,0,0,1-4.122.261,9.589,9.589,0,0,0-3.9.887c-.4.2-.05.776.347.593" transform="translate(-11.454 -0.701)" fill="#591621"/>
            <path id="Trazado_894256" data-name="Trazado 894256" d="M182.569,23.59A18.844,18.844,0,0,1,190.4,22.1c1.291-.018,2.583.023,3.874.076a37.4,37.4,0,0,0,3.972.109.466.466,0,0,0,0-.931c-1.355-.1-2.734-.056-4.092-.084-1.412-.029-2.826-.049-4.237.013a19.156,19.156,0,0,0-7.7,1.7c-.4.2-.05.791.352.6" transform="translate(-14.469 -1.689)" fill="#591621"/>
            <path id="Trazado_894257" data-name="Trazado 894257" d="M189.1,24.625c2.048.026,4.1-.163,6.142-.265a28.3,28.3,0,0,1,2.958-.026,9.932,9.932,0,0,1,1.37.154,2.156,2.156,0,0,0,1.045.11.256.256,0,0,0,.151-.372c-.421-.578-1.458-.565-2.12-.617a24.218,24.218,0,0,0-3.144.007c-2.137.114-4.26.423-6.4.466a.271.271,0,0,0,0,.542" transform="translate(-15.009 -1.873)" fill="#591621"/>
            <path id="Trazado_894258" data-name="Trazado 894258" d="M194.272,26.858a7.461,7.461,0,0,1,2.784-.311c.5.016.99.052,1.484.081.414.024,1.009.145,1.352-.128a.285.285,0,0,0,0-.4.933.933,0,0,0-.633-.168c-.255-.008-.509-.023-.764-.029-.511-.012-1.021-.026-1.532-.019a7.812,7.812,0,0,0-2.837.447c-.321.13-.193.653.146.531" transform="translate(-15.415 -2.057)" fill="#591621"/>
            <path id="Trazado_894259" data-name="Trazado 894259" d="M194.577,28.7a6.49,6.49,0,0,1,1.442-.234c.238-.01.478-.006.716-.007a2.253,2.253,0,0,0,.774-.061.193.193,0,0,0,.045-.347,1.487,1.487,0,0,0-.764-.171,4.654,4.654,0,0,0-.807.052,6.855,6.855,0,0,0-1.512.384c-.234.089-.145.454.106.384" transform="translate(-15.447 -2.216)" fill="#591621"/>
            <path id="Trazado_894260" data-name="Trazado 894260" d="M191,33.627c1.164-.154,2.326-.321,3.489-.483q.8-.113,1.6-.22a2,2,0,0,0,1.243-.388.247.247,0,0,0-.05-.384,1.822,1.822,0,0,0-1.268-.064q-.83.122-1.657.251c-1.154.18-2.308.364-3.463.534-.423.064-.328.812.1.755" transform="translate(-15.152 -2.544)" fill="#591621"/>
            <path id="Trazado_894261" data-name="Trazado 894261" d="M187.685,38.392c1.873-1.472,4.387-1.834,6.692-2.016,1.183-.094,2.369-.117,3.556-.118.541,0,1.083.006,1.626.01.282,0,.564.007.846.006l.325-.006c.071,0,.433.05.231-.062l-.08-.622a5.023,5.023,0,0,0-.385.445c-.148.214.135.453.34.34.167-.091.363-.052.525-.162a.4.4,0,0,0,.08-.622c-.3-.278-.992-.141-1.368-.139-.59,0-1.179,0-1.769.006-1.374.011-2.751.047-4.12.18a12.305,12.305,0,0,0-6.862,2.4c-.256.217.11.565.365.365" transform="translate(-14.882 -2.815)" fill="#591621"/>
            <path id="Trazado_894262" data-name="Trazado 894262" d="M192.742,39.468a14.858,14.858,0,0,1,5.226-.93c.812-.055,1.624-.107,2.429-.22.593-.083,1.509-.138,1.847-.7a.29.29,0,0,0-.173-.424,1.925,1.925,0,0,0-.888.127c-.348.095-.7.169-1.058.229-.87.145-1.752.215-2.628.307a14.439,14.439,0,0,0-5.033,1.139c-.32.16-.04.622.278.476" transform="translate(-15.287 -2.955)" fill="#591621"/>
            <path id="Trazado_894263" data-name="Trazado 894263" d="M198.336,40.613a10.506,10.506,0,0,0,1.972-.309c.306-.077.614-.161.911-.266s.7-.222.841-.535a.238.238,0,0,0-.084-.321,1.274,1.274,0,0,0-.936.088c-.292.1-.578.2-.873.288a9.64,9.64,0,0,1-1.832.359.358.358,0,0,0-.348.348.351.351,0,0,0,.348.348" transform="translate(-15.737 -3.109)" fill="#591621"/>
            <path id="Trazado_894264" data-name="Trazado 894264" d="M199.308,41.783a3.2,3.2,0,0,0,.647-.108,2.342,2.342,0,0,0,.6-.246.14.14,0,0,0-.108-.256c-.2.033-.391.1-.59.139s-.395.086-.595.115a.18.18,0,0,0-.13.2.178.178,0,0,0,.178.156" transform="translate(-15.828 -3.272)" fill="#591621"/>
            <path id="Trazado_894265" data-name="Trazado 894265" d="M199.209,41.79a5.583,5.583,0,0,0,1.364.741,4.942,4.942,0,0,0,.7.208c.258.055.611.12.818-.089a.213.213,0,0,0,0-.294c-.167-.2-.5-.192-.737-.219a4.5,4.5,0,0,1-.643-.125,5.164,5.164,0,0,1-1.311-.558c-.22-.131-.392.191-.2.336" transform="translate(-15.827 -3.293)" fill="#591621"/>
            <path id="Trazado_894266" data-name="Trazado 894266" d="M184.452,53.451c2.284-1,4.841-.84,7.276-.86,2.24-.017,4.654-.1,6.5-1.515a.244.244,0,0,0-.246-.422,16.517,16.517,0,0,1-7.125,1.277,16.441,16.441,0,0,0-6.686,1.044c-.324.148-.042.616.278.476" transform="translate(-14.627 -4.024)" fill="#591621"/>
            <path id="Trazado_894267" data-name="Trazado 894267" d="M191.332,51.28a13.817,13.817,0,0,0,3.481-.3,4.332,4.332,0,0,0,2.846-1.614c.1-.151-.107-.378-.26-.26a7.862,7.862,0,0,1-2.84,1.28,13.164,13.164,0,0,1-3.228.4.244.244,0,0,0,0,.488" transform="translate(-15.189 -3.901)" fill="#591621"/>
            <path id="Trazado_894268" data-name="Trazado 894268" d="M192.875,49.1a4.666,4.666,0,0,0,1.672.092,2.734,2.734,0,0,0,.8-.232,2.644,2.644,0,0,0,.666-.49c.187-.176-.051-.446-.263-.341a6.492,6.492,0,0,1-.647.252c-.231.085-.468.163-.705.225a4.2,4.2,0,0,1-1.473.094c-.229-.022-.275.349-.054.4" transform="translate(-15.319 -3.824)" fill="#591621"/>
            <path id="Trazado_894269" data-name="Trazado 894269" d="M185.9,59.188h1.611c.249,0,.492.014.651-.216a.282.282,0,0,0,0-.29c-.159-.229-.4-.216-.651-.216H185.9a.361.361,0,1,0,0,.723" transform="translate(-14.747 -4.647)" fill="#591621"/>
            <path id="Trazado_894270" data-name="Trazado 894270" d="M182.2,60.743a3.533,3.533,0,0,0,1.323.48,2.831,2.831,0,0,0,.654.021,1.382,1.382,0,0,0,.711-.273.311.311,0,0,0,.137-.337.3.3,0,0,0-.288-.219c-.093,0-.187-.014-.28-.009-.11.016-.136.018-.08.01l-.08.007-.12.008a3.233,3.233,0,0,1-.582.008l-.06-.006c.039,0,.033,0-.015,0s-.094-.017-.141-.027c-.094-.021-.187-.046-.279-.076a2.785,2.785,0,0,1-.523-.23.375.375,0,0,0-.378.647" transform="translate(-14.468 -4.773)" fill="#591621"/>
            <path id="Trazado_894271" data-name="Trazado 894271" d="M121.4,18.02a27.653,27.653,0,0,0,7.929,1.507c2.4.077,5.56-.077,7.314-1.958a.259.259,0,0,0-.312-.405,15.9,15.9,0,0,1-7.314,1.435,29.181,29.181,0,0,1-7.431-1.258c-.436-.133-.613.535-.187.679" transform="translate(-9.63 -1.362)" fill="#591621"/>
            <path id="Trazado_894272" data-name="Trazado 894272" d="M129,21.3c1.611.742,3.728.4,5.393.051a16.162,16.162,0,0,0,2.973-.9,4.42,4.42,0,0,0,1.966-1.356c.136-.205-.123-.411-.315-.315-.669.334-1.317.673-2.018.95a18.868,18.868,0,0,1-2.75.853c-1.526.348-3.5.785-5.013.154-.318-.133-.552.416-.237.562" transform="translate(-10.241 -1.491)" fill="#591621"/>
            <path id="Trazado_894273" data-name="Trazado 894273" d="M134.036,22.824c.531-.13,1.062-.261,1.6-.362.241-.045.482-.083.725-.111a3.518,3.518,0,0,0,.481-.072c.138-.037.254-.116.389-.164a.292.292,0,0,0,0-.558,2.751,2.751,0,0,0-.445-.13,1.955,1.955,0,0,0-.486.021q-.422.058-.84.148c-.554.12-1.1.273-1.646.425a.416.416,0,0,0,.221.8" transform="translate(-10.613 -1.703)" fill="#591621"/>
            <path id="Trazado_894274" data-name="Trazado 894274" d="M140.475,27.2a21.691,21.691,0,0,1,8.379-3.11,36.756,36.756,0,0,1,4.58-.5,41.371,41.371,0,0,0,4.262-.237c.253-.04.238-.446,0-.5a16.362,16.362,0,0,0-4.489-.138,38.641,38.641,0,0,0-4.58.551,21.1,21.1,0,0,0-8.481,3.37c-.336.239-.023.8.329.562" transform="translate(-11.128 -1.799)" fill="#591621"/>
            <path id="Trazado_894275" data-name="Trazado 894275" d="M148.672,22.926a18.474,18.474,0,0,1,5.333-1.144,15.12,15.12,0,0,1,2.739.042c.9.1,1.77.33,2.661.484a.222.222,0,0,0,.17-.4c-1.54-1.031-3.8-.987-5.57-.836a17.922,17.922,0,0,0-5.529,1.4c-.26.111-.073.565.2.462" transform="translate(-11.792 -1.668)" fill="#591621"/>
            <path id="Trazado_894276" data-name="Trazado 894276" d="M156.466,19.654a17.427,17.427,0,0,0,2.241.418c.757.115,1.5.3,2.263.376.308.031.336-.376.142-.522a4.536,4.536,0,0,0-2.219-.651,17.582,17.582,0,0,1-2.224-.353.38.38,0,0,0-.2.732" transform="translate(-12.415 -1.503)" fill="#591621"/>
            <path id="Trazado_894277" data-name="Trazado 894277" d="M134.483,31.215c-1.025,2.393-1.656,5.692.429,7.716a.268.268,0,0,0,.419-.323,7.517,7.517,0,0,1-.97-3.5,9.753,9.753,0,0,1,.808-3.6c.158-.39-.518-.679-.686-.289" transform="translate(-10.613 -2.466)" fill="#591621"/>
            <path id="Trazado_894278" data-name="Trazado 894278" d="M141.712,45.755c3.183,1.522,6.707,1,9.943-.063a.267.267,0,0,0-.142-.515c-3.145.5-6.385,1.33-9.428-.063-.428-.2-.806.433-.374.64" transform="translate(-11.249 -3.583)" fill="#591621"/>
            <path id="Trazado_894279" data-name="Trazado 894279" d="M158.287,43.184c.755-.464,1.567-.816,2.359-1.207a5.148,5.148,0,0,0,2.1-1.53c.114-.168-.107-.369-.272-.272-.36.214-.7.469-1.054.7s-.736.455-1.118.66c-.756.408-1.53.782-2.245,1.26-.239.16-.022.544.228.39" transform="translate(-12.555 -3.191)" fill="#591621"/>
            <path id="Trazado_894280" data-name="Trazado 894280" d="M168.4,30.312c-.053.1-.106.2-.157.3a3.3,3.3,0,0,0-.14.345c-.076.205-.149.412-.218.62a.181.181,0,0,0,.33.139q.167-.279.344-.554c.056-.088.119-.174.168-.267s.109-.2.164-.3a.285.285,0,0,0-.492-.287" transform="translate(-13.344 -2.398)" fill="#591621"/>
            <path id="Trazado_894281" data-name="Trazado 894281" d="M65.782,28.416c3.88-1.379,8.729-1.287,12.083,1.35.232.182.548-.108.332-.332-3.162-3.288-8.595-3.118-12.571-1.584-.346.133-.2.694.156.566" transform="translate(-5.2 -2.13)" fill="#591621"/>
            <path id="Trazado_894282" data-name="Trazado 894282" d="M72.933,30.8c1.081.264,2.172.494,3.226.854a9.412,9.412,0,0,1,1.455.627,7.16,7.16,0,0,0,1.507.775.274.274,0,0,0,.307-.4,2.664,2.664,0,0,0-1.268-1.114,10.177,10.177,0,0,0-1.633-.662,34.61,34.61,0,0,0-3.4-.789c-.457-.095-.655.594-.194.706" transform="translate(-5.776 -2.391)" fill="#591621"/>
            <path id="Trazado_894283" data-name="Trazado 894283" d="M77.937,34.923c.732.527,1.511.983,2.29,1.436.376.218.751.436,1.121.664a2.529,2.529,0,0,0,1.185.513.306.306,0,0,0,.261-.456,2.022,2.022,0,0,0-.953-.827c-.388-.221-.783-.431-1.177-.642-.794-.424-1.59-.851-2.34-1.352a.389.389,0,0,0-.526.138.393.393,0,0,0,.138.526" transform="translate(-6.18 -2.719)" fill="#591621"/>
            <path id="Trazado_894284" data-name="Trazado 894284" d="M84.646,40.008c.432.235.873.453,1.323.651a4.453,4.453,0,0,0,.712.28q.36.088.725.162c.25.051.44-.307.184-.437-.218-.111-.434-.226-.648-.347s-.423-.191-.635-.286q-.661-.3-1.3-.646a.361.361,0,1,0-.365.624" transform="translate(-6.714 -3.127)" fill="#591621"/>
            <path id="Trazado_894285" data-name="Trazado 894285" d="M91.208,42.889l.915,0c.15,0,.3,0,.449-.008a1.265,1.265,0,0,0,.511-.122.227.227,0,0,0,0-.389,1.214,1.214,0,0,0-.494-.121c-.156,0-.31-.01-.466-.009l-.915,0a.321.321,0,0,0,0,.642" transform="translate(-7.224 -3.358)" fill="#591621"/>
            <path id="Trazado_894286" data-name="Trazado 894286" d="M103.706,45.778c2.987,1.6,6.7.439,9.489-1.04a.3.3,0,0,0-.226-.537c-2.729.759-6.037,2.185-8.779.75-.545-.285-1.028.535-.483.827" transform="translate(-8.224 -3.512)" fill="#591621"/>
            <path id="Trazado_894287" data-name="Trazado 894287" d="M107.775,48.72a19.334,19.334,0,0,0,2.508.021,2.569,2.569,0,0,0,2.16-1.234.31.31,0,0,0-.421-.421,4.616,4.616,0,0,1-1.928.667c-.771.068-1.546,0-2.319-.009a.488.488,0,0,0,0,.976" transform="translate(-8.529 -3.739)" fill="#591621"/>
            <path id="Trazado_894288" data-name="Trazado 894288" d="M108.648,51.2q.6.164,1.2.32a3.752,3.752,0,0,0,1.243.134.209.209,0,0,0,.1-.387,4.011,4.011,0,0,0-1.154-.448q-.6-.145-1.2-.3a.352.352,0,1,0-.188.679" transform="translate(-8.615 -4.014)" fill="#591621"/>
            <path id="Trazado_894289" data-name="Trazado 894289" d="M100.65,66.51a7.657,7.657,0,0,0,3.407.217,7.492,7.492,0,0,0,1.591-.426,5.489,5.489,0,0,0,1.47-.9c.219-.177-.021-.5-.26-.446-.5.122-.984.234-1.471.4a12.218,12.218,0,0,1-1.483.425,6.446,6.446,0,0,1-3.023-.107.434.434,0,0,0-.231.837" transform="translate(-7.976 -5.162)" fill="#591621"/>
            <path id="Trazado_894290" data-name="Trazado 894290" d="M102.288,69.6a7.226,7.226,0,0,0,1.888.127,3.05,3.05,0,0,0,.928-.22,1.878,1.878,0,0,0,.7-.583.3.3,0,0,0,.023-.386.3.3,0,0,0-.379-.075,4.049,4.049,0,0,1-.67.274,4.38,4.38,0,0,1-.759.209,7.893,7.893,0,0,1-1.65.05c-.34-.016-.427.549-.082.6" transform="translate(-8.113 -5.439)" fill="#591621"/>
            <path id="Trazado_894291" data-name="Trazado 894291" d="M117.63,11.448c.863-.816,2.915-2.334,1.795-3.646-1.242-1.455-3.251.768-4.14,1.612-3.02,2.872-5.849,5.963-8.823,8.883a47.95,47.95,0,0,0-4.474,4.442c-.321.411-.632.858-.951,1.305.435-.345.881-.677,1.321-1.016a46.578,46.578,0,0,1,6.236-4.881,70.32,70.32,0,0,0,9.036-6.7" transform="translate(-8.031 -0.582)" fill="#99b02d"/>
            <path id="Trazado_894292" data-name="Trazado 894292" d="M88.95,37.8q2.209-.663,4.428-1.294c2.363-.764,4.726-1.533,7.108-2.233,5.087-1.5,10.227-2.832,15.439-3.816.654-.123,1.314-.227,1.971-.339,2.009-.819,4-1.817,5.889-2.82.892-.472,5.015-3.048,2.287-3.648a13.64,13.64,0,0,0-5.479.322,65.585,65.585,0,0,0-9.6,3.054q-5.07,1.892-9.976,4.164c-1.242.575-2.474,1.171-3.706,1.767-2.79,1.611-5.571,3.24-8.365,4.841m21.185-8.881a64.146,64.146,0,0,0,9.205-2.83c.423-.186.77.44.344.639a57.85,57.85,0,0,1-8.533,2.89,87.81,87.81,0,0,0-8.837,3.249c-.3.121-.637-.249-.355-.488,2.27-1.925,5.355-2.7,8.176-3.461" transform="translate(-7.07 -1.866)" fill="#99b02d"/>
            <path id="Trazado_894293" data-name="Trazado 894293" d="M93.344,32.344c2.446-1.221,4.9-2.415,7.387-3.554,4.321-2.462,8.687-4.841,13.239-6.887,6.487-2.915,12.9-5.825,18.588-10.159a12.058,12.058,0,0,0,2.579-2.316c.388-.545.153-.479-.537-.5-2.448-.09-5.076.86-7.379,1.582a74,74,0,0,0-20.1,10.393,110.367,110.367,0,0,0-11.57,9.281c-.754.7-1.485,1.427-2.211,2.164m21.942-13.984a.363.363,0,0,1-.344-.639c3.263-1.933,6.631-3.682,9.971-5.48a.454.454,0,0,1,.431.8c-3.337,1.8-6.65,3.655-10.058,5.32" transform="translate(-7.419 -0.709)" fill="#99b02d"/>
            <path id="Trazado_894294" data-name="Trazado 894294" d="M138.862,25.971c2.382-.319,4.775-.608,7.138-1.058,1.546-.294,3.611-.675,4.819-1.851a8.1,8.1,0,0,0-3.273-.014c-1.406.2-2.78.558-4.173.828-3.137.608-6.356.542-9.5,1.035-.857.223-1.72.418-2.6.558a.806.806,0,0,1-.28-.006,7.991,7.991,0,0,1-2.624,2.292,24.463,24.463,0,0,1,2.405-.542c2.681-.479,5.385-.879,8.085-1.241" transform="translate(-10.204 -1.819)" fill="#99b02d"/>
            <path id="Trazado_894295" data-name="Trazado 894295" d="M139.559,20.6a70.727,70.727,0,0,0,9.413-4.069c2.335-1.123,5.3-2.087,7.143-3.979.284-.292.3-.206.088-.35a5.072,5.072,0,0,0-2.476-.321,25.658,25.658,0,0,0-7.986,1.817c-5.61,1.9-11.425,3.178-16.958,5.3-2.478.953-4.884,2.073-7.309,3.143a26.6,26.6,0,0,1,4.37-.695c1.371-.092,3.969-.291,4.753,1.193a1.821,1.821,0,0,1,.158.437,24.142,24.142,0,0,1,2.611-.556c2.088-.555,4.137-1.28,6.192-1.925m-7.488,1.008c-.3.122-.663-.269-.363-.5a28.226,28.226,0,0,1,6.6-3.422c2.311-.942,4.674-1.757,7.036-2.559.394-.134.644.539.258.685-2.295.867-4.576,1.766-6.831,2.733s-4.431,2.13-6.7,3.063" transform="translate(-9.655 -0.944)" fill="#99b02d"/>
            <path id="Trazado_894296" data-name="Trazado 894296" d="M79.794,38.451a18.892,18.892,0,0,0,2.659-2.112c1.15-1.114,2.2-2.327,3.241-3.542,2.04-2.381,4.213-4.63,6.126-7.119,3.767-4.9,6.851-10.351,11.54-14.479a.305.305,0,0,1,.422.441c-4.627,4.572-7.456,10.5-11.339,15.652-1.434,1.9-3.052,3.667-4.638,5.451,1.3-1.192,2.63-2.364,3.881-3.6A137.767,137.767,0,0,0,103.955,14.6c2.883-3.76,6.067-8.26,5.693-13.233a5.355,5.355,0,0,0-2.976,1.307,25.564,25.564,0,0,0-3.009,2.549,27.747,27.747,0,0,0-5.516,8.191c-1.307,2.8-2.636,5.588-4.2,8.254a60.815,60.815,0,0,1-5.172,7.318,57.6,57.6,0,0,1-6.172,6.663A75.922,75.922,0,0,1,75.7,41.011a13.153,13.153,0,0,0,3.541-2.565.35.35,0,0,1,.552.006" transform="translate(-6.017 -0.108)" fill="#99b02d"/>
            <path id="Trazado_894297" data-name="Trazado 894297" d="M69.03,50.125l-.3.193a9.707,9.707,0,0,0-1.624,1.288c-.318.326-.52.736-.884.931a.654.654,0,0,0,.342.205.526.526,0,0,1,.2-.339,30.787,30.787,0,0,1,2.945-2.042.574.574,0,0,1-.684-.237" transform="translate(-5.264 -3.984)" fill="#99b02d"/>
            <path id="Trazado_894298" data-name="Trazado 894298" d="M68.06,49.089c-.341.187-.678.376-1.023.56-.658.348-1.232.721-1.34,1.322a8.668,8.668,0,0,1,1.764-1.486c.2-.138.4-.266.6-.4" transform="translate(-5.222 -3.902)" fill="#99b02d"/>
            <path id="Trazado_894299" data-name="Trazado 894299" d="M139,32.6c-.921-.878-2.653-1.1-3.85-1.276-6.505-.979-13.294-.247-19.823,1.012a82.079,82.079,0,0,1-10.434,2.615c-2.018.433-4.028.906-6.033,1.406-.73.211-1.46.419-2.187.638-3.551,1.068-7.081,2.215-10.653,3.209,5.387-1.148,10.927-1.528,16.422-2.266,8.824-1.186,17.572-2.872,26.473-3.414.5-.03.464.736-.027.778-4.9.407-9.758,1.175-14.615,1.943-4.242.671-8.478,1.39-12.735,1.967-4.191.568-8.415.914-12.584,1.637a46.483,46.483,0,0,0-13.173,4.188c-.116.071-.237.133-.352.207-.413.271-1.227,1.127-1.837,1.026A27.057,27.057,0,0,0,70.23,48.7a40.268,40.268,0,0,1,10.892-4.422c2.524-.649,5.085-1.142,7.647-1.617,2.7-.5,5.392-1.117,8.117-1.428,4.5-.514,9.039-.278,13.551-.623,4.834-.369,9.465-1.735,14.146-2.9a47.222,47.222,0,0,1,6.315-1.258,25.026,25.026,0,0,0,5.781-.961c.847-.3,3.535-1.736,2.322-2.893" transform="translate(-5.582 -2.454)" fill="#99b02d"/>
            <path id="Trazado_894300" data-name="Trazado 894300" d="M67.491,49.328c7.506-5.9,17.078-7.038,26.156-8.792C99,39.5,104.45,39.87,109.86,39.507c5.241-.352,10.267-1.789,15.348-3.024a47.214,47.214,0,0,1,6.375-1.15,20.143,20.143,0,0,0,5.363-1.032c2.194-.865,4.931-3.749,2.056-5.59-2.359-1.511-5.874-1.535-8.567-1.619a74.3,74.3,0,0,0-14.957,1.222A153.174,153.174,0,0,0,98.853,32.3c-5.766,1.679-11.407,3.772-17.227,5.265l.309,1.122a219.013,219.013,0,0,1,23.1-6.325,67.865,67.865,0,0,0,10.6-2.767c1.369-.532,2.658-1.218,3.986-1.837a38.262,38.262,0,0,0,3.738-1.882c1.212-.735,3.779-2.627,2.576-4.338-.915-1.3-3.254-1.126-4.622-1.037a33.731,33.731,0,0,0-8.238,1.8c-3.631,1.186-7.222,2.55-10.74,4.039C98.418,28,94.584,29.854,90.774,31.759c-3.1,1.549-6.486,3.062-8.861,5.663a.607.607,0,0,0,.732.949c9.207-5.065,18.086-10.807,27.627-15.242,4.522-2.1,9.178-3.929,13.525-6.391a68.135,68.135,0,0,0,6.752-4.391c1.012-.744,4.593-2.932,3.63-4.618-.955-1.669-4.629-.513-5.979-.193a65.977,65.977,0,0,0-19.97,8.715,121.306,121.306,0,0,0-13.388,9.89c-2.083,1.771-4.114,3.584-6.064,5.5a43.859,43.859,0,0,1-6.193,5.435l1.06,1.06c1.959-2.584,4.523-4.6,6.778-6.907,2.426-2.484,4.772-5.055,7.01-7.711,1.963-2.332,3.794-4.769,5.679-7.163a48.824,48.824,0,0,0,4.757-6.865A15.1,15.1,0,0,0,109.942.712a.654.654,0,0,0-.461-.606c-2.179-.57-4.337,1.261-5.889,2.552a26.293,26.293,0,0,0-5.772,6.72c-1.683,2.8-2.888,5.867-4.407,8.756A56.276,56.276,0,0,1,87.8,26.793a61.881,61.881,0,0,1-6.44,7.12,77.381,77.381,0,0,1-8.006,6.246c-1.454,1.033-2.939,2.027-4.477,2.931-1.068.627-2.257,1.089-3.285,1.776a2.858,2.858,0,0,0-1.447,2.119,3.551,3.551,0,0,0,1.344,2.871c.94.66,1.923.116,2.71-.507a27.5,27.5,0,0,1,4.3-2.785,35.067,35.067,0,0,1,5.76-2.617c1.85-.587,3.758-.963,5.577-1.65.656-.249.372-1.314-.293-1.063-2.9,1.1-5.931,1.6-8.761,2.927-1.446.678-2.857,1.428-4.259,2.192a28.847,28.847,0,0,0-3.079,2.017c-.385.276-.8.648-1.259.356a2.1,2.1,0,0,1-.644-1.755c.217-.911,1.654-1.363,2.39-1.729a52.824,52.824,0,0,0,7.394-4.727,71.118,71.118,0,0,0,7.041-5.6A59.869,59.869,0,0,0,88.086,28.6a60.508,60.508,0,0,0,4.952-7.048c1.561-2.667,2.889-5.458,4.2-8.254a27.969,27.969,0,0,1,5.3-7.976,25.439,25.439,0,0,1,3.093-2.662c.948-.689,2.275-1.659,3.515-1.338l-.461-.6c.641,5.71-3.209,10.675-6.527,14.909A135.729,135.729,0,0,1,90.031,29.756c-2.542,2.461-5.37,4.683-7.6,7.441-.517.639.134,1.716.939,1.217,3.767-2.341,6.592-5.909,9.816-8.9a109.688,109.688,0,0,1,11.219-9.04A74.66,74.66,0,0,1,124.829,9.823c2.327-.735,4.995-1.71,7.471-1.607.214.008.625,0,.783.156-.056-.057,0-.2-.037-.023a1.44,1.44,0,0,1-.325.486,15,15,0,0,1-2.8,2.438,70.5,70.5,0,0,1-6.087,4.045,130.251,130.251,0,0,1-12.8,6.158c-10.06,4.56-19.223,10.746-28.993,15.851l.733.949c2-2.1,4.739-3.4,7.315-4.639,3.011-1.451,6-2.944,9.036-4.35,3.26-1.511,6.569-2.881,9.934-4.137a61.967,61.967,0,0,1,10.168-3.167,12.809,12.809,0,0,1,4.837-.21c2.584.547-.827,2.866-1.761,3.393a53.171,53.171,0,0,1-7.47,3.517,67.946,67.946,0,0,1-9.554,2.475c-8,1.691-15.848,3.978-23.647,6.41a.582.582,0,0,0,.309,1.122c4.931-1.182,9.739-2.8,14.595-4.247,4.7-1.4,9.455-2.651,14.24-3.708A90.751,90.751,0,0,1,125.358,28.6a36.814,36.814,0,0,1,10.959.6c.7.179,2.458.559,2.515,1.5.033.546-.6,1.143-.979,1.452a6.38,6.38,0,0,1-2.434,1.123,37.113,37.113,0,0,1-5.3.759,49.9,49.9,0,0,0-6.256,1.286c-4.972,1.242-9.855,2.619-15,2.91-5,.283-10.034.021-14.985.929-9.5,1.743-19.47,3.109-27.279,9.27-.642.506.263,1.4.9.9" transform="translate(-5.098 0)" fill="#591621"/>
            <path id="Trazado_894301" data-name="Trazado 894301" d="M111.528,25.289c5.68-1.307,10.734-4.187,16.127-6.286,5.472-2.13,11.233-3.38,16.788-5.262a30.342,30.342,0,0,1,7.765-1.957,9.2,9.2,0,0,1,3,.234c.449.125.391.065.074.429a11.174,11.174,0,0,1-3.326,2.14c-1.465.755-2.975,1.424-4.459,2.143a64.739,64.739,0,0,1-8.786,3.757,64.838,64.838,0,0,1-9.159,2.57q.193.7.388,1.408c3.856-1.126,7.9-.84,11.83-1.542,1.392-.249,2.76-.617,4.158-.836,1.371-.214,3.1-.443,4.344.332L150,21.388c-.911,1.581-3.144,2.065-4.793,2.416-2.364.5-4.778.782-7.171,1.1-2.624.35-5.241.749-7.853,1.18a23.96,23.96,0,0,0-3.686.813,16.667,16.667,0,0,1-3.479,1.079c-.978.1-.99,1.64,0,1.543a14.419,14.419,0,0,0,3.413-.96,24.009,24.009,0,0,1,3.976-.95c3.006-.523,6.022-.979,9.044-1.4a60.35,60.35,0,0,0,7.181-1.253,7.648,7.648,0,0,0,4.668-2.808.768.768,0,0,0-.271-1.03c-2.491-1.757-6.332-.416-9.014.144-4.122.86-8.4.6-12.466,1.794a.731.731,0,0,0,.388,1.408,62.832,62.832,0,0,0,8.813-2.484,58,58,0,0,0,8.445-3.538c1.753-.872,3.535-1.693,5.271-2.6a13.821,13.821,0,0,0,3.747-2.465c.762-.811.89-1.9-.221-2.461-1.924-.976-4.745-.451-6.731,0-2.921.663-5.715,1.811-8.582,2.668-3.172.949-6.371,1.81-9.52,2.834-6.823,2.219-13,5.993-19.8,8.256a.318.318,0,0,0,.168.612" transform="translate(-8.834 -0.824)" fill="#591621"/>
            <path id="Trazado_894302" data-name="Trazado 894302" d="M100.081,26.106c5.026-6.088,12.9-8.84,18.476-14.329,1.03-1.014,2.433-2.226,1.99-3.836a2.559,2.559,0,0,0-3.033-1.813,6.222,6.222,0,0,0-2.2,1.367,24.145,24.145,0,0,0-2.473,2.369c-1.621,1.742-3.408,3.307-5.09,4.987-.969.968-1.865,2-2.86,2.943-.883.835-1.8,1.628-2.669,2.482a22.872,22.872,0,0,0-2.238,2.678c-.755,1.015-1.6,1.934-2.385,2.922-.318.4.075,1.046.581.754,1.535-.885,2.474-2.658,3.543-4.018a40.984,40.984,0,0,1,4.134-4.108c3-2.868,5.843-5.924,8.793-8.849.9-.893,3.839-3.949,4.75-1.516.514,1.372-1.987,3.178-2.889,3.967a90.574,90.574,0,0,1-8.642,6.238,33.875,33.875,0,0,0-8.291,7.378c-.214.286.27.663.5.385" transform="translate(-7.749 -0.481)" fill="#591621"/>
            <path id="Trazado_894303" data-name="Trazado 894303" d="M128.824,34.841c-8.967.547-17.774,2.263-26.665,3.445-8.008,1.064-16.124,1.381-23.691,4.48-3.15,1.29-6.936,2.82-9.087,5.583a.506.506,0,0,0,.715.715c5.1-4.378,12.041-6.709,18.556-7.861,4.129-.73,8.314-1.073,12.468-1.63,4.309-.578,8.6-1.3,12.89-1.983,4.923-.782,9.843-1.558,14.814-1.971.493-.041.5-.808,0-.778" transform="translate(-5.505 -2.769)" fill="#591621"/>
            <path id="Trazado_894304" data-name="Trazado 894304" d="M103.542,12.046C98.594,16.4,95.38,22.228,91.353,27.362c-1.928,2.459-4.117,4.723-6.167,7.082a39.221,39.221,0,0,1-3.1,3.263,17.341,17.341,0,0,1-1.8,1.457c-.651.451-1.4.77-2,1.281s.053,1.368.712,1.225a9.678,9.678,0,0,0,3.737-2.416,34.255,34.255,0,0,0,3.341-3.467c2.037-2.362,4.21-4.646,6.129-7.1,4.115-5.269,6.972-11.469,11.77-16.208.282-.278-.139-.688-.431-.431" transform="translate(-6.204 -0.951)" fill="#591621"/>
            <path id="Trazado_894305" data-name="Trazado 894305" d="M82.774,40.825c-2.486,1.739-5.5,2.442-8.021,4.125-.516.344-1.592.92-1.392,1.681a.6.6,0,0,0,.626.435c.418,0,.723-.338,1.036-.575a25.091,25.091,0,0,1,3.856-2.179,31.189,31.189,0,0,0,4.458-2.524c.566-.42.032-1.379-.562-.963" transform="translate(-5.829 -3.237)" fill="#591621"/>
            <path id="Trazado_894306" data-name="Trazado 894306" d="M78.4,41.642c-1.88,2.09-4.759,2.946-6.991,4.575-1.06.774-2.137,1.469-3.247,2.171a8,8,0,0,0-2.885,2.638.648.648,0,0,0,1.118.654,9.9,9.9,0,0,1,2.975-2.507c1.088-.683,2.074-1.436,3.1-2.2,2.133-1.587,4.807-2.641,6.514-4.744.33-.406-.224-.99-.586-.586" transform="translate(-5.181 -3.299)" fill="#591621"/>
            <path id="Trazado_894307" data-name="Trazado 894307" d="M120.444,26.314a62.958,62.958,0,0,1-9.147,2.81c-2.84.761-5.946,1.54-8.228,3.48-.224.19.016.624.3.509a86.018,86.018,0,0,1,8.738-3.227,59,59,0,0,0,8.707-2.945c.426-.2.054-.812-.366-.627" transform="translate(-8.185 -2.089)" fill="#591621"/>
            <path id="Trazado_894308" data-name="Trazado 894308" d="M126.748,12.532c-3.339,1.8-6.706,3.546-9.968,5.478a.363.363,0,0,0,.366.627c3.409-1.665,6.723-3.518,10.059-5.322.515-.278.057-1.06-.458-.783" transform="translate(-9.268 -0.991)" fill="#591621"/>
            <path id="Trazado_894309" data-name="Trazado 894309" d="M146.211,15.409c-2.361.8-4.723,1.616-7.032,2.561a28.069,28.069,0,0,0-6.534,3.374c-.249.191-.12.716.239.569,2.223-.914,4.351-2.046,6.559-3,2.3-.992,4.624-1.905,6.964-2.79.438-.166.26-.867-.2-.712" transform="translate(-10.533 -1.223)" fill="#591621"/>
          </g>
        </g>
      </g>
    </g>
  </g>
</svg>
