<svg xmlns="http://www.w3.org/2000/svg" width="55.494" height="55.494" viewBox="0 0 55.494 55.494">
  <g id="Grupo_1102104" data-name="Grupo 1102104" transform="translate(-181 -1964.253)">
    <path id="Trazado_885860" data-name="Trazado 885860" d="M55.494,27.748A27.747,27.747,0,1,1,27.747,0,27.747,27.747,0,0,1,55.494,27.748" transform="translate(181 1964.252)" fill="#464442"/>
    <g id="carne_1_" data-name="carne (1)" transform="translate(173.184 1911.938)">
      <path id="Trazado_885861" data-name="Trazado 885861" d="M45.516,67.9c-.085,0-.169,0-.247,0a10.416,10.416,0,0,0-7.1,2.638V65.952a.651.651,0,0,0-.36-.582A13.061,13.061,0,0,0,33.611,64a21.364,21.364,0,0,0-2.992.332,20.228,20.228,0,0,1-2.859.319,24.447,24.447,0,0,1-2.8-.316A24.535,24.535,0,0,0,21.9,64,13.062,13.062,0,0,0,17.7,65.37a.651.651,0,0,0-.36.582v10.41a.651.651,0,0,0,.941.582A12.026,12.026,0,0,1,21.9,75.712a23.892,23.892,0,0,1,2.875.321,24.629,24.629,0,0,0,2.976.33,20.788,20.788,0,0,0,3.069-.334,20.593,20.593,0,0,1,2.792-.316,2.81,2.81,0,0,1,.583.077,5.98,5.98,0,0,1-1.172,1.358c-1.035.793-2.783,1.186-5.2,1.168h-.132a3.874,3.874,0,0,0-3.835,3.9v2.6a3.454,3.454,0,0,0,1.22,2.672,3.914,3.914,0,0,0-2.647,1.882H21.05l-1.786-2-.011-.012a1.819,1.819,0,0,0-2.676,0,2.025,2.025,0,0,0-.026,2.7l.952,1.266-.952,1.266a2.025,2.025,0,0,0,.027,2.7,1.819,1.819,0,0,0,2.676,0l.011-.012,1.786-2h1.374A3.905,3.905,0,0,0,25.8,95.231c1.336,0,2.915.8,4.587,1.637,2.11,1.062,4.5,2.267,7.125,2.267a7.809,7.809,0,0,0,7.7-9.13c6.2-.267,9.872-3.135,9.872-7.787V77.664A9.675,9.675,0,0,0,45.516,67.9ZM20.758,91.978a.651.651,0,0,0-.486.218L18.3,94.41a.518.518,0,0,1-.773,0,.713.713,0,0,1,0-.95.634.634,0,0,0,.046-.054l1.265-1.682a.651.651,0,0,0,0-.782l-1.265-1.682a.634.634,0,0,0-.046-.054.713.713,0,0,1,0-.95.518.518,0,0,1,.773,0l1.973,2.214a.651.651,0,0,0,.486.218h1.2a3.861,3.861,0,0,0,0,1.3ZM18.646,70.265a10.74,10.74,0,0,1,3.253-1.06,23.891,23.891,0,0,1,2.875.321,24.629,24.629,0,0,0,2.976.33,21.054,21.054,0,0,0,3.069-.334,20.594,20.594,0,0,1,2.792-.316,10.74,10.74,0,0,1,3.253,1.06V71.44a9.914,9.914,0,0,0-3.253-.933,21.364,21.364,0,0,0-2.992.332,20,20,0,0,1-2.859.319,24.447,24.447,0,0,1-2.8-.316,24.535,24.535,0,0,0-3.065-.334,9.912,9.912,0,0,0-3.253.934ZM21.9,65.3a23.891,23.891,0,0,1,2.875.321,24.629,24.629,0,0,0,2.976.33,20.789,20.789,0,0,0,3.069-.334,20.593,20.593,0,0,1,2.792-.316,10.742,10.742,0,0,1,3.253,1.06v2.476a9.914,9.914,0,0,0-3.253-.933,21.365,21.365,0,0,0-2.992.332,19.954,19.954,0,0,1-2.859.319,24.449,24.449,0,0,1-2.8-.316A24.534,24.534,0,0,0,21.9,67.9a9.912,9.912,0,0,0-3.253.934V66.361A10.742,10.742,0,0,1,21.9,65.3Zm8.72,9.441a20.059,20.059,0,0,1-2.859.319,24.446,24.446,0,0,1-2.8-.316A24.535,24.535,0,0,0,21.9,74.41a9.914,9.914,0,0,0-3.253.933V72.868a10.74,10.74,0,0,1,3.253-1.06,23.893,23.893,0,0,1,2.875.321,24.629,24.629,0,0,0,2.976.33,20.821,20.821,0,0,0,3.069-.334,20.6,20.6,0,0,1,2.792-.316,8.853,8.853,0,0,1,2.695.81c-.512.689-.954,1.381-1.362,2.02a5,5,0,0,0-1.333-.228A21.39,21.39,0,0,0,30.619,74.742Zm-2.933,4.873h.122c2.713.019,4.735-.463,6-1.436a10.845,10.845,0,0,0,2.205-2.807c1.724-2.706,3.871-6.074,9.279-6.165l.219,0a8.372,8.372,0,0,1,8.265,8.458,8.084,8.084,0,0,1-2.5,5.967,10.022,10.022,0,0,1-7.036,2.491h-.914a7.79,7.79,0,0,0-5.814-2.6A14.925,14.925,0,0,0,30.957,85.5c-1.02-.171-2.04-.387-3.11-.661-2.345-.6-2.694-1.9-2.694-2.623A2.572,2.572,0,0,1,27.686,79.616Zm-.561,7.6a2.7,2.7,0,0,1-1.968-2.252A5.947,5.947,0,0,0,27.524,86.1c.511.131,1.011.248,1.506.355A13.061,13.061,0,0,1,27.124,87.212Zm10.39,10.621c-2.314,0-4.462-1.082-6.539-2.128-1.814-.914-3.528-1.776-5.173-1.776a2.6,2.6,0,1,1,0-5.205c1.645,0,3.358-.863,5.173-1.776,2.077-1.046,4.225-2.128,6.539-2.128a6.506,6.506,0,1,1,0,13.013Zm7.358-9.118a7.776,7.776,0,0,0-.6-1.292,11.283,11.283,0,0,0,7.9-2.845,9.107,9.107,0,0,0,1.6-2C53.581,86.349,50.371,88.56,44.872,88.716Z" fill="#fff"/>
      <path id="Trazado_885862" data-name="Trazado 885862" d="M340.555,185.109A4.555,4.555,0,1,0,336,180.555,4.555,4.555,0,0,0,340.555,185.109Zm0-7.808a3.253,3.253,0,1,1-3.253,3.253A3.253,3.253,0,0,1,340.555,177.3Z" transform="translate(-293.931 -102.891)" fill="#fff"/>
    </g>
  </g>
</svg>
