<svg id="Grupo_1099828" data-name="Grupo 1099828" xmlns="http://www.w3.org/2000/svg" xmlns:xlink="http://www.w3.org/1999/xlink" width="55.494" height="55.494" viewBox="0 0 55.494 55.494">
  <defs>
    <clipPath id="clip-path">
      <rect id="Rectángulo_401506" data-name="Rectángulo 401506" width="55.494" height="55.494" fill="none"/>
    </clipPath>
  </defs>
  <g id="Grupo_1099827" data-name="Grupo 1099827" clip-path="url(#clip-path)">
    <path id="Trazado_883915" data-name="Trazado 883915" d="M55.494,27.748A27.747,27.747,0,1,1,27.747,0,27.747,27.747,0,0,1,55.494,27.748" transform="translate(0 -0.001)" fill="#464442"/>
    <path id="Trazado_883916" data-name="Trazado 883916" d="M328.555,359.251a1.114,1.114,0,0,0-.3.039,1.19,1.19,0,0,0-.839,1.4,25.694,25.694,0,0,1,.243,4.409,1.169,1.169,0,0,0,.339.839,1.155,1.155,0,0,0,.819.358h.047a1.2,1.2,0,0,0,1.161-1.169,28.832,28.832,0,0,0-.3-4.946,1.148,1.148,0,0,0-1.172-.925m.685,1a.5.5,0,0,0-.014-.062.494.494,0,0,1,.014.062m-.02-.082c0-.014-.009-.027-.015-.04.006.013.01.026.015.04m-.025-.061c-.006-.012-.012-.024-.019-.035.007.011.013.023.019.035m-.031-.055-.024-.034.024.034m-.037-.05c-.011-.013-.023-.026-.035-.038.012.012.024.025.035.038m-.042-.046c-.015-.015-.031-.029-.048-.042.017.013.032.027.048.042m-.062-.053-.037-.027.037.027m-.057-.039-.036-.021.036.021m-.058-.032-.038-.018.038.018m-.059-.027-.046-.017.046.017m-.061-.022-.062-.017.063.017m-.076-.019-.05-.009.05.009m-.071-.011-.042,0,.042,0m-.065,0h0m-.086,0-.023,0,.023,0m-.394,2.573-.006-.079.006.079m.064,2.854a.586.586,0,0,1,0-.067.586.586,0,0,0,0,.067m.01.066c0-.014,0-.028-.006-.043,0,.014,0,.029.006.043m.165.323.024.026-.024-.026m-.158-.3c0,.013.006.026.01.038,0-.013-.007-.025-.01-.038m.02.065c0,.012.008.024.013.035,0-.012-.009-.024-.013-.035m.026.063c.005.011.01.022.016.033-.006-.011-.011-.022-.016-.033m.032.06.019.031-.019-.031m.038.056.022.029-.022-.029m.116.125-.026-.024.026.024m.416.163h0m-.391-.143.028.021-.028-.021m.055.039.03.018-.03-.018m.058.033.031.016-.031-.016m.061.027.033.012-.033-.012m.063.021.034.009-.034-.009m.065.014.034,0-.034,0m.643-.247a.684.684,0,0,1-.092.092.688.688,0,0,0,.166-.2.682.682,0,0,1-.074.108m.162-.436a.734.734,0,0,1-.035.206.734.734,0,0,0,.035-.206q.009-.305.01-.61,0,.305-.01.61" transform="translate(-300.554 -329.789)" fill="#fff"/>
    <path id="Trazado_883917" data-name="Trazado 883917" d="M257.784,382.289a1.15,1.15,0,0,0-1.037-.6,1.176,1.176,0,0,0-.594.157,1.188,1.188,0,0,0-.437,1.6,6.87,6.87,0,0,1,.725,2.583,1.2,1.2,0,0,0,1.154,1.15h.05a1.279,1.279,0,0,0,.88-.418,1.08,1.08,0,0,0,.28-.8,9.338,9.338,0,0,0-1.021-3.664m-.535.091-.017-.017.017.017m.054.065-.015-.019.015.019m-.541-.267h0m.409.133h0m-.069-.044-.021-.011.021.011m-.076-.036-.022-.009.022.009m-.1-.033h0m-.082-.015-.024,0,.024,0m-.188,0h0m-.081.015-.023.006.023-.006m-.08.025-.022.009.022-.009m-.412.8a.778.778,0,0,0,.04.131.778.778,0,0,1-.04-.131m.849,2.973c0,.021,0,.041.007.062,0-.02-.005-.041-.007-.062m.012.086c0,.014.005.028.008.042,0-.014-.006-.028-.008-.042m.016.069c0,.012.007.025.01.037,0-.012-.007-.024-.01-.037m.021.066c0,.011.008.023.013.034,0-.011-.009-.022-.013-.034m.026.062.015.032-.015-.032m.031.059.018.03-.018-.03m.036.056.02.028-.02-.028m.04.053.022.026-.022-.026m.044.049.024.024-.024-.024m.187.132-.03-.016.03.016m-.058-.031-.028-.018.028.018m-.054-.036-.026-.021.026.021m.362.122h0m-.221-.043.032.012-.032-.012m.063.021.034.009-.034-.009m.066.014.035,0-.035,0" transform="translate(-234.613 -350.384)" fill="#fff"/>
    <path id="Trazado_883918" data-name="Trazado 883918" d="M395.3,381.1a1.2,1.2,0,0,0-1.152-1.136H394.1a1.286,1.286,0,0,0-.9.435,1.051,1.051,0,0,0-.262.794l.072.744.144,1.487a1.2,1.2,0,0,0,1.152,1.136h.051a1.285,1.285,0,0,0,.9-.435,1.051,1.051,0,0,0,.262-.794Zm-.49.047c0-.022-.005-.044-.009-.066,0,.022.007.044.009.066m-.013-.087c0-.015-.006-.029-.009-.044,0,.014.006.029.009.044m-.017-.07c0-.013-.007-.026-.011-.038,0,.013.008.025.011.038m-.021-.065c0-.012-.009-.024-.013-.035,0,.012.009.024.013.035m-.026-.062-.016-.033.016.033m-.031-.06-.018-.031.018.031m-.035-.056-.02-.029.02.029m-.039-.053-.022-.027.022.027m-.044-.049-.024-.024.024.024m-.413-.186h0m.365.142-.026-.021.026.021m-.052-.039-.028-.019.028.019m-.056-.034-.03-.016.03.016m-.059-.028-.032-.012.032.012m-.063-.021-.034-.009.034.009m-.066-.014-.036,0,.036,0m-.124,3.575-.032-.012.032.012m-.061-.024-.03-.016.03.016m-.057-.031-.028-.019.028.019m-.054-.036-.026-.022.026.022m-.137-.139-.02-.029.02.029m-.037-.054-.018-.031.018.031m-.033-.058c-.006-.011-.011-.022-.016-.033l.016.033m-.028-.06c0-.012-.009-.023-.013-.035,0,.012.009.024.013.035m-.024-.063c0-.012-.008-.025-.011-.038,0,.013.007.025.011.038m-.019-.064c0-.014-.006-.028-.009-.042,0,.014.005.028.009.042m-.014-.066c0-.02-.006-.041-.008-.061,0,.02,0,.041.008.061m.174.389.022.027-.022-.027m.043.049.024.024-.024-.024m.723.127a.757.757,0,0,1-.258.06h-.052c.017,0,.034,0,.052,0a.757.757,0,0,0,.258-.06.838.838,0,0,0,.121-.064.838.838,0,0,1-.121.064m-.446.039.034.009-.034-.009m.066.014.036,0-.036,0" transform="translate(-360.708 -348.807)" fill="#fff"/>
    <path id="Trazado_883919" data-name="Trazado 883919" d="M139.094,141.668a7.2,7.2,0,0,0-3.14-3.539,6.4,6.4,0,0,0-3.062-.754,7.2,7.2,0,0,0-1.369.133,8.731,8.731,0,0,0-5.957-7.052,9.842,9.842,0,0,0-3.163-.508,10.906,10.906,0,0,0-1.937.175,9.747,9.747,0,0,0-4.656,2.231,9.174,9.174,0,0,0-2.366,3.27,12.119,12.119,0,0,0-3.348-.5,8.674,8.674,0,0,0-8.26,5.548,12.41,12.41,0,0,0-.879,6.549,10.367,10.367,0,0,0,2.726,5.912,8.93,8.93,0,0,0,5.855,2.62c.029.386.046.769.057,1.063.023.6.036,1.22.048,1.816q.008.363.016.727v.058c.018.745.036,1.515.1,2.277,0,.051.008.1.013.155a3.511,3.511,0,0,0,.4,1.618,1.651,1.651,0,0,0,1.557.656h.022l.27,0c.316,0,.627-.006.915-.013,1.285-.031,2.532-.094,3.582-.151,3.366-.183,6.376-.415,9.2-.711,1.2-.125,2.614-.285,4.054-.519l.158-.026a9.369,9.369,0,0,0,2.473-.637,1.627,1.627,0,0,0,.941-1.074,5.945,5.945,0,0,0,.1-1.761c0-.078-.007-.155-.01-.231-.029-.774-.079-1.557-.127-2.314-.068-1.07-.138-2.176-.15-3.259,0-.328,0-.611.01-.87A8.678,8.678,0,0,0,136.915,151a7.227,7.227,0,0,0,2.732-4.367,8.482,8.482,0,0,0-.553-4.965m.121,2.2q.045.294.067.591-.023-.3-.067-.591t-.111-.585q.066.29.111.585m-.182-.874q-.077-.288-.175-.571.1.283.175.571m-.765-1.883q-.139-.244-.3-.477.158.233.3.477m-10.135,19.984h0l-.067.009-.534.068.534-.068.07-.009.219-.03-.218.03m-13-24.691h0l0-.006.018-.04.056-.124q.071-.152.147-.3-.077.149-.147.3l-.056.124-.02.047c-.035.09-.07.181-.1.271.034-.091.07-.181.1-.271m16.676,2.954q.14-.031.282-.055l.13-.021.014,0h0l.023,0-.023,0-.014,0-.13.021q-.142.024-.282.055c-.071.015-.141.034-.211.051.07-.018.14-.036.211-.051m5.693,7.941-.007.012a.336.336,0,0,1-.015.031.339.339,0,0,0,.015-.031h0v0h0l0,0,0-.005h0l0-.008h0m-1.059.873-.026.034-.017.022-.008.01c-.059.071-.112.135-.167.2-.113.127-.234.251-.36.367-.06.056-.122.111-.184.164l-.1.085-.02.016-.041.033q-.025.021-.046.042l-.008,0c-.032.019-.065.038-.1.061-.075.052-.153.1-.232.152-.16.1-.328.194-.5.281-.082.041-.167.082-.252.12l-.048.021-.028.012-.032.013-.062.025a8.053,8.053,0,0,1-1.246.369c-.107.023-.218.044-.328.064l-.18.03-.091.014-.043.005-.045.007-.055.006-.191.02c-.128.012-.261.023-.393.031-.25.015-.507.023-.785.023h-.046a1.2,1.2,0,0,0-.863.376,1.122,1.122,0,0,0-.321.829,1.2,1.2,0,0,0,1.174,1.161c-.039,1.278.048,2.562.134,3.809l.014.211a1.013,1.013,0,0,0-.226-.026c-.032,0-.064,0-.1,0-4.213.393-9.109.841-13.905,1.187-1.331.1-2.651.184-3.923.261a1.262,1.262,0,0,0-.789.339c-.017-.991-.038-2.012-.124-3.021,0-.031-.005-.06-.008-.09l.031-.026a1.1,1.1,0,0,0,.361-.865,1.285,1.285,0,0,0-.315-.776,1.091,1.091,0,0,0-.825-.386l-.077,0c-.265.019-.527.029-.779.029a9.229,9.229,0,0,1-.967-.05l-.08-.006-.031-.005-.061-.009-.056-.008c-.134-.021-.267-.045-.4-.072-.245-.051-.487-.114-.719-.186-.109-.034-.219-.071-.325-.11l-.158-.06-.032-.013-.039-.016c-.185-.084-.4-.185-.6-.3s-.389-.23-.573-.358c-.018-.013-.044-.034-.071-.056l-.028-.022a.551.551,0,0,0-.144-.111l-.035-.019c-.045-.036-.089-.074-.133-.111a7.488,7.488,0,0,1-.928-.967l-.008-.01,0-.005-.031-.041-.066-.089c-.067-.093-.133-.19-.2-.287-.12-.184-.235-.377-.342-.573s-.2-.393-.294-.6l0-.01-.013-.047a.548.548,0,0,0-.072-.156c-.037-.1-.074-.193-.108-.29a9.869,9.869,0,0,1-.366-1.328c-.023-.113-.044-.228-.063-.342q-.014-.082-.026-.164l0-.014a4.185,4.185,0,0,0-.042-.449c-.013-.1-.025-.194-.031-.281a11.076,11.076,0,0,1,0-1.423c.012-.19.032-.392.063-.656l0-.034,0-.025q.012-.083.026-.165c.02-.12.042-.242.066-.361a10.393,10.393,0,0,1,.361-1.34c.035-.1.073-.207.111-.308q.032-.084.065-.167l.012-.03.011-.027c.109-.246.2-.432.285-.6a8.44,8.44,0,0,1,.717-1.145l.014-.019.008-.011.029-.036.054-.067c.073-.089.148-.177.224-.262.147-.163.3-.321.459-.468.076-.071.154-.14.232-.207l.12-.1.03-.024.027-.022c.2-.15.363-.259.515-.353.188-.116.383-.224.581-.32l.159-.075.062-.027.014-.006.022-.009.063-.026c.06-.024.122-.047.183-.068a6.873,6.873,0,0,1,.684-.205c.109-.027.222-.051.333-.073.031-.006.063-.014.107-.026l.081-.021h.022a.72.72,0,0,0,.082-.005l.065-.008.049-.006.179-.018c.132-.012.267-.02.4-.025.1,0,.211-.006.318-.006.159,0,.322,0,.484.013.131.007.265.017.4.03l.2.022.042,0,.016,0,.042.007c.325.05.619.106.9.172.2.047.406.1.616.161a1.178,1.178,0,0,0,.866,1.352,1.218,1.218,0,0,0,.269.03,1.161,1.161,0,0,0,1.174-.906,8.972,8.972,0,0,1,.313-1.248c.05-.15.107-.3.168-.454l.03-.077.007-.016.006-.014.021-.047.033-.074c.044-.095.091-.19.139-.284a7.537,7.537,0,0,1,.587-.96l.056-.076.03-.041,0,0,.041-.05c.045-.056.088-.109.131-.159.118-.139.244-.276.372-.406s.261-.254.4-.374c.062-.055.127-.109.193-.163l.061-.049.031-.025.007-.005a8.31,8.31,0,0,1,.908-.587c.15-.083.305-.162.461-.236.062-.029.124-.057.187-.085l.042-.019.058-.023.076-.03a8.465,8.465,0,0,1,1-.319c.172-.043.349-.082.524-.114.082-.015.164-.029.245-.042l.016,0a.852.852,0,0,0,.136-.018h0a8.764,8.764,0,0,1,1.008-.058h.027c.178,0,.357.007.534.018.08.005.161.012.241.019l.044.008a1.413,1.413,0,0,0,.246.033h.054l.043.007c.087.014.175.03.261.046.173.034.346.073.516.118a8.354,8.354,0,0,1,.977.325l.066.029.047.021c.079.036.159.074.237.112.156.078.311.161.46.248s.3.183.441.281c.066.046.133.093.2.141l.016.012.036.027.013.009.031.027a6.866,6.866,0,0,1,.766.725c.056.061.11.124.163.187l.085.1a.9.9,0,0,0,.1.106,2.417,2.417,0,0,1,.137.209c.027.044.053.087.079.127a7.34,7.34,0,0,1,.532.989l.022.055.005.013.022.056c.036.091.07.185.1.278.065.189.125.385.176.582s.1.409.136.617c.016.089.03.178.045.272l0,.031v.033c.006.052.012.1.018.157.011.1.02.209.028.317a1.134,1.134,0,0,0-.049.754,1.237,1.237,0,0,0,1.137.881.983.983,0,0,0,.373-.073,7.124,7.124,0,0,1,1.17-.37c.087-.019.175-.036.261-.051l.076-.012.049-.008h.008c.153-.015.334-.031.517-.034h.089c.139,0,.279.006.415.017l.077.007c.06.013.116.02.163.026l.073.011a4.173,4.173,0,0,1,.542.158c.115.039.233.079.357.115l.054.026c.073.035.146.072.217.111.128.07.255.147.379.23.047.032.095.065.141.1a.7.7,0,0,0,.123.1c.112.093.223.193.329.3s.209.215.308.328c.045.052.091.108.131.157l.042.057.028.037a6.238,6.238,0,0,1,.5.811c.034.066.067.134.1.2l.044.1.024.056.017.039,0,.005.038.1c.03.08.06.161.087.243a6.891,6.891,0,0,1,.243.93c.015.079.028.159.04.238l0,.035.007.059c.018.162.03.327.036.489a6.561,6.561,0,0,1-.035.962l-.006.051,0,.02v0c-.013.085-.028.171-.045.255-.031.16-.069.319-.113.474s-.092.3-.146.448l-.027.071a.756.756,0,0,0-.086.194c-.008.019-.015.035-.02.047a5.427,5.427,0,0,1-.505.845m-4.891,12.317h0Zm.014-.121a.074.074,0,0,0,0-.011.063.063,0,0,1,0,.011m0-.012v0h0m.065.012.008-.006-.008.006m-.079.085h0c0-.006,0-.013,0-.02s0,.013,0,.02h0m-.034.083a.111.111,0,0,1,0-.012s0,.008,0,.012m.029-.108s0,.008,0,.012,0-.008,0-.012m0-.007.009,0h0Zm.01-.014h0l0,0h0l-.006,0h0c0-.005,0-.009,0-.013s0,.009,0,.013l.007,0,0,0h0m-.006,0,0,0h0l0,0m-.009.057-.006.01.006-.01m-.013.025,0,.012s0-.008,0-.012m.019-.034h0l0,0,0,0v.009h0l0,.02,0-.021s0-.006,0-.008m0,0a.011.011,0,0,1,0,0v0h0v0m.107-.118s0-.007,0-.007,0,0,0,.007m-.012.018.012-.017-.012.017m-.018.012.012-.016-.012.016m.014-.018.007-.009-.007.009m.01-.012,0,0,0,0m.005-.005h0m-.1.072v0a.153.153,0,0,0,0-.028.145.145,0,0,1,0,.028v0h0m0-.055h0l0,0h0m-.013.038a.169.169,0,0,1,0-.021.184.184,0,0,0,0,.021m0-.024a.035.035,0,0,1,0-.012.036.036,0,0,0,0,.012m-.461-.409c0,.032,0,.063,0,.092l-.054.016c-.393.112-.807.194-1.16.26-.466.086-.973.167-1.6.254l-.137.019-.08.011-.035,0-.033,0-.53.068c-.316.039-.639.077-.987.116-2.649.3-5.495.533-8.955.74-1.455.087-2.657.146-3.783.185l-.283.01c-.435.016-.884.032-1.322.032-.012-.119-.022-.245-.033-.393-.028-.4-.044-.794-.054-1.1a1.1,1.1,0,0,0,.744.3l.066,0c5.134-.312,10.154-.747,13.955-1.091,1.129-.1,2.334-.213,3.905-.36a1.4,1.4,0,0,0,.362-.083c.011.306.017.612.012.914m-21.934-6.107h0m-.1-.015h0m.1.014h0m.006,0h0m0,0h0m-.012,0h0m-.012,0h0m-.019,0h0m-.019,0h0m-.017,0h0m-.012,0h0m.146.018c-.035,0-.072,0-.106-.009.034.005.071.007.106.009m2.57.785h0a.61.61,0,0,0,0-.068c0-.022,0-.043-.006-.065,0,.022,0,.043.006.065a.611.611,0,0,1,0,.068m-.21,5.93c0,.1.008.206.013.31,0-.1-.009-.206-.013-.31m.193-6.128c0,.015.006.03.008.044,0-.015,0-.03-.008-.044m-.279-.44.027.022-.027-.022m.051.042.025.025-.025-.025m.047.047.023.027-.023-.027m.042.051.021.03-.021-.03m.038.055.019.032-.019-.032m.033.058c.006.011.011.023.016.034-.005-.011-.01-.023-.016-.034m.028.061c0,.012.009.024.013.036,0-.012-.009-.024-.013-.036m.023.063c0,.013.007.026.011.038,0-.013-.007-.026-.011-.038m-1.888-.476h0m-.6-.043q.119.013.239.022-.12-.009-.239-.022m.321.027.161.01-.161-.01m2.191,8.6.016.02-.016-.02m0,0v0l0,.005h0m-.1-.446v0c-.006-.049-.012-.1-.017-.148.005.05.012.1.017.15,0,.023.007.045.01.068,0-.022-.007-.044-.01-.066m15.1-3.043q1.952-.177,3.9-.36-1.952.182-3.9.36c-4.642.42-9.288.807-13.94,1.09h-.054c.018,0,.036,0,.054,0,4.653-.283,9.3-.67,13.94-1.09m4.287-.489h0q-.029.019-.06.035.031-.016.06-.035m-.071-1.185-.028-.015.028.014h0m-.312-.067.05,0h.011a.548.548,0,0,0-.061,0m.093,0,.036,0-.036,0m.067.01.034.008-.034-.008m.064.017.033.012-.033-.012m-14.138,1.16q-.982.071-1.964.136.982-.065,1.964-.136,1.741-.126,3.481-.266-1.74.14-3.481.266m-4.016,1.641-.036,0,.036,0m-.067-.01-.034-.008.034.008m-.064-.017-.032-.012.032.012m-.061-.024-.031-.016.031.016m-.058-.031-.029-.019.029.019m-.055-.037-.027-.022.027.022m-.051-.042-.025-.024.025.024m-.047-.047-.023-.027.023.027m-.042-.051-.02-.029.02.029m-.038-.055-.018-.031.018.031m-.033-.058c-.006-.011-.01-.022-.016-.033.005.011.01.022.016.033m-.028-.06c0-.011-.009-.023-.013-.035,0,.012.008.023.013.035m-.023-.062c0-.012-.007-.025-.01-.038,0,.013.006.025.01.038m-.018-.064c0-.014-.005-.028-.008-.042,0,.014,0,.028.008.042m-.012-.065q0-.031-.006-.062,0,.031.006.062m19.318-2.391q-.024-.367-.05-.735-.023-.336-.045-.672.021.336.045.672Q131.439,156.7,131.463,157.067Zm-.172-3.09q-.008-.336-.006-.673,0,.336.006.673c.008.336.021.673.039,1.01-.017-.337-.031-.673-.039-1.01m-.48-1.706h0m1.608-1.473h0m-.008,0h0m-.009,0h0m-.014,0-.038,0,.038,0,.031,0-.031,0m.032,0h0m-.013,0,.023,0-.023,0m-.012,0h0m-.049.006h0m0,0h0m0,0h0m0,0-.059.006.059-.006m.025,0h0m-.5.047c.068-.005.137-.01.205-.016l.2-.021-.2.021c-.068.007-.137.011-.205.016m-.77.036.144,0-.144,0m-.989.694a.769.769,0,0,0,.037.2.768.768,0,0,1-.037-.2m0,0a.6.6,0,0,1,0-.068.6.6,0,0,0,0,.068m0-.093c0-.014,0-.029.006-.043,0,.014,0,.029-.006.043m.013-.072c0-.012.005-.024.009-.036,0,.012-.006.024-.009.036m.019-.062c0-.012.009-.025.014-.037-.005.012-.009.025-.014.037m.025-.06c.006-.013.012-.025.019-.038-.007.012-.013.025-.019.038m.032-.058c.007-.012.015-.025.023-.036-.008.012-.015.024-.023.036m.038-.056c.009-.011.017-.023.026-.034-.009.011-.018.022-.026.034m.042-.05c.01-.011.02-.022.031-.033-.011.01-.021.022-.031.033m.049-.049.032-.029-.032.029m.053-.044.034-.025-.034.025m.056-.039.036-.022-.036.022m.06-.033.037-.018-.037.018m.063-.028.037-.014-.037.014m.066-.022.036-.01-.036.01m.066-.014.037-.006-.037.006m.069-.008.035,0h0l-.037,0m1.659-.1h0m1.96-.506.086-.035-.086.035m.165-.069.007,0-.007,0m.019-.008.008,0-.008,0m1.293-.757.01-.008-.01.008m-.058.044,0,0Zm0,0,.006,0-.006,0m.009-.006.009-.007-.009.007m.013-.01.032-.025-.032.025m.055-.046-.006.007.007-.007h0m-.072.057.019-.016-.019.016m-28.6,3.84h0l.075.03-.074-.03m-1.56-.925.021.016-.021-.016m.024.017.023.015-.023-.015m.026.016h0m.062.034h0m-.005,0h0m-.015-.007h0m-.017-.01,0,0,0,0m0,0,.006,0-.006,0m.019.01,0,0,0,0m.011.006h0m-2.275-2.967c0-.013-.008-.026-.013-.04C103.483,149.481,103.488,149.494,103.491,149.507Zm-.011-.041v0l0-.007,0,.007h0m-.018-.064h0m0,0v0m0,.01v0m0,.016,0,.009,0-.009m0,.014v0m-.007-.022v0m0-.014v0m.017.059.01.034-.01-.034m0,0,.011.032-.011-.032m1.019,1.764h0l-.01-.014.011.014.015.018-.015-.018m-1-1.7c0-.008-.007-.018-.011-.028,0,.011.008.021.011.028m-.008-8v0l-.024.058.023-.056m.088-.195c.019-.042.038-.085.058-.127-.02.042-.038.085-.058.127m5.494-4.3Zm-.1.011h0m.088-.014h0m.011,0h0m-.01,0a.044.044,0,0,1,.015.006.044.044,0,0,0-.015-.006m-.006,0h0m-.024,0-.036,0,.036,0m-.086.01.043-.007-.043.007m.1,0h0m-.016,0h0m-.016,0h0m-.017,0h0m-.012,0h0m-.009,0h0m-1.6.436-.051.021.051-.021m-.087.036-.067.029.067-.029m.087-.036.016-.007q.1-.038.2-.073.27-.1.547-.172l.185-.048q.177-.043.356-.078h0q-.179.035-.356.078l-.185.048q-.277.075-.547.172-.1.035-.2.073l-.016.007m1.326-.384.007,0-.007,0m.039-.01.1-.025-.1.025m.1-.027.048-.011-.048.011m.056-.013.049-.01-.049.01m.08,0h0m4.525,1.589a.586.586,0,0,0,.178.1.636.636,0,0,0,.07.02h0a.657.657,0,0,1-.07-.02.586.586,0,0,1-.178-.1.61.61,0,0,1-.092-.094.61.61,0,0,0,.092.094m.819.024-.036.021.036-.021m-.057.031-.037.017.037-.017m-.059.026-.041.015.041-.015m-.061.021-.058.015.058-.015m-.062.016-.063.011.063-.011m-.082.013-.044,0,.044,0m-.067,0h0m-.087,0-.024,0,.024,0m.731-.413c0,.014-.01.028-.016.041.006-.013.011-.027.016-.041m-.026.062c-.006.012-.012.024-.019.035.007-.011.013-.023.019-.035m-.032.055-.024.033.024-.033m-.037.05c-.01.012-.021.023-.032.035.011-.011.022-.023.032-.035m-.042.046a.6.6,0,0,1-.047.041.6.6,0,0,0,.047-.041m-.058.049-.04.028.04-.028m-1.513-1.222c-.116-.033-.233-.065-.35-.1C112.633,137.342,112.749,137.374,112.866,137.407Zm-1.577-.341h0m.045.007c.235.036.47.078.7.127-.233-.049-.467-.091-.7-.127l-.032-.005.032.005m-.053-.008-.065-.007.065.007m-.933-.072c.079,0,.157.005.236.01.129.007.258.017.387.03-.129-.012-.258-.022-.387-.03-.079,0-.157-.007-.236-.01m5.737-2.218h0l-.01.013.01-.013m5.211-2.895-.016,0,.016,0m-.09.014h0m.023,0h0m.024,0h0m.02,0h0m.3-.032.089-.007-.089.007m.273-.02.109,0-.109,0m.274-.012.117,0-.117,0m1.8.137q-.138-.027-.276-.049h0q.139.023.276.049m-.425-.062h-.006a.144.144,0,0,0,.035,0h0l-.026,0m0,0h0m.036-.005h0m0,0h0m-.071-.008h0m-.01,0h0m0,0a0,0,0,0,0,0,0,0,0,0,0,1,0,0m.015.01-.026,0,.026,0m-.015-.008h0m.027.008h0m-.024-.006h0m.006,0h0m.008,0h0m0-.011h0m.022,0,.026,0-.026,0m2.047.552.017.007-.017-.007m.019.008.013.005-.013-.005m.018.007.009,0-.009,0m.012.005.005,0-.005,0m0,0-.006,0,.006,0m-.007,0-.011,0,.011,0m-.013-.005-.015-.007.015.007m-.018-.008-.016-.007.016.007m-.035-.015,0,0,0,0m2.813,2.128s0,0,0,0h0s0,0,0,0h0m-.031-.028-.007-.007.007.007m.027.026,0,0,0,0m-.01-.009-.006-.005.006.005m.873,1.5h0l0,.005,0-.006h0Zm.545,2.014,0,.017h0l0,.022,0-.022,0-.017c-.016-.105-.033-.21-.052-.315.019.1.035.21.052.315M129.2,136.1h0v0l.031.077c-.01-.027-.021-.053-.032-.08h0m0,0v0m-.019-.047,0,.011,0-.011m.01.023,0,.008,0-.008m.006.015,0,0,0,0m0-.01,0-.008,0,.008m5.451,3.49h0m0,0h0m.01,0,.005,0-.005,0m.019.007.008,0-.008,0m.033.015-.018-.006.018.006m-.031-.01-.013,0,.013,0m-.02-.008-.007,0,.007,0m.056.02.005,0h0l-.062-.019.057.017m-1.118-.313-.045-.007.045.007m-.1-.018h0l.026.006-.031-.006h0m.12.021.061.008-.061-.008m.253.046.041.011-.041-.011m.125.033.049.015-.049-.015m.123.037.053.017-.053-.017m.122.04.066.022-.066-.022m.166.056.073.025-.073-.025m.126.042.07.023-.07-.023m1.184.656h0l-.027-.022.027.021h0m0,0h0s0,0,0,0h0m2.157,3.947h0v0m.013.107-.006-.047c0,.02,0,.038.006.047m-.008-.062,0-.02,0,.02m-.429,3.2h0m.017-.023h0v0h0l.014-.025-.015.026-.01.024.009-.021h0m-.011.017h0m.015-.023c.006-.014.014-.027.021-.04-.007.013-.014.027-.021.04m-.019.025h0m.007-.014,0,0,0,0m.017-.029,0,0,0,0m.353-1.161q.027-.137.048-.275v0q-.021.138-.048.275c-.008.043-.019.086-.028.129.009-.043.02-.086.028-.129m.05-.286h0m.01-.083,0,.014,0-.014q.014-.129.024-.258-.009.129-.024.258m-.007.056.005-.041-.005.041m-.447-3.346,0-.012v0h0l0,.012.021.053-.021-.053m-.028-.066-.012-.029.012.029m.015.034-.005-.013.005.013m-.012-.027,0-.006,0,.006m-.025-.059.009.021-.009-.021m-.747-1.274-.017-.023,0,0,.014.019m-.879-.9q.195.16.374.337-.18-.177-.374-.337m-.088-.07h0l-.007-.005h0l-.005,0h0l.008.008-.009-.009h0l-.009-.009c.006.007.014.012.022.018l.024.018-.023-.018m.029.023.011.01-.011-.01m.014.016,0,0,0,0m-.01-.007-.008-.006.008.006m-.016-.014-.011-.01.011.01m-.875-.537-.007,0,.007,0q.121.058.239.123-.118-.064-.239-.122m-.24-1.55q.129.037.256.079-.127-.042-.256-.079m.285.088c.087.03.174.062.26.1-.086-.034-.173-.066-.26-.1m-1.219-.275c.091.011.181.024.271.039-.09-.015-.181-.028-.271-.039m.316.046q.133.023.266.052-.132-.029-.266-.052m.319.064c.089.02.178.042.266.067-.088-.024-.177-.046-.266-.067m-.925-.137c.093.007.186.015.279.026-.093-.011-.186-.019-.279-.026m-.309,1.358.082,0-.082,0m-.952-1.325c.1-.012.193-.022.289-.03-.1.008-.193.018-.289.03m-.29.042c.067-.011.134-.021.2-.03-.067.009-.134.019-.2.03m-2.614-1.9,0-.007,0-.013.008.02m-.858-1.5c.024.027.047.057.069.088-.022-.031-.045-.06-.069-.088m.078.1c.022.031.044.064.064.1-.021-.033-.042-.065-.064-.1m.077.117.062.1-.062-.1m-.678-.8q.1.1.194.206t.175.2q-.085-.1-.175-.2t-.194-.206q-.2-.2-.411-.389.213.186.411.389m-.254-1.991q.147.1.291.208-.143-.107-.291-.208m-.413,1.383,0,0h0m-.008,0-.018-.011.018.011m.024.019.024.022-.024-.022m-.3-.218q-.115-.079-.233-.154t-.238-.146c-.051-.03-.1-.059-.155-.088.052.029.1.057.155.088q.12.071.238.146t.233.154q.107.074.211.151-.1-.077-.211-.151m-1.336-.739h0l.12.053-.123-.054m-.005,0h0c-.148-.059-.3-.114-.448-.166.15.052.3.106.448.166m-1.587-1.871.028,0-.028,0m.344.062.11.023-.11-.023m-.8-.121.106.011-.106-.011m-.239,1.358h0q-.13-.012-.261-.021t-.269-.013q.134,0,.269.013t.261.021m-.129-1.392.123.009-.123-.009m.321,1.425-.039-.006.039.006m-.046-.007-.035-.007.035.007m-.062-.012-.02,0,.02,0m-.043-.008-.012,0,.012,0m-2.077-1.351q.126-.015.253-.027-.127.012-.253.027m.276-.029c.092-.008.184-.015.276-.021-.092.006-.184.013-.276.021m.356-.026.2-.01-.2.01m.29-.013.24,0-.24,0m-.975,1.458.059-.009h0l-.059.009q-.13.02-.259.044-.279.052-.554.121.275-.069.554-.121.129-.024.259-.044m-.232-1.353.2-.028-.2.028m-1.644,1.855-.145.058h0l.145-.058q.26-.1.526-.186-.266.085-.526.186m-2.17,1.311q.1-.088.205-.173l.1-.077.008-.006h0l.015-.011-.015.011-.008.006-.1.077q-.1.085-.205.173-.219.191-.424.4t-.4.433c-.056.066-.11.134-.165.2.055-.067.109-.135.165-.2q.19-.224.4-.433t.424-.4m-2.164,3.25a9.164,9.164,0,0,0-.265.983q-.035.166-.065.333a.555.555,0,0,1-.016.064.54.54,0,0,0,.016-.064q.03-.167.065-.333a9.164,9.164,0,0,1,.265-.983l0-.008,0,.008m-2.419-1.072.12.027-.12-.027m.223.051.123.031-.123-.031m-.446-.1.117.025-.117-.025m-.224-.043.116.022-.116-.022m-.676-.1.115.015-.115-.015m.226.03.115.017-.115-.017m.225.034.116.02-.116-.02m-.678-.089.116.012-.116-.012m-.227-.021.116.01-.116-.01m-.455-.027.118.005-.118-.005m.227.011.117.008-.117-.008m-.432,1.353-.163,0,.163,0m-.023-1.37.119,0-.119,0m-.514,1.373-.214.011-.213.016-.19.019-.113.013h0l.113-.013.19-.019.213-.016.214-.011c.1,0,.2-.005.3-.006-.1,0-.2,0-.3.006m-.751.061h0m.573-1.421.113-.006-.113.006m-.235.016.113-.008-.113.008m-.234.022.114-.011-.114.011m-.466.062.114-.017-.114.017m.232-.034.114-.014-.114.014m-.464.074.113-.02-.113.02m-.23.047.112-.023-.112.023m-.457.112.109-.029-.109.029m.228-.059.111-.026-.111.026m-.455.126.107-.031-.107.031m-.225.073.1-.034-.1.034m-.536,1.733q.156-.086.317-.164l.171-.08.014-.006-.014.006-.171.08q-.16.078-.317.164t-.308.18l0,0,0,0q.152-.094.308-.18m-.131-1.473.075-.032-.075.032m.221-.094.092-.036-.092.036m.222-.087.1-.036-.1.036m-1.017,2.1.107-.077-.107.077m-.167.12h0l-.062.05-.128.107.128-.107.06-.048m-1.284,1.3.026-.035,0,0h0l.089-.111-.09.113-.028.037a8.9,8.9,0,0,0-.759,1.212,8.911,8.911,0,0,1,.759-1.212m-1.156,2.09q-.061.161-.117.323t-.112.346q.053-.174.112-.346t.117-.323c.017-.046.036-.091.054-.137-.018.046-.036.091-.054.137m-.594,5.257h0s0,.006,0,.009,0-.006,0-.009m0,0v-.013s0,.005,0,.008c0-.014,0-.028,0-.042,0,.016,0,.032,0,.047h0m-.012-.094s0,0,0,0,0,0,0,0m.016-2.886q.013-.086.027-.172-.014.086-.027.172c0,.018,0,.036-.008.054v-.009l.007-.046m-.014,2.8c0-.018,0-.036-.006-.055,0,.018,0,.037.006.055m-.01-.093c0-.02,0-.041-.008-.061,0,.021.005.041.008.061m-.012-.094-.012-.092.012.092m-.018-.142-.006-.044.006.044m-.012-.1c0-.012,0-.024,0-.035,0,.012,0,.024,0,.035m.02-1.972c0-.045.01-.09.015-.134,0,.045-.01.09-.015.134m.039,2.495c0-.017,0-.035,0-.052,0,.017,0,.035,0,.052m0,.072s0-.01,0-.015,0,.01,0,.015m0-.019v0m0-.015v0m0-.013,0-.011,0,.011m0-.011,0-.01,0,.01m0-.011v0m0-.006v0m.006.055,0-.024,0,.024m0-.03v0m0-.015v0m.5,2.056c.03.086.063.171.1.256-.033-.085-.066-.17-.1-.256-.071-.2-.135-.406-.194-.611.058.206.122.41.194.611m2.384,3.431h0a1.323,1.323,0,0,1,.208.151,1.318,1.318,0,0,0-.208-.151m.89.585c-.147-.082-.291-.171-.432-.264.141.092.285.181.432.264m.22.116-.059-.03.059.03m.351.169-.081-.037.081.037m-.177-.083-.07-.033.07.033m1.619.532c.08.017.16.032.241.046-.08-.014-.161-.029-.241-.046q-.194-.04-.386-.09.192.05.386.09m.895,1.511h0q-.178-.015-.355-.035.177.021.355.035m2.31,7.246s.008.007.009.007,0,0-.009-.007m.01.005s0,0,0,0,0,0,0,0m-.031-.043.014.017-.014-.017m.016.02.01.013-.01-.013m.011.016,0,.007,0-.007m-.071-.248c.125,0,.249,0,.374,0-.125,0-.25,0-.374,0m1.6-.022-.3.01.3-.01m-.393.013-.361.009.361-.009m-.444.01-.29,0,.29,0m18.987-1.817-.094.033.094-.033m1.7-8.372.054-.01-.054.01h0m.616-.136-.1.026.1-.026m-.188.046-.1.024.1-.024m-.187.042-.1.022.1-.022m.927-.246-.1.033.1-.033m-.183.056-.1.031.1-.031m-.184.053-.1.028.1-.028m.547-.169-.1.035.1-.035m.358-.133-.1.039.1-.039m-.178.068-.1.037.1-.037m.7-.3-.1.046.1-.046m-.173.081-.1.044.1-.044m-.175.077-.1.041.1-.041m.688-.332-.094.051.094-.051m-.168.089-.1.049.1-.049m.337-.185-.095.055.095-.055m.169-.1-.1.061.1-.061m.166-.106-.1.066.1-.066m.162-.111-.1.072.1-.072m.395-2.241-.005.007,0,0-.017.022.02-.025.049-.066-.044.059m.63-1.062c-.011.028-.023.056-.035.081.012-.026.024-.053.035-.081m-1.23-8.608a6.215,6.215,0,0,1,.869.706q.2.2.386.408-.185-.212-.386-.408a6.215,6.215,0,0,0-.869-.706q-.233-.156-.48-.289c-.086-.046-.172-.089-.259-.13.087.041.174.084.259.13q.248.133.48.289m-1.035-.549q.127.052.253.109-.125-.058-.253-.109m-1.869-.422q-.135-.008-.27-.011.135,0,.27.011m-.323-.012c-.071,0-.143,0-.214,0l.131,0h.083m-.57.018q.13-.01.26-.014-.13,0-.26.014m-.714.092-.1.019v0l.1-.017m-4.836-6.418c.127.07.252.145.375.221-.123-.077-.247-.151-.375-.221a8.8,8.8,0,0,0-1.147-.53,8.8,8.8,0,0,1,1.147.53m-2.243-.865.12.029-.12-.029m.356.092.106.03-.106-.03m-2.522-.347h0m.415.011-.114-.005.114.005m-2.034.11c-.091.014-.182.029-.273.045.091-.016.182-.031.273-.045m-7.569,5.521-.081-.023.081.023h0m-.3-.082.13.035-.13-.035m-2.812-.38h0m-.349,0,.112,0-.112,0m-3.428.809,0,0,0,0a7.363,7.363,0,0,0-.788.443,7.363,7.363,0,0,1,.788-.443m-5.03,9.122q0,.4.028.8-.027-.4-.028-.8m.956,4.631q.161.359.35.7-.189-.345-.35-.7m4.677,4.515c-.172-.065-.343-.135-.51-.211.168.076.338.146.51.211m1.674.452q-.4-.068-.792-.171.391.1.792.171m1.443,1.647c-.007-.185-.015-.369-.024-.554-.008-.156-.019-.312-.03-.467.011.156.022.311.03.467.01.185.017.369.024.554.016.425.027.85.037,1.275-.01-.425-.021-.85-.037-1.275m.208,5.348c-.007-.068-.013-.135-.019-.2-.008-.1-.016-.2-.024-.292-.049-.574-.071-1.151-.087-1.728-.005-.192-.01-.384-.014-.577q-.008-.319-.014-.637.007.319.014.637c0,.192.009.384.014.577.016.577.037,1.153.087,1.728.008.094.015.192.024.292.006.067.012.134.019.2s.015.136.025.2c-.01-.068-.018-.136-.025-.2m.059.406c.013.067.029.133.047.2-.018-.065-.034-.131-.047-.2m.708,1.007a1.2,1.2,0,0,0,.13.033,1.2,1.2,0,0,1-.13-.033m.209.047a2.436,2.436,0,0,0,.245.021,2.436,2.436,0,0,1-.245-.021m.494.026c.165,0,.329,0,.494,0l-.23,0-.264,0m1.167-.012-.516.01.516-.01q.446-.011.892-.027-.446.016-.892.027m7.013-.364q-1.148.081-2.3.148,1.149-.068,2.3-.148,2.87-.2,5.732-.5-2.861.3-5.732.5m7.749-.724q-.5.063-1.008.12.5-.057,1.008-.12t1.006-.134q-.5.071-1.006.134m3.443-.551c-.211.051-.424.093-.638.132.213-.039.427-.081.638-.132q.158-.038.314-.082-.156.045-.314.082m.623-.179q.153-.053.3-.114-.148.062-.3.114m.952-.576a1.039,1.039,0,0,0,.125-.227,1.039,1.039,0,0,1-.125.227m.168-.356a2.863,2.863,0,0,0,.066-.337,2.863,2.863,0,0,1-.066.337m.1-.8c0,.078-.006.157-.012.234.006-.078.01-.156.012-.234q0-.059,0-.118,0,.059,0,.118m3.482-9.347q.078-.056.155-.115-.077.059-.155.115m2.556-3.583a6.616,6.616,0,0,1-.452,1.138,6.726,6.726,0,0,1-.469.785,6.726,6.726,0,0,0,.469-.785,6.616,6.616,0,0,0,.452-1.138q.087-.3.146-.6-.059.305-.146.6" transform="translate(-92.573 -119.29)" fill="#fff"/>
  </g>
</svg>
