<svg xmlns="http://www.w3.org/2000/svg" xmlns:xlink="http://www.w3.org/1999/xlink" width="295" height="165.455" viewBox="0 0 295 165.455">
  <defs>
    <clipPath id="clip-path">
      <rect id="Rectángulo_401558" data-name="Rectángulo 401558" width="295" height="164.391" transform="translate(0 0)" fill="#fff" stroke="#707070" stroke-width="1"/>
    </clipPath>
    <clipPath id="clip-path-2">
      <rect id="Rectángulo_401557" data-name="Rectángulo 401557" width="164.343" height="311.154" fill="none"/>
    </clipPath>
    <clipPath id="clip-path-4">
      <rect id="Rectángulo_401550" data-name="Rectángulo 401550" width="26.556" height="21.278" fill="none"/>
    </clipPath>
    <clipPath id="clip-path-5">
      <rect id="Rectángulo_401551" data-name="Rectángulo 401551" width="19.169" height="34.951" fill="none"/>
    </clipPath>
    <clipPath id="clip-path-6">
      <rect id="Rectángulo_401552" data-name="Rectángulo 401552" width="73.238" height="112.243" fill="none"/>
    </clipPath>
    <clipPath id="clip-path-7">
      <rect id="Rectángulo_401553" data-name="Rectángulo 401553" width="110.54" height="44.826" fill="none"/>
    </clipPath>
    <clipPath id="clip-path-8">
      <rect id="Rectángulo_401554" data-name="Rectángulo 401554" width="75.544" height="30.187" fill="none"/>
    </clipPath>
    <clipPath id="clip-path-9">
      <rect id="Rectángulo_401555" data-name="Rectángulo 401555" width="15.667" height="23.273" fill="none"/>
    </clipPath>
  </defs>
  <g id="Grupo_1102052" data-name="Grupo 1102052" transform="translate(-1125 -406)">
    <path id="Rectángulo_401549" data-name="Rectángulo 401549" d="M84,0H295a0,0,0,0,1,0,0V165.455a0,0,0,0,1,0,0H0a0,0,0,0,1,0,0V84A84,84,0,0,1,84,0Z" transform="translate(1125 406)" fill="#dad0cf"/>
    <g id="Enmascarar_grupo_1099801" data-name="Enmascarar grupo 1099801" transform="translate(1125 407.014)" clip-path="url(#clip-path)">
      <g id="Grupo_1099980" data-name="Grupo 1099980" transform="translate(55.537 2.331)">
        <g id="Grupo_1099979" data-name="Grupo 1099979" clip-path="url(#clip-path-2)">
          <g id="Grupo_1099978" data-name="Grupo 1099978">
            <g id="Grupo_1099977" data-name="Grupo 1099977" clip-path="url(#clip-path-2)">
              <path id="Trazado_885859" data-name="Trazado 885859" d="M200.492,235.332a42.3,42.3,0,0,0-14.807-6.288,41.038,41.038,0,0,0-5.332-1.061c-.846-.164-2.707-.572-3.384-.245l-.254,5.225c2.792,3.92,4.908,8.166,8.461,11.6,3.47,3.348,10.324,6.042,15.062,3.593,2.539-1.307,4.822-3.266,4.908-6.206.084-3.185-2.285-4.982-4.654-6.614m-2.454,7.349c-1.776,1.714-4.822.979-6.938.245-2.538-.735-4.738-3.511-6.515-5.308-2.03-1.959-3.384-4.165-5.161-6.287l-.253-.9c.93.409,2.453.327,3.553.572,1.269.326,2.539.816,3.808,1.225,3.384,1.061,7.108,2.041,10.069,4,2.2,1.471,3.808,4.247,1.438,6.452" transform="translate(-41.188 -59.156)" fill="#f9f9f7"/>
              <path id="Trazado_885860" data-name="Trazado 885860" d="M200.374,235.2a33.7,33.7,0,0,0-7.218-3.572,52.734,52.734,0,0,0-7.69-2.358,40.793,40.793,0,0,0-5.267-1.05,8.517,8.517,0,0,0-3.177-.283l.212-.313-.254,5.225-.067-.227c2.3,3.23,4.16,6.7,6.683,9.68,3.531,4.338,9.8,7.564,15.512,5.756,6.744-2.73,7.648-8.988,1.266-12.858m0,0c7.051,4.116,6.543,10.349-.991,13.548-3.976,1.389-8.4.1-11.853-1.979-5.25-3.211-7.848-9.017-11.249-13.728l-.073-.1.006-.125.254-5.225.011-.229a2.565,2.565,0,0,1,1.219-.245,54.088,54.088,0,0,1,7.938,1.433,38.1,38.1,0,0,1,14.738,6.653" transform="translate(-41.07 -59.026)"/>
              <path id="Trazado_885861" data-name="Trazado 885861" d="M198.609,243.448c-2.368,2.056-6.23,1.243-8.743-.181a24.113,24.113,0,0,1-4.462-4.081,62.5,62.5,0,0,1-5.78-6.992c-.1-.4-.355-1.234-.459-1.629l.735.3a16.919,16.919,0,0,0,3.166.488c3.259.91,6.29,1.957,9.511,3.016a18.05,18.05,0,0,1,5.884,3.186c1.653,1.619,2.046,4.307.149,5.895m0,0c1.834-1.608,1-4.022-.7-5.365-3.281-2.823-7.82-3.632-11.882-5.053a27.9,27.9,0,0,0-3.094-.95,16.1,16.1,0,0,1-3.352-.544l.528-.434.253.9c1.48,1.647,3.53,4.8,5.606,6.685,1.965,2.145,4.007,4.366,7,5.045,1.8.612,4.105,1.166,5.644-.283" transform="translate(-41.759 -59.923)"/>
              <path id="Trazado_885862" data-name="Trazado 885862" d="M176.832,235.354c8.676,9.382,7.941,24.154,3.582,35.224-.7,1.787,2.262,2.553,2.958.786,4.776-12.13,5.043-27.923-4.371-38.1-1.32-1.428-3.482.673-2.169,2.093" transform="translate(-41.12 -60.5)" fill="#f9f9f7"/>
              <path id="Trazado_885863" data-name="Trazado 885863" d="M176.832,235.354c8.676,9.382,7.941,24.154,3.582,35.224-.7,1.787,2.262,2.553,2.958.786,4.776-12.13,5.043-27.923-4.371-38.1C177.681,231.833,175.519,233.934,176.832,235.354Z" transform="translate(-41.12 -60.5)" fill="none" stroke="#000" stroke-miterlimit="10" stroke-width="1"/>
              <path id="Trazado_885864" data-name="Trazado 885864" d="M176.831,235.331c8.08,8.325,8.337,20.386,5.439,30.882-.262.872-.523,1.746-.817,2.608l-.47,1.285a2.522,2.522,0,0,0-.273,1.112c.068.617,1.094.95,1.713.625.636-.226.868-1.536,1.118-2.088,3.527-10.042,4.06-21.7-1.219-31.25a19.676,19.676,0,0,0-1.343-2.337,14.922,14.922,0,0,0-2.469-3.191,1.487,1.487,0,0,0-1.68,2.354m0,0c-1.133-1.059.287-3.175,1.759-2.5,10.094,9.011,9.876,25.439,5.677,37.169a9.547,9.547,0,0,1-.837,1.982,2.136,2.136,0,0,1-3.065.156,1.948,1.948,0,0,1-.1-2.282c.469-1.231.9-2.581,1.267-3.834,2.791-10.145,2.466-22.246-4.7-30.688" transform="translate(-41.119 -60.478)"/>
              <path id="Trazado_885865" data-name="Trazado 885865" d="M74.928,402.179c-1.406.616-2.3,1.48-2.173,3.084.255,2.837,3.578,3.33,6.135,3.453,7.541.247,14.06-4.564,19.557-9,2.684-2.1,6.263-3.824,8.563-6.291,1.15-1.234,1.917-5.674-.639-6.168Z" transform="translate(-16.955 -100.646)" fill="#754a2d"/>
              <path id="Trazado_885866" data-name="Trazado 885866" d="M74.616,401.732a4.03,4.03,0,0,0-2.056,1.71,3.377,3.377,0,0,0-.091,2.675c.627,1.623,2.382,2.319,4.027,2.607,4.63.809,9.265-.526,13.29-2.707a48.16,48.16,0,0,0,6.124-4.054c.949-.721,1.866-1.478,2.807-2.208.989-.767,2.053-1.442,3.1-2.123s2.081-1.349,3.073-2.091a12.736,12.736,0,0,0,2.412-2.155,5.89,5.89,0,0,0,1.012-4.066,3.25,3.25,0,0,0-.716-1.844c-.325-.368-1.023-.86-1.548-.668-.269.1-.529.252-.788.374l-4.7,2.229-15.428,7.324c-3.452,1.638-6.957,3.2-10.366,4.92-.053.027-.107.051-.161.076-.443.21-.054.849.387.639l3.118-1.48,7.531-3.575,9.071-4.305,7.844-3.723,2.589-1.229a7.993,7.993,0,0,0,1.234-.586.446.446,0,0,1,.057-.027l-.3.038c1.185.255,1.448,1.478,1.428,2.5a5.031,5.031,0,0,1-.916,3.006,19.5,19.5,0,0,1-4.433,3.49c-1.559,1.02-3.131,2.012-4.581,3.177-5.67,4.555-12.433,9.357-20.24,8.461-1.422-.164-3.21-.531-4.006-1.814a2.716,2.716,0,0,1-.23-2.374A3.256,3.256,0,0,1,75,402.371c.447-.2.058-.839-.387-.639" transform="translate(-16.837 -100.519)"/>
              <path id="Trazado_885867" data-name="Trazado 885867" d="M92.466,380.65c-1.022,2.468-3.835,4.688-5.752,6.661-3.323,3.084-7.03,6.044-9.715,9.745-.639.864-2.173,2.467-1.917,3.7.383,1.357,2.94,1.974,4.218,2.22a11.932,11.932,0,0,0,8.436-1.6c6.392-3.207,11.76-7.277,17.256-11.718,2.429-1.974,4.6-3.824,4.091-7.155-.512-2.22-2.557-6.291-5.113-6.414Z" transform="translate(-17.493 -97.744)" fill="#996441"/>
              <path id="Trazado_885868" data-name="Trazado 885868" d="M91.977,380.424a14.373,14.373,0,0,1-3.482,4.389c-1.39,1.344-2.783,2.68-4.224,3.973-1.514,1.359-3.033,2.714-4.458,4.16a53.221,53.221,0,0,0-3.645,4.284c-.788.989-2.156,2.556-1.411,3.883.656,1.168,2.32,1.633,3.559,1.929a12.034,12.034,0,0,0,5.33.149,21.561,21.561,0,0,0,5.617-2.378,82.129,82.129,0,0,0,10.431-6.758c1.667-1.247,3.3-2.534,4.92-3.837a18.963,18.963,0,0,0,3.667-3.472,5.811,5.811,0,0,0,1.053-4.472,11.393,11.393,0,0,0-1.626-3.775,6.315,6.315,0,0,0-2.986-2.741,1.82,1.82,0,0,0-1.045-.128c-.186.053-.37.147-.551.218l-10.59,4.2-.291.115c-.45.178-.253.895.2.713l9.381-3.721,1.847-.733a1.408,1.408,0,0,1,.274-.1,2.767,2.767,0,0,1,1.563.739,9.322,9.322,0,0,1,2.42,3.475,5.967,5.967,0,0,1,.538,4.129,7.813,7.813,0,0,1-2.6,3.538c-1.408,1.235-2.906,2.385-4.385,3.539a96.931,96.931,0,0,1-9.728,6.793c-1.7,1.018-3.442,1.983-5.227,2.851a11.806,11.806,0,0,1-5.6,1.3,11.083,11.083,0,0,1-4.429-1.052c-.506-.258-1.155-.658-1.182-1.271a3.494,3.494,0,0,1,.9-1.974,43.79,43.79,0,0,1,3.284-4.034c1.326-1.426,2.76-2.753,4.21-4.061,1.373-1.239,2.738-2.476,4.069-3.758a36.806,36.806,0,0,0,3.7-3.851,9.4,9.4,0,0,0,1.232-2.068c.188-.44-.554-.632-.739-.2" transform="translate(-17.374 -97.616)"/>
              <path id="Trazado_885869" data-name="Trazado 885869" d="M67.258,317.384c1.022,4.811,4.218,9.251,6.391,13.692,1.79,3.577,2.684,7.4,4.218,10.978,1.534,3.33,4.6,6.291,2.429,9.745-2.94,4.687,3.835,4.564,6.391,6.661,2.94,2.467-.894,3.454-1.917,5.8-.511,1.234-.767,5.181.64,5.921,2.173-2.22,4.6-5.181,7.925-4.934a13.614,13.614,0,0,1,8.053,3.207c1.278,1.11,2.556,2.344,3.835,3.33,1.662,1.234,2.3.37,2.812-1.357a19.686,19.686,0,0,0,.127-8.635c-.767-3.454-2.3-6.044-1.406-9.745a99.289,99.289,0,0,0,1.917-10.731,230.885,230.885,0,0,0,1.407-24.916,19.257,19.257,0,0,1-.128-2.714,6.612,6.612,0,0,0,.383-2.1Z" transform="translate(-15.676 -80.98)" fill="#46638c"/>
              <path id="Trazado_885870" data-name="Trazado 885870" d="M66.773,317.356c1.162,5.338,4.638,9.8,6.877,14.718,1.192,2.617,1.982,5.38,2.982,8.066a23.855,23.855,0,0,0,1.627,3.569,30.333,30.333,0,0,1,1.782,3.272,4.966,4.966,0,0,1,.342,3.353c-.29.972-1.027,1.751-1.241,2.755a2.736,2.736,0,0,0,1.58,2.992,41.032,41.032,0,0,0,4.158,1.706,5.42,5.42,0,0,1,1.931,1.3,1.308,1.308,0,0,1,.045,1.9c-.6.742-1.389,1.316-1.98,2.068a4.573,4.573,0,0,0-.907,2.325,9.925,9.925,0,0,0,.006,2.953,2.738,2.738,0,0,0,1.124,2.043.4.4,0,0,0,.465-.058c1.678-1.72,3.394-3.891,5.826-4.622a7.978,7.978,0,0,1,3.991.111,12.744,12.744,0,0,1,3.677,1.433,21.316,21.316,0,0,1,3.463,2.707c.607.545,1.216,1.09,1.851,1.607a4.929,4.929,0,0,0,1.533.968c2.236.724,2.682-3.083,2.828-4.4a20.787,20.787,0,0,0-.63-7.787c-.367-1.323-.828-2.624-1.111-3.968a10.186,10.186,0,0,1,.016-4.34c.678-3.089,1.338-6.187,1.753-9.321.431-3.262.653-6.561.916-9.838.268-3.328.487-6.661.6-10q.083-2.468.082-4.938c0-.812.018-1.63-.064-2.439a6.193,6.193,0,0,1,0-2.224,4.649,4.649,0,0,0,.294-1.9c-.031-.215-.289-.283-.472-.258l-4.287.577-10.3,1.385-12.451,1.676-10.758,1.448-3.52.474a16.93,16.93,0,0,0-1.689.227c-.025.006-.051.007-.075.01-.486.065-.279.779.2.714l4.287-.577,10.3-1.385,12.452-1.676,10.758-1.448,3.52-.474a10.545,10.545,0,0,0,1.69-.227.494.494,0,0,1,.074-.01l-.472-.258c.1.685-.326,1.4-.406,2.075a11.186,11.186,0,0,0,.117,2.17c.121,1.608.04,3.254.009,4.865-.062,3.281-.239,6.559-.476,9.832-.235,3.234-.528,6.463-.827,9.692a82.293,82.293,0,0,1-1.535,9.477,22.367,22.367,0,0,0-.746,4.429,13.875,13.875,0,0,0,.628,3.878c.369,1.3.821,2.582,1.088,3.906a20.662,20.662,0,0,1,.376,3.8,16.045,16.045,0,0,1-.359,3.9c-.141.6-.439,2.334-1.341,2.284a3.249,3.249,0,0,1-1.594-.947c-.61-.5-1.2-1.03-1.785-1.559a22.41,22.41,0,0,0-3.365-2.653,13.439,13.439,0,0,0-3.481-1.48,11.243,11.243,0,0,0-3.822-.468c-2.493.241-4.4,2.035-6.033,3.712-.426.438-.845.883-1.272,1.32l.465-.058c-.62-.353-.748-1.3-.812-1.918a9.6,9.6,0,0,1,.094-2.621,3.756,3.756,0,0,1,.916-1.939c.558-.634,1.239-1.161,1.771-1.818a2.013,2.013,0,0,0,.5-1.924,3.783,3.783,0,0,0-1.632-1.816,25.036,25.036,0,0,0-4.067-1.706c-1.064-.435-2.49-1.089-2.413-2.4a7.221,7.221,0,0,1,1.041-2.419,4.986,4.986,0,0,0,.283-3.217c-.545-2.341-2.249-4.24-3.175-6.431-1.083-2.56-1.835-5.238-2.841-7.825a67.55,67.55,0,0,0-4.082-8.108,31.618,31.618,0,0,1-3.555-8.425c-.1-.466-.841-.269-.739.2" transform="translate(-15.561 -80.853)"/>
              <path id="Trazado_885871" data-name="Trazado 885871" d="M107.569,377.151c.015-2.516-2.889-3.176-4.882-3.813a16.863,16.863,0,0,0-5.568-.585c-.851-.03-1.1-.739-.771-1.414.383-.93,1.752-1.328,2.735-1.665,2.918-1.179,6.033-.021,9,.076l-.373.283a2.23,2.23,0,0,0-.281-1.934c-.956-1.123-2.7-1.37-4.131-1.772a19.29,19.29,0,0,0-11.7.708c4.725-2.7,9.221-2.479,14.268-.76,2,.6,3.236,2.163,2.517,4.215h-.3c-3.085-.072-5.856-1.255-8.761-.112-.72.253-1.966.6-2.259,1.237a1.169,1.169,0,0,0-.088.355,1.441,1.441,0,0,0,.6.046c3.159-.228,10.518,1,10,5.136" transform="translate(-21.348 -94.861)"/>
              <path id="Trazado_885872" data-name="Trazado 885872" d="M131.425,396.342c1.406,2.22,4.857,3.577,7.286,4.687,3.451,1.85,6.9,3.824,10.225,5.921,2.812,1.85,5.624,3.577,8.948,3.7,2.684,0,7.158-.864,9.2-2.59,3.835-3.207-7.286-8.018-9.076-9.868-2.684-2.468-5.5-4.811-8.053-7.4a35.516,35.516,0,0,0-4.6-4.071c-1.917-1.234-4.09-1.6-6.135-2.468Z" transform="translate(-30.632 -99.866)" fill="#754a2d"/>
              <path id="Trazado_885873" data-name="Trazado 885873" d="M130.975,396.4c1.444,2.218,4.179,3.364,6.546,4.424,1.528.685,2.976,1.528,4.431,2.348q2.42,1.362,4.79,2.8c2.739,1.669,5.378,3.7,8.554,4.544a15.289,15.289,0,0,0,8.014-.45,11.721,11.721,0,0,0,3.417-1.488,2.992,2.992,0,0,0,1.371-1.688c.32-1.425-.927-2.709-1.922-3.584A34.686,34.686,0,0,0,161.414,400c-.717-.442-1.439-.877-2.14-1.342a14.4,14.4,0,0,1-1.707-1.4c-2.628-2.386-5.332-4.69-7.81-7.224a35.416,35.416,0,0,0-3.767-3.34,14.072,14.072,0,0,0-4.294-2.04c-.807-.266-1.617-.523-2.4-.849a.4.4,0,0,0-.524.133l-6.825,10.581-.972,1.508c-.262.406.4.778.662.374l6.825-10.581.972-1.508-.525.133c1.438.6,2.959.979,4.4,1.573a14.514,14.514,0,0,1,3.994,2.723c1.24,1.092,2.354,2.3,3.545,3.44,1.208,1.157,2.456,2.274,3.707,3.387a39.065,39.065,0,0,0,4.786,4.017c1.508.962,3.06,1.859,4.526,2.88,1.221.85,2.772,1.9,3.368,3.3.666,1.56-1.219,2.493-2.438,3.01a17.679,17.679,0,0,1-3.779,1.068,14.823,14.823,0,0,1-3.573.3c-3.172-.218-5.864-1.983-8.429-3.633-2.92-1.878-5.957-3.6-9.012-5.265-2.364-1.289-5.095-2.124-7.159-3.878a6.222,6.222,0,0,1-1.2-1.332c-.262-.4-.926-.031-.662.374" transform="translate(-30.513 -99.739)"/>
              <path id="Trazado_885874" data-name="Trazado 885874" d="M133.431,393.844c2.557,3.33,7.542,5.3,11.248,7.277,1.917,1.11,3.835,2.1,5.752,3.208,1.789,1.233,3.068,2.343,5.113,2.467,2.556.37,7.03-.124,9.2-1.85,3.195-2.714-2.3-7.031-4.346-8.758-4.346-4.071-7.925-8.881-13.677-10.979-2.812-.987-6.263-1.973-9.2-1.357-3.451.616-4.346,2.714-6.263,5.181Z" transform="translate(-30.593 -99.712)" fill="#996441"/>
              <path id="Trazado_885875" data-name="Trazado 885875" d="M132.983,393.9a20.09,20.09,0,0,0,6.757,5.059c1.293.679,2.612,1.31,3.911,1.978,1.576.81,3.11,1.708,4.661,2.564a24.833,24.833,0,0,1,2.358,1.4,21.065,21.065,0,0,0,1.974,1.3,8.627,8.627,0,0,0,3.823.93,14.473,14.473,0,0,0,7.6-1.494,3.455,3.455,0,0,0,1.872-2.239,3.98,3.98,0,0,0-.644-2.718,19.167,19.167,0,0,0-4.442-4.637c-1.048-.877-1.986-1.887-2.94-2.858-1.05-1.069-2.094-2.144-3.186-3.172a24.411,24.411,0,0,0-7.218-4.979,27.756,27.756,0,0,0-4.605-1.44,14.2,14.2,0,0,0-4.924-.343,7.858,7.858,0,0,0-3.717,1.376,11.349,11.349,0,0,0-2.3,2.522c-.383.524-.761,1.052-1.158,1.566a.363.363,0,0,0,0,.374q1.086,2.406,2.173,4.811c.2.435.857.059.661-.374l-2.173-4.811v.374c1.384-1.79,2.536-3.928,4.854-4.712,2.985-1.009,6.227-.244,9.117.7a21.375,21.375,0,0,1,7.386,4.239c2.111,1.815,3.982,3.866,5.953,5.816,1.491,1.475,3.2,2.732,4.611,4.286,1.12,1.234,2.691,3.328,1.242,4.875a6.684,6.684,0,0,1-3.105,1.556,16.382,16.382,0,0,1-3.763.553,10.99,10.99,0,0,1-3.648-.358,19.441,19.441,0,0,1-3.776-2.259c-2.726-1.615-5.547-3.114-8.387-4.533a30.239,30.239,0,0,1-6.994-4.318,11.331,11.331,0,0,1-1.318-1.407c-.292-.376-.959-.007-.661.374" transform="translate(-30.476 -99.583)"/>
              <path id="Trazado_885876" data-name="Trazado 885876" d="M107.07,298.114c.959,4.626,2.493,8.881,3.451,13.507.959,5.921,3.451,11.657,4.985,17.392a27.147,27.147,0,0,1,1.342,6.846c0,2.22-1.342,3.7.575,5.551.575.74,2.493.74,2.493,2.035.192,1.3-1.534,1.3-1.917,2.59-.767,2.22,2.3,2.775,2.876,4.811.383,1.665-1.15,7.586,1.534,8.141,1.15.185,2.493-2.59,3.259-3.331a10.742,10.742,0,0,1,4.6-3.145c6.135-2.22,11.887.185,17.639,2.035.767-2.775.192-5.366-2.493-6.846,1.726-2.035,2.109-3.33.575-5.736-1.342-2.035-1.917-3.145-1.342-5.736,1.15-5.551,3.259-10.917,4.218-16.467,1.917-10.917,3.643-21.833,4.6-32.935.575-4.811,1.917-9.621,2.876-14.432.959-4.441.575-9.066,1.534-13.507a62.51,62.51,0,0,0,1.342-12.027c0-1.48.767-4.441.192-5.736-1.15-2.035-4.985-1.48-6.9-1.48-9.778-.185-19.748.555-29.527.925-8.053.185-22.049-1.48-27.226,6.106Z" transform="translate(-22.319 -62.265)" fill="#46638c"/>
              <path id="Trazado_885877" data-name="Trazado 885877" d="M106.585,298.082c.829,3.957,2.113,7.8,3.054,11.733.47,1.965.777,3.957,1.293,5.913s1.134,3.882,1.765,5.8a106.344,106.344,0,0,1,3.279,11.116,15.446,15.446,0,0,1,.372,2.884,10.765,10.765,0,0,1-.3,2.287,3.739,3.739,0,0,0,.912,3.648,3.653,3.653,0,0,0,1.324.815c.541.232,1.107.458,1.137,1.1.028.622-.552.882-1,1.221a2.476,2.476,0,0,0-.972,1.408c-.6,2.448,2.879,3.019,2.983,5.216.1,2.083-.53,4.262.119,6.306a2.215,2.215,0,0,0,1.738,1.691c1.085.1,1.89-1.186,2.409-1.92a13.573,13.573,0,0,1,2.887-3.154,11.935,11.935,0,0,1,5.259-2.1c4.078-.684,8.141.513,11.966,1.768.959.315,1.917.637,2.877.947a.389.389,0,0,0,.472-.258,7.189,7.189,0,0,0,.023-4.179,5.719,5.719,0,0,0-2.692-3.085l.078.582a6.505,6.505,0,0,0,1.571-2.68,4.146,4.146,0,0,0-.505-2.761,26.52,26.52,0,0,1-1.673-2.971,5.814,5.814,0,0,1-.062-3.223c1.176-5.626,3.266-11.032,4.259-16.7,1.024-5.839,1.994-11.688,2.818-17.557q.61-4.342,1.105-8.7c.335-2.987.505-6,1-8.969.959-5.711,2.756-11.276,3.178-17.065a73.147,73.147,0,0,1,.93-8.684,70.741,70.741,0,0,0,1.162-8.343c.1-1.315.053-2.638.152-3.951.076-1.01.265-2.009.345-3.019a4.269,4.269,0,0,0-.295-2.515,3.3,3.3,0,0,0-1.9-1.31c-1.7-.514-3.516-.241-5.263-.243-3.062,0-6.119-.025-9.181.057-6.145.166-12.28.532-18.42.791-3.964.167-7.926-.027-11.892.067a34.457,34.457,0,0,0-11.551,1.8,13.824,13.824,0,0,0-4.485,2.693,10.391,10.391,0,0,0-.859.9c-.231.272-.687.694-.742,1.047a.73.73,0,0,0,.029.248c.15.893.392,1.782.587,2.667q.615,2.8,1.232,5.6,1.785,8.122,3.572,16.242l3.665,16.663,2.133,9.7c.034.155.068.31.1.466.1.466.842.269.739-.2l-1.465-6.662L102.5,275.948q-1.844-8.383-3.687-16.766l-2.485-11.3q-.128-.578-.255-1.157a1.181,1.181,0,0,1-.054-.244c0-.01-.01-.024-.008-.034-.106.392.295-.175.334-.226.165-.212.341-.415.525-.612,2.479-2.662,6.2-3.78,9.758-4.323a72.215,72.215,0,0,1,11.786-.488c4.878.062,9.735-.218,14.605-.451,5.972-.285,11.95-.544,17.931-.485,1.037.01,2.062,0,3.1-.032a13.315,13.315,0,0,1,2.715.11,2.854,2.854,0,0,1,2.2,1.254,5.645,5.645,0,0,1,.046,2.764c-.107.921-.278,1.842-.293,2.77-.023,1.46-.074,2.914-.2,4.37-.255,2.849-.8,5.636-1.3,8.449-.482,2.719-.541,5.482-.762,8.226a60.869,60.869,0,0,1-1.486,8.514c-.642,2.852-1.306,5.7-1.751,8.59-.439,2.846-.6,5.735-.928,8.6-.654,5.782-1.49,11.543-2.423,17.289q-.694,4.273-1.446,8.537a78.642,78.642,0,0,1-2.015,8.246c-.778,2.692-1.587,5.381-2.173,8.119a8.214,8.214,0,0,0-.229,3.111,7.312,7.312,0,0,0,1.131,2.613,6.007,6.007,0,0,1,1.316,3.091,4.785,4.785,0,0,1-1.423,2.827.368.368,0,0,0,.077.581,4.919,4.919,0,0,1,2.387,2.79,6.564,6.564,0,0,1-.071,3.638l.472-.258c-3.684-1.189-7.37-2.61-11.281-2.892a13.973,13.973,0,0,0-10.178,2.961,16.69,16.69,0,0,0-2.525,2.986c-.514.708-1.42,2-2.269.926a4.813,4.813,0,0,1-.594-2.966c.008-1.079.126-2.154.156-3.232a3.351,3.351,0,0,0-.818-2.516c-.67-.768-1.979-1.417-2.209-2.459-.318-1.438,1.252-1.68,1.834-2.665a1.75,1.75,0,0,0-1.048-2.432,4.533,4.533,0,0,1-1.384-.751,2.7,2.7,0,0,1-.919-2.021,14.9,14.9,0,0,1,.342-2.063,8.879,8.879,0,0,0,.057-2.308,30.19,30.19,0,0,0-1.143-5.29c-.526-1.86-1.071-3.709-1.673-5.548a92.9,92.9,0,0,1-3.295-11.411c-.748-3.934-1.967-7.745-2.957-11.624q-.365-1.428-.669-2.868c-.1-.466-.837-.269-.739.2" transform="translate(-22.203 -62.135)"/>
              <g id="Grupo_1099961" data-name="Grupo 1099961" transform="translate(99.898 271.004)" opacity="0.5" style="mix-blend-mode: multiply;isolation: isolate">
                <g id="Grupo_1099960" data-name="Grupo 1099960">
                  <g id="Grupo_1099959" data-name="Grupo 1099959" clip-path="url(#clip-path-4)">
                    <path id="Trazado_885878" data-name="Trazado 885878" d="M156.333,387.448c1.534-2.59-.959-4.811-2.492-6.846,1.15-3.145,1.726-3.145.959-4.626a18.945,18.945,0,0,1-1.917-5.181c-.575-2.59-1.726-2.59-4.218-3.516a21.546,21.546,0,0,0-6.9-1.11c-3.068.185-11.312.925-11.5,5.366,0,2.405,2.493,1.11,4.41.74a36.916,36.916,0,0,1,6.519-.74c1.726,0,4.985-1.11,6.711-.185,2.492,1.3,2.3,2.96,0,3.33-4.793.925-9.587-.925-13.038,3.33-.959.925-2.876,3.886.192,4.071,1.534.185,3.835-2.405,5.368-2.96,1.342-.37,4.026-1.11,5.177,0,1.534,1.665-.767,3.886-.959,5.551,3.068-.925,8.436,1.11,11.12,2.59Z" transform="translate(-130.258 -366.17)" fill="#878fad"/>
                  </g>
                </g>
              </g>
              <path id="Trazado_885879" data-name="Trazado 885879" d="M151.18,380.4c-3.806-1.015-8.051-1.273-11.618.474-1.367.777-1.988,2.277-3.465,3.012a1.608,1.608,0,0,1-2.094-.52c-2.43-3.286,4.41-6.975,7.21-7.232,2.447-.52,5.093.29,7.453.211a1.216,1.216,0,0,0,.907-2.041,3.271,3.271,0,0,0-1.433-.765,24.273,24.273,0,0,0-9.109-.027c-2.22.189-6.072.932-7.079,1.841,3.338-2.775,12.145-3.626,16.413-2.522.936.266,2.125.875,2.273,1.973a1.98,1.98,0,0,1-.84,1.95c-1.521.762-3.355.132-4.839.021a12.014,12.014,0,0,0-7,1.229c-1.544.944-4.771,2.9-3.346,4.912a.8.8,0,0,0,1.144.306c1.32-.676,2.074-2.291,3.428-2.993,3.7-1.983,8.289-1.351,12,.171" transform="translate(-30.755 -96.775)"/>
              <path id="Trazado_885880" data-name="Trazado 885880" d="M157.092,238.074c.944.488,5.01.645,6.089.743a37,37,0,0,0,3.812.1,22.833,22.833,0,0,0,6.138-.52c.505-.164.54-.457.641-1.01.067-.488.135-.976.236-1.5a12.439,12.439,0,0,0,.1-3.71,10.161,10.161,0,0,0-.3-1.464c-.1-.326-.034-.229-.3-.261a4.73,4.73,0,0,0-.978.1,36.91,36.91,0,0,1-5.7.423c-2.361-.065-4.857-.195-7.15-.033Z" transform="translate(-36.614 -59.892)" fill="#683929"/>
              <path id="Trazado_885881" data-name="Trazado 885881" d="M157.092,237.948a30.33,30.33,0,0,0,6.069.5c2.483-.1,7.4.21,9.754-.5.242-.064.3-.107.353-.215a14.325,14.325,0,0,0,.179-7.006l-.009-.027-.048-.164c.015.063.115.135.185.16.1.026.074.013.068.016a2.4,2.4,0,0,0-.505,0,38.516,38.516,0,0,1-6.3.511c-2.4-.064-4.78-.2-7.133-.033l.334-.247c-.656,2-2.112,5.048-2.943,7.011m0,0c.646-2.124,1.39-5.21,2.219-7.254l.084-.23a72.413,72.413,0,0,1,7.457.015,59.829,59.829,0,0,0,6.72-.517.557.557,0,0,1,.456.166,11.926,11.926,0,0,1,.252,6.367c-.158.631-.044,1.53-.693,1.971-2.341.893-4.944.633-7.4.7a57.714,57.714,0,0,1-6.115-.562,11.572,11.572,0,0,1-2.984-.651" transform="translate(-36.614 -59.766)"/>
              <path id="Trazado_885882" data-name="Trazado 885882" d="M167.407,241.447a71.352,71.352,0,0,0,.709-9.275,10.358,10.358,0,0,1,1.753-.1,14.566,14.566,0,0,1,1.686,0c.337.033,1.147-.1,1.45.1.3.162.1.975.1,1.334,0,2.961-.675,5.923-.911,8.885v.228" transform="translate(-39.018 -60.309)" fill="#46638c"/>
              <path id="Trazado_885883" data-name="Trazado 885883" d="M167.662,241.417a72.707,72.707,0,0,0,.722-9.373l-.281.357a10.8,10.8,0,0,1,1.832-.095c.63-.027,1.259.03,1.887.01a2.542,2.542,0,0,1,.707,0c.184.052.148.121.141.323-.018.513-.059,1.026-.078,1.54-.053,1.4-.233,2.789-.423,4.176a30.843,30.843,0,0,0-.472,4.137.384.384,0,0,0,.767,0,35.8,35.8,0,0,1,.544-4.67c.11-.827.212-1.656.281-2.488.059-.721.04-1.448.1-2.167.033-.4.158-.917-.114-1.267-.287-.369-.852-.341-1.278-.329-.688.019-1.374-.032-2.062,0a11.613,11.613,0,0,0-2.036.121.378.378,0,0,0-.281.357,71.146,71.146,0,0,1-.695,9.177c-.087.466.653.665.739.2" transform="translate(-38.904 -60.181)"/>
              <path id="Trazado_885884" data-name="Trazado 885884" d="M61.427,124.42c-2.045.74-4.09,2.714-5.88,3.947a136.851,136.851,0,0,0-11.631,9c-7.542,6.291-15.083,13.322-19.813,21.709a47.556,47.556,0,0,0-4.985,10.609c-1.15,3.7,0,7.154,1.917,10.361,1.79,2.96,3.2,5.181,6.9,5.8,2.812.494,6.135.617,8.181-1.48,2.556-2.467,6.007-7.155,6.391-10.608Z" transform="translate(-4.349 -32.336)" fill="#d35050"/>
              <path id="Trazado_885885" data-name="Trazado 885885" d="M61.315,124.42c-2.065.847-3.633,2.429-5.385,3.749a124.408,124.408,0,0,0-10.284,8.161c-8.368,6.919-16.7,14.348-21.854,23.862-2.057,3.7-4.3,7.534-4.828,11.742-.267,3.155,1.153,6.2,2.851,8.847,1.089,1.778,2.4,3.54,4.461,4.274,2.868.86,6.7,1.351,9.159-.671,2.949-2.916,5.882-6.625,6.587-10.714.039,0,9.426-24.491,9.458-24.5,2.691-6.946,7.074-17.748,9.834-24.75m0,0c-2.641,7.021-6.433,17.676-9.084,24.591l-9.474,24.878a15.493,15.493,0,0,1-2.567,5.97c-1.9,2.57-3.9,5.94-7.41,6.511-3.334.408-7.267.006-9.642-2.531-2.8-3.373-5.217-7.494-4.939-11.959.531-4.348,2.816-8.257,4.921-12.044,4.168-7.654,10.4-14.067,17-19.818A137.907,137.907,0,0,1,55.776,127.97c1.785-1.24,3.439-2.781,5.54-3.55" transform="translate(-4.237 -32.336)"/>
              <path id="Trazado_885886" data-name="Trazado 885886" d="M41.582,193.875c0,4.854-6.439,8.789-14.382,8.789s-14.383-3.934-14.383-8.789,6.44-8.788,14.383-8.788,14.382,3.934,14.382,8.788" transform="translate(-2.987 -48.103)" fill="#e87c7c"/>
              <path id="Trazado_885887" data-name="Trazado 885887" d="M41.479,193.753c-.874,9.789-16.388,10.882-23.588,7.165-7.349-3.51-7.357-10.816,0-14.33,7.2-3.718,22.7-2.62,23.588,7.165m0,0c-.038-3.124-2.809-5.329-5.526-6.506a21.362,21.362,0,0,0-17.712,0c-6.794,3.253-6.8,9.756,0,13.012a21.347,21.347,0,0,0,17.711,0c2.709-1.189,5.491-3.379,5.527-6.506" transform="translate(-2.885 -47.982)"/>
              <path id="Trazado_885888" data-name="Trazado 885888" d="M79.605,110.374c-2.556,1.727-5.368,2.96-7.925,4.687-6.392,3.948-9.97,8.388-14.828,14.062-7.925,9.375-13.038,26.4-15.082,38.239-2.3,14.556-1.79,24.67,11.248,34.045a55.642,55.642,0,0,0,22.5,8.881c6.135.987,14.06,1.974,20.2,0,6.391-2.22,12.526-6.414,18.151-10.115,1.789-1.233,1.278-1.233,3.323-1.233,1.278,0,2.812.74,4.09.987a41.468,41.468,0,0,0,9.459,1.234c5.368,0,11.759,1.48,16.361-1.974,4.857-3.454,4.09-10.361,2.3-15.3-1.022-2.713-.512-4.441,0-7.647a67.626,67.626,0,0,0,.255-10.115,82.463,82.463,0,0,0-2.3-20.969c-1.534-5.921-2.3-12.088-5.112-17.516-3.068-6.167-7.925-9.374-14.061-12.335-4.6-2.22-8.692-3.208-13.549-4.441-3.579-.987-6.647-2.96-9.97-3.948Z" transform="translate(-9.489 -27.788)" fill="#d35050"/>
              <path id="Trazado_885889" data-name="Trazado 885889" d="M79.488,110.3c-2.855,1.917-6,3.386-8.818,5.364a43.766,43.766,0,0,0-7.76,6.648c-2.316,2.484-4.489,5.123-6.638,7.736a49.623,49.623,0,0,0-5.239,8.615,110.883,110.883,0,0,0-9.007,28.717c-1,6.534-1.82,13.381.165,19.8,3.094,9.742,12.591,15.979,21.969,19.624a53.311,53.311,0,0,0,9.909,2.834c6.741,1.044,13.826,2.191,20.522.48,6.572-2.037,12.342-6.018,18.034-9.727a22.36,22.36,0,0,1,2.816-1.8c2.047-.443,3.986.48,5.9.927a48.789,48.789,0,0,0,11.567,1.271c5.039.273,10.689,1,14.614-2.593,2.506-2.274,3.014-5.845,2.644-9.027-.183-3.379-2.366-6.483-1.761-9.925,1.043-5,.788-9.926.734-15a79.064,79.064,0,0,0-2.476-19.857c-1.591-6.472-2.486-13.26-6.222-18.975-2.73-4.258-7.13-7.2-11.708-9.424-4.62-2.369-9.6-3.678-14.648-5.008-3.387-1.018-6.327-2.912-9.606-3.929.465-.076-25.087,3.3-24.989,3.255m0,0c.094.007,25.033-3.7,25.116-3.653,3.377.992,6.359,2.84,9.654,3.764,5.018,1.233,10.218,2.483,14.826,4.91,4.685,2.286,9.188,5.3,12,9.689,3.794,5.79,4.726,12.689,6.319,19.2a79.784,79.784,0,0,1,2.5,20.021c.06,4.994.3,10.159-.739,15.1-.558,3.385,1.6,6.4,1.762,9.761.4,3.377-.178,7.2-2.878,9.642-4.032,3.759-10.135,3.1-15.182,2.8a49.344,49.344,0,0,1-11.689-1.288c-1.861-.414-3.618-1.309-5.543-.933-.9.406-1.689,1.2-2.575,1.7-5.776,3.761-11.531,7.745-18.259,9.829-6.874,1.755-14,.6-20.866-.463a54.072,54.072,0,0,1-10.06-2.875c-9.586-3.718-19.261-10.128-22.416-20.1-2.03-6.561-1.2-13.489-.189-20.13,2.526-13.133,6.25-26.629,14.564-37.539,2.218-2.607,4.425-5.188,6.806-7.654a44.166,44.166,0,0,1,7.928-6.552c2.853-1.929,6.03-3.35,8.921-5.218" transform="translate(-9.372 -27.718)"/>
              <g id="Grupo_1099964" data-name="Grupo 1099964" transform="translate(111.519 108.921)" opacity="0.5" style="mix-blend-mode: multiply;isolation: isolate">
                <g id="Grupo_1099963" data-name="Grupo 1099963">
                  <g id="Grupo_1099962" data-name="Grupo 1099962" clip-path="url(#clip-path-5)">
                    <path id="Trazado_885890" data-name="Trazado 885890" d="M150.278,148.1c-.192-1.3-1.342-1.11-1.917-.185-1.726,2.405,2.109,7.4,2.876,9.621-2.684,0-4.41-3.886-4.985-6.106-3.451,3.145,4.793,8.881,5.177,11.472.192,2.035-1.342,3.886-.959,5.921.383,2.405,3.068,3.886,4.026,6.106.767,1.665.767,4.071,2.109,5.551a6.208,6.208,0,0,0,5.368,1.48c4.793-1.48,1.726-9.436.575-12.4-2.109-5.921-3.835-12.582-7.286-17.948Z" transform="translate(-145.41 -147.17)" fill="#878fad"/>
                  </g>
                </g>
              </g>
              <path id="Trazado_885891" data-name="Trazado 885891" d="M143.563,172.647c-9.714,2.22-23.519,1.48-27.1-9.128-4.346-12.582,4.857-28.124,9.715-38.979a3.968,3.968,0,0,1,1.278-2.22c-2.045-.246-5.368,0-6.9.987-2.045,1.727-3.068,6.168-4.345,8.388a61.69,61.69,0,0,0-3.579,8.634c-1.278,3.208-1.789,3.7-5.624,3.208-5.88-.74-11.248-1.974-17.128-2.22-5.368-.247-10.737-.74-16.105-.987-.255-3.7,2.045-7.894,3.068-11.348,1.278-3.947,2.812-8.141,5.368-11.348-3.068-1.48-5.368-.987-7.158,1.727a59.507,59.507,0,0,0-5.113,8.635,202.215,202.215,0,0,0-7.413,19.489c-3.324,11.1-7.925,22.2-8.436,33.8-.256,6.908,5.368,8.881,10.225,12.829,2.3,1.727,4.857,4.193,7.669,5.427,3.579,1.727,7.925,2.22,11.5,2.96,6.391,1.234,13.038,1.48,19.428,2.714,5.88,1.233,9.97-.987,15.595-2.714,3.835-.987,7.669-.74,11.5-2.22,4.09-1.48,10.992-3.454,13.548-6.907Z" transform="translate(-12.605 -30.359)" fill="#f9f9f7"/>
              <path id="Trazado_885892" data-name="Trazado 885892" d="M143.45,172.514c-18.924,4.107-31.938-3.322-27.79-23.253,1.912-8.807,6.364-16.848,10.054-25l-.02.057a5.269,5.269,0,0,1,.488-1.3,4.981,4.981,0,0,1,.89-1.093l.224.629a12.179,12.179,0,0,0-6.642.927c-1.565,1.462-2.407,4.14-3.286,6.247A85.983,85.983,0,0,0,113.06,139.8c-1.091,3.154-1.96,4.608-5.683,4.033-6.244-.752-12.4-2.174-18.675-2.331-5.15-.266-10.274-.724-15.405-.952a15.505,15.505,0,0,1,1.12-6.422c1.527-3.83,2.561-7.727,4.22-11.5a24.865,24.865,0,0,1,3.157-5.355l.132.557c-2.6-1.36-5.157-.937-6.692,1.639-1.422,2.213-3.095,4.572-4.269,6.89A188.8,188.8,0,0,0,61.5,151.575c-3,9.4-6.449,18.754-7.076,28.62a10.91,10.91,0,0,0,.258,3.888c.785,3.057,3.443,5.059,5.993,6.847,3.052,2.017,5.819,4.523,8.759,6.647,2.979,2.112,6.6,3.043,10.194,3.7,8.167,1.761,16.543,2.17,24.759,3.673,4.652.611,8.994-1.388,13.329-2.769,3.587-1.109,7.4-.867,10.957-1.946a90.95,90.95,0,0,0,10.339-3.879,14.692,14.692,0,0,0,4.261-3.123l.179-20.723m0,0c-.068.086.269,20.764.145,20.823-3.463,4.179-9.81,5.549-14.732,7.486-3.546,1.143-7.4.995-10.913,2.08l-5.27,1.75a19.725,19.725,0,0,1-11.153.568c-5.469-.947-11.072-1.274-16.566-2.2-5.461-1.092-11.331-1.576-15.974-4.846-1.535-1.061-2.927-2.268-4.355-3.395-3.754-3.237-9.283-5.426-10.692-10.512a11.723,11.723,0,0,1-.283-4.121c.624-9.917,4.109-19.4,7.108-28.794a189.194,189.194,0,0,1,9.512-25.327c.844-1.622,1.815-3.167,2.809-4.688l1.5-2.269a5.262,5.262,0,0,1,4.9-2.741,9.163,9.163,0,0,1,3.2,1.037c-2.694,3.267-4.174,7.288-5.475,11.238-1.1,3.826-3.334,7.545-3.167,11.566l-.364-.345c5.037.232,10.05.677,15.064.936,6.33.161,12.489,1.583,18.722,2.336,3.481.529,3.841-.787,4.869-3.535a85.718,85.718,0,0,1,4.322-10.1c.984-2.28,1.622-4.769,3.551-6.578a8.789,8.789,0,0,1,3.559-1.041,17.461,17.461,0,0,1,4.41.068,4.691,4.691,0,0,0-1.756,2.647c-4.792,10.752-11.337,21.587-10.8,33.633.73,14.683,15.529,16.957,27.83,14.327" transform="translate(-12.492 -30.226)"/>
              <g id="Grupo_1099967" data-name="Grupo 1099967" transform="translate(51.582 178.805)" opacity="0.5" style="mix-blend-mode: multiply;isolation: isolate">
                <g id="Grupo_1099966" data-name="Grupo 1099966">
                  <g id="Grupo_1099965" data-name="Grupo 1099965" clip-path="url(#clip-path-6)">
                    <path id="Trazado_885893" data-name="Trazado 885893" d="M130.908,243.243l-63.65,57.864,2.767,5.076S79,307.4,90.667,308.564a40.287,40.287,0,0,1,2.283,5.8c.767,2.405-1.15,3.331-.767,5.551.192,1.3,1.15,2.035,2.3,2.96.575.555,3.068,1.85,3.259,2.59.767,2.035-3.451,3.33-4.985,3.886-2.3.925-4.6,2.775-.959,3.886,1.726.555,3.835.185,5.56.37,1.534.185,5.177,1.3,4.793,3.33-.383,1.665-3.451.37-4.985.555-1.342,0-5.944.37-5.56,2.035.192,1.48,4.218,1.11,5.368,1.48,1.917.37,4.41,1.3,5.177,3.145.959,2.22-.959,4.256-3.259,4.441l3.643,2.035c.959,1.665,3.451,4.811,4.985,2.22.959-1.665,1.023-7.4.639-9.251-.959-4.256-2.556-5.3-1.406-9.745.767-2.405,2.058-3.956,1.292-6.361-.575-2.035-.668-4.8-1.243-6.837-.383-2.035-1.7-2.561-2.084-4.6a43.332,43.332,0,0,0-1.787-6.408c13.987,1.073,28.711,1.562,35.918-.22l1.647-67.839Z" transform="translate(-67.258 -241.594)" fill="#878fad"/>
                  </g>
                </g>
              </g>
              <path id="Trazado_885894" data-name="Trazado 885894" d="M39.857,227.261s-.607,51.293,1.438,66.095c0,0,32.1,8.882,84.56,6.908l2.486-74.01Z" transform="translate(-9.27 -58.803)" fill="#f9f9f7"/>
              <path id="Trazado_885895" data-name="Trazado 885895" d="M39.78,227.13q0,16.535.338,33.064c.329,10.988.229,22.057,1.48,32.982l-.275-.307A201.194,201.194,0,0,0,62.148,296.8a342.7,342.7,0,0,0,42.357,3.178c6.951.142,14.319-.016,21.257-.218-.986,2.154,2.4-74.083,2.118-73.652l.388.382c-25.634.434-63.151.553-88.489.637m0,0c25.121-.619,63.025-1.1,88.479-1.377l.4-.005-.013.387-2.486,74.01-.012.349c-3.668.081-7.336.215-11,.259-10.561.1-21.413-.2-31.932-.958-14.162-1.133-28.3-2.8-42.1-6.215l-.245-.062-.03-.244c-.671-5.509-.877-11.021-1.087-16.533-.556-16.532-.249-33.078.03-49.611" transform="translate(-9.192 -58.671)"/>
              <path id="Trazado_885896" data-name="Trazado 885896" d="M146.33,151.754c.264,2.191-.021,4.612,1.605,6.342a10.07,10.07,0,0,0,5.808,3.4,7.885,7.885,0,0,1-7.358-4.507c-.654-1.7-.282-3.527-.055-5.238" transform="translate(-34.033 -39.44)"/>
              <g id="Grupo_1099970" data-name="Grupo 1099970" transform="translate(30.492 164.622)" opacity="0.5" style="mix-blend-mode: multiply;isolation: isolate">
                <g id="Grupo_1099969" data-name="Grupo 1099969">
                  <g id="Grupo_1099968" data-name="Grupo 1099968" clip-path="url(#clip-path-7)">
                    <path id="Trazado_885897" data-name="Trazado 885897" d="M39.758,241.3c0,3.208.255,6.415.255,9.621h-.255c.767,4.441,12.782,8.388,17.128,10.361,7.414,3.7,14.316,6.415,22.752,5.921a55.548,55.548,0,0,0,21.729-5.674c3.324-1.974,4.091-3.454,7.67-2.96,3.067.493,6.646,1.233,9.714.987,5.88-.74,10.225-6.167,11.759-11.348,1.023-2.96.512-4.934,2.812-6.908,2.3-1.727,5.624-2.467,7.925-4.441,2.045-1.727,12.015-11.1,8.181-13.815-4.346-3.208-16.617,7.154-19.173,10.114a49.37,49.37,0,0,1-16.872,13.569c-3.068,1.48-5.624,2.713-8.692.987-3.068-1.48-4.346-3.207-7.925-3.454-7.669-.74-15.339.987-23.263.987-7.158,0-15.338-3.208-22.241-5.181-2.3-.74-8.948-1.974-10.482-3.454Z" transform="translate(-39.758 -222.431)" fill="#878fad"/>
                  </g>
                </g>
              </g>
              <path id="Trazado_885898" data-name="Trazado 885898" d="M150.925,140.42c.639,3.7,2.94,7.771,4.857,10.978,1.407,2.468,2.557,5.058,3.707,7.525s2.812,5.181,3.323,7.771a37.322,37.322,0,0,1,10.992,1.85c3.579.987,7.414,1.48,10.865,2.59,1.662.616,2.812,1.727,4.09.124,1.407-1.6,2.173-4.071,2.812-6.044.512-1.974.512-3.577-1.278-4.934-1.534-1.11-3.962-1.48-4.985-3.207-1.917-3.33,1.662-7.155-2.045-10.115-1.662-1.233-3.579-1.233-5.113-2.713a23.077,23.077,0,0,1-3.451-4.934c-3.323-6.167-5.752-11.965-11.5-16.529-2.556-1.974-6.263-4.194-9.587-4.194" transform="translate(-35.177 -30.82)" fill="#d35050"/>
              <path id="Trazado_885899" data-name="Trazado 885899" d="M150.925,140.42c.985,4.765,3.987,8.734,6.313,12.942,1.167,2.13,2.071,4.383,3.141,6.522a28.858,28.858,0,0,1,2.809,6.74l-.39-.3c4.29-.1,8.416,1.1,12.39,2.2,3.029.74,6.162,1.215,9.166,2.13,1.057.269,1.99.957,2.837,1.058a1.267,1.267,0,0,0,1.071-.457,11.358,11.358,0,0,0,2.157-3.83c1.052-2.76,2.154-5.893-1.337-7.418-1.357-.676-3.115-1.228-4.013-2.605-2.485-4.369,2.729-8.9-4.446-11.319-3.187-.928-4.825-4.162-6.334-6.728l-2.848-5.4a38.674,38.674,0,0,0-7.078-9.789c-2.948-2.692-6.563-5.3-10.755-5.577,4.245.091,8.034,2.567,11.16,5.162,3.213,2.7,5.415,6.3,7.353,9.862,1.7,3.092,3.788,7.81,6.25,10.321,1.444,1.49,3.81,1.519,5.384,2.967a4.651,4.651,0,0,1,1.585,2.819c.4,2.468-1.017,5.044.377,7.284,1.5,2.1,4.957,2,6.143,4.529.745,1.557.279,3.207-.216,4.692a14.621,14.621,0,0,1-2.825,5.534c-.906,1.041-2.246.71-3.3.148-3.334-1.429-7-1.751-10.52-2.67-3.977-1.067-8.021-2.29-12.174-2.172l-.327.01-.064-.31a28.392,28.392,0,0,0-2.747-6.558l-3.09-6.54c-2.116-4.3-4.931-8.45-5.674-13.246" transform="translate(-35.177 -30.82)"/>
              <path id="Trazado_885900" data-name="Trazado 885900" d="M163.555,186.849c-1.023-.617-.926-2.849-.488-4.145.662-1.955,4.163-3.969,5.953-2.859,3.621-6.5,7.286-2.1,10.354-1.85a25.882,25.882,0,0,1,10.481,3.207c4.218,1.974,6.392,5.181,6.263,9.869a24.558,24.558,0,0,1-1.15,5.3,6.424,6.424,0,0,0-.383,4.071c.639,3.577-.895,9.251-4.73,10.361-4.09,1.234-4.09-4.564-4.6-7.4a22.461,22.461,0,0,0-12.526-16.529,17.686,17.686,0,0,0-7.03-1.6Z" transform="translate(-37.934 -45.822)" fill="#e87c7c"/>
              <path id="Trazado_885901" data-name="Trazado 885901" d="M163.528,186.72c-1.206-.941-.938-2.786-.643-4.094.706-2.166,3.993-4.347,6.3-3.2l-.5.125c.926-1.8,2.528-3.781,4.858-3.742,2.283.037,4.021,1.518,5.885,1.687a22.322,22.322,0,0,1,6.092,1.274,43.041,43.041,0,0,1,5.617,2.564c6.473,3.646,6.017,10.215,3.8,16.2-.455,1.928.446,3.9.065,5.853a11.1,11.1,0,0,1-2.212,5.678c-1.242,1.6-4.073,3.069-5.865,1.409-1.509-1.634-1.548-3.8-1.877-5.8a22.591,22.591,0,0,0-8.352-15.071,18.907,18.907,0,0,0-11-4.432l-2.168,1.542m0,0,2.114-1.61a18.875,18.875,0,0,1,11.532,3.932,23.269,23.269,0,0,1,8.632,15.545c.289,1.806.378,3.989,1.654,5.369,1.413,1.281,3.721-.057,4.726-1.342a10.4,10.4,0,0,0,2.051-5.3c.367-1.992-.565-3.983-.048-5.95,2.075-5.688,2.732-11.918-3.447-15.39-3.507-1.882-7.312-3.52-11.375-3.735-2.115-.2-3.778-1.663-5.828-1.685-2.161-.022-3.449,2.02-4.435,3.648-1.571-1.234-4.013.065-5.228,1.331-1.087,1.046-1.64,4.135-.349,5.187" transform="translate(-37.906 -45.693)"/>
              <path id="Trazado_885902" data-name="Trazado 885902" d="M146.68,211.238c1.917-2.713,2.684-5.921,4.218-8.758,2.045-3.947,4.985-7.4,7.158-11.224,3.578-6.414,13.421-.494,16.872,3.33a20.646,20.646,0,0,1,5.112,9.374c.512,2.22,2.173,5.551,1.79,7.895-.256,1.48-2.684,2.1-4.091,2.837-2.045.987-3.962,1.974-6.007,2.837a87.314,87.314,0,0,0-11.5,6.414c-1.022.617-16.2,7.952-17.1,7.334Z" transform="translate(-33.361 -48.968)" fill="#ffc1a7"/>
              <path id="Trazado_885903" data-name="Trazado 885903" d="M146.558,211.11a29.044,29.044,0,0,0,2.7-5.89c1.436-4.115,4.034-7.745,6.5-11.318,1.347-1.782,1.992-4.068,4.075-5.253,2.088-1.146,4.666-.772,6.81-.01a21.8,21.8,0,0,1,13.777,15.59c.647,2.6,2.317,5.357,1.5,8.082a5.509,5.509,0,0,1-2.867,2.012c-3.924,1.932-8.1,3.659-11.955,5.739-2.445,1.321-4.735,2.823-7.122,4.255-.962.5-3.49,1.714-4.493,2.2-3.015,1.424-6.043,2.819-9.139,4.078a12.706,12.706,0,0,1-3.112.946.721.721,0,0,1-.423-.1l-.191-.109.045-.232Zm0,0-3.191,20.1-.146-.342c4.849-1.5,10.123-4.2,14.906-6.459a24.687,24.687,0,0,0,2.864-1.59,79.457,79.457,0,0,1,11.729-6.309c2.018-.907,3.947-1.949,6.012-2.861.969-.457,2.3-.89,2.591-1.949.286-2.519-1.01-4.875-1.648-7.278a21.055,21.055,0,0,0-13.3-15.086c-1.97-.69-4.263-1.068-6.163-.044-1.875,1.078-2.552,3.373-3.813,5.013l-3.664,5.4c-2.624,3.513-3.651,7.85-6.178,11.408" transform="translate(-33.239 -48.84)"/>
              <path id="Trazado_885904" data-name="Trazado 885904" d="M168.591,180.749c3.065-.186,5.832,1.488,8.181,3.207-2.9-.829-5.282-2.369-8.181-3.207" transform="translate(-39.294 -46.972)"/>
              <path id="Trazado_885905" data-name="Trazado 885905" d="M192.758,192.42a16.292,16.292,0,0,1,7.254,5.882c1.727,2.72,1.638,6,1.437,9.043-.4-2.943-.438-6.093-2.093-8.661a22.817,22.817,0,0,0-6.6-6.265" transform="translate(-44.927 -50.009)"/>
              <path id="Trazado_885906" data-name="Trazado 885906" d="M150.252,213.793c1.848-3.983,10.888-.431,12.855,2.22-1.111-.425-2.208-.741-3.292-1.1a45.193,45.193,0,0,0-6.481-1.707,3.728,3.728,0,0,0-3.083.588" transform="translate(-35.02 -55.1)"/>
              <path id="Trazado_885907" data-name="Trazado 885907" d="M152.529,207.206c4.148-4.009,11.627-1.551,14.579,2.714a37.872,37.872,0,0,0-3.5-1.761c-3.5-1.5-7.364-2.371-11.074-.953" transform="translate(-35.551 -53.324)"/>
              <path id="Trazado_885908" data-name="Trazado 885908" d="M156.617,201.009c.82-1.479,2.955-1.557,4.483-1.643,4.69-.079,10.488,1.368,12.761,5.714a13.673,13.673,0,0,0-3.9-2.42,32.545,32.545,0,0,0-8.916-2.144c-1.487-.093-3.166-.48-4.431.494" transform="translate(-36.504 -51.814)"/>
              <path id="Trazado_885909" data-name="Trazado 885909" d="M160.844,194.939c.187-1.622,2.373-1.882,3.719-1.84a19.054,19.054,0,0,1,10.011,3.629,5.369,5.369,0,0,1,1.476,1.542,9.509,9.509,0,0,0-1.861-.917c-1.906-.771-3.869-1.444-5.822-2.068-1.887-.466-6.237-2.3-7.523-.346" transform="translate(-37.489 -50.185)"/>
              <path id="Trazado_885910" data-name="Trazado 885910" d="M8.258,230.17c0,4.071,3.259,8.881,6.711,11.287,4.218,2.96,11.312,3.33,13.421-1.85Z" transform="translate(-1.925 -59.82)" fill="#ffc1a7"/>
              <path id="Trazado_885911" data-name="Trazado 885911" d="M8.256,230.17a13.912,13.912,0,0,0,2.647,6.465,16.187,16.187,0,0,0,4.969,4.956c3.787,2.335,10.281,2.583,12.159-2.12l.189.469-9.877-4.682c-3.391-1.57-6.736-3.372-10.087-5.087m0,0c2.967,1.223,7.175,2.977,10.045,4.349l10.254,4.754.321.149c-1.867,5.431-9.117,5.458-13.406,2.8-4.127-2.635-7.395-7.154-7.214-12.05" transform="translate(-1.923 -59.82)"/>
              <path id="Trazado_885912" data-name="Trazado 885912" d="M148.612,228.92c3.068,6.291-2.876,15.912-7.478,19.983-3.068,2.775-16.3,3.145-20.515,1.85-4.218-1.11-6.519-4.441-7.861-8.141" transform="translate(-26.281 -59.495)" fill="#ffc1a7"/>
              <path id="Trazado_885913" data-name="Trazado 885913" d="M148.612,228.92c3.557,6.519-2.177,15.376-6.951,20.012-3.588,3.414-18.063,3.663-22.581,1.686-3.42-1.342-5.378-4.776-6.322-8.006,1.666,4.178,5.151,7.736,9.916,8.186,4.6.539,14.945.631,18.457-2.4,4.773-4.586,9.717-12.864,7.481-19.477" transform="translate(-26.281 -59.495)"/>
              <path id="Trazado_885914" data-name="Trazado 885914" d="M6.494,206.521a7.354,7.354,0,0,1,1.884-6.644c1.169-1.128,2.988-2.069,4.546-1.128a6.8,6.8,0,0,1,3.378,5.578c0,3.572-4.027,4.889-7.145,4.011Z" transform="translate(-1.466 -51.554)" fill="#ffc1a7"/>
              <path id="Trazado_885915" data-name="Trazado 885915" d="M15.665,214.942c9.887,4.119,19.8,8.328,29.779,12.232,9.83,3.844,20.577,7.851,31.393,6.329,9.626-1.354,18.441-5.971,26.042-11.659a107.567,107.567,0,0,0,11.542-8.4,28.146,28.146,0,0,0-3.226-2.1C92.214,200.8,71.7,194.136,51.183,186.92L36.036,188.4c-9.394,4.071-18.981,7.771-28.184,12.212-3.3,1.535-5.276,3.3-6.273,5.817,3.1,4.063,11.2,7.312,14.087,8.513" transform="translate(-0.368 -48.58)" fill="#996441"/>
              <path id="Trazado_885916" data-name="Trazado 885916" d="M15.354,215.132c7.511,3.13,15.006,6.3,22.551,9.353,7.208,2.919,14.463,6.006,22.035,7.94a49.285,49.285,0,0,0,11.242,1.642,39.4,39.4,0,0,0,10.907-1.413,60.047,60.047,0,0,0,18.72-9.068c.818-.573,1.6-1.2,2.443-1.741q1.072-.684,2.127-1.392c2.5-1.673,4.955-3.417,7.3-5.293q.966-.774,1.9-1.586a.363.363,0,0,0,0-.524,50.842,50.842,0,0,0-7.473-4.4q-3.95-2.059-8-3.937c-5.276-2.457-10.654-4.706-16.085-6.824-5.471-2.135-11-4.138-16.538-6.1q-4.167-1.473-8.343-2.923l-4.28-1.494-1.992-.7a2.99,2.99,0,0,0-.845-.254,17.243,17.243,0,0,0-2.176.212l-4.181.409-7.96.778c-.242.024-.492.033-.732.072a1.846,1.846,0,0,0-.445.141c-.73.312-1.457.628-2.187.939-2.788,1.188-5.587,2.351-8.384,3.519-5.656,2.362-11.308,4.745-16.831,7.387a15.471,15.471,0,0,0-5.659,3.945,8.906,8.906,0,0,0-.778,1.129,3.373,3.373,0,0,0-.61,1.344c.01.333.476.716.693.953a13.6,13.6,0,0,0,1.085,1.05c3.043,2.654,6.877,4.444,10.6,6.033.631.269,1.266.531,1.9.8.449.187.84-.451.387-.639-2.312-.963-4.614-1.947-6.826-3.111-2.584-1.359-5.333-2.957-7.123-5.269l.039.285c1.594-3.931,5.85-5.519,9.516-7.206,4.616-2.124,9.3-4.1,14-6.057,2.331-.973,4.663-1.944,6.989-2.928l1.793-.762a18.8,18.8,0,0,1,1.788-.769,1.758,1.758,0,0,1,.324-.067l5.753-.562,7.211-.7a12.38,12.38,0,0,1,1.768-.172c.031,0,.064-.013.1-.01a4.108,4.108,0,0,1,.7.266l1,.349q1.792.628,3.585,1.253c9.323,3.253,18.661,6.484,27.839,10.109a209.075,209.075,0,0,1,26.8,12.45,27.2,27.2,0,0,1,3.052,1.985v-.524a82.781,82.781,0,0,1-7.52,5.733c-1.311.9-2.673,1.738-3.984,2.641-1.419.977-2.785,2.017-4.232,2.958s-2.908,1.822-4.414,2.65a55.589,55.589,0,0,1-9.521,4.174,41.294,41.294,0,0,1-10.571,2.078,43.1,43.1,0,0,1-11.3-1.02c-7.463-1.6-14.565-4.556-21.6-7.373-7.5-3-14.938-6.133-22.387-9.245l-2.762-1.152c-.449-.187-.84.45-.387.639" transform="translate(-0.251 -48.451)"/>
              <g id="Grupo_1099973" data-name="Grupo 1099973" transform="translate(17.761 150.06)" opacity="0.5" style="mix-blend-mode: multiply;isolation: isolate">
                <g id="Grupo_1099972" data-name="Grupo 1099972">
                  <g id="Grupo_1099971" data-name="Grupo 1099971" clip-path="url(#clip-path-8)">
                    <path id="Trazado_885917" data-name="Trazado 885917" d="M38.957,202.756a6.606,6.606,0,0,1-3.259.37,20.554,20.554,0,0,0-6.709,1.294c-3.437,1.106-7.478,3.5-5.133,7.291,6.839,11.06,21.208,13.454,32.549,17.874,9.97,3.885,18.214,4.256,28.568,1.85,4.985-1.3,10.737-2.96,13.038-7.771,3.068-6.106-4.793-7.771-9.2-9.436a34.247,34.247,0,0,1-4.6-2.035Z" transform="translate(-23.158 -202.756)" fill="#878fad"/>
                  </g>
                </g>
              </g>
              <path id="Trazado_885918" data-name="Trazado 885918" d="M114.169,220.292a107.673,107.673,0,0,1-11.543,8.4c-7.6,5.687-16.416,10.3-26.041,11.658-10.816,1.522-21.563-2.485-31.393-6.328-9.982-3.9-19.892-8.112-29.778-12.232-2.883-1.2-10.988-4.449-14.087-8.513a13.728,13.728,0,0,0-.821,5.1c0,2.22-.192,5.736,1.534,7.586,1.534,2.035,48.125,24.979,69.407,25.9,5.528.24,11.12-1.665,16.3-3.516,6.519-2.405,26.075-12.582,27.8-17.762,1.467-4.532,1.654-7.96-1.376-10.3" transform="translate(-0.116 -55.431)" fill="#754a2d"/>
              <path id="Trazado_885919" data-name="Trazado 885919" d="M113.782,219.9a88.11,88.11,0,0,1-8.957,6.709c-.784.525-1.579,1.032-2.368,1.548-1.313.858-2.542,1.84-3.851,2.708-7,4.647-15.081,8.351-23.631,9.164-9.278.883-18.361-2.107-26.862-5.353-9.054-3.459-17.984-7.212-26.916-10.948-3.191-1.334-6.42-2.605-9.564-4.042a34.4,34.4,0,0,1-8.563-5.121,11.839,11.839,0,0,1-1.529-1.6.4.4,0,0,0-.7.089,14.519,14.519,0,0,0-.834,5.2,27.92,27.92,0,0,0,.186,4.421,5.607,5.607,0,0,0,2.055,3.912,53.721,53.721,0,0,0,6.386,3.544c3.884,1.978,7.831,3.844,11.807,5.644q7.345,3.326,14.848,6.315c5.214,2.071,10.487,4.01,15.845,5.705a107.2,107.2,0,0,0,14.5,3.675,41.366,41.366,0,0,0,6.443.662A38.427,38.427,0,0,0,84.5,249.711a90.627,90.627,0,0,0,13.761-6.063,84.927,84.927,0,0,0,13.555-8.512,14.036,14.036,0,0,0,3.677-3.874,12.916,12.916,0,0,0,1.134-3.85,9.442,9.442,0,0,0-.059-4.3,6.364,6.364,0,0,0-2.239-3.207c-.379-.3-.925.222-.542.523a5.7,5.7,0,0,1,2.17,3.407,10.618,10.618,0,0,1-.323,4.558,8.955,8.955,0,0,1-1.091,2.964A11.469,11.469,0,0,1,112.9,233.2a40.21,40.21,0,0,1-5.477,4.194c-2.254,1.5-4.587,2.882-6.955,4.2a100.229,100.229,0,0,1-12.488,6.1,59.5,59.5,0,0,1-11.117,3.277,29.336,29.336,0,0,1-8.738.121,86.351,86.351,0,0,1-13.634-3.051c-5.172-1.52-10.259-3.306-15.286-5.223s-10.022-3.986-14.954-6.157q-6.314-2.779-12.508-5.81c-2.675-1.317-5.358-2.649-7.922-4.161-.348-.206-.695-.414-1.031-.639a3.129,3.129,0,0,1-.521-.392c-.016-.015-.1-.1-.041-.039s-.031-.04-.038-.047c-.073-.084-.147-.166-.215-.255a4.219,4.219,0,0,1-.314-.484,6.664,6.664,0,0,1-.695-2.129,24.888,24.888,0,0,1-.2-4.394,14.036,14.036,0,0,1,.808-5.064l-.7.088c1.968,2.543,4.957,4.282,7.816,5.752,2.749,1.414,5.626,2.566,8.483,3.759,9.136,3.815,18.257,7.667,27.481,11.281,8.6,3.37,17.584,6.8,27.013,6.8,8.725-.008,17.207-3.268,24.526-7.656,2.61-1.565,5.007-3.4,7.549-5.053,2.843-1.849,5.628-3.794,8.281-5.889q1.17-.925,2.295-1.9c.367-.32-.177-.842-.542-.523" transform="translate(0 -55.304)"/>
              <path id="Trazado_885920" data-name="Trazado 885920" d="M147.551,219.779c-2.3-3.515-9.395-6.476-13.421-5-3.835,1.48-9.011,4.811-8.628,9.251.575,4.626,7.478,1.85,10.353.37a18.037,18.037,0,0,0,4.026-3.516,12.392,12.392,0,0,0,1.726-1.665" transform="translate(-29.247 -55.72)" fill="#ffc1a7"/>
              <path id="Trazado_885921" data-name="Trazado 885921" d="M147.434,219.663c-2.657-3.107-8.553-5.675-12.7-4.817a16.978,16.978,0,0,0-7.1,4.361,6.13,6.13,0,0,0-1.84,4.823c.726,4.589,9.695.442,11.718-1.482a27.032,27.032,0,0,0,2.173-1.93,15.946,15.946,0,0,0,1.769-1.475l.118-.115c.042-.01-.051.052-.081.08l.058-.061c0-.014.085-.069.046-.01-.172.245-.561.672-.755.909-1.608,1.6-2.915,3.677-5.26,4.84-2.614,1.184-7.665,3.535-9.965.815-1.449-2.221-.183-5.166,1.442-6.881a17.661,17.661,0,0,1,7.488-4.59,13.14,13.14,0,0,1,12.89,5.534" transform="translate(-29.129 -55.604)"/>
              <path id="Trazado_885922" data-name="Trazado 885922" d="M6.172,202.581c-.383-2.405-.575-4.441.767-6.846a7.15,7.15,0,0,1,7.094-4.071c3.451.185,5.177,3.145,6.711,5.736,2.493,4.071,2.493,11.472-4.026,9.621-2.684-.74-7.094-5.551-7.094-8.511" transform="translate(-1.373 -49.809)" fill="#ffc1a7"/>
              <path id="Trazado_885923" data-name="Trazado 885923" d="M6.112,202.444a10.01,10.01,0,0,1,.059-6.286,7.845,7.845,0,0,1,7.94-4.988c2.338.114,4.224,1.772,5.431,3.562,1.865,2.638,3.42,5.682,3,8.965-.342,3.442-3.343,4.606-6.469,3.375a12.4,12.4,0,0,1-5.692-5.664,6.331,6.331,0,0,1-.818-3.034c.292,2.067,1.728,3.765,3.17,5.221a11.445,11.445,0,0,0,3.634,2.793c2.643,1.026,5.13.194,5.413-2.782a10.1,10.1,0,0,0-1.231-5.814,15.6,15.6,0,0,0-3.719-4.859,6.359,6.359,0,0,0-5.8-.653,7.524,7.524,0,0,0-4.151,4.174,10.2,10.2,0,0,0-.768,5.99" transform="translate(-1.313 -49.672)"/>
              <path id="Trazado_885924" data-name="Trazado 885924" d="M70.414,207.534C68.5,196.8,70.031,186.071,73.865,175.9c1.534-4.071,4.218-8.7,8.244-10.731a20.683,20.683,0,0,1,7.988-2.029,22.813,22.813,0,0,0-11.631-1.3c-11.12,1.665-21.666,6.846-31.06,12.4-5.368,3.145-11.12,6.291-13.229,12.4-1.726,5-1.15,10.176,0,15.172,1.726,6.291,6.711,8.326,12.463,10.176,4.218,1.3,8.244,3.145,12.463,3.886l17.064,3.886c.646.03,1.282.084,1.909.145-4.154-2.537-6.926-7.747-7.661-12.357" transform="translate(-7.712 -41.996)" fill="#a33e3e"/>
              <path id="Trazado_885925" data-name="Trazado 885925" d="M70.3,207.4a58.985,58.985,0,0,1,3.657-33.161c3.021-7.164,7.8-11.187,16.016-11.609l-.133.713c-13.045-5.423-33.243,5.64-44.42,12.283-4.435,2.607-9.066,5.723-10.85,10.622-1.821,4.817-1.319,10.122-.195,15.053a12.585,12.585,0,0,0,1.435,3.473c2.766,4.556,8.439,5.867,13.289,7.525a70.576,70.576,0,0,0,11.426,3.4c3.9.853,11.719,2.71,15.581,3.7-.193-.018,1.907.176,1.876.175l-.124.346c-4.274-2.846-6.719-7.684-7.557-12.516m0,0c.882,5.03,3.729,10.052,8.43,12.589-.479-.044-2.174-.112-2.689-.154-.026.024-7.844-1.65-7.877-1.639-2.769-.654-9.041-2.027-11.725-2.661-2.282-.56-5.362-1.781-7.6-2.54-4.97-1.679-10.828-3.1-13.687-7.843a13.323,13.323,0,0,1-1.523-3.684c-1.155-5.064-1.66-10.5.222-15.473,1.841-5.076,6.624-8.336,11.169-11,9.089-5.426,18.649-10.484,29.14-12.882a33.8,33.8,0,0,1,8.021-1.028,25.315,25.315,0,0,1,9.63,2.227L90,163.374c-11.163.5-14.856,8.25-17.542,17.489-2.6,8.578-3.741,17.677-2.154,26.542" transform="translate(-7.597 -41.865)"/>
              <path id="Trazado_885926" data-name="Trazado 885926" d="M113.91,178.659a20.134,20.134,0,0,0-12.719-14.981,20.683,20.683,0,0,0-7.988,2.029c-4.026,2.035-6.711,6.661-8.244,10.731-3.835,10.176-5.368,20.908-3.451,31.639.735,4.61,3.507,9.82,7.661,12.357,3.286.321,6.345.853,9.4-.7a24.642,24.642,0,0,0,10.737-9.806c5.177-8.511,6.327-21.648,4.6-31.269" transform="translate(-18.805 -42.539)" fill="#fcc"/>
              <path id="Trazado_885927" data-name="Trazado 885927" d="M113.79,178.527c-1.2-6.681-6.411-12.19-12.864-14.633a21.578,21.578,0,0,0-8.146,2.277c-7.027,4.292-9.393,14.955-10.939,22.4a55.851,55.851,0,0,0-.431,16.988c.495,5.712,3.257,11.428,7.678,14.372,2.4.232,4.8.608,7.076.093,6.87-2.032,11.908-7.884,14.578-14.146a50.627,50.627,0,0,0,3.283-13.454,48.963,48.963,0,0,0-.235-13.9m0,0c1.548,9.171,1.356,18.93-2.338,27.637-2.745,6.452-8,12.517-15.115,14.586a21.874,21.874,0,0,1-7.493-.134c-9.978-6.379-9.349-22-7.759-32.164,1.591-7.673,4.007-18.479,11.308-22.919a20.524,20.524,0,0,1,8.746-2.364,20.468,20.468,0,0,1,12.652,15.359" transform="translate(-18.686 -42.407)"/>
              <path id="Trazado_885928" data-name="Trazado 885928" d="M102.782,216.715a6.9,6.9,0,0,1-5.924,1.926c-2.932-.3-6.143-3.373-7.159-5.971-3.835-9.806-3.643-24.423,1.342-33.675,2.3-4.071,6.519-7.4,11.5-6.846,5.177.555,8.053,4.811,8.82,9.436a54.719,54.719,0,0,1,.383,14.8c-.645,5.4-3.752,15.946-8.966,20.328" transform="translate(-20.286 -44.725)" fill="#e87c7c"/>
              <path id="Trazado_885929" data-name="Trazado 885929" d="M102.675,216.591c-4.139,3.991-10.058,1.727-12.789-2.63a22.384,22.384,0,0,1-1.9-5.173,48.278,48.278,0,0,1-1.356-8.96c-.357-8.541,1.028-21.55,9.13-26.6a10.315,10.315,0,0,1,10.979-.073c3.243,2.109,4.722,5.992,5.094,9.572a47.048,47.048,0,0,1-1.644,21.515c-1.663,4.5-3.828,9.054-7.511,12.345m0,0c3.673-3.3,5.376-8.044,6.78-12.565a41.984,41.984,0,0,0,2.134-14.066c-.229-4.623-.094-9.72-2.791-13.733-5-6.859-13.933-3.853-17.483,2.749-3.347,6.377-4.244,13.731-3.923,20.814a47.535,47.535,0,0,0,1.334,8.819,22.891,22.891,0,0,0,1.821,4.976c2.473,4.342,7.925,6.9,12.127,3.007" transform="translate(-20.179 -44.601)"/>
              <path id="Trazado_885930" data-name="Trazado 885930" d="M106.9,201.561c0,4.5-2.1,8.141-4.694,8.141s-4.694-3.645-4.694-8.141,2.1-8.141,4.694-8.141,4.694,3.645,4.694,8.141" transform="translate(-22.729 -50.269)" fill="#fcc"/>
              <path id="Trazado_885931" data-name="Trazado 885931" d="M106.779,201.434a15.071,15.071,0,0,1-.62,5.1c-1.082,2.742-4.119,4.791-6.661,2.239-3.362-3.672-3.363-11.007,0-14.679,2.538-2.548,5.582-.509,6.658,2.24a15.3,15.3,0,0,1,.623,5.1m0,0a11.15,11.15,0,0,0-2.656-6.821,2.71,2.71,0,0,0-4.077,0c-1.721,1.807-2.233,4.414-2.272,6.821.038,2.407.551,5.015,2.272,6.821a2.71,2.71,0,0,0,4.077,0,11.219,11.219,0,0,0,2.656-6.821" transform="translate(-22.603 -50.142)"/>
              <path id="Trazado_885932" data-name="Trazado 885932" d="M78.44,164.38c-7.554,8.231-10.49,16.6-11.323,27.464-.15,1.437-.206,2.88-.3,4.325-.691-11.99,2.206-23.442,11.627-31.789" transform="translate(-15.55 -42.722)"/>
              <path id="Trazado_885933" data-name="Trazado 885933" d="M63.139,170.794c-7.056,7.664-8.971,12.9-9.2,23.09-.074,1.22-.1,2.442-.19,3.664-.851-11.43.151-18.751,9.39-26.754" transform="translate(-12.471 -44.389)"/>
              <path id="Trazado_885934" data-name="Trazado 885934" d="M49.352,179.54c-1.064.431-1.331,1.544-1.905,2.419-1.758,3.583-2.361,7.77-2.688,11.768-.106,1.355-.2,2.717-.326,4.082-.129-1.364-.2-2.731-.2-4.1-.027-4.115.633-8.394,2.845-11.981.607-.792,1.155-1.969,2.27-2.186" transform="translate(-10.31 -46.662)"/>
              <path id="Trazado_885935" data-name="Trazado 885935" d="M41.938,186.342a15.585,15.585,0,0,0,6.409,10.5c-4.035-1.5-7.079-6.352-6.409-10.5" transform="translate(-9.753 -48.43)"/>
              <path id="Trazado_885936" data-name="Trazado 885936" d="M52.627,180.512c.339,4.648,4.231,7.83,7.3,11.076-3.745-2.362-8.108-6.336-7.3-11.076" transform="translate(-12.243 -46.914)"/>
              <path id="Trazado_885937" data-name="Trazado 885937" d="M68.178,173.9c.355,5.116,4.844,8.2,7.9,11.939-3.761-2.888-8.69-6.739-7.9-11.939" transform="translate(-15.871 -45.197)"/>
              <path id="Trazado_885938" data-name="Trazado 885938" d="M99.041,127.616c-.383-.925-1.342-3.145-2.492-3.516-3.068-.925-6.519,6.106-9.587,4.811-2.684-1.11-3.835-10.176-4.218-12.767-.575-5,4.218-8.511,8.436-10.732a37.657,37.657,0,0,1,14.763-5c5.752-.555,11.7-1.3,17.448,0s24.542,4.626,21.09,13.137c-1.342,3.886-5.944,7.771-8.82,10.361-3.259,2.96-7.478,5.181-11.312,7.031-2.684,1.48-2.876,1.3-4.985-.74-1.342-1.3-3.259-3.145-4.985-3.7-3.643-1.11-5.944,1.48-8.82,2.035" transform="translate(-19.274 -25.911)" fill="#d35050"/>
              <path id="Trazado_885939" data-name="Trazado 885939" d="M98.926,127.478c-3.338-8.139-6.27.251-10.722,1.668-4.385.974-5.253-9.322-5.819-12.153-1.451-7.015,6.2-11.025,11.673-13.688,5.821-2.955,12.47-3.641,18.942-4.019,6.522-.577,12.953,1.054,19.2,2.738a35.354,35.354,0,0,1,8.995,3.7c7.863,4.738,2.235,11.321-2.608,15.81a46.29,46.29,0,0,1-7.5,6.017c-1.964,1.244-4.277,2.4-6.372,3.444-1.056.482-2.375,1.55-3.68.972-2.93-1.865-4.822-5.806-8.764-5.724-2.461.028-4.454,1.726-6.828,2.163,2.373-.535,4.309-2.321,6.817-2.44,3.943-.26,6.172,3.538,9.064,5.366a1.258,1.258,0,0,0,.928,0c1.376-.544,2.88-1.415,4.257-2.071A44.128,44.128,0,0,0,138.056,121c4.369-4.131,10.132-10.265,2.717-14.661a34.626,34.626,0,0,0-8.788-3.6c-6.165-1.654-12.465-3.279-18.94-2.709-6.363.376-12.915,1.032-18.647,3.944-5.16,2.565-12.623,6.238-11.253,12.921.444,2.345,1.535,12.483,4.931,11.707,2.28-.657,3.742-2.846,5.711-4.071,2.975-2.068,4.194.556,5.14,2.952" transform="translate(-19.16 -25.773)"/>
              <path id="Trazado_885940" data-name="Trazado 885940" d="M100.535,106.515c-2.109.925-3.451,1.48-3.835,3.886a12.145,12.145,0,0,0,1.726,8.511c2.109,3.515,5.56,8.511,10.353,8.141,4.6-.37,9.011-2.775,13.038-4.441,5.177-1.85,24.733-9.436,14.188-16.467-4.026-2.59-10.545-2.96-15.147-3.515a47.838,47.838,0,0,0-13.613,1.11c-1.15.185-4.793,1.11-4.218,1.665Z" transform="translate(-22.494 -26.643)" fill="#ffc1a7"/>
              <path id="Trazado_885941" data-name="Trazado 885941" d="M100.471,106.387a8.556,8.556,0,0,0-2.779,1.638,4.784,4.784,0,0,0-1.022,2.91,13.856,13.856,0,0,0,2.714,8.78c3.2,4.936,6.444,8.314,12.868,6.172a78.163,78.163,0,0,0,9.063-3.621c5.038-1.905,10.19-3.931,14.381-7.282,4.263-3.4,3.739-6.853-1.114-9.295-3.888-1.862-8.361-2.183-12.637-2.683a34.683,34.683,0,0,0-6.494-.175c-4.026.373-8.231.543-12.055,1.926-.183.09-.586.279-.414.5l.028.026-.035.015c-.84.352-1.67.724-2.5,1.087m0,0c.791-.327,1.774-.864,2.474-1.092-.232-.274.213-.491.413-.608a38.943,38.943,0,0,1,12.046-2.6,61.283,61.283,0,0,1,13.167,1.027c6.967.951,15.582,5.936,7.625,12.425-4.274,3.423-9.479,5.473-14.587,7.4-4.013,1.688-7.986,3.812-12.424,4.3-4.825.6-8.217-3.638-10.455-7.145a12.112,12.112,0,0,1-1.957-10.762c.528-1.616,2.219-2.336,3.7-2.953" transform="translate(-22.431 -26.515)"/>
              <path id="Trazado_885942" data-name="Trazado 885942" d="M130.258,14.325c.192-1.3,1.342-2.405,2.3-3.515,1.342-1.85,2.493-4.071,3.835-5.921,2.3-3.145,4.985-4.811,9.011-4.256,3.451.555,9.587,5.736,10.929,8.881,1.726,3.886,0,7.4-.383,11.472-.192,2.775.192,7.031-.575,9.251Z" transform="translate(-30.36 -0.137)" fill="#f9f9f7"/>
              <path id="Trazado_885943" data-name="Trazado 885943" d="M130.258,14.188c.17-1.409,1.348-2.574,2.166-3.607C134.842,6.966,136.416,2.2,141,.515c4.694-1.795,9.147,1.447,12.357,4.455a12.424,12.424,0,0,1,3.783,5.563c.926,3.351-.38,6.58-.752,9.84s.275,6.611-.652,9.843l-.149.463-.425-.27c-2.371-1.5-13.7-8.7-15.8-10.034-1.949-1.32-7.1-4.823-9.109-6.187m0,0c3.655,2.163,9.328,5.443,12.85,7.716l12.477,7.887-.574.192c.873-3.125.245-6.477.617-9.692.357-3.168,1.65-6.454.773-9.57-.511-2.049-2.024-3.7-3.579-5.223-3.036-2.809-7.147-5.959-11.551-4.289-4.243,1.622-5.91,6.261-8.577,9.555-.937,1.054-2.126,2.01-2.436,3.424" transform="translate(-30.36 0)"/>
              <g id="Grupo_1099976" data-name="Grupo 1099976" transform="translate(110.499 7.036)" opacity="0.5" style="mix-blend-mode: multiply;isolation: isolate">
                <g id="Grupo_1099975" data-name="Grupo 1099975">
                  <g id="Grupo_1099974" data-name="Grupo 1099974" clip-path="url(#clip-path-9)">
                    <path id="Trazado_885944" data-name="Trazado 885944" d="M145.623,22.642c-2.3-3.947-2.812-11.1,4.09-6.661-.512-3.454,1.022-7.647,5.88-6.167,3.835,1.233,4.09,5.921,4.09,9.374,0,3.208.255,6.661-.255,9.621-.256,1.727-.256,3.7-2.3,3.948-1.534.246-3.068-1.48-3.579-2.714Z" transform="translate(-144.081 -9.507)" fill="#878fad"/>
                  </g>
                </g>
              </g>
              <path id="Trazado_885945" data-name="Trazado 885945" d="M139.723,17.852c-.574-5.149.969-10.984,5.177-14.432-3.372,4.185-4.635,9.245-5.177,14.432" transform="translate(-32.539 -0.889)"/>
              <path id="Trazado_885946" data-name="Trazado 885946" d="M122.368,92.717c10.276-.7,13.1-9.573,13.67-12.164.767-4.626,1.726-8.881,2.684-13.322.362-1.676.7-3.353,1.046-5.021-2.114.517-4.486.664-5.072-1.455-1.726-5.736,3.835-12.212,3.835-17.762-4.6,1.48-4.985-4.071-4.026-7.031a14.886,14.886,0,0,1,5.761-7.209,33.079,33.079,0,0,0-12.28-8.889c-7.861-3.145-19.557-3.145-27.418.555-4.6,2.22-6.9,6.476-8.628,10.917-1.917,4.626-3.259,9.251-5.368,13.877-2.684,5.366-6.135,9.806-9.778,14.8-2.876,4.071-1.15,7.771.767,12.027,2.493,5,6.711,9.806,10.545,13.877,2.109,2.405,6.135,4.811,7.861,7.4" transform="translate(-17.543 -4.567)" fill="#ffc1a7"/>
              <path id="Trazado_885947" data-name="Trazado 885947" d="M122.258,92.581c6.931-.362,11.991-5.57,13.429-11.89,1-6.243,2.29-12.493,3.6-18.69l.47.432c-1.517.346-3.553.725-4.839-.5-1.681-2.187-1.02-5.264-.377-7.651,1.1-3.829,3.385-7.437,3.5-11.428l.5.351c-4.646,1.572-5.55-3.824-4.654-7a14.952,14.952,0,0,1,6.041-7.893l-.071.531a31.128,31.128,0,0,0-21.334-10.864c-6.729-.51-14.124.115-19.86,3.808C93.1,25.976,91.67,33.164,89.227,39.23c-2.472,7.813-7.507,14.488-12.351,21.053-5.151,7.112,6.756,20.482,11.6,25.8,2.179,2.321,5.59,4.458,7.381,7.1-1.88-2.592-5.352-4.634-7.6-6.9A79.22,79.22,0,0,1,78.983,75.3,31.535,31.535,0,0,1,75.4,67.929a8.69,8.69,0,0,1,.83-8.051c3.179-4.43,6.537-8.707,9.11-13.485,3.894-7.165,4.964-15.564,9.843-22.269,3.4-4.574,9.476-6.115,14.98-6.8,11.647-1.34,22.748,2.174,30.287,11.06l.254.3-.325.23c-3.847,2.643-7.2,7.391-5.66,12.066.684,1.932,2.329,2.035,4.087,1.366l0,.509c-.112,4.161-2.416,7.755-3.53,11.633-.6,2.222-1.195,4.961.188,6.93,1.248,1.086,3.181.488,4.691.155-.518,2.609-1.536,7.286-2.159,9.876-.724,3.1-1.368,6.181-1.972,9.318-1.564,6.354-6.778,11.575-13.765,11.812" transform="translate(-17.433 -4.431)"/>
              <path id="Trazado_885948" data-name="Trazado 885948" d="M162.732,44.144c.088-4.171-1.774-8.106-4.592-11.465a14.885,14.885,0,0,0-5.761,7.209c-.959,2.96-.575,8.511,4.026,7.031,0,5.551-5.56,12.027-3.835,17.762.586,2.119,2.957,1.972,5.072,1.455.574-2.747,1.187-5.467,2.022-8.116,1.342-4.256,2.876-9.251,3.068-13.877" transform="translate(-35.416 -8.493)" fill="#754a2d"/>
              <path id="Trazado_885949" data-name="Trazado 885949" d="M162.99,44.014c.067-4.361-1.92-8.387-4.705-11.726a.392.392,0,0,0-.465-.058c-2.763,1.968-5.316,4.717-6.105,8.034-.466,1.963-.563,4.768,1.028,6.317a3.557,3.557,0,0,0,3.638.565l-.485-.357c-.025,3.435-1.827,6.667-2.975,9.842a17.947,17.947,0,0,0-1.173,4.977,9.053,9.053,0,0,0,.167,2.411,3.383,3.383,0,0,0,.943,1.938c1.263,1.114,3.262.767,4.761.406a.371.371,0,0,0,.268-.258c.627-2.993,1.345-5.95,2.261-8.875a77.428,77.428,0,0,0,2.242-8.382,33.325,33.325,0,0,0,.6-4.834c.021-.476-.745-.475-.767,0a39.755,39.755,0,0,1-1.494,8.553c-.752,2.782-1.716,5.506-2.432,8.3-.429,1.671-.8,3.356-1.15,5.044l.268-.258c-1.21.291-3.029.691-4.053-.251a3.266,3.266,0,0,1-.777-1.958,8.97,8.97,0,0,1-.032-2.289c.334-3.261,1.949-6.278,3.042-9.338a15.4,15.4,0,0,0,1.069-5.025.384.384,0,0,0-.485-.357,2.835,2.835,0,0,1-2.836-.322,4,4,0,0,1-1.071-2.482,9.856,9.856,0,0,1,2-6.935,16.617,16.617,0,0,1,3.938-3.825l-.465-.058c2.657,3.185,4.545,7.047,4.48,11.2-.008.477.759.477.767,0" transform="translate(-35.291 -8.363)"/>
              <path id="Trazado_885950" data-name="Trazado 885950" d="M157.175,75.665c.192-2.22,2.109-4.256,3.835-5.736,3.451-2.96,6.327-2.775,9.2.37,4.6,4.626,3.259,11.657-2.493,14.8-4.41,2.22-8.82,0-12.463-1.48" transform="translate(-36.187 -17.626)" fill="#ffc1a7"/>
              <path id="Trazado_885951" data-name="Trazado 885951" d="M157.175,75.537c.178-3.564,4.5-7.9,8.212-8.2,2.227-.132,4.1,1.408,5.428,2.948a9.232,9.232,0,0,1,2.256,8.57,10.25,10.25,0,0,1-5.941,6.789c-4.085,1.69-8.317-.277-11.873-2.148,3.69,1.19,7.761,2.949,11.581,1.463a9.514,9.514,0,0,0,5.487-6.28,8.5,8.5,0,0,0-2.093-7.914c-1.217-1.4-2.829-2.8-4.808-2.69-1.955.107-3.586,1.456-4.962,2.731a8.677,8.677,0,0,0-3.288,4.733" transform="translate(-36.187 -17.498)"/>
              <path id="Trazado_885952" data-name="Trazado 885952" d="M160.418,81.878c-.512-3.7,7.158-9.375,9.2-5.427" transform="translate(-37.384 -19.521)" fill="#ffc1a7"/>
              <path id="Trazado_885953" data-name="Trazado 885953" d="M160.369,81.751c-1.357-3.181,5.069-8.283,8.188-6.891a2.335,2.335,0,0,1,1.015,1.464,2.3,2.3,0,0,0-1.329-.788c-1.469-.554-3.082.306-4.31,1.143a8.993,8.993,0,0,0-3.564,5.072" transform="translate(-37.335 -19.395)"/>
              <path id="Trazado_885954" data-name="Trazado 885954" d="M94.508,101.17c0,7.771,5.944,9.806,13.229,10.176" transform="translate(-22.027 -26.294)" fill="#ffc1a7"/>
              <path id="Trazado_885955" data-name="Trazado 885955" d="M94.49,101.17c.47,6.426,4.76,8.863,10.862,9.8.782.153,1.574.245,2.368.377-6.922.374-14.011-2.376-13.229-10.176" transform="translate(-22.009 -26.294)"/>
              <path id="Trazado_885956" data-name="Trazado 885956" d="M99.508,101.42c1.917,1.85,4.218,2.22,6.711,2.22" transform="translate(-23.193 -26.359)" fill="#ffc1a7"/>
              <path id="Trazado_885957" data-name="Trazado 885957" d="M99.508,101.42c2.124,1.348,4.265,1.721,6.711,2.22-2.377.6-5.386-.092-6.711-2.22" transform="translate(-23.193 -26.359)"/>
              <path id="Trazado_885958" data-name="Trazado 885958" d="M98.752,87.951c-.255,2.59,2.173,6.291,5.113,6.291a7.743,7.743,0,0,0,5.24-2.714c.512-.616,2.3-4.071,1.789-4.441Z" transform="translate(-23.012 -22.634)" fill="#f9f9f7"/>
              <path id="Trazado_885959" data-name="Trazado 885959" d="M98.735,87.817c.227,2.755,2.8,6.559,6.049,5.811,3.059-.662,5.025-3.336,5.769-6.163a1.357,1.357,0,0,0,.032-.235c.015-.065-.051-.093.063.019l.258.073c-3.549.258-8.629.638-12.171.494m0,0a119.34,119.34,0,0,1,12.279-1.245.755.755,0,0,1,.337.67,6.869,6.869,0,0,1-.718,2.171c-1.137,3.024-4.938,6.033-8.4,4.725a5.964,5.964,0,0,1-3.5-6.32" transform="translate(-22.995 -22.5)"/>
              <path id="Trazado_885960" data-name="Trazado 885960" d="M93.884,74.05c-3.323-2.22-6.774-2.1-9.587.864-1.406,1.48-3.2,4.811-2.429,6.784.895,2.468,3.963,1.974,6.008.987.127,3.453,6.263,2.713,8.18,1.727,0,2.837,5.625,1.727,7.03.864,1.662,2.22,6.774,2.22,7.925-.37.9,1.973,6.008,2.22,7.541.74,2.173-2.1.128-5.8-1.789-7.4a16.827,16.827,0,0,0-7.8-3.7c-1.917-.37-6.263-.74-7.8.74Z" transform="translate(-19.039 -18.848)" fill="#754a2d"/>
              <path id="Trazado_885961" data-name="Trazado 885961" d="M93.966,73.6a8.254,8.254,0,0,0-5.615-1.514,7.75,7.75,0,0,0-4.789,2.835,10.284,10.284,0,0,0-2.3,4.773,3.326,3.326,0,0,0,1.712,3.726c1.584.7,3.511.155,4.987-.547l-.577-.319c.2,3.823,6.316,3.276,8.758,2.046l-.577-.319c.034,1.671,1.709,2.184,3.183,2.191a8.986,8.986,0,0,0,4.424-1.008l-.525-.132a5.444,5.444,0,0,0,4.485,1.8c1.605-.046,3.4-.666,4.1-2.172h-.663c.818,1.693,3.49,1.977,5.169,1.852a5.355,5.355,0,0,0,2.664-.785,3.4,3.4,0,0,0,1.357-2.888c-.067-2.512-1.91-4.693-3.891-6.139a17.353,17.353,0,0,0-7.821-3.091,18.176,18.176,0,0,0-3.914-.152,5.522,5.522,0,0,0-3.345,1.135l.373-.095-7.286-1.234c-.483-.082-.69.631-.2.713l5.284.895c.656.111,1.328.278,1.991.337.267.024.354-.087.549-.236a2.957,2.957,0,0,1,.821-.423,7.893,7.893,0,0,1,2.186-.377,17.58,17.58,0,0,1,9.69,2.328,10.762,10.762,0,0,1,3.793,3.443c.806,1.285,1.482,3.1.6,4.5-.758,1.21-2.436,1.39-3.771,1.345-1.2-.041-3.007-.312-3.582-1.5a.393.393,0,0,0-.663,0c-1.139,2.445-5.717,2.368-7.263.37a.4.4,0,0,0-.525-.132,8.075,8.075,0,0,1-3.658.9c-1.081.045-2.767-.077-2.795-1.443a.388.388,0,0,0-.577-.32,9.142,9.142,0,0,1-4.375.762c-1.422-.067-3.143-.548-3.229-2.169a.389.389,0,0,0-.577-.32,5.982,5.982,0,0,1-3.87.656,2.534,2.534,0,0,1-1.693-3.06,9.573,9.573,0,0,1,1.943-4.19,6.587,6.587,0,0,1,9.628-1.4c.409.269.793-.372.387-.639" transform="translate(-18.927 -18.72)"/>
              <path id="Trazado_885962" data-name="Trazado 885962" d="M112.174,64.458a30.54,30.54,0,0,0-4.41-1.48c-3.643-.925-7.669-2.775-10.353,1.11-2.3,3.33-3.259,8.7.959,11.1,4.218,2.035,8.244-1.11,11.5-2.96a12.922,12.922,0,0,0,2.684-1.665" transform="translate(-22.246 -16.04)" fill="#ffc1a7"/>
              <path id="Trazado_885963" data-name="Trazado 885963" d="M112.061,64.334a37.892,37.892,0,0,0-5.25-1.326c-2.653-.7-5.944-1.974-8.248.087-3,2.947-4.452,9.194-.111,11.652,2.834,1.439,6.263,0,8.813-1.605,1.659-1,3.616-1.6,5.181-2.7a19.256,19.256,0,0,1-3.163,2.253c-3.121,2.206-7.348,4.606-11.22,2.691-4.8-2.716-3.41-9.535-.015-12.836,1.942-1.813,4.908-1.414,7.23-.733a32.328,32.328,0,0,1,6.785,2.519" transform="translate(-22.133 -15.917)"/>
              <path id="Trazado_885964" data-name="Trazado 885964" d="M110.295,39.828c-.9.37-2.556,1.357-3.579,1.11-2.173-.74-1.022-3.454,0-4.564,1.407-1.48,6.008-4.071,7.414-1.233.767,1.48-.895,3.207-2.045,3.823Z" transform="translate(-24.585 -8.803)" fill="#754a2d"/>
              <path id="Trazado_885965" data-name="Trazado 885965" d="M109.984,39.377a14.713,14.713,0,0,1-2.575,1.045,1.294,1.294,0,0,1-1.626-.945,3.137,3.137,0,0,1,.446-2.04,4.64,4.64,0,0,1,1.2-1.443,7.914,7.914,0,0,1,4.155-1.876,2.1,2.1,0,0,1,1.8.622,1.82,1.82,0,0,1-.012,2.319c-.8,1.206-2.124,1.707-3.394,2.319-.442.213-.054.852.387.639l1.611-.777a5.34,5.34,0,0,0,1.942-1.642,2.515,2.515,0,0,0-1.7-4.207c-1.794-.193-3.686.832-5.05,1.857A4.9,4.9,0,0,0,105,39.4a2.028,2.028,0,0,0,1.967,1.814,9.3,9.3,0,0,0,3.405-1.2c.451-.19.061-.827-.387-.639" transform="translate(-24.468 -8.672)"/>
              <path id="Trazado_885966" data-name="Trazado 885966" d="M137.429,42.51c-1.023-.864-2.3-2.837-2.173-4.194.256-2.713,3.963-2.59,5.625-1.357a6.106,6.106,0,0,1,2.045,6.414c-.767,2.343-2.556,1.973-3.835.617Z" transform="translate(-31.523 -9.388)" fill="#754a2d"/>
              <path id="Trazado_885967" data-name="Trazado 885967" d="M137.583,42.115a6.809,6.809,0,0,1-1.707-2.325,2.617,2.617,0,0,1-.1-2.415c.722-1.235,2.578-1.163,3.777-.756a5.162,5.162,0,0,1,3.057,4.125c.2,1.209-.1,4.425-2.117,3.729a4.961,4.961,0,0,1-1.583-1.176l-1.325-1.181c-.362-.323-.906.2-.542.523l1.37,1.22a5.853,5.853,0,0,0,1.766,1.286c2.363.9,3.343-2.021,3.266-3.759a6.17,6.17,0,0,0-3.169-5.275c-1.453-.659-3.641-.816-4.821.44-1.716,1.827.028,4.743,1.588,6.088.367.317.911-.205.542-.523" transform="translate(-31.406 -9.255)"/>
              <path id="Trazado_885968" data-name="Trazado 885968" d="M110.144,55.347c-.351,1.375-1.2,2.356-1.9,2.191s-.975-1.414-.624-2.789,1.2-2.357,1.894-2.192.975,1.414.624,2.79" transform="translate(-25.05 -13.655)" fill="#272525"/>
              <path id="Trazado_885969" data-name="Trazado 885969" d="M109.658,55.121a2.882,2.882,0,0,1-1.146,1.873.333.333,0,0,1-.426-.019,1.283,1.283,0,0,1-.321-.79,4.182,4.182,0,0,1,.518-2.507,2.22,2.22,0,0,1,.628-.764c.189-.13.349-.184.506-.075a1.2,1.2,0,0,1,.352.8,3.92,3.92,0,0,1-.111,1.486c-.114.463.625.661.739.2.219-.893.362-2.212-.371-2.943-.692-.691-1.6-.164-2.092.46a4.814,4.814,0,0,0-.953,3.183c.052.781.436,1.907,1.464,1.766,1.121-.155,1.711-1.556,1.952-2.467a.383.383,0,0,0-.739-.2" transform="translate(-24.932 -13.527)" fill="#272525"/>
              <path id="Trazado_885970" data-name="Trazado 885970" d="M134.551,60.808c-.375,1.471-1.282,2.52-2.025,2.344s-1.043-1.513-.669-2.984,1.285-2.52,2.027-2.343,1.042,1.512.667,2.983" transform="translate(-30.695 -15.023)" fill="#272525"/>
              <path id="Trazado_885971" data-name="Trazado 885971" d="M134.065,60.582a3.116,3.116,0,0,1-1.236,2.019.391.391,0,0,1-.489-.024,1.393,1.393,0,0,1-.352-.861,4.482,4.482,0,0,1,.558-2.7,2.409,2.409,0,0,1,.683-.827c.191-.131.383-.2.567-.081a1.273,1.273,0,0,1,.389.868,4.221,4.221,0,0,1-.12,1.6c-.114.463.626.661.739.2.232-.946.387-2.347-.389-3.122-.726-.726-1.682-.167-2.2.487a5.115,5.115,0,0,0-1.014,3.391c.055.819.454,2.012,1.535,1.864,1.187-.164,1.811-1.657,2.065-2.62a.383.383,0,0,0-.739-.2" transform="translate(-30.578 -14.896)" fill="#272525"/>
            </g>
          </g>
        </g>
      </g>
    </g>
  </g>
</svg>
