<svg xmlns="http://www.w3.org/2000/svg" xmlns:xlink="http://www.w3.org/1999/xlink" width="143.282" height="143.281" viewBox="0 0 143.282 143.281">
  <defs>
    <clipPath id="clip-path">
      <rect id="Rectángulo_401430" data-name="Rectángulo 401430" width="63.462" height="63.6" fill="none"/>
    </clipPath>
  </defs>
  <g id="Grupo_1099956" data-name="Grupo 1099956" transform="translate(-1253.466 -267.586)">
    <g id="Grupo_1099954" data-name="Grupo 1099954" transform="translate(1293.21 267.586) rotate(21)">
      <g id="Grupo_1099329" data-name="Grupo 1099329">
        <g id="Grupo_1098744" data-name="Grupo 1098744" transform="translate(0 0)">
          <g id="Grupo_1098741" data-name="Grupo 1098741">
            <g id="Rectángulo_400898" data-name="Rectángulo 400898" transform="translate(0 0)" fill="#fff" stroke="#fff" stroke-width="3" opacity="0.859">
              <rect width="110.904" height="110.903" rx="55.452" stroke="none"/>
              <rect x="1.5" y="1.5" width="107.904" height="107.903" rx="53.952" fill="none"/>
            </g>
            <g id="Rectángulo_400907" data-name="Rectángulo 400907" transform="translate(0 0)" fill="none" stroke="#fff" stroke-width="3">
              <rect width="110.904" height="110.903" rx="55.452" stroke="none"/>
              <rect x="1.5" y="1.5" width="107.904" height="107.903" rx="53.952" fill="none"/>
            </g>
          </g>
        </g>
      </g>
    </g>
    <g id="Grupo_1099955" data-name="Grupo 1099955" transform="translate(1307.529 299.991) rotate(21)">
      <g id="Grupo_1099619" data-name="Grupo 1099619" clip-path="url(#clip-path)">
        <path id="Trazado_876737" data-name="Trazado 876737" d="M38.141,63.221c6.377-.784,11.321-2.493,15.557-5.377a21.409,21.409,0,0,0,9.538-15.489c.049-.373.1-.746.159-1.119q.034-.23.068-.46V37.066c-.048-.361-.093-.722-.138-1.083-.1-.8-.2-1.618-.334-2.414A33.336,33.336,0,0,0,57.781,20.6c-.07-.106-.138-.214-.225-.355l-.9-1.423h3c.141,0,.283,0,.424-.006.332-.006.675-.013,1.028.013a2.031,2.031,0,0,0,2.346-1.411V15.59c-.061-.328-.118-.658-.174-.988-.13-.759-.252-1.476-.436-2.183A16.316,16.316,0,0,0,48.7.1a2.579,2.579,0,0,1-.41-.09L48.257,0H41.5a2.045,2.045,0,0,0-1.41,2.361c.04.689.03,1.364.02,2.078,0,.319-.009.644-.009.98v1.01l-.972-.276a26.237,26.237,0,0,0-14.815.007l-.974.28V5.425c0-.327,0-.648-.009-.965-.01-.72-.019-1.4.02-2.1A2.049,2.049,0,0,0,21.946,0H15.176c-.415.088-.835.164-1.241.238a16.578,16.578,0,0,0-2.649.627C5.2,3.05,1.483,7.493.246,14.071A18.16,18.16,0,0,0,0,16.982a1.764,1.764,0,0,0,.474,1.3,1.889,1.889,0,0,0,1.356.54c.789.009,1.577.007,2.412,0l1.177,0H6.836l-.994,1.508c-.128.193-.239.361-.349.531A32.508,32.508,0,0,0,0,39.015,23.143,23.143,0,0,0,3.34,51.356,23.693,23.693,0,0,0,13,59.729a38.459,38.459,0,0,0,15.044,3.749c.289.02.573.053.848.085l.332.037h5c.407-.039.814-.075,1.221-.111.886-.078,1.8-.159,2.692-.268M43.657,5.234q0-.421,0-.851v-.7l.7-.057c4.148-.339,7.162.32,9.773,2.136a13.241,13.241,0,0,1,5.531,8.586l.192.919h-.939l-1.542,0-1.511,0c-.694,0-1.377,0-2.07-.009-.194,0-.389,0-.584,0a17.392,17.392,0,0,1-2.49-.124,8.348,8.348,0,0,1-7.059-8.1c-.009-.6-.007-1.183,0-1.8M6.723,15.271c-.706,0-1.412-.008-2.119-.008h-.81l.048-.808a10.619,10.619,0,0,1,3.815-7.37A15.472,15.472,0,0,1,19.068,3.6l.676.057.028.831c.078,2.273.159,4.624-1.233,6.774a8.191,8.191,0,0,1-7.007,3.985c-.894.021-1.8.027-2.69.027-.712,0-1.42,0-2.118-.008M33.461,60c-.332.017-.621.031-.849.045l-.026,0h-.026C26.1,60.007,21.5,59.3,17.176,57.673A21.307,21.307,0,0,1,6.9,50.22,18.375,18.375,0,0,1,3.563,39.846C3.351,32.484,5.858,25.6,11.014,19.4a1.783,1.783,0,0,1,1.14-.577,11.881,11.881,0,0,0,10.407-7.692,1.842,1.842,0,0,1,.988-.941,22.58,22.58,0,0,1,16.275-.031A2,2,0,0,1,40.9,11.171,11.906,11.906,0,0,0,51.282,18.82a1.88,1.88,0,0,1,1.186.611,30.681,30.681,0,0,1,6.983,14.487,22.813,22.813,0,0,1-.9,12.613,18.288,18.288,0,0,1-8.761,9.543A33.042,33.042,0,0,1,36.97,59.765c-1.286.128-2.571.192-3.509.239" transform="translate(0 0)" fill="#2c2926"/>
        <path id="Trazado_876738" data-name="Trazado 876738" d="M.254,14.221c.721,3.321,2.752,5.787,6.209,7.538C9.4,23.245,12.628,23.88,17.6,23.947c.2-.015.432-.03.7-.047.722-.046,1.71-.11,2.666-.228a18.2,18.2,0,0,0,8.3-2.916,10.776,10.776,0,0,0,4.6-6.914,9.941,9.941,0,0,0-1.657-7.486,13.774,13.774,0,0,0-7.527-5.226A24.725,24.725,0,0,0,17.135,0,32.464,32.464,0,0,0,12.6.333,17.856,17.856,0,0,0,4.776,3.18,10.412,10.412,0,0,0,.254,14.221M6.374,6.415A13.5,13.5,0,0,1,12.742,3.91a23.561,23.561,0,0,1,11.2.721,11.377,11.377,0,0,1,4,2.244,6.91,6.91,0,0,1,2.515,5.535A6.929,6.929,0,0,1,27.427,17.7a13.885,13.885,0,0,1-6.537,2.4c-.943.128-1.9.194-2.59.242-.25.017-.47.033-.649.048l-.038,0h-.038c-3.624-.054-6.614-.373-9.431-1.759a7.752,7.752,0,0,1-4.2-4.392,6.871,6.871,0,0,1,2.434-7.82" transform="translate(14.713 29.494)" fill="#2c2926"/>
        <path id="Trazado_876739" data-name="Trazado 876739" d="M1.774,0A1.778,1.778,0,0,0,.518,3.032a1.756,1.756,0,0,0,1.249.526h.005A1.785,1.785,0,0,0,3.547,1.785,1.779,1.779,0,0,0,1.78,0Z" transform="translate(14.717 24.424)" fill="#2c2926"/>
        <path id="Trazado_876740" data-name="Trazado 876740" d="M1.776,0A1.777,1.777,0,1,0,3.547,1.8h0A1.778,1.778,0,0,0,1.794,0H1.776" transform="translate(45.186 24.424)" fill="#2c2926"/>
        <path id="Trazado_876741" data-name="Trazado 876741" d="M1.767,3.558h.005A1.784,1.784,0,0,0,3.547,1.785,1.779,1.779,0,0,0,1.78,0H1.774A1.778,1.778,0,0,0,.518,3.032a1.756,1.756,0,0,0,1.249.526" transform="translate(24.873 39.688)" fill="#2c2926"/>
        <path id="Trazado_876742" data-name="Trazado 876742" d="M1.775,0A1.777,1.777,0,0,0,.513,3.027a1.753,1.753,0,0,0,1.246.531h.013A1.779,1.779,0,0,0,1.788,0H1.775" transform="translate(35.029 39.688)" fill="#2c2926"/>
      </g>
    </g>
  </g>
</svg>
