<svg xmlns="http://www.w3.org/2000/svg" xmlns:xlink="http://www.w3.org/1999/xlink" width="276.069" height="176.569" viewBox="0 0 276.069 176.569">
  <defs>
    <clipPath id="clip-path">
      <rect id="Rectángulo_401931" data-name="Rectángulo 401931" width="142.956" height="176.696" fill="none"/>
    </clipPath>
    <clipPath id="clip-path-3">
      <rect id="Rectángulo_401926" data-name="Rectángulo 401926" width="34.496" height="17.546" fill="none"/>
    </clipPath>
    <clipPath id="clip-path-4">
      <rect id="Rectángulo_401927" data-name="Rectángulo 401927" width="33.515" height="41.346" fill="none"/>
    </clipPath>
    <clipPath id="clip-path-5">
      <rect id="Rectángulo_401928" data-name="Rectángulo 401928" width="37.512" height="97.033" fill="none"/>
    </clipPath>
    <clipPath id="clip-path-6">
      <rect id="Rectángulo_401929" data-name="Rectángulo 401929" width="16.974" height="24.649" fill="none"/>
    </clipPath>
  </defs>
  <g id="Grupo_1102058" data-name="Grupo 1102058" transform="translate(-198.88 -2135.62)">
    <g id="Grupo_1101888" data-name="Grupo 1101888" transform="translate(-945.051 1360.163)">
      <path id="Rectángulo_401603" data-name="Rectángulo 401603" d="M58.5,0H210a0,0,0,0,1,0,0V117a0,0,0,0,1,0,0H58.5A58.5,58.5,0,0,1,0,58.5v0A58.5,58.5,0,0,1,58.5,0Z" transform="translate(1420 930) rotate(180)" fill="#bbcbc5"/>
    </g>
    <g id="Grupo_1102037" data-name="Grupo 1102037" transform="matrix(0.208, 0.978, -0.978, 0.208, 371.715, 2135.62)">
      <g id="Grupo_1102036" data-name="Grupo 1102036" clip-path="url(#clip-path)">
        <g id="Grupo_1102035" data-name="Grupo 1102035">
          <g id="Grupo_1102034" data-name="Grupo 1102034" clip-path="url(#clip-path)">
            <path id="Trazado_894767" data-name="Trazado 894767" d="M5.994,187.37c1.509-1.224,3.491-1.3,5.348-1.2a.9.9,0,0,1,.442.155c.3-1.236.568-2.479.909-3.7.533-1.911,1.339-3.727,1.894-5.632a38.689,38.689,0,0,0,1.147-5.352,60.412,60.412,0,0,0,.493-10.779c-.019-.514-.04-1.032-.059-1.549a8.534,8.534,0,0,0-2.034-1.563c-1.334-.593-2.859.918-3.581,1.895A7.418,7.418,0,0,0,9.764,161q-.3,2.094-.554,4.193c-.629,5.105-.828,10.425-2.135,15.412-.712,2.718-1.816,5.636-2.613,8.561a7.316,7.316,0,0,1,1.532-1.8" transform="translate(-1.005 -35.514)" fill="#b3374c"/>
            <path id="Trazado_894768" data-name="Trazado 894768" d="M6.767,212.484a8.749,8.749,0,0,0,3,1.83,7.52,7.52,0,0,1-2.391-3.986,13.156,13.156,0,0,1,1.433-8.68c.614-1.189,1.287-2.323,1.79-3.549a4.678,4.678,0,0,1-.359-1.572,5.392,5.392,0,0,0-3.852.863,14.609,14.609,0,0,0-2.831,4.079.563.563,0,0,1-.182.191c-.548,3.905,0,7.672,3.388,10.824" transform="translate(-0.72 -44.276)" fill="#e8b09d"/>
            <path id="Trazado_894769" data-name="Trazado 894769" d="M17.088,154.143c.249.181.483.362.72.543a19.381,19.381,0,0,1,.526-5.014,11.367,11.367,0,0,1,.409-1.242.646.646,0,0,1-.865-.41c-.275-.892-.682-1.722-.966-2.6a23.879,23.879,0,0,0-3.763,3.178q-.7,3.257-1.227,6.544a6.712,6.712,0,0,1,1.972-1.388,2.99,2.99,0,0,1,3.194.384" transform="translate(-2.686 -32.768)" fill="#ffd8cc"/>
            <path id="Trazado_894770" data-name="Trazado 894770" d="M22.5,157.063a10.716,10.716,0,0,0,1.1.606,14.841,14.841,0,0,1,6.788,5.8c2.13,3.4,3.538,7.131,6.608,9.8,2.861-2.608,5.1-6.6,9.155-7.284,2.664-.449,4.849.526,7.378,1.119a5.155,5.155,0,0,0,3.211-.456,4.748,4.748,0,0,1,1.721-.276c-1.733-2.622-4.963-2.47-7.995-2.171-2.907.287-6.014.661-8.708-.746-3.006-1.568-4.219-4.967-5.773-7.761-1.693-3.042-4.027-6.018-7.89-5.243-.888.177-1.911.555-2.783.123a2.864,2.864,0,0,1-1.324-2.022,11.712,11.712,0,0,0-1.435,4.822,34.949,34.949,0,0,0-.058,3.693" transform="translate(-5.064 -33.472)" fill="#ffd8cc"/>
            <path id="Trazado_894771" data-name="Trazado 894771" d="M18.51,125.4a12.491,12.491,0,0,0,.876,2.764c.24-.1.481-.2.725-.3a18.722,18.722,0,0,1,3.839-4.4,114.085,114.085,0,0,0,8.466-8.531c2.73-2.971,5.446-5.953,8.346-8.76,2.79-2.7,5.69-5.283,8.533-7.926,5.389-5.008,10.352-10.27,14.163-16.6a90.977,90.977,0,0,0,6.89-14.21,5.363,5.363,0,0,1-1.319-3.4c-.106-.773-.159-1.423-.9-1.842a1.95,1.95,0,0,0-1.752-.017,13.1,13.1,0,0,0-3.746,2.912,24.572,24.572,0,0,1-3.457,2.934.8.8,0,0,1-1.158-.472c-.2-.766-.571-3.1-1.468-3.472-.245-.1-.815.476-1.127.8-1.038,1.078-2.039,2.439-3.554,2.86a3.288,3.288,0,0,1-3.987-2.312,6.733,6.733,0,0,1-.178-1.453c-.753,1.714-1.491,3.436-2.195,5.171a75.188,75.188,0,0,1-3,6.949,72.816,72.816,0,0,1-8.868,12.557c-3.218,3.835-6.872,7.419-9.747,11.524a43.544,43.544,0,0,0-5.818,12.595c-1.446,4.807-2.711,9.716-3.883,14.6-.01.043-.018.088-.029.131,1.081-.916,2.259-1.744,3.174-2.591a.7.7,0,0,1,1.179.488" transform="translate(-3.19 -13.965)" fill="#b3374c"/>
            <path id="Trazado_894772" data-name="Trazado 894772" d="M108.407,2.56c-.112.036-.222.08-.334.117.557-.175,1.117-.338,1.682-.484-.454.107-.906.225-1.348.367" transform="translate(-24.351 -0.494)" fill="#cf4058"/>
            <path id="Trazado_894773" data-name="Trazado 894773" d="M102.833,31.54c-.854,3.935.516,7.424,1.233,11.231.258-2.683.478-5.367.844-8.04.542-3.959,1.318-7.878,1.9-11.83.52-3.529,1.274-6.96,2.1-10.427a53.323,53.323,0,0,0,1.517-8.786c-.2.008-.406.009-.609.023a5.6,5.6,0,0,0-.571.586c-1.581,1.893-2.231,4.492-2.759,6.848-.256,1.144-.5,2.271-.779,3.382-.239,2.116-.273,4.258-.4,6.437-.211,3.666-1.71,7.026-2.481,10.576" transform="translate(-23.11 -0.831)" fill="#cf4058"/>
            <path id="Trazado_894774" data-name="Trazado 894774" d="M79.255,82.61A31.1,31.1,0,0,1,77.147,77.5a25.209,25.209,0,0,0-1.786-5.293,3.253,3.253,0,0,0-2.074-1.793l-.389-.089A85.373,85.373,0,0,1,63.572,88.3c-4.1,5.923-9.339,10.855-14.624,15.7-2.811,2.577-5.63,5.147-8.3,7.871-2.725,2.78-5.3,5.7-7.963,8.542-2.577,2.758-5.372,5.228-8.079,7.844a12.027,12.027,0,0,0-1.047,1.171c.085.758.2,1.92.789,2.326.373.26.913.081,1.319,0a7.972,7.972,0,0,1,4.455.017c6.627,2.359,5.879,12.754,13.348,13.716,2.973.383,5.929-.48,8.9-.389a6.738,6.738,0,0,1,6.388,4.16.661.661,0,0,1-.737.958c-2.02-.548-3.7,1.081-5.78.731-2.455-.414-4.571-1.6-7.143-1.2a8.019,8.019,0,0,0-4.575,2.834,47.4,47.4,0,0,1-4.453,4.534.756.756,0,0,1-1.027,0c-2.772-2.16-4.337-5.12-5.968-8.155-1.4-2.6-2.893-5.122-5.526-6.617-.789-.448-1.628-.81-2.446-1.209.036,1.061.07,2.121.051,3.18a55.83,55.83,0,0,1-1.134,10.706c-.789,3.676-2.367,7.089-3.254,10.739-.219.9-.428,1.811-.676,2.708,1.244-.82,2.428-1.977,3.955-2a3.593,3.593,0,0,1,2.67,1.219c.847.863,1.417,1.6,2.69.79,1.068-.676,1.706-1.928,2.594-2.8a13.389,13.389,0,0,1,3.546-2.491c2.349-1.121,4.9-1.211,7.449-1.408,3.523-.273,6.6-2,10.026-2.711,2.648-.552,5.361-.72,8-1.293a12.073,12.073,0,0,0,6.748-3.659,25.634,25.634,0,0,0,2.535-3.959q1.262-2.106,2.559-4.193a34.232,34.232,0,0,0,4.352-8.831c.956-3.5-.082-7.2,1.15-10.653,1.167-3.274,3.223-6.15,4.207-9.5a49,49,0,0,0,2-10.6c.24-3.682-.269-7.29-.383-10.961a73.359,73.359,0,0,1,.377-9.4c-.005-.029-.006-.059-.014-.089a16.018,16.018,0,0,0-1.3-3.324" transform="translate(-3.626 -15.846)" fill="#cf4058"/>
            <path id="Trazado_894775" data-name="Trazado 894775" d="M59.936,52.842c1.394,1.132,2.769-.2,3.708-1.212.788-.846,1.765-2.269,3.082-2.175,1.528.11,2.236,2.019,2.656,3.529,2.155-1.711,3.834-4.121,6.4-5.236a3.318,3.318,0,0,1,4.83,2.468,9.479,9.479,0,0,0,.521,2.466,130.815,130.815,0,0,0,5.932-22.8c.562-3.269,2.171-6.119,3.818-8.952A33.1,33.1,0,0,0,94.531,12.4c.663-2.571,1.527-5.98,3.328-8.319-.487.089-.974.18-1.447.309a33.141,33.141,0,0,0-8.558,3.66,74.057,74.057,0,0,0-8.4,7.391,69.429,69.429,0,0,0-6.6,7.511,91.25,91.25,0,0,0-6.487,10.714q-3.437,6.238-6.461,12.7c-.015.066-.035.132-.05.2-.361,1.525-1.429,5.056.075,6.276" transform="translate(-13.329 -0.92)" fill="#e8b09d"/>
            <path id="Trazado_894776" data-name="Trazado 894776" d="M94.024,203.482c.356,1.707.534,3.45.724,5.18a12.378,12.378,0,0,0,.425,2.254,2.7,2.7,0,0,0,1.23,1.874,4.211,4.211,0,0,0,.532.2,3.643,3.643,0,0,1-.231-.664,21.887,21.887,0,0,1-.235-4.191,43.229,43.229,0,0,0-.511-5.587c-.232-1.343-.613-3.149-2.017-3.749a4,4,0,0,0-2.832.007,2.575,2.575,0,0,1,.907.465c1.264.984,1.7,2.714,2.009,4.209" transform="translate(-20.529 -44.737)" fill="#bfa298"/>
            <path id="Trazado_894777" data-name="Trazado 894777" d="M111.346,12.475a59.826,59.826,0,0,0,.492,11.275c.571,3.835,1.191,7.683,1.446,11.555a65.438,65.438,0,0,1-.346,12.086c-.418,3.509-1.026,6.993-1.584,10.481-.555,3.471-.932,6.963-1.724,10.392-1.568,6.789-4.193,13.458-4.5,20.481-.16,3.637.194,7.272.128,10.909a48.185,48.185,0,0,1-1.765,10.622c-.865,3.565-1.678,7.142-2.551,10.7-.732,2.985-1.924,6.132-1.419,9.251.359,2.211,1.593,4.113,2.683,6.022a24.487,24.487,0,0,1,3.288,8.352c.511,3.3.28,6.719,1.235,9.943a13.352,13.352,0,0,0,5.041,7.069c1.064.748,2.533,1.713,3.884,1.656,1.164-.048,2.157-.176,3.122.63.542.452.871,1.081,1.373,1.567a3.616,3.616,0,0,0,1.763.82,26.177,26.177,0,0,0,4.382.236c2.766.16,5.458.912,8.188,1.33,2.7.414,5.762.6,8.07-1.119a.759.759,0,0,1,.329-.145c2.193-3.7,6.273-4.011,9.744-5.922,4.042-2.224,5.124-7.665,5.558-11.887a33.311,33.311,0,0,0-.931-13.079c-1.407-4.509-4.9-8.07-7.657-11.78-5.384-7.232-9.769-16.3-8.945-25.525.439-4.918,2.386-9.58,2.6-14.528.222-5.223-1.125-10.412-1.273-15.628-.126-4.471-.94-9.6.727-13.872.7-1.8,1.756-3.411,2.584-5.148a8.32,8.32,0,0,0,.795-2.788c-1.066-3.89-2.334-7.72-3.294-11.644-1.164-4.758-2.056-9.586-3.46-14.283-1.2-4.027-2.663-8.565-6.654-10.61a22.891,22.891,0,0,0-5.694-1.675,46.827,46.827,0,0,1-6.838-2.08c-2.314-.887-4.579-2.051-7.067-2.343-.541-.064-1.092-.1-1.644-.12.167,2.928.035,5.868-.08,8.795" transform="translate(-22.397 -0.829)" fill="#cf4058"/>
            <path id="Trazado_894778" data-name="Trazado 894778" d="M156.4,76.5c.111,2.812.1,5.635.349,8.439.468,5.233,1.556,10.392.748,15.647-.762,4.959-2.562,9.661-2.35,14.748a32.617,32.617,0,0,0,4.032,13.518A92.89,92.89,0,0,0,167.3,141.1a29.638,29.638,0,0,1,3.562,5.919,22.1,22.1,0,0,1,1.474,6.163,38.425,38.425,0,0,1-.612,12.7c-.825,3.657-2.405,7.61-5.859,9.5-3.163,1.726-7.136,2.02-9.2,5.275a47.089,47.089,0,0,0,5.486-2.058c3.66-1.637,7.593-3.535,10.2-6.689a14.765,14.765,0,0,0,2.945-8.363c.878-10.385-.5-20.949-2.16-31.181-1.886-11.6-4.741-23-7.256-34.465-1.237-5.644-2.4-11.311-3.333-17.013s-1.7-11.443-2.959-17.1c-.005-.024-.012-.048-.018-.072-.776,1.649-1.786,3.188-2.436,4.9-.951,2.5-.848,5.266-.744,7.9" transform="translate(-34.954 -14.356)" fill="#ffd8cc"/>
            <path id="Trazado_894779" data-name="Trazado 894779" d="M98.538,35.938c.862-3.89,2.554-7.458,2.828-11.482q.045-.669.1-1.327c-1.321,2.876-3.244,5.456-4.356,8.432C96,34.51,95.755,37.8,95.09,40.868a129.922,129.922,0,0,1-5.031,17.507,4.55,4.55,0,0,1,2.7,1.766c1.855,2.542,1.989,5.961,3.19,8.8.413.975,1.059,2.119,1.636,3.322.742-5.892,1.868-11.728,2.741-17.6a40.691,40.691,0,0,0-.631-7.761c-.788-3.674-1.994-7.179-1.156-10.96" transform="translate(-20.292 -5.212)" fill="#ffd8cc"/>
            <path id="Trazado_894780" data-name="Trazado 894780" d="M100.283,170.057a4.061,4.061,0,0,1-1.64-1.149c-.488-.564-.868-1.338-1.648-1.532-.634-.157-1.337.146-1.986.079a6.851,6.851,0,0,1-2.072-.7,14.274,14.274,0,0,1-3.655-2.446,15.19,15.19,0,0,1-4.409-7.343c-.887-3.4-.561-6.965-1.233-10.4-.6-3.068-2.195-5.732-3.718-8.415a14.911,14.911,0,0,1-2.212-6.2c-.242-3.079.845-6.111,1.573-9.058.918-3.715,1.771-7.445,2.685-11.162a53.129,53.129,0,0,0,1.382-6.245,39.3,39.3,0,0,0,.23-5.088,104.117,104.117,0,0,1,.008-11.148c.7-7.118,3.415-13.84,4.839-20.815.707-3.464,1.085-7,1.66-10.488.627-3.8,1.27-7.609,1.57-11.454.586-7.49-.543-14.84-1.535-22.238a55.592,55.592,0,0,1-.088-10.087c-.483,2.1-1.012,4.189-1.458,6.3-.82,3.87-1.234,7.837-1.756,11.756-1.074,8.066-1.56,16.176-2.854,24.216-.019.117-.039.235-.057.352-.029.383-.056.767-.105,1.147a.62.62,0,0,1-.134.313C82.455,65.618,81.129,73.009,81.1,80.5c-.016,3.867.6,7.7.51,11.564a48.577,48.577,0,0,1-1.59,10.873,30.835,30.835,0,0,1-1.765,5.219c-.773,1.7-1.706,3.324-2.468,5.029a13.377,13.377,0,0,0-1.143,5.551,27.827,27.827,0,0,1-.33,5.475,29.922,29.922,0,0,1-4.169,9.15c-.9,1.477-1.877,2.907-2.836,4.348-.89,1.339-1.691,2.749-2.663,4.031a13.09,13.09,0,0,1-6.5,4.64,50.572,50.572,0,0,1-7.934,1.437,28.454,28.454,0,0,0-4.842,1.15,42.677,42.677,0,0,1-5.145,1.654c-2.88.594-5.965.163-8.724,1.34a11.235,11.235,0,0,0-3.785,2.67,14,14,0,0,1-2.642,2.749,3.511,3.511,0,0,1-3.264.351c-.926-.447-1.335-1.487-2.209-1.96-1.583-.854-3.512,1.536-4.891,2.095a2.9,2.9,0,0,1-.621.176c-.623,1.457-1.467,2.8-2.188,4.206-1.26,2.463-1.888,5.709-.71,8.325a8.319,8.319,0,0,0,2.948,3.292c2.4.322,4.945.183,7.38.5a56.742,56.742,0,0,1,6.969,1.834,32.953,32.953,0,0,0,7.318,1.131,156.372,156.372,0,0,0,15.933.042,31.02,31.02,0,0,0,7.624-1.386,12.209,12.209,0,0,0,4.961-2.637,5.854,5.854,0,0,0,1.384-3.228c.285-1.637.412-3.3.638-4.95.429-3.129.979-6.73,3.55-8.882s7.057-2.367,9.016.707a11.033,11.033,0,0,1,1.357,4.644c.211,1.728.37,3.489.425,5.228.034,1.065-.211,2.6.211,3.569.456,1.049,2.243,1.21,3.246,1.38,4.963.845,10.13.469,15.125.143,2.647-.173,5.293-.377,7.944-.5,1.026-.047,2.054-.061,3.081-.075a30.221,30.221,0,0,0-5.269-.7,12.752,12.752,0,0,1-4.748-.638" transform="translate(-2.381 -3.192)" fill="#ffd8cc"/>
            <g id="Grupo_1102024" data-name="Grupo 1102024" transform="translate(25.364 151.63)" opacity="0.53" style="mix-blend-mode: screen;isolation: isolate">
              <g id="Grupo_1102023" data-name="Grupo 1102023">
                <g id="Grupo_1102022" data-name="Grupo 1102022" clip-path="url(#clip-path-3)">
                  <path id="Trazado_894781" data-name="Trazado 894781" d="M38.763,201.356c-2.386.857-5.021,2.06-5.812,4.468-.808,2.457.825,5.215,3.114,6.42s5.025,1.176,7.587.819a49.375,49.375,0,0,1,7.687-.965c3.667.07,7.557,1.518,10.853-.088a9.058,9.058,0,0,0,4.105-4.784,9.562,9.562,0,0,0,.238-7.679c-4.049-8.574-21.878-.307-27.772,1.81" transform="translate(-32.741 -195.733)" fill="#e8cbac"/>
                </g>
              </g>
            </g>
            <g id="Grupo_1102027" data-name="Grupo 1102027" transform="translate(36.457 75.419)" opacity="0.34" style="mix-blend-mode: screen;isolation: isolate">
              <g id="Grupo_1102026" data-name="Grupo 1102026">
                <g id="Grupo_1102025" data-name="Grupo 1102025" clip-path="url(#clip-path-4)">
                  <path id="Trazado_894782" data-name="Trazado 894782" d="M58.38,116.078c-4.609,3.419-9.26,7.431-10.878,12.937a7.8,7.8,0,0,0,.066,5.351c1.609,3.578,6.341,4.192,10.263,4.3,4.279.115,8.913.124,12.356-2.418,2.546-1.879,4.01-4.863,5.177-7.8,3.68-9.268,6.439-21.105,4.657-31.062-4.884-.394-7.331,3.933-9.7,7.344-3.3,4.743-7.3,7.916-11.938,11.354" transform="translate(-47.061 -97.355)" fill="#ab3549"/>
                </g>
              </g>
            </g>
            <g id="Grupo_1102030" data-name="Grupo 1102030" transform="translate(85.172 54.807)" opacity="0.34" style="mix-blend-mode: screen;isolation: isolate">
              <g id="Grupo_1102029" data-name="Grupo 1102029">
                <g id="Grupo_1102028" data-name="Grupo 1102028" clip-path="url(#clip-path-5)">
                  <path id="Trazado_894783" data-name="Trazado 894783" d="M112.705,112.478c-1.484,7.889-2.809,15.857-2.759,23.884.045,7.071,1.233,14.322,4.867,20.389s10.036,10.77,17.1,11.021,14.344-4.788,15.391-11.782c1.277-8.522-5.984-15.573-10.378-22.986-5.279-8.9-6.494-19.385-6.188-29.555.156-5.234.752-10.44,1.415-15.63.471-3.682,2.773-10.645.872-13.988-4.008-7.046-11.233-.456-12.791,4.316-3.589,10.986-5.4,22.991-7.532,34.331" transform="translate(-109.945 -70.748)" fill="#ab3549"/>
                </g>
              </g>
            </g>
            <g id="Grupo_1102033" data-name="Grupo 1102033" transform="translate(97.821 20.809)" opacity="0.34" style="mix-blend-mode: screen;isolation: isolate">
              <g id="Grupo_1102032" data-name="Grupo 1102032">
                <g id="Grupo_1102031" data-name="Grupo 1102031" clip-path="url(#clip-path-6)">
                  <path id="Trazado_894784" data-name="Trazado 894784" d="M134.475,51.512a12.7,12.7,0,0,1-1.445-23.106c1.621-.858,4.034-2.3,5.384-1.06a11.7,11.7,0,0,1,2.7,4.73c1.327,3.587,2.5,7.383,2.019,11.177s-4.9,7.547-8.662,8.259" transform="translate(-126.274 -26.862)" fill="#ab3549"/>
                </g>
              </g>
            </g>
            <path id="Trazado_894785" data-name="Trazado 894785" d="M92.87,1.145C86.864-1.837,79.829,1.577,74.742,4.9A69.391,69.391,0,0,0,58.5,19.929,80.945,80.945,0,0,0,52,30.071Q47.72,37.548,44.08,45.364q-1.734,3.743-3.316,7.555c-1.1,2.631-2.037,5.334-3.361,7.864a72.063,72.063,0,0,1-9.285,13.053c-3.317,3.9-7.035,7.573-9.892,11.835a47.2,47.2,0,0,0-5.785,13.038c-1.5,5.075-2.88,10.247-4.054,15.405a164.378,164.378,0,0,0-2.712,16.657c-.621,5.105-.9,10.324-2.367,15.273C2.084,150.17.426,154.224.056,158.55A13.6,13.6,0,0,0,4.5,170.032a11.311,11.311,0,0,0,5.953,2.9c2.4.39,4.833.3,7.25.48a38.084,38.084,0,0,1,7.2,1.741,37.373,37.373,0,0,0,7.445,1.312c2.743.18,5.517.106,8.267.17,2.7.063,5.406.111,8.1-.043,4.633-.264,9.941-1.033,13.8-3.842,2.673-1.948,3.076-4.8,3.434-7.879.356-3.06.449-7.192,2.668-9.578a4.588,4.588,0,0,1,4.788-1.229c1.4.6,1.785,2.407,2.017,3.749a43.366,43.366,0,0,1,.512,5.587,21.821,21.821,0,0,0,.234,4.191c.807,3.381,5.539,3.507,8.282,3.725,5.408.429,10.851-.075,16.248-.433,5.225-.346,10.515-.112,15.7-.924a49.915,49.915,0,0,0,14.666-4.946c3.464-1.745,6.893-3.9,9.072-7.2a18.922,18.922,0,0,0,2.635-9.32,103.643,103.643,0,0,0-.211-14.94c-.936-11.974-3.3-23.823-5.905-35.529C134,86.12,131.106,74.261,129.46,62.16a148.632,148.632,0,0,0-3.3-17.464c-1.334-5.121-3.007-10.106-4.173-15.275-1.114-4.941-2.123-9.973-4.038-14.682a16.957,16.957,0,0,0-3.284-5.558,12.644,12.644,0,0,0-5.089-3.095c-2.185-.748-4.5-1.006-6.727-1.59a69.164,69.164,0,0,1-6.8-2.3,15.609,15.609,0,0,0-7.327-1.142,31.5,31.5,0,0,0-7.276,1.9,35.2,35.2,0,0,0-6.685,3.2,33.181,33.181,0,0,0-5.566,5.005.053.053,0,0,0,.076.075A30.845,30.845,0,0,1,83.082,3.474a20.369,20.369,0,0,1,7.59-.5c2.487.293,4.753,1.456,7.067,2.343a47,47,0,0,0,6.839,2.081,22.86,22.86,0,0,1,5.693,1.674c3.991,2.045,5.45,6.583,6.654,10.611,1.405,4.7,2.3,9.525,3.46,14.282,1.272,5.2,3.086,10.234,4.253,15.468,1.26,5.657,2.022,11.386,2.959,17.1s2.1,11.369,3.334,17.013c2.515,11.468,5.369,22.87,7.256,34.465,1.664,10.233,3.038,20.8,2.16,31.181a14.765,14.765,0,0,1-2.945,8.363c-2.61,3.154-6.542,5.052-10.2,6.688a44.086,44.086,0,0,1-14.995,3.828c-2.452.167-4.913.1-7.368.209-2.65.122-5.3.325-7.944.5-4.994.326-10.161.7-15.125-.143-1-.17-2.789-.332-3.245-1.38-.421-.968-.177-2.5-.211-3.569-.056-1.739-.214-3.5-.426-5.228a11.043,11.043,0,0,0-1.356-4.644c-1.959-3.074-6.433-2.869-9.016-.706s-3.12,5.753-3.55,8.882c-.226,1.646-.354,3.313-.638,4.95a5.854,5.854,0,0,1-1.384,3.228,12.205,12.205,0,0,1-4.961,2.637,31.027,31.027,0,0,1-7.624,1.387,156.807,156.807,0,0,1-15.932-.042,32.955,32.955,0,0,1-7.318-1.132,56.754,56.754,0,0,0-6.97-1.834c-4.533-.6-9.454.416-13.09-2.971-6.961-6.486-1.955-15.573.022-23.116C7.376,140.1,7.576,134.785,8.2,129.68A146.088,146.088,0,0,1,11,113.4c1.172-4.88,2.437-9.79,3.883-14.6A43.519,43.519,0,0,1,20.7,86.213c2.874-4.106,6.529-7.689,9.746-11.525a72.731,72.731,0,0,0,8.868-12.557,74.977,74.977,0,0,0,3-6.949q1.608-3.964,3.387-7.856Q49.093,39.9,53.043,32.75A91.378,91.378,0,0,1,59.53,22.036a69.5,69.5,0,0,1,6.6-7.51C71.189,9.465,77.116,4.29,84.055,2.067a11.626,11.626,0,0,1,8.269.011c.623.275,1.178-.619.545-.933" transform="translate(0 0)" fill="#591621"/>
            <path id="Trazado_894786" data-name="Trazado 894786" d="M86.994,201.469c.867-.775,2.3-1.808,3.072-.634a10.82,10.82,0,0,1,1.248,4.4c.208,1.506.277,3.028.507,4.531.265,1.721.8,3.749,2.442,4.642a9.029,9.029,0,0,0,3.314.816,63.015,63.015,0,0,0,6.283.543c.191,0,.3-.3.1-.383a28.871,28.871,0,0,0-5.385-1.752,14.3,14.3,0,0,1-3.326-.786,2.7,2.7,0,0,1-1.229-1.874,12.376,12.376,0,0,1-.425-2.254c-.19-1.731-.368-3.474-.724-5.18-.311-1.494-.745-3.225-2.009-4.209-1.71-1.331-3.471.022-4.69,1.325a.578.578,0,0,0,.817.817" transform="translate(-19.38 -44.79)" fill="#591621"/>
            <path id="Trazado_894787" data-name="Trazado 894787" d="M90.614.7c-4.956.724-6.5,6.88-7.543,10.94a33.085,33.085,0,0,1-3.649,8.525C77.775,23,76.165,25.847,75.6,29.116c-2.309,13.45-6.388,26.974-13.465,38.724-3.811,6.328-8.776,11.588-14.164,16.6-2.843,2.643-5.743,5.225-8.532,7.926-2.9,2.807-5.616,5.789-8.346,8.76a114.084,114.084,0,0,1-8.466,8.531c-2.347,2.069-4.3,4.312-5.113,7.406a28.922,28.922,0,0,0-.426,8.441,60.352,60.352,0,0,1-.493,10.78,38.7,38.7,0,0,1-1.147,5.351c-.555,1.9-1.36,3.722-1.894,5.633-.517,1.855-.864,3.753-1.4,5.6a26.61,26.61,0,0,1-2.189,4.663,13.162,13.162,0,0,0-1.434,8.68,8.239,8.239,0,0,0,3.877,5.126,17.214,17.214,0,0,0,3.557,1.652c.337.12.543-.4.241-.569-2.129-1.209-4.476-2.551-5.525-4.878-1.178-2.615-.55-5.861.71-8.325.729-1.425,1.587-2.78,2.212-4.258a31.494,31.494,0,0,0,1.409-4.886c.887-3.649,2.465-7.063,3.254-10.739A55.837,55.837,0,0,0,19.4,128.626c.05-2.854-.27-5.721-.039-8.571a11.4,11.4,0,0,1,3.489-7.485c2.707-2.617,5.5-5.087,8.079-7.844,2.658-2.844,5.238-5.761,7.963-8.542,2.67-2.725,5.49-5.294,8.3-7.871,5.286-4.846,10.524-9.778,14.625-15.7,7.539-10.89,12.062-23.938,14.85-36.8.665-3.069.915-6.358,2.017-9.307,1.118-2.99,3.056-5.582,4.378-8.474a37.3,37.3,0,0,0,2.191-7.56c.528-2.356,1.178-4.955,2.759-6.849a4.988,4.988,0,0,1,2.921-1.763C91.7,1.7,91.36.591,90.614.7" transform="translate(-1.869 -0.156)" fill="#591621"/>
            <path id="Trazado_894788" data-name="Trazado 894788" d="M3.366,157.316A14.561,14.561,0,0,1,6.2,153.237c1.294-1.058,3.1-.942,4.664-.8l-.827-.827c-.062,1.813.524,4.123,2.821,3.192,1.378-.559,3.308-2.949,4.89-2.095.875.473,1.284,1.512,2.209,1.96a3.515,3.515,0,0,0,3.264-.351,14.017,14.017,0,0,0,2.641-2.749,11.213,11.213,0,0,1,3.785-2.67c2.759-1.178,5.843-.747,8.724-1.34a42.815,42.815,0,0,0,5.145-1.654,28.456,28.456,0,0,1,4.842-1.15,50.6,50.6,0,0,0,7.935-1.436,13.09,13.09,0,0,0,6.5-4.641c.971-1.281,1.772-2.692,2.662-4.031.959-1.442,1.934-2.871,2.837-4.348a29.943,29.943,0,0,0,4.168-9.151,27.823,27.823,0,0,0,.33-5.474,13.4,13.4,0,0,1,1.143-5.551c.763-1.706,1.695-3.329,2.468-5.029a30.722,30.722,0,0,0,1.765-5.219A48.591,48.591,0,0,0,79.75,89c.086-3.866-.526-7.7-.51-11.565.034-8.105,1.586-16.094,2.868-24.068,1.294-8.04,1.779-16.149,2.854-24.216.522-3.919.937-7.885,1.756-11.756.781-3.684,1.838-7.312,2.4-11.041a25.807,25.807,0,0,0,.32-5.072l-1.494.2c1.043,6.507-.557,13.16.32,19.7.992,7.4,2.123,14.749,1.536,22.238-.3,3.845-.944,7.652-1.571,11.454-.575,3.488-.953,7.024-1.66,10.488-1.424,6.975-4.134,13.7-4.838,20.816a103.7,103.7,0,0,0-.008,11.148,39.455,39.455,0,0,1-.23,5.089,53.278,53.278,0,0,1-1.383,6.244c-.914,3.716-1.766,7.447-2.684,11.162-.728,2.947-1.816,5.978-1.574,9.058a14.915,14.915,0,0,0,2.212,6.2c1.524,2.683,3.118,5.347,3.718,8.415.672,3.434.346,7,1.232,10.4a15.2,15.2,0,0,0,4.41,7.342,14.26,14.26,0,0,0,3.654,2.447,6.872,6.872,0,0,0,2.072.7c.65.067,1.353-.237,1.987-.079.779.194,1.159.968,1.647,1.532a4.075,4.075,0,0,0,1.64,1.15,12.756,12.756,0,0,0,4.749.638c5.929.081,12.977,3.825,18.332-.175.837-.625.019-2.051-.83-1.418-2.308,1.724-5.372,1.534-8.07,1.119-2.729-.418-5.422-1.171-8.188-1.33a26.164,26.164,0,0,1-4.382-.236,3.615,3.615,0,0,1-1.764-.82c-.5-.486-.83-1.114-1.373-1.567-.964-.806-1.958-.678-3.122-.63-1.351.057-2.821-.907-3.884-1.656a13.352,13.352,0,0,1-5.041-7.069c-.954-3.224-.724-6.644-1.235-9.943a24.487,24.487,0,0,0-3.288-8.352c-1.091-1.91-2.325-3.811-2.683-6.022-.506-3.12.686-6.267,1.418-9.252.873-3.563,1.686-7.139,2.551-10.7a48.185,48.185,0,0,0,1.765-10.622c.067-3.637-.287-7.272-.128-10.909.308-7.022,2.933-13.692,4.5-20.481.792-3.429,1.169-6.922,1.724-10.392.559-3.489,1.166-6.972,1.584-10.481A65.44,65.44,0,0,0,91.41,34.6c-.255-3.872-.875-7.72-1.446-11.556a59.818,59.818,0,0,1-.492-11.274A73.6,73.6,0,0,0,89.438,1.28a.761.761,0,0,0-1.521,0,46.86,46.86,0,0,1-1.588,10.486c-.83,3.467-1.584,6.9-2.1,10.426-.582,3.952-1.357,7.872-1.9,11.83-.517,3.772-.741,7.565-1.195,11.343-.916,7.617-2.536,15.129-3.437,22.748A78.054,78.054,0,0,0,77.086,79.7c.113,3.671.624,7.279.382,10.961a49,49,0,0,1-2,10.6c-.985,3.346-3.042,6.222-4.208,9.5-1.232,3.458-.194,7.158-1.149,10.653a34.271,34.271,0,0,1-4.353,8.831q-1.3,2.083-2.558,4.193a25.581,25.581,0,0,1-2.536,3.959,12.068,12.068,0,0,1-6.747,3.659c-2.644.574-5.356.741-8,1.293-3.421.712-6.5,2.439-10.025,2.711-2.549.2-5.1.287-7.449,1.408a13.389,13.389,0,0,0-3.546,2.491c-.888.875-1.526,2.126-2.594,2.8-1.273.806-1.841.073-2.69-.79a3.59,3.59,0,0,0-2.67-1.219c-1.795.032-3.114,1.628-4.615,2.4-.155.079-.443.156-.414.176-.327-.223-.225-1.405-.226-1.709a.845.845,0,0,0-.828-.828c-1.857-.1-3.839-.024-5.348,1.2-1.477,1.2-2.266,3.124-3.119,4.769a.563.563,0,0,0,.972.568" transform="translate(-0.524 -0.123)" fill="#591621"/>
            <path id="Trazado_894789" data-name="Trazado 894789" d="M155.927,178.562c2.018-3.484,6.114-3.741,9.354-5.509,3.454-1.885,5.034-5.839,5.859-9.5a38.425,38.425,0,0,0,.612-12.7,22.1,22.1,0,0,0-1.474-6.163,29.606,29.606,0,0,0-3.563-5.919,92.883,92.883,0,0,1-8.128-12.246,32.6,32.6,0,0,1-4.032-13.519c-.212-5.087,1.587-9.788,2.35-14.747.808-5.256-.28-10.415-.748-15.647-.251-2.8-.239-5.627-.349-8.439-.1-2.63-.208-5.395.744-7.9.808-2.122,2.177-3.981,2.955-6.118a7.56,7.56,0,0,0-.572-6.424c-.377-.712-1.6-.223-1.321.556a7.658,7.658,0,0,1-.363,6.126c-.828,1.738-1.882,3.35-2.584,5.149-1.667,4.271-.854,9.4-.727,13.872.148,5.216,1.494,10.405,1.273,15.628-.21,4.949-2.156,9.611-2.6,14.529-.824,9.226,3.561,18.292,8.945,25.524,2.762,3.711,6.25,7.27,7.657,11.78a33.311,33.311,0,0,1,.931,13.079c-.433,4.223-1.515,9.663-5.558,11.888-3.5,1.928-7.63,2.227-9.807,6.02a.662.662,0,0,0,1.143.668" transform="translate(-34.366 -12.031)" fill="#591621"/>
            <path id="Trazado_894790" data-name="Trazado 894790" d="M60.981,49.1a31.006,31.006,0,0,0-2.443,6.146c-.653,2.2-1.485,4.93-.908,7.239A3.289,3.289,0,0,0,61.617,64.8c1.515-.421,2.515-1.783,3.555-2.86.311-.324.882-.9,1.126-.8.9.373,1.265,2.706,1.468,3.472a.8.8,0,0,0,1.159.471,24.553,24.553,0,0,0,3.457-2.933,13.091,13.091,0,0,1,3.746-2.912,1.947,1.947,0,0,1,1.752.017c.742.419.795,1.069.9,1.841.211,1.532.454,2.917,1.844,3.821a5.857,5.857,0,0,0,1.979.675,3.253,3.253,0,0,1,2.074,1.793,25.156,25.156,0,0,1,1.785,5.292,31.136,31.136,0,0,0,2.108,5.112,15.984,15.984,0,0,1,1.3,3.325,10.888,10.888,0,0,1,.077,3.227.506.506,0,0,0,.936.253c1.892-3.034-1.122-7.1-2.283-9.842-1.2-2.837-1.335-6.256-3.19-8.8a5,5,0,0,0-3.158-1.9c-1.821-.528-1.786-2.165-2.027-3.73a3.317,3.317,0,0,0-4.829-2.469c-2.9,1.262-4.662,4.179-7.264,5.869l1.158.471c-.385-1.434-1-4.493-2.948-4.633-1.318-.095-2.3,1.328-3.083,2.174-.939,1.008-2.314,2.343-3.708,1.212-1.5-1.219-.436-4.751-.075-6.276A68.976,68.976,0,0,1,61.69,49.4c.149-.417-.5-.679-.709-.3" transform="translate(-12.942 -11.022)" fill="#591621"/>
            <path id="Trazado_894791" data-name="Trazado 894791" d="M105.82,11.109a31.974,31.974,0,0,0-2.071,10.6c-.273,4.024-1.965,7.592-2.828,11.482-.838,3.781.368,7.287,1.156,10.961.923,4.306.377,8.717.941,13.053a.54.54,0,0,0,1.08,0,38.989,38.989,0,0,0,.122-6.486,44.1,44.1,0,0,0-.521-5.96c-.694-3.946-2.179-7.528-1.3-11.585.77-3.551,2.269-6.911,2.48-10.577.223-3.874.132-7.633,1.483-11.336.126-.346-.407-.474-.543-.15" transform="translate(-22.676 -2.461)" fill="#591621"/>
            <path id="Trazado_894792" data-name="Trazado 894792" d="M11.379,150.862c-.06-3.055,3.84-4.946,5.794-6.732l-1.179-.489a21.284,21.284,0,0,0,1.253,3.821.654.654,0,0,0,.948.386c1.116-.634,2.4-.9,3.464-1.642l-.933-.38c.165,1.167.37,2.884,1.578,3.483.872.432,1.9.054,2.783-.124,3.863-.775,6.2,2.2,7.89,5.244,1.554,2.793,2.767,6.193,5.772,7.761,2.7,1.406,5.8,1.033,8.709.746,3.381-.335,7.018-.5,8.538,3.186l.8-.8a4.7,4.7,0,0,0-3.065.061,5.156,5.156,0,0,1-3.211.456c-2.529-.594-4.715-1.568-7.379-1.12-4.295.723-6.553,5.165-9.67,7.736H34.5c-3.45-2.683-4.87-6.659-7.119-10.248a14.839,14.839,0,0,0-6.789-5.8,25.641,25.641,0,0,1-4.135-2.823,2.99,2.99,0,0,0-3.194-.384c-2.855,1.285-5.048,5.119-3.773,8.167a.426.426,0,0,0,.821-.227,6.394,6.394,0,0,1,1.294-4.8c.722-.978,2.247-2.487,3.581-1.895,1.08.48,1.932,1.626,2.926,2.275,1.214.793,2.608,1.276,3.868,1.991,2.632,1.494,4.127,4.016,5.525,6.616,1.632,3.035,3.2,6,5.969,8.155a.756.756,0,0,0,1.027,0,47.408,47.408,0,0,0,4.453-4.534,8.019,8.019,0,0,1,4.575-2.834c2.571-.4,4.688.783,7.143,1.2,2.079.351,3.761-1.28,5.781-.731a.661.661,0,0,0,.736-.958,6.738,6.738,0,0,0-6.389-4.159c-2.972-.092-5.928.771-8.9.388-7.469-.961-6.721-11.357-13.348-13.715a7.972,7.972,0,0,0-4.455-.018c-.407.085-.946.264-1.319,0-.671-.466-.727-1.927-.825-2.632a.638.638,0,0,0-.933-.38,31.513,31.513,0,0,1-3.474,1.624l.947.386a24.129,24.129,0,0,1-1.116-3.478.7.7,0,0,0-1.179-.488c-2.29,2.119-6.233,4.1-6.14,7.709a.662.662,0,0,0,1.323,0" transform="translate(-2.054 -32.211)" fill="#591621"/>
            <path id="Trazado_894793" data-name="Trazado 894793" d="M94.352,198.257a16.375,16.375,0,0,1-.913,1.472,7.477,7.477,0,0,0-.437.726,1.922,1.922,0,0,0-.271.895c.009.218.305.385.468.194a4.447,4.447,0,0,0,.445-.741c.138-.247.284-.488.438-.725a15.975,15.975,0,0,0,.9-1.451.374.374,0,0,0-.131-.5.369.369,0,0,0-.5.131" transform="translate(-20.895 -44.632)" fill="#591621"/>
            <path id="Trazado_894794" data-name="Trazado 894794" d="M95.283,199.748a10.616,10.616,0,0,1-1.309,2.2c-.239.342-.473.689-.679,1.054a1.931,1.931,0,0,0-.393,1.274.361.361,0,0,0,.6.158,3.907,3.907,0,0,0,.531-1.12c.187-.387.405-.759.624-1.129a10.773,10.773,0,0,0,1.126-2.3c.1-.325-.382-.442-.5-.138" transform="translate(-20.929 -44.968)" fill="#591621"/>
            <path id="Trazado_894795" data-name="Trazado 894795" d="M96.2,201.5c-.444.771-.922,1.521-1.4,2.271-.235.368-.47.735-.7,1.107a6.813,6.813,0,0,0-.656,1.179c-.132.359.419.7.662.386a9.525,9.525,0,0,0,.672-1.119q.338-.584.681-1.167c.449-.767.9-1.535,1.312-2.322a.331.331,0,0,0-.572-.334" transform="translate(-21.051 -45.367)" fill="#591621"/>
            <path id="Trazado_894796" data-name="Trazado 894796" d="M97.817,203.421a34.9,34.9,0,0,0-1.768,3.109,16.105,16.105,0,0,1-.935,1.528,6.08,6.08,0,0,1-.5.612,3.924,3.924,0,0,0-.6.655.43.43,0,0,0,.481.625c.548-.179.961-.814,1.274-1.268a11.839,11.839,0,0,0,.917-1.625c.534-1.119.977-2.288,1.618-3.351.19-.315-.281-.577-.486-.284" transform="translate(-21.172 -45.807)" fill="#591621"/>
            <path id="Trazado_894797" data-name="Trazado 894797" d="M97.926,208.106c-.631.756-1.2,1.556-1.778,2.355-.28.392-.562.783-.851,1.168a4.5,4.5,0,0,0-.781,1.208.358.358,0,0,0,.52.4A3.336,3.336,0,0,0,96,212.178c.282-.4.555-.816.827-1.227.538-.815,1.075-1.632,1.672-2.407.249-.322-.3-.752-.567-.438" transform="translate(-21.293 -46.867)" fill="#591621"/>
            <path id="Trazado_894798" data-name="Trazado 894798" d="M93.163,194.325a3.071,3.071,0,0,1,2.452-.136,3.025,3.025,0,0,1,1.006.611,7.948,7.948,0,0,0,.968.963.341.341,0,0,0,.509-.292,1.965,1.965,0,0,0-.861-1.377,4.151,4.151,0,0,0-1.393-.741,3.855,3.855,0,0,0-3.043.355.358.358,0,0,0,.361.617" transform="translate(-20.871 -43.53)" fill="#591621"/>
            <path id="Trazado_894799" data-name="Trazado 894799" d="M96.485,192.1a3.7,3.7,0,0,1,.523.335l-.092-.072a3.321,3.321,0,0,1,.576.576c-.025-.033-.049-.064-.074-.1a2.643,2.643,0,0,1,.192.287c.027.047.052.1.076.145a.564.564,0,0,0,.248.253.448.448,0,0,0,.648-.263.655.655,0,0,0,0-.324.893.893,0,0,0-.1-.21,2.462,2.462,0,0,0-.143-.222,3.594,3.594,0,0,0-.41-.484,3.823,3.823,0,0,0-1-.7.482.482,0,0,0-.346-.046.449.449,0,0,0-.106.82" transform="translate(-21.691 -43.097)" fill="#591621"/>
            <path id="Trazado_894800" data-name="Trazado 894800" d="M98.253,190.645c.056.038.112.076.166.116l.077.057c.055.042-.027-.022,0,0,.013.012.027.022.041.033.1.084.2.17.3.262s.184.184.27.281c.045.05.089.1.132.153a.526.526,0,0,0,.271.189.325.325,0,0,0,.273-.056.3.3,0,0,0,.122-.246.734.734,0,0,0-.328-.5c-.119-.1-.242-.2-.367-.293a4.909,4.909,0,0,0-.71-.431.247.247,0,1,0-.249.427" transform="translate(-22.112 -42.854)" fill="#591621"/>
            <path id="Trazado_894801" data-name="Trazado 894801" d="M84.509,171.157a39.787,39.787,0,0,1-3.66,6.549,13.048,13.048,0,0,1-2.585,2.72,8.758,8.758,0,0,1-1.532.928,6.994,6.994,0,0,0-1.7.756.357.357,0,0,0,.156.591,2.79,2.79,0,0,0,1.817-.332,8.12,8.12,0,0,0,1.669-.959,13.268,13.268,0,0,0,2.759-2.852,37.377,37.377,0,0,0,3.735-7.014c.2-.445-.448-.838-.663-.388" transform="translate(-16.883 -38.521)" fill="#591621"/>
            <path id="Trazado_894802" data-name="Trazado 894802" d="M83.851,179.194c-1.037,1.016-1.882,2.24-2.824,3.34a13.674,13.674,0,0,1-3.7,3.422,2.132,2.132,0,0,1-1.673.18.361.361,0,0,0-.348.6c1.057,1.285,3-.172,3.863-.941a28.953,28.953,0,0,0,3.707-4.351,20.966,20.966,0,0,1,1.422-1.8.316.316,0,0,0-.446-.446" transform="translate(-16.948 -40.356)" fill="#591621"/>
            <path id="Trazado_894803" data-name="Trazado 894803" d="M82.7,185.128a10.454,10.454,0,0,1-2.5,2.786,9.093,9.093,0,0,1-1.6,1.024,7.53,7.53,0,0,1-.806.341,1.745,1.745,0,0,0-.8.4.281.281,0,0,0,.056.436c.565.3,1.353-.086,1.882-.346a8.961,8.961,0,0,0,1.762-1.164,11.052,11.052,0,0,0,2.618-3.122.353.353,0,0,0-.61-.357" transform="translate(-17.33 -41.675)" fill="#591621"/>
            <path id="Trazado_894804" data-name="Trazado 894804" d="M83.445,190.1a6.084,6.084,0,0,1-.679.684c-.06.051-.121.1-.183.15l-.039.031c.107-.086-.033.024-.049.038l-.095.08c-.124.1-.227.221-.341.333a.3.3,0,0,0,.293.5,2.231,2.231,0,0,0,.511-.214,4.037,4.037,0,0,0,.447-.339,6.079,6.079,0,0,0,.7-.7.427.427,0,0,0,.117-.283.4.4,0,0,0-.682-.282" transform="translate(-18.47 -42.809)" fill="#591621"/>
            <path id="Trazado_894805" data-name="Trazado 894805" d="M45.867,191.978c-1.709,1.45-4.032,1.433-6.152,1.488a15.948,15.948,0,0,0-3.017.283c-.88.194-2.1.551-2.51,1.437a.393.393,0,0,0,.437.569,8.024,8.024,0,0,0,1.325-.566,6.894,6.894,0,0,1,1.425-.4,27.067,27.067,0,0,1,3.224-.273c2.123-.124,4.238-.44,5.843-1.961.385-.365-.181-.91-.575-.576" transform="translate(-7.694 -43.234)" fill="#591621"/>
            <path id="Trazado_894806" data-name="Trazado 894806" d="M39.387,196a14.332,14.332,0,0,1-3.3,1.377c-.994.375-2.508,1.016-2.628,2.243-.027.277.321.342.493.2a13.769,13.769,0,0,1,1.167-1,9.394,9.394,0,0,1,1.508-.755,12.862,12.862,0,0,0,3.11-1.473c.339-.262.022-.849-.346-.591" transform="translate(-7.538 -44.149)" fill="#591621"/>
            <path id="Trazado_894807" data-name="Trazado 894807" d="M34.578,201.531a4.108,4.108,0,0,0-1.344.819c-.18.153-.362.307-.535.467a5.606,5.606,0,0,0-.514.545.317.317,0,0,0-.048.369.312.312,0,0,0,.344.14,2.061,2.061,0,0,0,.737-.388c.186-.148.355-.315.531-.474.084-.077.17-.153.257-.227l.132-.108c-.066.053,0,0,.012-.008l.069-.05a3.166,3.166,0,0,1,.3-.191c.05-.028.1-.054.154-.078.029-.014.069-.03.016-.009l.1-.038a.4.4,0,1,0-.212-.77" transform="translate(-7.232 -45.406)" fill="#591621"/>
            <path id="Trazado_894808" data-name="Trazado 894808" d="M19.75,200.153c-1.69-.585-3.274.52-4.322,1.765a14.443,14.443,0,0,0-2.747,5.4,5.778,5.778,0,0,0-.239,2.661c.07.335.643.355.7,0a17.98,17.98,0,0,1,1.271-4.461,9.667,9.667,0,0,1,2.972-4.183,2.445,2.445,0,0,1,2.158-.418c.49.15.687-.6.21-.762" transform="translate(-2.787 -45.063)" fill="#591621"/>
            <path id="Trazado_894809" data-name="Trazado 894809" d="M16.5,208.652a9.385,9.385,0,0,0-2.03,3.574,4.111,4.111,0,0,0-.117,2.075,1.707,1.707,0,0,0,1.356,1.365.329.329,0,0,0,.282-.492,3.254,3.254,0,0,1-.741-1.289,3.642,3.642,0,0,1,.169-1.639,8.817,8.817,0,0,1,1.576-3.1c.278-.343-.19-.836-.5-.5" transform="translate(-3.215 -46.988)" fill="#591621"/>
            <path id="Trazado_894810" data-name="Trazado 894810" d="M18.558,214.065a2.744,2.744,0,0,0-.325,1.587,2.057,2.057,0,0,0,.256.838,2.028,2.028,0,0,0,.274.355,1.023,1.023,0,0,0,.447.234.346.346,0,0,0,.387-.5,2.547,2.547,0,0,0-.208-.333c-.014-.019-.057-.084-.005-.005-.012-.019-.026-.036-.038-.055-.031-.046-.06-.095-.086-.143s-.046-.088-.069-.133c-.012-.025-.024-.05-.036-.075.023.051.019.047,0,0a1.914,1.914,0,0,1-.084-.307c0-.022-.007-.044-.011-.067.019.1,0,.019,0,0,0-.051-.008-.1-.009-.154a2.872,2.872,0,0,1,.015-.326c0-.049-.013.065,0-.012.006-.029.011-.057.016-.086.011-.051.023-.1.036-.153s.033-.112.053-.167c.008-.022.016-.043.024-.066.039-.106-.031.067.015-.038a.392.392,0,0,0-.136-.52.385.385,0,0,0-.521.136" transform="translate(-4.105 -48.192)" fill="#591621"/>
            <path id="Trazado_894811" data-name="Trazado 894811" d="M21.752,217.833l.03-.005-.1.013a.263.263,0,0,1,.07,0l-.1-.013.118.016-.095-.012a.13.13,0,0,1,.034.009l-.083-.035a.1.1,0,0,1,.026.015l-.069-.053a.136.136,0,0,1,.023.024l-.052-.067a.15.15,0,0,1,.022.037l-.033-.077a.319.319,0,0,1,.021.08c0-.027-.007-.053-.011-.081v0a.227.227,0,0,0,.026.115.222.222,0,0,0,.062.1l.061.047a.228.228,0,0,0,.112.036.154.154,0,0,0,.08,0,.228.228,0,0,0,.112-.036l.061-.047a.293.293,0,0,0,.077-.132.671.671,0,0,0,.03-.162.167.167,0,0,0,0-.034c0-.033-.008-.067-.013-.1l0-.016c-.005-.017-.015-.036-.022-.052a.532.532,0,0,0-.023-.053.5.5,0,0,0-.07-.091l-.011-.01c-.012-.011-.028-.022-.04-.031s-.028-.022-.043-.033l-.007,0,0,0c-.019-.011-.067-.029-.088-.037l-.018-.006-.02,0c-.038-.008-.077-.012-.115-.016l-.051,0a.364.364,0,0,0-.186.05l-.074.057a.377.377,0,0,0-.1.163.28.28,0,0,0-.006.147.27.27,0,0,0,.043.137.411.411,0,0,0,.221.17.366.366,0,0,0,.2,0" transform="translate(-4.796 -48.92)" fill="#591621"/>
            <path id="Trazado_894812" data-name="Trazado 894812" d="M61.974,221.615c1.484-.558,3.017-.941,4.546-1.349,1.479-.4,2.906-.885,4.344-1.4s4.486-.886,4.4-2.972a.3.3,0,0,0-.553-.15c-1.08,1.572-3.2,1.845-4.865,2.5-2.668,1.051-5.492,1.631-8.134,2.761-.345.147-.1.744.258.611" transform="translate(-13.869 -48.581)" fill="#591621"/>
            <path id="Trazado_894813" data-name="Trazado 894813" d="M77.96,212.481a8.252,8.252,0,0,0,1.43-2.154,3.827,3.827,0,0,0,.436-2.543.272.272,0,0,0-.521,0,16.632,16.632,0,0,1-.641,2.2,7.518,7.518,0,0,1-1.232,1.968c-.313.359.2.883.527.527" transform="translate(-17.426 -46.775)" fill="#591621"/>
            <path id="Trazado_894814" data-name="Trazado 894814" d="M75.365,215.717a2.2,2.2,0,0,0-.542.346,1.2,1.2,0,0,0-.352.59.306.306,0,0,0,.109.319.288.288,0,0,0,.144.06.332.332,0,0,0,.194-.036l.06-.026L74.9,217c.06-.026.116-.051.173-.082.034-.019.07-.038.105-.055a.93.93,0,0,0,.108-.052c.036-.024.07-.049.106-.071a3.085,3.085,0,0,1,.435-.239.452.452,0,0,0,.209-.273.465.465,0,0,0-.046-.352.459.459,0,0,0-.273-.209l-.122-.016a.454.454,0,0,0-.23.062" transform="translate(-16.778 -48.592)" fill="#591621"/>
            <path id="Trazado_894815" data-name="Trazado 894815" d="M73.478,220.351a11.509,11.509,0,0,1-2.692,1.443c-.958.377-1.917.732-2.862,1.141-.309.134-.076.572.217.514a16.054,16.054,0,0,0,3.061-.837,10.465,10.465,0,0,0,2.747-1.653c.335-.278-.116-.873-.47-.609" transform="translate(-15.272 -49.635)" fill="#591621"/>
            <path id="Trazado_894816" data-name="Trazado 894816" d="M59.417,220.919a21.769,21.769,0,0,0-5.238.571c-1.757.377-3.509.8-5.224,1.346-.3.094-.257.574.076.561a26.084,26.084,0,0,0,5.1-.982,23.6,23.6,0,0,1,5.282-.851.323.323,0,0,0,0-.646" transform="translate(-10.986 -49.777)" fill="#591621"/>
            <path id="Trazado_894817" data-name="Trazado 894817" d="M56.6,224.063a.061.061,0,0,0,0-.122.061.061,0,0,0,0,.122" transform="translate(-12.741 -50.459)" fill="#591621"/>
            <path id="Trazado_894818" data-name="Trazado 894818" d="M110.445,195.2c-.305,3.675,2.241,6.5,5.212,8.267a8.576,8.576,0,0,0,2.368,1.082c.378.087.827-.067.751-.531-.066-.4-.645-.628-.971-.795a15.9,15.9,0,0,1-4.314-2.912,6.82,6.82,0,0,1-2.117-5.111c.025-.6-.879-.588-.928,0" transform="translate(-24.88 -43.882)" fill="#591621"/>
            <path id="Trazado_894819" data-name="Trazado 894819" d="M116.416,199.72a5.906,5.906,0,0,0,1.405,1.751,4.6,4.6,0,0,0,.939.651,6.6,6.6,0,0,0,1.078.405.356.356,0,0,0,.273-.647,9.249,9.249,0,0,1-.861-.548c-.136-.1-.272-.194-.41-.288-.072-.05-.143-.1-.212-.153-.019-.014-.085-.066-.034-.026l-.111-.09a5.7,5.7,0,0,1-.712-.7c-.031-.036-.061-.074-.091-.111-.047-.057,0,0-.029-.037-.053-.07-.1-.143-.155-.215-.1-.149-.192-.3-.278-.459a.464.464,0,1,0-.8.468" transform="translate(-26.218 -44.845)" fill="#591621"/>
            <path id="Trazado_894820" data-name="Trazado 894820" d="M124.642,198.856c3.172,3.4,8.439,4.941,12.984,4.837a19.021,19.021,0,0,0,6.947-1.736,26.936,26.936,0,0,0,6.268-3.623,22.67,22.67,0,0,0,5.688-6.424.317.317,0,0,0-.5-.382,68.744,68.744,0,0,1-5.136,5.262,25.029,25.029,0,0,1-5.66,3.613,20.1,20.1,0,0,1-6.668,2.106,19.815,19.815,0,0,1-6.768-.649,14.6,14.6,0,0,1-6.659-3.5c-.323-.325-.81.167-.5.5" transform="translate(-28.063 -43.134)" fill="#591621"/>
            <path id="Trazado_894821" data-name="Trazado 894821" d="M152.13,195.9c1.821-1.469,4.021-2.36,5.928-3.7a10.03,10.03,0,0,0,2.443-2.346,4.42,4.42,0,0,0,.961-3.264.3.3,0,0,0-.542-.071c-.263.5-.411,1.076-.637,1.6a7.612,7.612,0,0,1-.79,1.4,11.019,11.019,0,0,1-2.281,2.23,56.1,56.1,0,0,0-5.269,3.972c-.125.122.058.294.188.188" transform="translate(-34.227 -41.994)" fill="#591621"/>
            <path id="Trazado_894822" data-name="Trazado 894822" d="M159.443,186.4a11.6,11.6,0,0,0,2.932-4.825c.555-1.715.891-3.838-.006-5.5-.121-.224-.532-.136-.5.136a12.373,12.373,0,0,1-2.853,9.755.3.3,0,0,0,.43.43" transform="translate(-35.81 -39.646)" fill="#591621"/>
            <path id="Trazado_894823" data-name="Trazado 894823" d="M160.365,176.321a4.417,4.417,0,0,0,.527-1.846,2.022,2.022,0,0,0-.477-1.694.3.3,0,0,0-.506.21,2.323,2.323,0,0,0,.005.32c0,.054,0,.109.008.163s.015.121.025.181c.005.031.009.06,0,.012a5.413,5.413,0,0,1,.029.784,3.518,3.518,0,0,1-.349,1.441.426.426,0,0,0,.735.429" transform="translate(-35.956 -38.914)" fill="#591621"/>
            <path id="Trazado_894824" data-name="Trazado 894824" d="M169.729,184.5a8.551,8.551,0,0,1-.822,2.961c-.22.486-.471.959-.734,1.425a4.828,4.828,0,0,0-.639,1.354.293.293,0,0,0,.425.326,3.063,3.063,0,0,0,1.022-1.208,12.859,12.859,0,0,0,.749-1.6,9.323,9.323,0,0,0,.737-3.256.369.369,0,0,0-.737,0" transform="translate(-37.748 -41.492)" fill="#591621"/>
            <path id="Trazado_894825" data-name="Trazado 894825" d="M152.45,207.824c-.05,2.642-3.566,2.67-5.172,3.888-.208.158-.187.618.155.574a10.506,10.506,0,0,0,2.926-.877,5.311,5.311,0,0,0,2.416-1.875,3.04,3.04,0,0,0,.443-1.71.384.384,0,0,0-.768,0" transform="translate(-33.155 -46.744)" fill="#591621"/>
            <path id="Trazado_894826" data-name="Trazado 894826" d="M156.543,207.413a2.173,2.173,0,0,1-.059.28c-.012.042-.025.083-.039.124-.008.022-.015.043-.025.065-.028.074.012-.015.017-.037a.946.946,0,0,1-.127.243c-.022.036-.045.07-.069.105-.012.015-.066.087-.009.015s0,0-.012.012a2.069,2.069,0,0,1-.18.188c-.026.024-.071.079-.1.09l.066-.051a1.1,1.1,0,0,0-.112.087l-.052.045c-.015.012-.03.023-.045.036.12-.1.057-.045.026-.022a.954.954,0,0,0-.187.151,1.4,1.4,0,0,0-.189.281.341.341,0,0,0,.2.492.9.9,0,0,0,.451.022.975.975,0,0,0,.342-.166,2.182,2.182,0,0,0,.554-.559,2.493,2.493,0,0,0,.44-1.282.453.453,0,0,0-.889-.12" transform="translate(-35.016 -46.661)" fill="#591621"/>
            <path id="Trazado_894827" data-name="Trazado 894827" d="M160.962,206.093c-.015.046-.033.093-.05.139-.009.023-.019.046-.027.069-.028.07.031-.071.009-.023-.039.085-.078.17-.123.253a3.537,3.537,0,0,1-.308.473l.074-.1c-.105.136-.224.26-.328.4l.076-.1a.7.7,0,0,0-.174.292.487.487,0,0,0,.121.458.475.475,0,0,0,.457.121,1.023,1.023,0,0,0,.518-.482,3.459,3.459,0,0,0,.224-.38,3.979,3.979,0,0,0,.331-.9.415.415,0,1,0-.8-.22" transform="translate(-36.074 -46.37)" fill="#591621"/>
            <path id="Trazado_894828" data-name="Trazado 894828" d="M162.778,205.637c.022-.053-.012.024-.016.034l-.036.076c-.021.043-.043.084-.067.125a2.591,2.591,0,0,1-.158.249c-.014.019-.053.093-.011.015a.32.32,0,0,1-.043.053c-.029.036-.06.07-.091.1-.067.073-.134.146-.207.215-.034.031-.068.061-.1.091l-.036.029c.015-.01.027-.021.041-.032a.757.757,0,0,0-.064.047c-.078.056-.156.112-.238.163a5.117,5.117,0,0,1-.519.316.289.289,0,0,0-.133.326.292.292,0,0,0,.279.212,1.992,1.992,0,0,0,.759-.194,2.146,2.146,0,0,0,.543-.43,2.625,2.625,0,0,0,.62-1.256.27.27,0,0,0-.52-.143" transform="translate(-36.297 -46.291)" fill="#591621"/>
            <path id="Trazado_894829" data-name="Trazado 894829" d="M104.652,210.851c-1,2.128.886,4.533,2.821,5.312a2.605,2.605,0,0,0,1.74.16.311.311,0,0,0,0-.594,5.776,5.776,0,0,1-3-1.6,2.824,2.824,0,0,1-.873-2.993c.162-.391-.507-.676-.688-.29" transform="translate(-23.518 -47.468)" fill="#591621"/>
            <path id="Trazado_894830" data-name="Trazado 894830" d="M108.075,211.352a4.219,4.219,0,0,0,.847,2.243,4.9,4.9,0,0,0,1.921,1.609,2.968,2.968,0,0,0,.592.208,1.628,1.628,0,0,0,.706.038.382.382,0,0,0,.283-.5c-.1-.234-.321-.277-.538-.352a5.708,5.708,0,0,1-1.944-1.119,4.423,4.423,0,0,1-1.419-2.192.229.229,0,0,0-.449.06" transform="translate(-24.352 -47.573)" fill="#591621"/>
            <path id="Trazado_894831" data-name="Trazado 894831" d="M112.5,213.64a4.775,4.775,0,0,0,2.343,1.745,3.48,3.48,0,0,0,.432.124.753.753,0,0,0,.7-.107.416.416,0,0,0,.065-.5.724.724,0,0,0-.523-.283c-.133-.025-.265-.05-.4-.085s-.275-.081-.409-.132a3.52,3.52,0,0,1-.335-.152,3.932,3.932,0,0,1-1.3-1.059c-.264-.325-.835.109-.586.452" transform="translate(-25.334 -48.011)" fill="#591621"/>
            <path id="Trazado_894832" data-name="Trazado 894832" d="M118.2,214.784q.242.256.5.49a4.5,4.5,0,0,0,.593.465.535.535,0,0,0,.276.1.522.522,0,0,0,.246-.048c.183-.1.15-.356.049-.5a.76.76,0,0,0-.159-.156c-.065-.053-.13-.106-.2-.156l-.064-.047-.036-.028c-.033-.024.033.026.031.024l-.145-.115q-.308-.252-.591-.534a.362.362,0,0,0-.505,0,.365.365,0,0,0,0,.506" transform="translate(-26.611 -48.259)" fill="#591621"/>
            <path id="Trazado_894833" data-name="Trazado 894833" d="M99.278,137.89c-1,2.343-1.819,4.757-2.905,7.064a.407.407,0,0,0,.7.411c1.346-2.211,2-4.77,2.953-7.158.171-.428-.568-.744-.751-.317" transform="translate(-21.705 -31.024)" fill="#591621"/>
            <path id="Trazado_894834" data-name="Trazado 894834" d="M71.476,75.91a9.607,9.607,0,0,1-1.853,5.326c-1,1.615-2.141,3.123-3.209,4.69-2.525,3.706-4.73,7.62-7.33,11.277a50.881,50.881,0,0,1-4.867,5.963.525.525,0,0,0,.742.742c3.477-3.141,6.09-7.124,8.546-11.079,1.232-1.982,2.434-3.982,3.694-5.945,1.05-1.634,2.211-3.2,3.175-4.89,1.03-1.8,2.039-3.951,1.808-6.084-.048-.442-.731-.462-.707,0" transform="translate(-12.182 -17.028)" fill="#591621"/>
            <path id="Trazado_894835" data-name="Trazado 894835" d="M64.863,87.312a32.978,32.978,0,0,1-5.1,7.632c-.93,1.124-1.869,2.24-2.759,3.395a11.747,11.747,0,0,0-2.342,3.793.276.276,0,0,0,.458.266,13.182,13.182,0,0,0,1.3-1.749c.445-.625.895-1.248,1.36-1.858.939-1.228,1.926-2.419,2.885-3.631a30.279,30.279,0,0,0,4.719-7.627c.117-.3-.392-.516-.521-.22" transform="translate(-12.316 -19.642)" fill="#591621"/>
            <path id="Trazado_894836" data-name="Trazado 894836" d="M59.27,96.067c-.342.453-.678.89-1.046,1.329-.181.216-.361.435-.545.65s-.379.466-.569.7a.32.32,0,0,0-.025.414.311.311,0,0,0,.407.081,5.814,5.814,0,0,0,.715-.6c.216-.22.421-.446.617-.685.4-.484.771-.984,1.142-1.487a.405.405,0,0,0-.144-.552.413.413,0,0,0-.552.145" transform="translate(-12.848 -21.601)" fill="#591621"/>
            <path id="Trazado_894837" data-name="Trazado 894837" d="M51.055,78.8a127.877,127.877,0,0,1-8.27,12.825c-2.944,4.238-5.594,8.653-8.282,13.055-1.523,2.494-3.079,4.966-4.542,7.5-.181.314.284.706.52.4,3.149-4.07,5.621-8.638,8.3-13.021,2.694-4.406,5.664-8.621,8.421-12.985A69.791,69.791,0,0,0,51.4,79c.107-.227-.221-.428-.342-.2" transform="translate(-6.742 -17.733)" fill="#591621"/>
            <path id="Trazado_894838" data-name="Trazado 894838" d="M41.957,103.678c-2.209,3.208-4.124,6.611-6.425,9.756-2.25,3.075-4.944,5.846-6.925,9.113-.2.323.292.726.538.415,2.364-2.987,4.827-5.918,7.046-9.015,2.29-3.2,4.055-6.727,6.245-9.989.2-.3-.279-.572-.48-.28" transform="translate(-6.436 -23.333)" fill="#591621"/>
            <path id="Trazado_894839" data-name="Trazado 894839" d="M42.369,114.393a37.626,37.626,0,0,1-3.666,4.64,30.353,30.353,0,0,0-3.618,4.492c-.173.291.243.631.478.369,1.316-1.464,2.568-3,3.832-4.509a37.521,37.521,0,0,0,3.473-4.7c.193-.321-.3-.6-.5-.292" transform="translate(-7.896 -25.745)" fill="#591621"/>
            <path id="Trazado_894840" data-name="Trazado 894840" d="M38.512,118.325c-.831,1.2-1.618,2.414-2.563,3.526a.3.3,0,0,0-.023.385.292.292,0,0,0,.378.075,5.19,5.19,0,0,0,.872-.753,10.786,10.786,0,0,0,.746-.933c.443-.621.847-1.267,1.279-1.9a.4.4,0,0,0-.143-.546.407.407,0,0,0-.546.143" transform="translate(-8.081 -26.617)" fill="#591621"/>
            <path id="Trazado_894841" data-name="Trazado 894841" d="M45.729,115.352c-1.9,1.576-3.258,3.666-4.934,5.452a.273.273,0,0,0,.387.387c1.846-1.628,3.151-3.763,5.037-5.349.342-.288-.15-.772-.49-.49" transform="translate(-9.174 -25.972)" fill="#591621"/>
            <path id="Trazado_894842" data-name="Trazado 894842" d="M33.215,101.681a52.485,52.485,0,0,0-8.437,10.56,80.569,80.569,0,0,0-5.793,11.927q-.7,1.745-1.342,3.512a19.5,19.5,0,0,0-1.14,3.852c-.051.365.415.63.633.266a20.3,20.3,0,0,0,1.327-3.066c.411-1.048.793-2.108,1.195-3.161.794-2.079,1.627-4.143,2.546-6.17a64.93,64.93,0,0,1,6.424-11.285,50.814,50.814,0,0,1,5.066-5.956.339.339,0,0,0-.479-.479" transform="translate(-3.718 -22.889)" fill="#591621"/>
            <path id="Trazado_894843" data-name="Trazado 894843" d="M22.23,129.449c-1.4,3.594-3.337,7-4.268,10.77a.464.464,0,0,0,.895.246c1.019-3.732,2.782-7.185,4.041-10.832.148-.427-.508-.592-.667-.184" transform="translate(-4.044 -29.115)" fill="#591621"/>
            <path id="Trazado_894844" data-name="Trazado 894844" d="M22.223,136.876q-.755,1.6-1.5,3.207c-.242.527-.484,1.054-.717,1.585-.113.257-.217.518-.318.78a.81.81,0,0,0-.064.73.22.22,0,0,0,.245.1c.272-.074.364-.317.475-.553s.228-.485.334-.731q.345-.8.695-1.6c.469-1.064.948-2.123,1.428-3.182.176-.387-.393-.73-.578-.338" transform="translate(-4.407 -30.802)" fill="#591621"/>
            <path id="Trazado_894845" data-name="Trazado 894845" d="M25.435,135.289a20.386,20.386,0,0,0-1.954,3.657c-.276.617-.549,1.236-.849,1.843a9,9,0,0,0-.872,1.872c-.038.166.156.366.318.245a4.088,4.088,0,0,0,1.1-1.585c.315-.645.595-1.308.878-1.967a20.637,20.637,0,0,1,1.924-3.746c.233-.335-.311-.645-.545-.318" transform="translate(-4.902 -30.453)" fill="#591621"/>
            <path id="Trazado_894846" data-name="Trazado 894846" d="M29.946,132.863c-.187.288-.353.592-.517.894-.088.163-.175.327-.26.491a3.486,3.486,0,0,0-.239.493.392.392,0,0,0,.175.43l.013.01-.109-.27a1.814,1.814,0,0,0-.022.193.2.2,0,0,0,.376.1c.009-.014.019-.027.028-.041l.019-.025c.007-.009-.036.046,0,0l-.232.061.021,0a.394.394,0,0,0,.43-.175,1.424,1.424,0,0,0,.116-.266c.015-.043-.036.08-.008.018l.028-.064.05-.112c.076-.17.154-.339.234-.507.146-.308.293-.615.462-.91a.331.331,0,0,0-.117-.447.335.335,0,0,0-.448.117" transform="translate(-6.515 -29.901)" fill="#591621"/>
            <path id="Trazado_894847" data-name="Trazado 894847" d="M33.226,130.585c-.006.023-.013.046-.019.069l-.012.038a.531.531,0,0,0-.015.1c0,.053-.009.105-.016.157,0-.026.007-.053.011-.079,0,.033-.01.066-.017.1,0,.014-.007.028-.011.042l-.005.019a.5.5,0,0,0-.016.1l.012-.085a.143.143,0,0,1-.011.043l.033-.077-.009.015.049-.064c-.013.017-.04.048-.051.067a.765.765,0,0,0-.033.078l.032-.074,0,.009.048-.063-.005.005.061-.047-.008,0,.072-.03-.013,0,.077-.011a.085.085,0,0,1-.028,0l.074.01a.421.421,0,0,1-.091-.027l.053.022-.05-.022a.2.2,0,0,0-.2,0,.189.189,0,0,0-.1.167.652.652,0,0,0,.076.283.358.358,0,0,0,.2.156.267.267,0,0,0,.136.006.366.366,0,0,0,.045-.006c.011,0,.067-.027.077-.032a.294.294,0,0,0,.071-.057.551.551,0,0,0,.056-.071l.006-.01a.741.741,0,0,0,.044-.1.393.393,0,0,0,.015-.156,2.045,2.045,0,0,0-.037-.264c0-.02-.008-.04-.012-.06a.448.448,0,0,0-.04-.115c-.015-.033-.031-.067-.047-.1l-.035-.046-.045-.035a.226.226,0,0,0-.143-.027.207.207,0,0,0-.106.045.221.221,0,0,0-.081.116" transform="translate(-7.445 -29.387)" fill="#591621"/>
            <path id="Trazado_894848" data-name="Trazado 894848" d="M63.5,69.819A57.082,57.082,0,0,0,59.1,77.9c-.671,1.394-1.36,2.78-2.137,4.117-.373.641-.765,1.27-1.184,1.882a9.607,9.607,0,0,0-1.3,1.934l.782.105a2.432,2.432,0,0,1,.079-.7c.057-.268-.327-.466-.466-.2-.12.232-.225.473-.356.7a.4.4,0,0,0,.545.545,5.6,5.6,0,0,0,1.45-1.721c.418-.612.809-1.243,1.179-1.884.791-1.37,1.485-2.793,2.158-4.223A61.559,61.559,0,0,1,64.142,70.2c.269-.4-.372-.765-.644-.376" transform="translate(-12.273 -15.694)" fill="#591621"/>
            <path id="Trazado_894849" data-name="Trazado 894849" d="M65.6,73.422A28.077,28.077,0,0,1,62.96,78.18q-.738,1.107-1.514,2.188a7.2,7.2,0,0,0-1.381,2.214.25.25,0,0,0,.363.279,6.477,6.477,0,0,0,1.648-1.936c.559-.79,1.108-1.591,1.621-2.412a28.6,28.6,0,0,0,2.527-4.918c.15-.393-.468-.548-.624-.172" transform="translate(-13.532 -16.495)" fill="#591621"/>
            <path id="Trazado_894850" data-name="Trazado 894850" d="M66.145,76.769a4.328,4.328,0,0,1-.245.514c-.095.2-.207.385-.318.572a11.652,11.652,0,0,1-.861,1.229c-.307.392-.612.785-.911,1.182a5.878,5.878,0,0,0-.366.517,1.571,1.571,0,0,0-.137.287.524.524,0,0,0,0,.289.22.22,0,0,0,.326.187.764.764,0,0,0,.239-.149,2.836,2.836,0,0,0,.206-.273c.122-.174.235-.354.356-.528.292-.42.6-.83.878-1.258a10.774,10.774,0,0,0,.767-1.328A2.152,2.152,0,0,0,66.3,76.79a.08.08,0,0,0-.156-.021" transform="translate(-14.26 -17.285)" fill="#591621"/>
            <path id="Trazado_894851" data-name="Trazado 894851" d="M68.667,76.542c-.109.231-.211.466-.315.7-.066.148-.136.3-.193.449l-.063.168a.357.357,0,0,0,.159.449c-.03-.053-.061-.106-.092-.16,0,.028,0,.043.009-.022l.315-.042.017.04a.173.173,0,0,0-.286-.075.322.322,0,0,0-.029.036c-.091.122.06.3.194.253a.177.177,0,0,0,.059-.03l-.143.019a.358.358,0,0,0,.433-.2c.024-.05.047-.1.07-.149.07-.149.128-.3.191-.456q.079-.2.16-.39c.012-.031.026-.061.039-.092s.033-.078-.012.029l.016-.038c.02-.047.04-.095.061-.142a.375.375,0,0,0,.034-.263.342.342,0,0,0-.625-.082" transform="translate(-15.338 -17.21)" fill="#591621"/>
            <path id="Trazado_894852" data-name="Trazado 894852" d="M71.528,74.565c-.071.22-.16.435-.248.649a3.315,3.315,0,0,0-.236.646.3.3,0,0,0,.136.335l.02.009-.095-.123c.009.026.019.053.031.078a.182.182,0,0,0,.283.036c.008-.008.017-.014.026-.021l-.143.06.028,0a.288.288,0,0,0,.256-.147,1.6,1.6,0,0,0,.082-.191c.015-.05.022-.1.032-.156.026-.13.05-.26.075-.391.046-.244.092-.489.12-.736a.184.184,0,0,0-.162-.183.187.187,0,0,0-.2.133" transform="translate(-16.007 -16.771)" fill="#591621"/>
            <path id="Trazado_894853" data-name="Trazado 894853" d="M75.581,72.454h-.208a.053.053,0,1,0,0,.106h.208a.054.054,0,0,0,.053-.053.055.055,0,0,0-.053-.053" transform="translate(-16.971 -16.326)" fill="#591621"/>
            <path id="Trazado_894854" data-name="Trazado 894854" d="M57.422,69.826l-.971.924c-.156.15-.32.3-.463.459a4.381,4.381,0,0,0-.414.583.211.211,0,0,0,.286.287,4.885,4.885,0,0,0,.569-.4A5.942,5.942,0,0,0,56.9,71.2l.925-.971a.285.285,0,1,0-.4-.4" transform="translate(-12.515 -15.715)" fill="#591621"/>
            <path id="Trazado_894855" data-name="Trazado 894855" d="M97.151,2.449a35.008,35.008,0,0,0-7.363,5.057,52.014,52.014,0,0,0-6.116,6.317c-3.608,4.478-6.129,9.648-8.712,14.751Q72.752,32.94,70.4,37.218a.377.377,0,0,0,.65.38c3.393-4.561,5.576-9.938,8.252-14.923a58.574,58.574,0,0,1,4.36-7.057,53.109,53.109,0,0,1,5.875-6.571,35.431,35.431,0,0,1,7.933-6.06c.356-.189.043-.717-.315-.538" transform="translate(-15.849 -0.544)" fill="#591621"/>
            <path id="Trazado_894856" data-name="Trazado 894856" d="M81.395,29.988a61.013,61.013,0,0,1,5.59-10.965c1.876-3.142,3.619-6.381,5.741-9.369a36.52,36.52,0,0,1,4.09-4.846c.27-.266-.127-.642-.408-.408A32.29,32.29,0,0,0,89.63,13.15C87.618,16.568,85.56,20,83.762,23.538A41.59,41.59,0,0,0,81.087,29.9c-.062.2.241.277.308.085" transform="translate(-18.269 -0.975)" fill="#591621"/>
            <path id="Trazado_894857" data-name="Trazado 894857" d="M91.854,23.11c1.862-3.206,3.336-6.679,5.829-9.474.214-.239-.126-.587-.355-.355-2.667,2.705-4.035,6.345-5.8,9.636a.19.19,0,0,0,.328.192" transform="translate(-20.617 -2.975)" fill="#591621"/>
            <path id="Trazado_894858" data-name="Trazado 894858" d="M89.115,28.307a47.409,47.409,0,0,0-4.152,8.184c-.122.293.346.469.5.211,1.559-2.61,2.53-5.517,4.184-8.084.215-.335-.313-.638-.532-.311" transform="translate(-19.14 -6.347)" fill="#591621"/>
            <path id="Trazado_894859" data-name="Trazado 894859" d="M86.134,38.212a31.314,31.314,0,0,0-1.889,4.379,32.8,32.8,0,0,0-1.411,4.645c-.053.274.359.5.486.205.621-1.435,1-2.968,1.505-4.447a30.8,30.8,0,0,1,1.868-4.457c.194-.367-.36-.693-.559-.326" transform="translate(-18.663 -8.574)" fill="#591621"/>
            <path id="Trazado_894860" data-name="Trazado 894860" d="M86.958,42.513A30.109,30.109,0,0,0,84.887,46.9c-.122.311-.452.845-.182,1.147a.349.349,0,0,0,.415.079c.2-.084.26-.315.327-.5.28-.776.556-1.553.87-2.317a23.988,23.988,0,0,1,1.18-2.481.312.312,0,0,0-.538-.315" transform="translate(-19.063 -9.545)" fill="#591621"/>
            <path id="Trazado_894861" data-name="Trazado 894861" d="M87.59,45.508c-.272.563-.516,1.137-.758,1.714-.121.287-.24.575-.361.861-.109.255-.4.755-.014.92s.537-.4.63-.66c.1-.291.205-.582.308-.873.208-.593.422-1.184.66-1.765.109-.265-.341-.456-.465-.2" transform="translate(-19.437 -10.226)" fill="#591621"/>
            <path id="Trazado_894862" data-name="Trazado 894862" d="M88.449,51.962c-.216.958-.414,1.921-.671,2.869-.128.472-.269.94-.437,1.4s-.383.887-.5,1.355a.28.28,0,0,0,.464.27,3.593,3.593,0,0,0,.682-1.263c.177-.486.322-.982.452-1.482.254-.982.442-1.979.651-2.972.087-.414-.545-.593-.638-.176" transform="translate(-19.565 -11.655)" fill="#591621"/>
            <path id="Trazado_894863" data-name="Trazado 894863" d="M78.287,51.151a10.418,10.418,0,0,1-.263,1.278c-.056.208-.118.413-.181.618-.033.107-.057.215-.084.324a.989.989,0,0,0-.019.363.258.258,0,0,0,.435.181,1.008,1.008,0,0,0,.219-.319c.043-.1.088-.207.123-.313.073-.218.13-.443.186-.666a11.05,11.05,0,0,0,.257-1.375.343.343,0,0,0-.672-.091" transform="translate(-17.515 -11.47)" fill="#591621"/>
            <path id="Trazado_894864" data-name="Trazado 894864" d="M79.7,55.158a3.8,3.8,0,0,0-.145.553c-.021.116-.036.233-.05.349a.812.812,0,0,0,0,.137.4.4,0,0,0,.107.263c.012.012.025.024.037.036a.286.286,0,0,0,.2.084.328.328,0,0,0,.2-.084l-.032.025c.026-.02.056-.038.079-.06a.416.416,0,0,0,.1-.2c.017-.079.024-.16.035-.241,0,.033-.009.064-.013.1a3.82,3.82,0,0,1,.19-.765.373.373,0,0,0-.037-.284.369.369,0,0,0-.674.088" transform="translate(-17.913 -12.368)" fill="#591621"/>
            <path id="Trazado_894865" data-name="Trazado 894865" d="M81.136,55.55a2.126,2.126,0,0,1-.019.262c0-.027.007-.053.011-.081a1.828,1.828,0,0,1-.042.214c-.017.068-.043.133-.06.2s-.035.136-.058.2a.361.361,0,0,0-.015.237.545.545,0,0,0,.06.118.224.224,0,0,0,.2.113.466.466,0,0,0,.209-.054.439.439,0,0,0,.162-.215,1.311,1.311,0,0,0,.112-.35,2.407,2.407,0,0,0,.029-.358,2.729,2.729,0,0,0-.033-.364.282.282,0,0,0-.129-.168.3.3,0,0,0-.18-.033.282.282,0,0,0-.244.277" transform="translate(-18.237 -12.454)" fill="#591621"/>
            <path id="Trazado_894866" data-name="Trazado 894866" d="M15.49,148.7c-.014.113.013-.079,0,.038,0,.031-.009.062-.015.092-.012.071-.024.142-.037.212q-.04.208-.086.415c-.069.314-.144.627-.218.94-.065.276-.13.552-.18.832a2.019,2.019,0,0,0-.036.4.536.536,0,0,0,.063.253.409.409,0,0,0,.13.132l.077.033c-.055-.044-.069-.053-.043-.029a.186.186,0,0,0,.287-.037l.01-.012-.117.089c.314-.1.339-.436.392-.717s.119-.569.184-.853a16.633,16.633,0,0,0,.353-1.793.383.383,0,0,0-.38-.38.39.39,0,0,0-.38.38" transform="translate(-3.361 -33.419)" fill="#591621"/>
            <path id="Trazado_894867" data-name="Trazado 894867" d="M16.791,150.293a6.57,6.57,0,0,1-.181,1.176c-.046.194-.1.386-.144.58a4.762,4.762,0,0,0-.063.639c-.02.215.274.252.376.1a2.237,2.237,0,0,0,.317-.568,3.719,3.719,0,0,0,.133-.67,5.153,5.153,0,0,0-.012-1.26.213.213,0,0,0-.426,0" transform="translate(-3.696 -33.819)" fill="#591621"/>
            <path id="Trazado_894868" data-name="Trazado 894868" d="M13.537,162.717c.925,3.605-.053,7.311-1.078,10.783-1,3.385-2.328,6.9-2.052,10.492a.247.247,0,0,0,.494,0c.169-3.742,1.4-7.3,2.406-10.876.968-3.42,1.777-7.05.853-10.571a.324.324,0,0,0-.624.172" transform="translate(-2.337 -36.574)" fill="#591621"/>
            <path id="Trazado_894869" data-name="Trazado 894869" d="M15.813,173.2a12.545,12.545,0,0,1-.2,1.9c-.119.623-.316,1.229-.492,1.837-.053.186.211.366.343.2a4.155,4.155,0,0,0,.734-1.876,13.745,13.745,0,0,0,.221-2.063c.013-.386-.586-.385-.6,0" transform="translate(-3.405 -38.962)" fill="#591621"/>
            <path id="Trazado_894870" data-name="Trazado 894870" d="M12.044,169.32c-.042.365-.081.729-.111,1.095a5.3,5.3,0,0,0,.056,1.1.216.216,0,0,0,.184.209.212.212,0,0,0,.234-.153c.074-.373.167-.737.208-1.116.02-.183.041-.365.064-.547s.04-.308.066-.5a.357.357,0,1,0-.7-.1" transform="translate(-2.686 -38.072)" fill="#591621"/>
            <path id="Trazado_894871" data-name="Trazado 894871" d="M26.623,166.735a39.8,39.8,0,0,1,3.624,4.234c1.088,1.488,1.991,3.084,2.982,4.637a.267.267,0,0,0,.486-.205,14.257,14.257,0,0,0-2.737-4.894,40.682,40.682,0,0,0-3.859-4.266.35.35,0,0,0-.5.5" transform="translate(-5.976 -37.435)" fill="#591621"/>
            <path id="Trazado_894872" data-name="Trazado 894872" d="M28.205,173.936a17.959,17.959,0,0,1,2.094,2.471,16.733,16.733,0,0,1,.914,1.437,4.04,4.04,0,0,0,.817,1.25.27.27,0,0,0,.445-.118,2.133,2.133,0,0,0-.447-1.482A13.362,13.362,0,0,0,30.956,176a21.5,21.5,0,0,0-2.31-2.505c-.3-.27-.73.158-.441.441" transform="translate(-6.334 -39.073)" fill="#591621"/>
            <path id="Trazado_894873" data-name="Trazado 894873" d="M29.1,179.813c.4.552.819,1.085,1.225,1.63.213.286.411.583.632.862.014.017.09.115.025.03l.056.074c.053.07.108.133.167.2a.66.66,0,0,0,.17.144c.022.012.151.079.187.055-.1-.037-.129-.043-.087-.015.021.015.016.012-.013-.012.122.1.363.092.394-.1.008-.049.015-.1.019-.148-.012.048-.026.1-.038.143.154-.318-.043-.631-.21-.9a8.666,8.666,0,0,0-.652-.852c-.421-.524-.859-1.037-1.27-1.569a.385.385,0,0,0-.6.466" transform="translate(-6.546 -40.386)" fill="#591621"/>
            <path id="Trazado_894874" data-name="Trazado 894874" d="M29.575,184.021c.066.041.131.084.194.13a.592.592,0,0,1,.057.042c-.017-.016-.029-.022,0,0l.091.074a3.116,3.116,0,0,1,.337.334c.025.029.049.057.073.088.009.012.046.05,0,0a.48.48,0,0,1,.033.045c.027.037.052.075.081.112.073.1-.029-.04.018.024l.033.044c.051.071.108.135.164.2l.032.039c.026.03-.006-.009.009.012s.044.061.065.093a.194.194,0,0,0,.211.086.187.187,0,0,0,.136-.18,1.524,1.524,0,0,0-.125-.528,2.121,2.121,0,0,0-.3-.437,3.53,3.53,0,0,0-.807-.686.293.293,0,1,0-.3.506" transform="translate(-6.632 -41.342)" fill="#591621"/>
            <path id="Trazado_894875" data-name="Trazado 894875" d="M30.957,186.272a6.462,6.462,0,0,0,.9.445,4.1,4.1,0,0,0,.982.193.19.19,0,0,0,.051-.373c-.3-.094-.595-.218-.9-.306s-.605-.169-.9-.279c-.188-.07-.3.223-.135.32" transform="translate(-6.957 -41.897)" fill="#591621"/>
            <path id="Trazado_894876" data-name="Trazado 894876" d="M48.58,179.312a7.451,7.451,0,0,1,3.066-3.276,5.665,5.665,0,0,1,4.129-1.127.287.287,0,0,0,.219-.521c-1.4-1.072-3.515.015-4.747.871a8.242,8.242,0,0,0-3.3,3.88c-.127.406.489.565.631.174" transform="translate(-10.8 -39.193)" fill="#591621"/>
            <path id="Trazado_894877" data-name="Trazado 894877" d="M52.658,179.448a9.613,9.613,0,0,1,2.5-1.685,7.848,7.848,0,0,1,2.79-.741.268.268,0,0,0,.134-.5c-1.043-.551-2.247-.079-3.23.391a10.292,10.292,0,0,0-2.79,1.938c-.383.38.2.964.592.592" transform="translate(-11.704 -39.72)" fill="#591621"/>
            <path id="Trazado_894878" data-name="Trazado 894878" d="M57.716,180.587a3.048,3.048,0,0,1,.995-.331c.046-.006.05-.007.013,0l.057-.006c.045-.005.089-.009.134-.012.09-.007.18-.01.27-.011s.18,0,.27-.006a1.072,1.072,0,0,0,.346-.081.282.282,0,0,0,.066-.507.775.775,0,0,0-.312-.14,1.914,1.914,0,0,0-.37-.03,4.548,4.548,0,0,0-.656.065,3.6,3.6,0,0,0-1.184.426.369.369,0,1,0,.373.637" transform="translate(-12.88 -40.436)" fill="#591621"/>
            <path id="Trazado_894879" data-name="Trazado 894879" d="M62.1,181.046c.231-.143.468-.275.693-.426.128-.086.246-.184.367-.279l.06-.047.043-.034.167-.127a.256.256,0,0,0,.1-.314.249.249,0,0,0-.3-.145,7.445,7.445,0,0,0-.8.3c-.249.119-.484.264-.72.406a.384.384,0,0,0,.388.663" transform="translate(-13.862 -40.482)" fill="#591621"/>
            <path id="Trazado_894880" data-name="Trazado 894880" d="M47.4,161.17c1.273,4.913,7.75,4.031,11.41,2.812.326-.109.3-.665-.086-.635-3.377.27-9.291,2.215-10.635-2.367a.358.358,0,0,0-.689.19" transform="translate(-10.677 -36.216)" fill="#591621"/>
            <path id="Trazado_894881" data-name="Trazado 894881" d="M52.933,162.306a7.846,7.846,0,0,0,4,.818c1.284-.049,2.914-.362,3.45-1.7a.268.268,0,0,0-.391-.3,6.067,6.067,0,0,1-3.19,1.05,7.046,7.046,0,0,1-3.457-.572c-.465-.232-.874.449-.411.7" transform="translate(-11.881 -36.297)" fill="#591621"/>
            <path id="Trazado_894882" data-name="Trazado 894882" d="M58.953,159.655a7.317,7.317,0,0,0,1.319.225c.208.016.419.026.629.024a1.3,1.3,0,0,0,.7-.209c.16-.1.207-.4,0-.487a1.693,1.693,0,0,0-.678-.157c-.2,0-.4,0-.607-.015-.1-.006-.194-.014-.291-.025l-.088-.01-.022,0-.132-.019q-.307-.051-.608-.129a.418.418,0,1,0-.222.806" transform="translate(-13.215 -35.789)" fill="#591621"/>
            <path id="Trazado_894883" data-name="Trazado 894883" d="M63.363,158.434a1.132,1.132,0,0,1,.317-.129l.105-.023c.006,0,.081-.012.036-.007l.15-.017c-.044.005.043,0,.052,0a1.715,1.715,0,0,1,.758.124.173.173,0,0,0,.206-.1.178.178,0,0,0-.071-.22,2.148,2.148,0,0,0-.906-.306,1.623,1.623,0,0,0-.912.231.262.262,0,1,0,.265.453" transform="translate(-14.188 -35.544)" fill="#591621"/>
            <path id="Trazado_894884" data-name="Trazado 894884" d="M72.191,161.519a.483.483,0,0,0,0-.966.483.483,0,0,0,0,.966" transform="translate(-16.161 -36.176)" fill="#591621"/>
            <path id="Trazado_894885" data-name="Trazado 894885" d="M82.022,154.889c.2,4.335-2.622,8.332-5.673,11.127-.311.284.084.74.433.561a11.3,11.3,0,0,0,4.458-5.066,12.369,12.369,0,0,0,1.519-6.621c-.042-.466-.76-.48-.737,0" transform="translate(-17.178 -34.82)" fill="#591621"/>
            <path id="Trazado_894886" data-name="Trazado 894886" d="M78.83,159.152a12.6,12.6,0,0,1-1.148,2.362c-.231.38-.476.749-.73,1.113a4.424,4.424,0,0,0-.589,1.152.276.276,0,0,0,.4.309,3.185,3.185,0,0,0,.523-.427,4.671,4.671,0,0,0,.418-.546c.263-.391.514-.789.749-1.2a13.627,13.627,0,0,0,1.16-2.549c.164-.5-.613-.706-.785-.216" transform="translate(-17.204 -35.798)" fill="#591621"/>
            <path id="Trazado_894887" data-name="Trazado 894887" d="M79.758,155.22a1.415,1.415,0,0,1-.154.254l.056-.072c-.027.034-.056.068-.086.1a1.665,1.665,0,0,0-.132.163l.053-.07c-.018.022-.036.044-.054.065-.034.038-.064.078-.1.119l.047-.061a1.077,1.077,0,0,1-.1.109.248.248,0,0,0-.051.27.245.245,0,0,0,.226.152c.056,0,.112-.01.167-.018a.436.436,0,0,0,.1-.024.929.929,0,0,0,.323-.186,1.829,1.829,0,0,0,.2-.235,1.383,1.383,0,0,0,.119-.2.4.4,0,0,0,.036-.279.361.361,0,0,0-.444-.252.354.354,0,0,0-.216.166" transform="translate(-17.852 -34.934)" fill="#591621"/>
            <path id="Trazado_894888" data-name="Trazado 894888" d="M38.234,134.741c3.647-5.922,9.3-10.041,14.094-14.944a27.344,27.344,0,0,0,3.667-4.424.31.31,0,0,0-.484-.373c-2.4,2.5-4.794,4.971-7.325,7.336a79.491,79.491,0,0,0-7.226,7.341,31.384,31.384,0,0,0-3.271,4.746.316.316,0,0,0,.545.318" transform="translate(-8.482 -25.892)" fill="#591621"/>
            <path id="Trazado_894889" data-name="Trazado 894889" d="M63.725,112.577a30.675,30.675,0,0,0,2.549-2.722,24.3,24.3,0,0,0,2.237-2.983c.189-.312-.229-.595-.484-.373a20.325,20.325,0,0,0-2.442,2.741c-.769.957-1.552,1.909-2.4,2.8a.384.384,0,0,0,.543.543" transform="translate(-14.211 -23.979)" fill="#591621"/>
            <path id="Trazado_894890" data-name="Trazado 894890" d="M62.478,116.372a23.229,23.229,0,0,1,2.673-2.813c.466-.432.933-.864,1.378-1.317a13.329,13.329,0,0,0,1.24-1.518c.175-.24-.189-.47-.388-.3-.493.421-1.009.813-1.484,1.253s-.975.913-1.449,1.384a23.58,23.58,0,0,0-2.594,2.944c-.275.383.347.726.624.365" transform="translate(-13.922 -24.868)" fill="#591621"/>
            <path id="Trazado_894891" data-name="Trazado 894891" d="M71.528,108.5c.313-.422.631-.845.92-1.285a9.119,9.119,0,0,0,.742-1.389.254.254,0,0,0-.064-.324.249.249,0,0,0-.329.02,15.257,15.257,0,0,0-1.035,1.264c-.316.431-.617.873-.936,1.3a.408.408,0,0,0,.146.556.419.419,0,0,0,.557-.146" transform="translate(-15.945 -23.76)" fill="#591621"/>
            <path id="Trazado_894892" data-name="Trazado 894892" d="M75.615,100.125c.686-1.325,1.83-2.4,2.15-3.9.057-.269-.328-.467-.466-.2-.662,1.305-1.637,2.429-2.267,3.751-.186.389.382.732.584.342" transform="translate(-16.898 -21.609)" fill="#591621"/>
            <path id="Trazado_894893" data-name="Trazado 894893" d="M82.488,93.1a.884.884,0,0,0,.22-.4.844.844,0,0,0-.022-.441.2.2,0,0,0-.212-.139.192.192,0,0,0-.169.191.721.721,0,0,1,0,.163c0-.019.005-.038.008-.057a.608.608,0,0,1-.041.148l.023-.055a.543.543,0,0,1-.074.124l.039-.049a.754.754,0,0,1-.115.113l.053-.041-.029.022a.3.3,0,0,0-.122.16.267.267,0,0,0,.221.332.259.259,0,0,0,.224-.074" transform="translate(-18.484 -20.757)" fill="#591621"/>
            <path id="Trazado_894894" data-name="Trazado 894894" d="M91.209,84.723a23.377,23.377,0,0,1,2.116,6.908A20.372,20.372,0,0,1,93,98.808a.352.352,0,0,0,.64.269c1.317-2.2,1.162-5,.774-7.449a22.083,22.083,0,0,0-2.538-7.3c-.246-.439-.89-.053-.67.391" transform="translate(-20.541 -18.958)" fill="#591621"/>
            <path id="Trazado_894895" data-name="Trazado 894895" d="M96.077,99.841a8.359,8.359,0,0,1,.154,3.974c-.231,1.319-.768,2.539-1.079,3.835a.3.3,0,0,0,.49.285,6.664,6.664,0,0,0,1.511-3.995,9.143,9.143,0,0,0-.365-4.3c-.163-.438-.858-.263-.711.2" transform="translate(-21.438 -22.396)" fill="#591621"/>
            <path id="Trazado_894896" data-name="Trazado 894896" d="M96.689,111.582a6.43,6.43,0,0,1-.558,1.817c-.136.3-.281.595-.411.9-.07.16-.141.32-.2.486a4.067,4.067,0,0,0-.108.517.291.291,0,0,0,.483.281,3.739,3.739,0,0,0,.671-.867,8.046,8.046,0,0,0,.453-1.012,7.429,7.429,0,0,0,.473-2.119.407.407,0,0,0-.4-.4.413.413,0,0,0-.4.4" transform="translate(-21.498 -25.051)" fill="#591621"/>
            <path id="Trazado_894897" data-name="Trazado 894897" d="M97,117c-.215.4-.411.81-.609,1.217-.111.227-.232.45-.323.685a5.084,5.084,0,0,0-.166.645.314.314,0,0,0,.521.3,3.432,3.432,0,0,0,.482-.546,5,5,0,0,0,.305-.607c.192-.412.382-.825.59-1.228A.464.464,0,1,0,97,117" transform="translate(-21.607 -26.312)" fill="#591621"/>
            <path id="Trazado_894898" data-name="Trazado 894898" d="M95.335,123.139c-.208.35-.437.684-.661,1.024a10.372,10.372,0,0,0-.592,1.057.354.354,0,0,0,.555.428,6.178,6.178,0,0,0,.916-.95,10.753,10.753,0,0,0,.68-1.033.521.521,0,1,0-.9-.526" transform="translate(-21.189 -27.689)" fill="#591621"/>
            <path id="Trazado_894899" data-name="Trazado 894899" d="M111.1,94.215c-.781,3.027-1.816,5.978-2.773,8.951a35.521,35.521,0,0,0-1.11,3.831,5.434,5.434,0,0,0,.209,3.646.307.307,0,0,0,.567-.153,17.9,17.9,0,0,1,.41-3.69c.3-1.281.7-2.539,1.087-3.8.863-2.841,1.733-5.677,2.373-8.579a.4.4,0,0,0-.762-.21" transform="translate(-24.111 -21.165)" fill="#591621"/>
            <path id="Trazado_894900" data-name="Trazado 894900" d="M112.489,102.131a20.99,20.99,0,0,0-1.387,4.452c-.162.774-.308,1.552-.469,2.326-.156.748-.346,1.492-.435,2.252a.355.355,0,0,0,.447.341,1.28,1.28,0,0,0,.861-1.12c.052-.385-.519-.568-.6-.166-.059.288-.14.527-.447.6l.4.519a21.1,21.1,0,0,0,1.026-4.377,22.576,22.576,0,0,1,1.232-4.466c.178-.419-.428-.792-.624-.365" transform="translate(-24.83 -22.97)" fill="#591621"/>
            <path id="Trazado_894901" data-name="Trazado 894901" d="M113.71,108.393a8.833,8.833,0,0,0-.321,1.254c-.041.2-.1.4-.128.595a1.961,1.961,0,0,0-.03.362,1.143,1.143,0,0,1,0,.126l0,.06c0,.007-.008.069,0,.029a.281.281,0,0,0,.124.3.27.27,0,0,0,.327-.042,2.029,2.029,0,0,0,.348-.555,3.834,3.834,0,0,0,.139-.627,9.117,9.117,0,0,1,.292-1.3.387.387,0,0,0-.268-.473.394.394,0,0,0-.473.268" transform="translate(-25.511 -24.361)" fill="#591621"/>
            <path id="Trazado_894902" data-name="Trazado 894902" d="M110.342,41.263a12.529,12.529,0,0,1-.418,3.051c-.273,1.3-.6,2.591-.861,3.893a18.251,18.251,0,0,0-.474,3.5c0,.511.041,2.021.855,1.955a.228.228,0,0,0,.216-.164,2.3,2.3,0,0,0-.178-.9,5.45,5.45,0,0,1-.072-1.333,23.219,23.219,0,0,1,.48-3.51c.232-1.224.5-2.441.729-3.665a11.877,11.877,0,0,0,.323-2.826c-.022-.384-.617-.388-.6,0" transform="translate(-24.468 -9.232)" fill="#591621"/>
            <path id="Trazado_894903" data-name="Trazado 894903" d="M111.527,48.224c-.016.823-.01,1.648-.07,2.469a10.776,10.776,0,0,1-.148,1.179,2.6,2.6,0,0,0-.127,1.208.247.247,0,0,0,.407.108,1.725,1.725,0,0,0,.435-1.119,10.86,10.86,0,0,0,.115-1.288c.03-.852-.014-1.705-.034-2.557a.289.289,0,0,0-.578,0" transform="translate(-25.043 -10.803)" fill="#591621"/>
            <path id="Trazado_894904" data-name="Trazado 894904" d="M113.024,50.492a18.158,18.158,0,0,1-.391,1.96c-.083.327-.174.655-.273.978a2.23,2.23,0,0,0-.131.982.237.237,0,0,0,.346.141,1.739,1.739,0,0,0,.555-.91,7.465,7.465,0,0,0,.225-.992,12.466,12.466,0,0,0,.139-2.095c0-.259-.431-.339-.47-.064" transform="translate(-25.284 -11.338)" fill="#591621"/>
            <path id="Trazado_894905" data-name="Trazado 894905" d="M97.179,56.2a32.393,32.393,0,0,1-.939,4.7c-.217.768-.476,1.518-.763,2.261a13.186,13.186,0,0,0-.8,2.155.265.265,0,0,0,.438.256,5.555,5.555,0,0,0,1.16-2.028,19.2,19.2,0,0,0,.767-2.422A32.6,32.6,0,0,0,97.87,56.2c.044-.448-.637-.432-.692,0" transform="translate(-21.332 -12.588)" fill="#591621"/>
            <path id="Trazado_894906" data-name="Trazado 894906" d="M99.393,60.387c-.406.958-.654,1.97-.969,2.959a12.649,12.649,0,0,1-.538,1.43,6.231,6.231,0,0,1-.336.656c-.06.1-.127.2-.18.3a1.523,1.523,0,0,0-.1.361c-.045.17.122.38.308.308a1.133,1.133,0,0,0,.6-.442,4.742,4.742,0,0,0,.387-.658,9.883,9.883,0,0,0,.575-1.546c.31-1.027.524-2.089.92-3.089.15-.377-.5-.655-.66-.278" transform="translate(-21.915 -13.566)" fill="#591621"/>
            <path id="Trazado_894907" data-name="Trazado 894907" d="M99.66,64.838c-.044.176-.095.35-.153.523-.027.082-.057.164-.087.246s-.081.206-.1.254c-.051.121-.142.316-.215.462-.085.171-.187.336-.262.512-.092.218-.188.476.009.673a.357.357,0,0,0,.394.053.685.685,0,0,0,.3-.28,5.1,5.1,0,0,0,.5-1.034,7.34,7.34,0,0,0,.374-1.2.392.392,0,0,0-.755-.208" transform="translate(-22.248 -14.546)" fill="#591621"/>
            <path id="Trazado_894908" data-name="Trazado 894908" d="M149.594,55.666a27.187,27.187,0,0,0-4.529,6.812,21.726,21.726,0,0,0-2.426,8.555,6.892,6.892,0,0,0,.97,4.209.3.3,0,0,0,.542-.229,15.733,15.733,0,0,1,.108-7.584,29.5,29.5,0,0,1,3.4-7.871,22.651,22.651,0,0,1,2.451-3.371c.316-.351-.194-.869-.521-.521" transform="translate(-32.139 -12.517)" fill="#591621"/>
            <path id="Trazado_894909" data-name="Trazado 894909" d="M149.08,60.4a33.972,33.972,0,0,0-3.371,8,20.744,20.744,0,0,0-.765,4.507,6.385,6.385,0,0,0,.8,3.775.275.275,0,0,0,.5-.211c-.923-5.394.891-10.989,3.426-15.725a.343.343,0,0,0-.591-.346" transform="translate(-32.657 -13.572)" fill="#591621"/>
            <path id="Trazado_894910" data-name="Trazado 894910" d="M149.026,68.618a16.108,16.108,0,0,0-1.521,5.833c-.106,1.82.109,4.292,1.67,5.512.173.135.5.02.413-.24-.292-.834-.655-1.624-.867-2.487a10.429,10.429,0,0,1-.275-2.785A15.106,15.106,0,0,1,149.675,69c.186-.436-.442-.825-.649-.38" transform="translate(-33.231 -15.417)" fill="#591621"/>
            <path id="Trazado_894911" data-name="Trazado 894911" d="M150.687,76.459a4.317,4.317,0,0,0-.16,2.162A11.378,11.378,0,0,0,151.116,81c.109.306.225.763.541.927.416.214.449-.365.368-.617-.115-.358-.27-.7-.385-1.061a11.279,11.279,0,0,1-.315-1.191,4.307,4.307,0,0,1,.03-2.412.348.348,0,0,0-.242-.426.354.354,0,0,0-.425.242" transform="translate(-33.903 -17.17)" fill="#591621"/>
            <path id="Trazado_894912" data-name="Trazado 894912" d="M151.976,81.183c0,.532-.019,1.065-.012,1.6s.094,1.068.153,1.6a.24.24,0,0,0,.479,0c.058-.529.145-1.064.152-1.6s-.007-1.065-.011-1.6a.381.381,0,0,0-.761,0" transform="translate(-34.241 -18.21)" fill="#591621"/>
            <path id="Trazado_894913" data-name="Trazado 894913" d="M151.869,97.923a8.075,8.075,0,0,1-.271,2.92.286.286,0,0,0,.521.218,4.018,4.018,0,0,0,.529-1.56,7.956,7.956,0,0,0,.027-1.578.413.413,0,0,0-.4-.4.405.405,0,0,0-.4.4" transform="translate(-34.156 -21.974)" fill="#591621"/>
            <path id="Trazado_894914" data-name="Trazado 894914" d="M133.377,25.185a16.863,16.863,0,0,0-6.89,5.113,26.862,26.862,0,0,0-2.663,3.652,9.9,9.9,0,0,0-1.634,3.75c-.034.332.4.358.559.152a38.437,38.437,0,0,0,1.907-3.415,28.122,28.122,0,0,1,2.47-3.5,16.68,16.68,0,0,1,6.437-5.078c.412-.16.243-.827-.186-.675" transform="translate(-27.532 -5.67)" fill="#591621"/>
            <path id="Trazado_894915" data-name="Trazado 894915" d="M126.81,25.993a14.012,14.012,0,0,0-3.2,3.529,10.664,10.664,0,0,0-1.839,4.359c-.029.225.329.309.425.115.669-1.353,1.256-2.741,2.059-4.025a13.255,13.255,0,0,1,2.982-3.429c.309-.242-.106-.789-.424-.549" transform="translate(-27.437 -5.843)" fill="#591621"/>
            <path id="Trazado_894916" data-name="Trazado 894916" d="M124.749,23.612a10.308,10.308,0,0,0-2.723,2.3,14.128,14.128,0,0,0-1.065,1.424,2.994,2.994,0,0,0-.74,1.627.231.231,0,0,0,.343.2c.465-.29.672-.892.948-1.351a16.935,16.935,0,0,1,.971-1.434,11.876,11.876,0,0,1,2.45-2.445c.186-.136.025-.434-.184-.315" transform="translate(-27.088 -5.314)" fill="#591621"/>
            <path id="Trazado_894917" data-name="Trazado 894917" d="M122.445,23.141a6.933,6.933,0,0,0-1.525,1.587,5.209,5.209,0,0,0-.507.893c-.137.318-.4.81-.17,1.14a.228.228,0,0,0,.249.1c.349-.122.443-.522.59-.821a8.712,8.712,0,0,1,.483-.879,6.051,6.051,0,0,1,1.322-1.449c.32-.256-.112-.825-.442-.573" transform="translate(-27.073 -5.2)" fill="#591621"/>
            <path id="Trazado_894918" data-name="Trazado 894918" d="M120.355,21.867a5.193,5.193,0,0,1-.438,1.144c-.049.09-.1.178-.153.264-.026.043-.054.086-.083.126l-.049.068c-.008.011-.031.04-.01.014-.076.1-.16.185-.236.28-.033.043.022-.029-.012.015a.844.844,0,0,0-.077.1c-.026.046-.046.1-.07.143a.227.227,0,0,0,.253.329,1.028,1.028,0,0,0,.6-.406,2.92,2.92,0,0,0,.382-.594,5.957,5.957,0,0,0,.417-1.339.274.274,0,0,0-.528-.146" transform="translate(-26.858 -4.882)" fill="#591621"/>
            <path id="Trazado_894919" data-name="Trazado 894919" d="M124.4,11.962c.152.558.184,1.137.308,1.7a3.023,3.023,0,0,0,.292.826,1.614,1.614,0,0,0,.281.376,1,1,0,0,0,.438.217.243.243,0,0,0,.27-.352,3.01,3.01,0,0,0-.146-.35,3.825,3.825,0,0,1-.184-.348c0-.009-.04-.088-.019-.037-.011-.026-.02-.051-.03-.077-.022-.059-.041-.119-.059-.178-.039-.129-.07-.261-.1-.393-.106-.531-.143-1.073-.286-1.6a.4.4,0,0,0-.77.212" transform="translate(-28.026 -2.584)" fill="#591621"/>
            <path id="Trazado_894920" data-name="Trazado 894920" d="M129.136,11.7c.057.271.118.542.183.811.033.135.066.269.1.4a.688.688,0,0,0,.265.482.286.286,0,0,0,.386-.1.487.487,0,0,0,.04-.349c-.014-.07-.037-.139-.056-.208-.037-.134-.073-.267-.108-.4q-.1-.4-.2-.808a.322.322,0,0,0-.393-.223.327.327,0,0,0-.223.393" transform="translate(-29.096 -2.546)" fill="#591621"/>
            <path id="Trazado_894921" data-name="Trazado 894921" d="M136.5,108.085c.562,2.218-.023,4.514-.284,6.734a28.973,28.973,0,0,0,.227,7.225,46.626,46.626,0,0,0,1.336,6.744,48.473,48.473,0,0,0,2.408,6.452,36.134,36.134,0,0,0,3.855,6.7.4.4,0,0,0,.689-.4,86.483,86.483,0,0,1-5.517-12.478,43.585,43.585,0,0,1-1.491-6.574,36.6,36.6,0,0,1-.6-7.256c.112-2.426.627-4.918-.023-7.311a.312.312,0,0,0-.6.166" transform="translate(-30.661 -24.267)" fill="#591621"/>
            <path id="Trazado_894922" data-name="Trazado 894922" d="M138.419,126.9c2.089,5.076,4.4,10.057,6.407,15.167a.293.293,0,0,0,.565-.156c-1.356-5.365-4.122-10.246-6.4-15.252-.145-.318-.7-.088-.57.24" transform="translate(-31.184 -28.504)" fill="#591621"/>
            <path id="Trazado_894923" data-name="Trazado 894923" d="M143.106,132.121a40.685,40.685,0,0,1,1.713,4.22,10.614,10.614,0,0,0,2.154,3.8.263.263,0,0,0,.411-.318,37.072,37.072,0,0,1-1.911-3.969,36.329,36.329,0,0,0-1.848-4.035.3.3,0,0,0-.519.3" transform="translate(-32.237 -29.668)" fill="#591621"/>
            <path id="Trazado_894924" data-name="Trazado 894924" d="M147.413,136.774c.269.535.551,1.064.825,1.6s.588,1.021.877,1.537a.244.244,0,0,0,.445-.187,9.966,9.966,0,0,0-.671-1.693c-.281-.541-.57-1.077-.845-1.621a.369.369,0,0,0-.5-.131.373.373,0,0,0-.131.5" transform="translate(-33.206 -30.695)" fill="#591621"/>
            <path id="Trazado_894925" data-name="Trazado 894925" d="M151.712,154.112c.45,4,4.464,6.3,6.17,9.7.125.25.5.071.438-.185-.885-3.75-5.34-5.613-5.833-9.518-.061-.486-.831-.5-.775,0" transform="translate(-34.184 -34.642)" fill="#591621"/>
            <path id="Trazado_894926" data-name="Trazado 894926" d="M157.552,158.739c.436.431.836.9,1.23,1.365.191.225.38.452.573.676.1.115.2.226.306.336a.648.648,0,0,0,.489.264.322.322,0,0,0,.311-.311.686.686,0,0,0-.255-.5c-.1-.106-.194-.213-.293-.318-.207-.221-.41-.445-.613-.668-.413-.452-.83-.9-1.281-1.315-.313-.286-.772.167-.468.468" transform="translate(-35.478 -35.642)" fill="#591621"/>
            <path id="Trazado_894927" data-name="Trazado 894927" d="M108.817,144.42c1,6.859-1.171,14.188,1.511,20.8a12.775,12.775,0,0,0,3.5,4.935.361.361,0,0,0,.511-.511,17.9,17.9,0,0,1-4.107-9.377,96.956,96.956,0,0,1-.277-10.3,32.706,32.706,0,0,0-.583-5.7c-.074-.37-.609-.205-.557.153" transform="translate(-24.518 -32.459)" fill="#591621"/>
            <path id="Trazado_894928" data-name="Trazado 894928" d="M107.219,161.431c.688,2.146-.065,4.43.277,6.623a10.862,10.862,0,0,0,2.635,5.468c.213.247.595-.07.442-.342a16.134,16.134,0,0,1-2.278-5.686c-.27-2.073.278-4.222-.445-6.236-.14-.391-.761-.232-.631.174" transform="translate(-24.155 -36.285)" fill="#591621"/>
            <path id="Trazado_894929" data-name="Trazado 894929" d="M105.852,170.605a9.773,9.773,0,0,0,2.806,6.159c.193.211.49-.057.376-.29-.93-1.914-2.367-3.646-2.422-5.868a.381.381,0,0,0-.761,0" transform="translate(-23.851 -38.359)" fill="#591621"/>
            <path id="Trazado_894930" data-name="Trazado 894930" d="M106.6,177.4a4.687,4.687,0,0,0,.71,1.2,3.614,3.614,0,0,0,.411.459c.158.144.33.272.491.411a.252.252,0,0,0,.394-.3,4.751,4.751,0,0,0-.273-.539,5.766,5.766,0,0,0-.4-.539l-.04-.051c-.048-.06.023.033-.006-.007l-.087-.117c-.057-.078-.112-.158-.163-.24s-.107-.176-.154-.266q-.034-.065-.065-.132l-.026-.06c.04.089,0-.013-.009-.026a.416.416,0,0,0-.5-.284.411.411,0,0,0-.284.5" transform="translate(-24.016 -39.856)" fill="#591621"/>
            <path id="Trazado_894931" data-name="Trazado 894931" d="M112.09,183.681c.394.618.787,1.236,1.189,1.85.2.306.405.615.631.9a9.9,9.9,0,0,0,.744.806.222.222,0,0,0,.346-.267c-.168-.329-.319-.669-.512-.985-.181-.3-.376-.585-.568-.874-.4-.6-.789-1.208-1.181-1.814-.262-.405-.912-.031-.65.38" transform="translate(-25.243 -41.263)" fill="#591621"/>
            <path id="Trazado_894932" data-name="Trazado 894932" d="M118.1,188.9a16.193,16.193,0,0,0,1.556,1.44,9.135,9.135,0,0,0,.856.636,6.277,6.277,0,0,0,.975.478c.2.085.361-.223.211-.363-.249-.23-.491-.46-.757-.671s-.547-.412-.815-.627A16.044,16.044,0,0,1,118.6,188.4c-.318-.328-.814.17-.5.5" transform="translate(-26.589 -42.426)" fill="#591621"/>
            <path id="Trazado_894933" data-name="Trazado 894933" d="M123.769,190.96a14.453,14.453,0,0,0,3.566,2.846,12.4,12.4,0,0,0,2.027.894,6.011,6.011,0,0,0,2.247.412c.2-.012.308-.293.108-.4a19.715,19.715,0,0,0-1.968-.752,15.906,15.906,0,0,1-1.976-.9,15.584,15.584,0,0,1-3.5-2.6.358.358,0,0,0-.506.505" transform="translate(-27.865 -42.89)" fill="#591621"/>
            <path id="Trazado_894934" data-name="Trazado 894934" d="M119.214,187.4c.49.365.957.758,1.449,1.119a6.119,6.119,0,0,0,.75.5,2.948,2.948,0,0,0,.907.307.23.23,0,0,0,.176-.418c-.252-.167-.5-.34-.754-.5s-.506-.321-.749-.5c-.486-.353-.95-.738-1.434-1.1a.346.346,0,0,0-.469.123.351.351,0,0,0,.123.468" transform="translate(-26.824 -42.081)" fill="#591621"/>
            <path id="Trazado_894935" data-name="Trazado 894935" d="M130.69,192.521a9.221,9.221,0,0,0,4.672,2.389c1.626.39,3.713.663,5.132-.429.228-.175.114-.633-.217-.514a8.849,8.849,0,0,1-4.736.059,8.411,8.411,0,0,1-4.292-2.064c-.352-.372-.9.184-.559.559" transform="translate(-29.423 -43.226)" fill="#591621"/>
            <path id="Trazado_894936" data-name="Trazado 894936" d="M140.451,193.041a13.834,13.834,0,0,0,2.5.438,4.123,4.123,0,0,0,1.205-.114,2.74,2.74,0,0,0,1.121-.655c.2-.177-.053-.464-.272-.352-1.408.728-2.929.4-4.4.1-.376-.076-.539.492-.16.579" transform="translate(-31.598 -43.337)" fill="#591621"/>
            <path id="Trazado_894937" data-name="Trazado 894937" d="M113.166,117.251a41.95,41.95,0,0,1-2.121,8.417,27.026,27.026,0,0,0-1.784,8.353c0,.364.586.471.657.089a76.535,76.535,0,0,1,2.156-8.5,41.345,41.345,0,0,0,1.937-8.361c.049-.543-.789-.534-.844,0" transform="translate(-24.619 -26.328)" fill="#591621"/>
            <path id="Trazado_894938" data-name="Trazado 894938" d="M120.982,83.156a31.721,31.721,0,0,1,3.3-7.61,14.66,14.66,0,0,1,5.919-5.932,9.917,9.917,0,0,1,4.453-.8.313.313,0,0,0,.082-.613c-2.833-.855-5.737.547-7.785,2.465a22.136,22.136,0,0,0-5.025,7.7,32.68,32.68,0,0,0-1.544,4.629.309.309,0,0,0,.595.163" transform="translate(-27.124 -15.309)" fill="#591621"/>
            <path id="Trazado_894939" data-name="Trazado 894939" d="M127.6,69.506a13.737,13.737,0,0,1,2.137-1.9,4.773,4.773,0,0,1,2.636-.888.222.222,0,0,0,.059-.433,2.378,2.378,0,0,0-1.536-.059,5.008,5.008,0,0,0-1.418.713,13.986,13.986,0,0,0-2.313,2.135c-.267.291.158.722.435.435" transform="translate(-28.635 -14.899)" fill="#591621"/>
            <path id="Trazado_894940" data-name="Trazado 894940" d="M129.438,65.269a.533.533,0,0,1,.047-.038c-.026.016-.04.03-.005,0l.1-.071c.069-.048.139-.095.211-.138a4.051,4.051,0,0,1,.431-.224c.046-.021,0-.011-.011,0a.177.177,0,0,1,.054-.022c.036-.015.073-.028.11-.041.074-.026.147-.057.222-.083.1-.036.191-.082.287-.125a1.615,1.615,0,0,0,.2-.131.243.243,0,0,0-.057-.438,1.257,1.257,0,0,0-.616-.027,2.965,2.965,0,0,0-.566.194,4.172,4.172,0,0,0-.95.591.385.385,0,0,0,0,.543.4.4,0,0,0,.543,0" transform="translate(-29.018 -14.401)" fill="#591621"/>
            <path id="Trazado_894941" data-name="Trazado 894941" d="M125.976,46.916a11.747,11.747,0,0,0,1.634,6.374c1.045,1.86,2.716,3.693,4.9,4.116a4.132,4.132,0,0,0,3.6-.913.276.276,0,0,0-.266-.458,7.951,7.951,0,0,1-2.948.371,4.981,4.981,0,0,1-2.424-1.126,10.94,10.94,0,0,1-3.295-5.171,9.476,9.476,0,0,1-.486-3.192c.017-.462-.683-.455-.715,0" transform="translate(-28.381 -10.494)" fill="#591621"/>
            <path id="Trazado_894942" data-name="Trazado 894942" d="M124.763,53.455a17.516,17.516,0,0,0,.6,1.936,1.679,1.679,0,0,0,1.5,1.147.172.172,0,0,0,.087-.318,2.189,2.189,0,0,1-.655-.5,2.951,2.951,0,0,1-.4-.666c-.239-.566-.346-1.176-.528-1.759-.119-.382-.72-.219-.6.166" transform="translate(-28.109 -11.958)" fill="#591621"/>
            <path id="Trazado_894943" data-name="Trazado 894943" d="M123.945,54.906a2.994,2.994,0,0,0,.276,1.1,1.616,1.616,0,0,0,.3.454.813.813,0,0,0,.3.2c.066.023.132.049.2.07a.231.231,0,0,0,.258-.335c-.016-.029-.032-.058-.047-.088l-.024-.051c.006,0,.022.057.009.011a.934.934,0,0,0-.122-.242c-.077-.125-.163-.245-.233-.373-.034-.063-.064-.126-.093-.191-.019-.041.026.067,0,0l-.019-.047c-.013-.036-.026-.071-.037-.108-.023-.073-.043-.147-.06-.222-.008-.038-.015-.075-.022-.113,0-.017-.005-.033-.008-.05-.015-.087.009.076,0-.012a.348.348,0,0,0-.339-.339.343.343,0,0,0-.339.339" transform="translate(-27.928 -12.295)" fill="#591621"/>
            <path id="Trazado_894944" data-name="Trazado 894944" d="M147.9,32.582a16.154,16.154,0,0,1,.884,5.757,24.058,24.058,0,0,1-1.087,5.655.317.317,0,0,0,.576.243c1.2-1.594,1.408-3.866,1.376-5.8a17.969,17.969,0,0,0-1.148-6.016c-.139-.37-.735-.216-.6.166" transform="translate(-33.276 -7.257)" fill="#591621"/>
            <path id="Trazado_894945" data-name="Trazado 894945" d="M145.021,31.287a9.932,9.932,0,0,1,.483,2.234,9.582,9.582,0,0,0,.255,2.319.251.251,0,0,0,.452.059,4.117,4.117,0,0,0,.159-2.455,10.507,10.507,0,0,0-.593-2.366.4.4,0,0,0-.482-.273.4.4,0,0,0-.273.482" transform="translate(-32.673 -6.938)" fill="#591621"/>
            <path id="Trazado_894946" data-name="Trazado 894946" d="M143.465,27.318q0,.509,0,1.018a3.84,3.84,0,0,0,.018.5,2.431,2.431,0,0,0,.042.291c.022.087.055.172.082.257a.261.261,0,0,0,.5,0c.025-.08.053-.159.076-.239a2.176,2.176,0,0,0,.048-.309,3.7,3.7,0,0,0,.017-.5q0-.509,0-1.018a.388.388,0,1,0-.775,0" transform="translate(-32.325 -6.068)" fill="#591621"/>
            <path id="Trazado_894947" data-name="Trazado 894947" d="M140.963,21.666c0,.242,0,.484,0,.727a1.628,1.628,0,0,0,.147.776.21.21,0,0,0,.361,0,1.628,1.628,0,0,0,.147-.776c0-.242,0-.484,0-.727a.331.331,0,0,0-.662,0" transform="translate(-31.762 -4.807)" fill="#591621"/>
            <path id="Trazado_894948" data-name="Trazado 894948" d="M143.758,97.918c-.022,3.783-.865,7.6-.455,11.379a.29.29,0,0,0,.579,0c.22-3.787.736-7.583.743-11.379a.434.434,0,0,0-.867,0" transform="translate(-32.264 -21.969)" fill="#591621"/>
            <path id="Trazado_894949" data-name="Trazado 894949" d="M145.107,105.544a11.566,11.566,0,0,0-.482,3.32c-.014.558-.012,1.115.013,1.672a4.29,4.29,0,0,0,.259,1.632.249.249,0,0,0,.427,0,3.565,3.565,0,0,0,.208-1.522c0-.556-.019-1.113-.017-1.67a10.94,10.94,0,0,1,.4-3.209c.16-.517-.639-.731-.806-.222" transform="translate(-32.586 -23.716)" fill="#591621"/>
            <path id="Trazado_894950" data-name="Trazado 894950" d="M106.756,68.054a35.016,35.016,0,0,1-1.318,8.645c-.356,1.4-.745,2.782-1.116,4.174a22.318,22.318,0,0,0-.88,4.149c-.02.307.4.308.493.068a36.409,36.409,0,0,0,1.223-4.1c.4-1.461.79-2.925,1.136-4.4a35.077,35.077,0,0,0,1.123-8.535.331.331,0,0,0-.662,0" transform="translate(-23.308 -15.262)" fill="#591621"/>
            <path id="Trazado_894951" data-name="Trazado 894951" d="M108.651,75.268a12.451,12.451,0,0,1-.658,3.109c-.149.5-.307.992-.407,1.5a2.428,2.428,0,0,0,0,1.5.245.245,0,0,0,.421,0,4.69,4.69,0,0,0,.377-1.444c.117-.524.256-1.041.4-1.558a12.4,12.4,0,0,0,.552-3.11.339.339,0,0,0-.677,0" transform="translate(-24.213 -16.886)" fill="#591621"/>
            <path id="Trazado_894952" data-name="Trazado 894952" d="M109.231,79.478a1.37,1.37,0,0,1,.036.177l-.012-.092a.983.983,0,0,1,0,.243l.012-.091a.635.635,0,0,1-.04.152c.011-.027.022-.055.034-.082a.84.84,0,0,0-.063.156.477.477,0,0,1-.025.08c.01-.024.02-.048.031-.072-.023.053-.049.1-.07.158l.026-.061-.008.017a.253.253,0,0,0,0,.246.247.247,0,0,0,.21.12.521.521,0,0,0,.312-.1.485.485,0,0,0,.173-.184,1.067,1.067,0,0,0,.069-.179,1.343,1.343,0,0,0-.021-.672.353.353,0,0,0-.159-.206.346.346,0,0,0-.508.39" transform="translate(-24.588 -17.809)" fill="#591621"/>
            <path id="Trazado_894953" data-name="Trazado 894953" d="M159.843,83.09c1.7,5.579,3,11.268,4.439,16.918.7,2.773,1.476,5.523,1.963,8.345s.793,5.664,1.131,8.5a50.13,50.13,0,0,0,1.69,9.343c.079.247.513.222.478-.064-.343-2.828-.753-5.65-1.086-8.481-.327-2.776-.624-5.558-1.059-8.322-.451-2.861-1.165-5.637-1.89-8.438-.731-2.822-1.441-5.651-2.226-8.459-.891-3.187-1.83-6.361-2.89-9.5-.116-.345-.658-.2-.55.152" transform="translate(-36.013 -18.644)" fill="#591621"/>
            <path id="Trazado_894954" data-name="Trazado 894954" d="M166.6,121.228c.475,3.086.414,6.225.914,9.309.458,2.826,1.708,5.527,1.895,8.394a.221.221,0,0,0,.441,0c.117-2.885-.98-5.579-1.52-8.37-.6-3.125-.738-6.323-1.26-9.463-.051-.31-.517-.177-.469.129" transform="translate(-37.538 -27.247)" fill="#591621"/>
            <path id="Trazado_894955" data-name="Trazado 894955" d="M165.275,131.537a21.409,21.409,0,0,1,.449,5.034,8.959,8.959,0,0,0,1,4.6c.139.225.541.082.445-.188-1.1-3.1-.421-6.475-1.372-9.589a.27.27,0,0,0-.521.143" transform="translate(-37.238 -29.563)" fill="#591621"/>
            <path id="Trazado_894956" data-name="Trazado 894956" d="M162.8,137.615q0,.509.006,1.018a3.517,3.517,0,0,0,.139,1.043.246.246,0,0,0,.469,0,3.517,3.517,0,0,0,.139-1.043l.007-1.018a.38.38,0,0,0-.761,0" transform="translate(-36.683 -30.922)" fill="#591621"/>
            <path id="Trazado_894957" data-name="Trazado 894957" d="M174.257,144.5a20.783,20.783,0,0,1,1.766,7.071c.28,2.246.446,4.617,1.488,6.669.136.27.537.077.473-.2-.545-2.343-.892-4.7-1.223-7.081a19.667,19.667,0,0,0-1.938-6.79c-.2-.371-.757-.043-.565.33" transform="translate(-39.255 -32.447)" fill="#591621"/>
            <path id="Trazado_894958" data-name="Trazado 894958" d="M174.337,151.381c.267.989.522,1.982.72,2.988s.288,2,.514,2.991a.2.2,0,0,0,.382,0,4.461,4.461,0,0,0,.026-1.518c-.081-.515-.188-1.026-.31-1.532-.247-1.03-.556-2.044-.877-3.054a.236.236,0,0,0-.455.126" transform="translate(-39.28 -34.044)" fill="#591621"/>
            <path id="Trazado_894959" data-name="Trazado 894959" d="M173.358,155.239c.116.368.222.739.324,1.112a3.406,3.406,0,0,0,.447,1.1.249.249,0,0,0,.46-.125,3.131,3.131,0,0,0-.143-1.189c-.1-.373-.2-.744-.318-1.113a.4.4,0,1,0-.77.212" transform="translate(-39.058 -34.865)" fill="#591621"/>
            <path id="Trazado_894960" data-name="Trazado 894960" d="M158.237,124.452a20.508,20.508,0,0,1-1.074-4.5,11.109,11.109,0,0,0-1.2-4.33.256.256,0,0,0-.466.2c.148.733.362,1.444.528,2.171.175.765.3,1.539.439,2.312a17.817,17.817,0,0,0,1.212,4.387c.141.31.686.085.557-.235" transform="translate(-35.037 -26.025)" fill="#591621"/>
            <path id="Trazado_894961" data-name="Trazado 894961" d="M158.124,118.634a32.6,32.6,0,0,0-1.15-7.036c-.056-.191-.37-.163-.358.049.139,2.346.682,4.641.854,6.987.03.417.681.421.654,0" transform="translate(-35.29 -25.117)" fill="#591621"/>
            <path id="Trazado_894962" data-name="Trazado 894962" d="M159.4,113.5a11.784,11.784,0,0,1-.844-2.83,8.67,8.67,0,0,0-.835-2.712.172.172,0,0,0-.312.132c.246.947.464,1.9.663,2.862a11.757,11.757,0,0,0,.869,2.816c.15.308.61.038.459-.269" transform="translate(-35.467 -24.306)" fill="#591621"/>
            <path id="Trazado_894963" data-name="Trazado 894963" d="M173.637,200.343a15.325,15.325,0,0,1,.585,2.475c.063.387.113.776.143,1.167a4.078,4.078,0,0,0,.054.576.5.5,0,0,0,.139.262c.189.182-.006-.037-.012-.032a.59.59,0,0,0,.03.105c.047.179.349.251.431.057a.719.719,0,0,0,.045-.108c.03-.139-.012.044-.067.041.088.005.194-.212.212-.28a1.7,1.7,0,0,0,.008-.593c-.04-.439-.1-.877-.181-1.312a15.49,15.49,0,0,0-.652-2.56c-.165-.455-.892-.265-.734.2" transform="translate(-39.12 -45.038)" fill="#591621"/>
            <path id="Trazado_894964" data-name="Trazado 894964" d="M175.423,196.686a12.389,12.389,0,0,0,.478,2.632c.1.425.2.852.272,1.285,0,.022.007.043.01.065-.005-.04-.006-.044,0-.013.008.072.015.144.026.216a1.637,1.637,0,0,0,.037.2.462.462,0,0,0,.228.291c-.1-.168-.143-.211-.12-.127l0,.021c.018-.025,0-.038-.007.018-.022.238.29.321.442.183a.436.436,0,0,0,.117-.149c.028-.078-.119.08-.057.046a.482.482,0,0,0,.159-.157.973.973,0,0,0,.033-.683,11.253,11.253,0,0,0-.363-1.264c-.286-.87-.672-1.727-.889-2.617a.187.187,0,0,0-.366.05" transform="translate(-39.527 -44.277)" fill="#591621"/>
            <path id="Trazado_894965" data-name="Trazado 894965" d="M175.521,193.981a12.975,12.975,0,0,1,1.041,2.847q.163.539.366,1.064a2.478,2.478,0,0,0,.425.781.374.374,0,0,0,.447.057c.283-.152.1-.443-.019-.628a.192.192,0,0,0-.354.1,1.12,1.12,0,0,0-.011.138c.005.055-.09.081.05-.06l.2-.084h0l.2.489.009-.009a.373.373,0,0,0,.094-.359,5.452,5.452,0,0,0-.29-.782c-.013-.029-.067-.157-.051-.118s-.008-.019-.012-.031c-.025-.06-.05-.121-.074-.181-.1-.241-.181-.485-.264-.73a13.269,13.269,0,0,0-1.16-2.838.346.346,0,0,0-.6.349" transform="translate(-39.538 -43.593)" fill="#591621"/>
            <path id="Trazado_894966" data-name="Trazado 894966" d="M178.088,191.325a8.109,8.109,0,0,0,.208.888,2.532,2.532,0,0,0,.157.449c.069.135.15.323.315.359a.139.139,0,0,0,.154-.063.578.578,0,0,0-.06-.453c-.056-.149-.136-.287-.2-.429a7.789,7.789,0,0,1-.335-.817.122.122,0,0,0-.235.065" transform="translate(-40.127 -43.076)" fill="#591621"/>
            <path id="Trazado_894967" data-name="Trazado 894967" d="M179.6,188.885l.051.033.029.021c.026.019-.017-.012-.019-.016.006.014.037.03.049.041s.027.026.04.039.026.027.037.041l.017.021c-.045-.05-.023-.031-.013-.016a.677.677,0,0,1,.059.1c.01.019.028.076,0,0l.019.05a.887.887,0,0,0,.04.093c.018.035-.016-.042-.008-.019l.01.026a.771.771,0,0,1,.03.11c0,.009,0,.019.005.027.006.033,0-.032,0-.008a.49.49,0,0,0,.016.1.162.162,0,0,0,.292.038.693.693,0,0,0,.071-.318.591.591,0,0,0-.015-.166,1.055,1.055,0,0,0-.064-.16,1.1,1.1,0,0,0-.411-.438.237.237,0,0,0-.322.084.241.241,0,0,0,.084.322" transform="translate(-40.442 -42.462)" fill="#591621"/>
            <path id="Trazado_894968" data-name="Trazado 894968" d="M179.762,184.431a.087.087,0,0,0,0-.174.087.087,0,0,0,0,.174" transform="translate(-40.486 -41.518)" fill="#591621"/>
          </g>
        </g>
      </g>
    </g>
  </g>
</svg>
