<svg id="Grupo_1101546" data-name="Grupo 1101546" xmlns="http://www.w3.org/2000/svg" xmlns:xlink="http://www.w3.org/1999/xlink" width="74.131" height="74.131" viewBox="0 0 74.131 74.131">
  <defs>
    <clipPath id="clip-path">
      <rect id="Rectángulo_401506" data-name="Rectángulo 401506" width="74.131" height="74.131" fill="none"/>
    </clipPath>
  </defs>
  <g id="Grupo_1099827" data-name="Grupo 1099827" clip-path="url(#clip-path)">
    <path id="Trazado_883915" data-name="Trazado 883915" d="M74.131,37.066A37.065,37.065,0,1,1,37.065,0,37.065,37.065,0,0,1,74.131,37.066" transform="translate(0 -0.001)" fill="#464442"/>
    <g id="sin-carne" transform="translate(12.805 12.796)">
      <path id="Trazado_892064" data-name="Trazado 892064" d="M14.145.032A13.517,13.517,0,0,0,4.131,3.53,12.644,12.644,0,0,0,0,12.73,13.082,13.082,0,0,0,5.271,23.441,6.445,6.445,0,0,1,7.2,25.735a6.576,6.576,0,0,1,.7,2.946,6.925,6.925,0,0,1-1.022,3.53,9.863,9.863,0,0,0-1.35,4.994,9.612,9.612,0,0,0,9.487,9.706c3.272,0,6.93-1.563,10.191-4.3A9.5,9.5,0,0,0,26,44.17c2.159,3.384,5.641,4.368,8.947,4.368a22.545,22.545,0,0,0,5.923-.881,2.274,2.274,0,0,0,1.122-.728L42,46.923c.006-.006.007-.014.012-.019a2.282,2.282,0,0,0,.52-1.662c-.05-.544-.167-1.567-.4-2.759a7.62,7.62,0,0,0,4.943-3.389c2.221-3.478,1.358-8.586.88-10.633a1.273,1.273,0,0,0-2.135-.586A7.468,7.468,0,0,1,42.47,29.6l-.517.142c-3.42.95-5.137,1.428-6.384,2.788a6.091,6.091,0,0,0-.9,1.356c-.742-.224-1.578-.459-2.521-.722a22.987,22.987,0,0,0,1.821-8.911C33.969,7.39,23.293.666,14.145.032Zm10.81,31.431a26.2,26.2,0,0,0-.681,5.285c-2.806,3.23-6.417,5.311-9.262,5.311a4.754,4.754,0,0,1-4.634-4.853,5.044,5.044,0,0,1,.683-2.536,11.916,11.916,0,0,0,1.687-5.985,11.186,11.186,0,0,0-.314-2.65.66.66,0,0,1,.137-.591.619.619,0,0,1,.526-.209,41.491,41.491,0,0,1,14.825,3.923.629.629,0,0,1,.281.762c-.146.44-.314.874-.493,1.305a5.786,5.786,0,0,1-.459-.4l-.006-.006a1.385,1.385,0,0,0-1.346-.341,1.347,1.347,0,0,0-.945.991Zm11.808,2.159c.93-1.014,2.4-1.423,5.622-2.317l.519-.145a9.906,9.906,0,0,0,3.6-1.733c.425,2.094.915,6.111-.8,8.8a6.084,6.084,0,0,1-3.943,2.681,12.827,12.827,0,0,0-1.554-3.7,21.4,21.4,0,0,1,2.856-1.329.809.809,0,1,0-.542-1.524,22.522,22.522,0,0,0-3.4,1.61,8.853,8.853,0,0,0-2.9-1.568,4.236,4.236,0,0,1,.538-.773Zm1.667,3.915c1.329,1.446,2.109,4.634,2.417,7.187-5.15-4.647-8.537-5.532-8.688-5.57a.809.809,0,0,0-.394,1.57c.034.008,3.316.9,8.292,5.472-3.64.957-9.761,1.7-12.7-2.895-2.19-3.429-1.461-8.581-.929-11.034a11.372,11.372,0,0,0,4.5,2.24l.62.173c3.93,1.1,5.723,1.6,6.88,2.856Zm-7.845-4.829a11.646,11.646,0,0,1-1.491-.617c.237-.548.459-1.1.647-1.669a2.255,2.255,0,0,0-1.088-2.709A43.088,43.088,0,0,0,13.241,23.62a2.221,2.221,0,0,0-1.894.764,2.286,2.286,0,0,0-.485,2.029,9.6,9.6,0,0,1,.268,2.265,10.3,10.3,0,0,1-1.467,5.169,6.661,6.661,0,0,0-.9,3.357,6.373,6.373,0,0,0,6.252,6.47c2.9,0,6.425-1.786,9.345-4.655a14.873,14.873,0,0,0,.319,1.912c-3.1,2.768-6.6,4.36-9.664,4.36a7.992,7.992,0,0,1-7.87-8.088,8.229,8.229,0,0,1,1.127-4.169,8.643,8.643,0,0,0,1.243-4.351,8.205,8.205,0,0,0-.869-3.671A8.088,8.088,0,0,0,6.227,22.14a11.458,11.458,0,0,1-4.61-9.386A11.043,11.043,0,0,1,5.227,4.72a11.838,11.838,0,0,1,8.807-3.073c13.52.936,18.318,12.764,18.318,22.608a21.428,21.428,0,0,1-1.766,8.45Z" transform="translate(0 0)" fill="#fff"/>
      <path id="Trazado_892065" data-name="Trazado 892065" d="M25.9,9.163A17.379,17.379,0,0,0,14.69,4.026C14.451,4.008,14.212,4,13.973,4A9.883,9.883,0,0,0,4,13.554v.105A10.793,10.793,0,0,0,8.113,21.8a3.308,3.308,0,0,0,2.056.755,48.6,48.6,0,0,1,18.23,3.6,2.206,2.206,0,0,0,2.117-.191,2.169,2.169,0,0,0,.971-1.85C31.376,17.936,29.446,12.766,25.9,9.163Zm3.712,15.461a.594.594,0,0,1-.573.052,50.268,50.268,0,0,0-18.86-3.734,1.659,1.659,0,0,1-1.044-.388,9.162,9.162,0,0,1-3.522-6.894v-.092a8.255,8.255,0,0,1,8.356-7.95c.2,0,.4.007.6.023,6.913.474,15.066,5.607,15.3,18.507A.55.55,0,0,1,29.616,24.624Z" transform="translate(-0.765 -0.764)" fill="#fff"/>
      <path id="Trazado_892066" data-name="Trazado 892066" d="M14.448,10A4.448,4.448,0,1,0,18.9,14.448,4.448,4.448,0,0,0,14.448,10Zm0,7.279a2.831,2.831,0,1,1,2.831-2.831,2.831,2.831,0,0,1-2.831,2.831Z" transform="translate(-1.912 -1.912)" fill="#fff"/>
    </g>
  </g>
</svg>
