<svg xmlns="http://www.w3.org/2000/svg" xmlns:xlink="http://www.w3.org/1999/xlink" width="95" height="95" viewBox="0 0 95 95">
  <defs>
    <clipPath id="clip-path">
      <rect id="Rectángulo_401431" data-name="Rectángulo 401431" width="54.398" height="54.552" fill="none"/>
    </clipPath>
  </defs>
  <g id="Grupo_1099957" data-name="Grupo 1099957" transform="translate(11576 11866)">
    <g id="Grupo_1099582" data-name="Grupo 1099582" transform="translate(-12507.333 -12200)">
      <g id="Grupo_1099328" data-name="Grupo 1099328" transform="translate(931.818 334.485)">
        <g id="Grupo_1098744" data-name="Grupo 1098744" transform="translate(0 0)">
          <g id="Grupo_1098741" data-name="Grupo 1098741">
            <g id="Rectángulo_400898" data-name="Rectángulo 400898" transform="translate(-0.485 -0.485)" fill="#fff" stroke="#fff" stroke-width="3" opacity="0.859">
              <rect width="95" height="95" rx="47.5" stroke="none"/>
              <rect x="1.5" y="1.5" width="92" height="92" rx="46" fill="none"/>
            </g>
            <g id="Rectángulo_400907" data-name="Rectángulo 400907" transform="translate(-0.485 -0.485)" fill="none" stroke="#fff" stroke-width="3">
              <rect width="95" height="95" rx="47.5" stroke="none"/>
              <rect x="1.5" y="1.5" width="92" height="92" rx="46" fill="none"/>
            </g>
          </g>
        </g>
      </g>
    </g>
    <g id="Grupo_1099622" data-name="Grupo 1099622" transform="translate(-11555.699 -11845.776)">
      <g id="Grupo_1099621" data-name="Grupo 1099621" clip-path="url(#clip-path)">
        <path id="Trazado_876743" data-name="Trazado 876743" d="M47.457,0A6.843,6.843,0,0,1,50.286,1.27,5.5,5.5,0,0,1,50.817,9.6c-.093.1-.174.206-.343.408.862,0,1.614-.018,2.366,0a1.589,1.589,0,0,1-.032,3.179c-.743.021-1.487,0-2.242,0a6.659,6.659,0,0,1-3.389,3.713c.3.751.613,1.463.88,2.192a24.675,24.675,0,0,1,1.656,10.531A18.653,18.653,0,0,1,41.067,44.3a24.979,24.979,0,0,1-7.1,3.2c-.136.039-.271.082-.432.131v3.718c.66,0,1.311-.019,1.961,0a1.575,1.575,0,0,1,1.519,2.059,1.547,1.547,0,0,1-1.564,1.123q-1.731.019-3.462,0a1.6,1.6,0,0,1-1.672-1.68c-.013-1.314,0-2.627,0-3.941v-.5l-6.658.173v2.759c.643,0,1.275-.014,1.908,0a1.574,1.574,0,0,1,1.549,2.113,1.439,1.439,0,0,1-1.388,1.058q-1.889.056-3.78,0A1.589,1.589,0,0,1,20.433,52.8c-.012-1.4-.038-2.806.014-4.207.021-.568-.187-.741-.693-.878a16.339,16.339,0,0,1-7.618-4.25,12.445,12.445,0,0,1-3.573-7.6c-.029-.271-.056-.487-.376-.621C3.855,33.426,1.426,30.027.4,25.578a13.6,13.6,0,0,1,1.631-10.5,1.666,1.666,0,0,1,2.674-.615c2.24,1.4,4.454,2.847,6.744,4.161A18.54,18.54,0,0,0,17.826,20.9a1.3,1.3,0,0,0,.567-.022,34.357,34.357,0,0,1,9.073-1.373,2.161,2.161,0,0,0,1.07-.343,17.352,17.352,0,0,0,4.235-4.233c1.181-1.6,2.287-3.248,3.432-4.871a.422.422,0,0,0-.017-.636c-3.371-3.733-.6-8.65,3.255-9.329A1.234,1.234,0,0,0,39.681,0h1.491c.75.291,1.5.586,2.251.867a.524.524,0,0,0,.335,0C44.532.582,45.3.288,46.072,0ZM14.329,23.329C10.567,22.165,7.4,19.987,4.158,17.9c-.1.242-.2.433-.271.63a10.763,10.763,0,0,0-.193,7.154,9.789,9.789,0,0,0,6.354,6.858c1.337.452,1.566.75,1.62,2.178A9.44,9.44,0,0,0,14.029,40.8a12.151,12.151,0,0,0,5.795,3.614,22.871,22.871,0,0,0,18.752-2.394c6.221-3.675,8.777-9.262,7.836-16.431a28.958,28.958,0,0,0-2.77-8.674A1.657,1.657,0,0,1,44.8,14.373a6.026,6.026,0,0,0,1.831-.919,2.245,2.245,0,0,0,.161-3.6,3.861,3.861,0,0,0-1.09-.743,4.73,4.73,0,0,0-6.078,1.581c-1.151,1.726-2.308,3.453-3.54,5.121C35.048,17.22,33.9,18.545,32.8,19.9c.479.15,1.027.287,1.549.49a10.67,10.67,0,0,1,6.523,10.4,9.111,9.111,0,0,1-13.041,7.874,43.362,43.362,0,0,1-10.119-6.719,14.976,14.976,0,0,1-3.471-4.139,3.894,3.894,0,0,1,.094-4.48M31.521,36.365a5.911,5.911,0,0,0,5.722-3.739A7.3,7.3,0,0,0,31.255,22.9a31.857,31.857,0,0,0-10.316.565,9.386,9.386,0,0,0-3.626,1.457c-.627.458-.724.672-.3,1.322a14.087,14.087,0,0,0,1.817,2.344,39.377,39.377,0,0,0,9.772,6.93,6.554,6.554,0,0,0,2.918.85M48.677,7.182a2.269,2.269,0,0,0-.122-3.218A2.563,2.563,0,0,0,45,3.9c-1.1,1.042-1.713,1.04-2.841-.01a2.538,2.538,0,0,0-4.18,1.173,2.076,2.076,0,0,0,.457,2.075c3.462-2.358,6.852-2.207,10.245.039" transform="translate(0 0.001)" fill="#2c2926"/>
        <path id="Trazado_876744" data-name="Trazado 876744" d="M299.837,74.521a1.051,1.051,0,0,0-.743,1.793,1.038,1.038,0,0,0,.739.311h0a1.055,1.055,0,0,0,1.05-1.049,1.052,1.052,0,0,0-1.045-1.056Z" transform="translate(-256.268 -63.916)" fill="#2c2926"/>
      </g>
    </g>
  </g>
</svg>
