<svg xmlns="http://www.w3.org/2000/svg" xmlns:xlink="http://www.w3.org/1999/xlink" width="157.333" height="157.333" viewBox="0 0 157.333 157.333">
  <defs>
    <clipPath id="clip-path">
      <rect id="Rectángulo_401429" data-name="Rectángulo 401429" width="82.161" height="82.156" fill="none"/>
    </clipPath>
  </defs>
  <g id="Grupo_1101716" data-name="Grupo 1101716" transform="translate(-870.333 -142.333)">
    <g id="Grupo_1099952" data-name="Grupo 1099952" transform="translate(870.418 179.449) rotate(-17)">
      <g id="Grupo_1099329" data-name="Grupo 1099329" transform="translate(0 0)">
        <g id="Grupo_1098744" data-name="Grupo 1098744" transform="translate(0 0)">
          <g id="Grupo_1098741" data-name="Grupo 1098741">
            <g id="Rectángulo_400898" data-name="Rectángulo 400898" transform="translate(0 -0.29)" fill="#fff" stroke="#fff" stroke-width="3" opacity="0.859">
              <rect width="126" height="126" rx="63" stroke="none"/>
              <rect x="1.5" y="1.5" width="123" height="123" rx="61.5" fill="none"/>
            </g>
            <g id="Rectángulo_400907" data-name="Rectángulo 400907" transform="translate(0 -0.29)" fill="none" stroke="#fff" stroke-width="3">
              <rect width="126" height="126" rx="63" stroke="none"/>
              <rect x="1.5" y="1.5" width="123" height="123" rx="61.5" fill="none"/>
            </g>
          </g>
        </g>
      </g>
    </g>
    <g id="Grupo_1099953" data-name="Grupo 1099953" transform="translate(898.695 199.171) rotate(-17)">
      <g id="Grupo_1099617" data-name="Grupo 1099617" clip-path="url(#clip-path)">
        <path id="Trazado_876730" data-name="Trazado 876730" d="M0,20.382a2.168,2.168,0,0,1,2.182-1.141c3.66.044,7.321.018,11.11.018a4.311,4.311,0,0,0-.342-.4C7.768,14.27,5.673,8.4,5.785,1.617A1.6,1.6,0,0,1,8.829.933a16.5,16.5,0,0,0,3.655,4.731,14.939,14.939,0,0,0,10,3.937c12.38.058,24.762.118,37.141-.019,5.9-.065,10.364-2.95,13.372-8.039a8.734,8.734,0,0,1,.526-.9A1.492,1.492,0,0,1,75.155.057,1.394,1.394,0,0,1,76.342,1.32c.08,4.16.409,8.355-1.63,12.244a17.4,17.4,0,0,1-4.738,5.695h.953q4.573,0,9.145,0c1.592,0,2.161.609,2.082,2.214a11.644,11.644,0,0,1-8.949,10.3,12.529,12.529,0,0,1-5.874-.067c-.251-.06-.5-.114-.708-.161,0,2.121.128,4.2-.026,6.266A23.652,23.652,0,0,1,62.031,50.12a24.91,24.91,0,0,0-4.908,15.437c.047,3.261.012,6.523.008,9.785a6.4,6.4,0,0,1-5.253,6.7.85.85,0,0,0-.2.117H47.824c-.969-.662-1.308-1.329-1.062-2.09.259-.8.86-1.133,2.062-1.134.641,0,1.283.016,1.924-.005a3.166,3.166,0,0,0,3.145-3.109c.041-2.083.067-4.17-.014-6.251a7.9,7.9,0,0,0-7.586-7.578q-5.206-.147-10.42,0A7.708,7.708,0,0,0,28.429,68.7a60.361,60.361,0,0,0-.161,6.879,3.192,3.192,0,0,0,3.39,3.353c.748.007,1.5-.026,2.244.012a1.526,1.526,0,0,1,1.433,2.13,4.8,4.8,0,0,1-.992,1.083H30.492a.858.858,0,0,0-.2-.117,6.4,6.4,0,0,1-5.253-6.7c0-3.341-.023-6.683,0-10.025a24.508,24.508,0,0,0-4.888-15.192,23.523,23.523,0,0,1-4.593-12.546c-.138-1.984-.023-3.986-.023-6.034-.2.044-.45.094-.7.156A11.887,11.887,0,0,1,.421,23.758C.264,23.226.14,22.684,0,22.147V20.382M28.154,62.128c.231-.192.356-.288.472-.394a11.221,11.221,0,0,1,7.885-3.015c3.155.016,6.31-.011,9.465.009a11.005,11.005,0,0,1,7.387,2.842c.189.166.388.321.669.552A29.06,29.06,0,0,1,60.67,46.544H59.588q-4.291,0-8.583,0A11.23,11.23,0,0,1,39.472,34.98q-.005-10.586,0-21.172v-.915h-6.5c-1.265,5.59-4.573,8.69-10.1,9.56a1.416,1.416,0,0,0-.872.655c-4.456,8.052-4.638,16.109.085,24.124.934,1.585,2.092,3.041,2.987,4.645a26.7,26.7,0,0,1,3.087,10.25M52.572,12.86a7.709,7.709,0,0,0,6.323,6.211c4.786.626,8.635-1.186,11.612-4.891A12.281,12.281,0,0,0,73.141,6.9c-.228.189-.373.293-.5.416a19.035,19.035,0,0,1-13.91,5.545c-2.031-.018-4.062,0-6.159,0M9.628,7.692c.336.893.615,1.812,1.018,2.674,1.663,3.557,3.983,6.524,7.7,8.133a8.079,8.079,0,0,0,11.077-4.787c.085-.261.134-.533.214-.856-2.385,0-4.664.118-6.924-.037a29.363,29.363,0,0,1-5.582-.917,20.2,20.2,0,0,1-7.5-4.21m69.12,14.832H63.513c.668,1.618,1.314,3.217,2,4.8a1.2,1.2,0,0,0,.578.5,8.937,8.937,0,0,0,7.137.556,8.472,8.472,0,0,0,5.521-5.859" transform="translate(0 -0.001)" fill="#2c2926"/>
        <path id="Trazado_876731" data-name="Trazado 876731" d="M185.288,371.483c-.15-.1-.305-.2-.451-.315a1.6,1.6,0,1,1,1.864,0c-.145.112-.3.211-.45.316Z" transform="translate(-144.686 -289.327)" fill="#2c2926"/>
        <path id="Trazado_876732" data-name="Trazado 876732" d="M311.547,105.082a8.472,8.472,0,0,1-5.521,5.859,8.937,8.937,0,0,1-7.137-.556,1.2,1.2,0,0,1-.578-.5c-.684-1.582-1.33-3.181-2-4.8Z" transform="translate(-232.799 -82.558)" fill="#2c2926"/>
        <path id="Trazado_876733" data-name="Trazado 876733" d="M164.9,322.688a1.615,1.615,0,1,1-1.667-1.583,1.622,1.622,0,0,1,1.667,1.583" transform="translate(-127.021 -252.277)" fill="#2c2926"/>
        <path id="Trazado_876734" data-name="Trazado 876734" d="M208.247,321.107a1.615,1.615,0,1,1-1.65,1.6,1.62,1.62,0,0,1,1.65-1.6" transform="translate(-162.314 -252.278)" fill="#2c2926"/>
        <path id="Trazado_876735" data-name="Trazado 876735" d="M238.157,157.207a1.607,1.607,0,1,1-1.568,1.6,1.622,1.622,0,0,1,1.568-1.6" transform="translate(-185.877 -123.51)" fill="#fff"/>
        <path id="Trazado_876736" data-name="Trazado 876736" d="M133.3,157.207a1.607,1.607,0,1,1-1.568,1.6,1.622,1.622,0,0,1,1.568-1.6" transform="translate(-103.493 -123.51)" fill="#2c2926"/>
      </g>
    </g>
  </g>
</svg>
