<svg xmlns="http://www.w3.org/2000/svg" xmlns:xlink="http://www.w3.org/1999/xlink" width="92.344" height="92.344" viewBox="0 0 92.344 92.344">
  <defs>
    <clipPath id="clip-path">
      <rect id="Rect치ngulo_401506" data-name="Rect치ngulo 401506" width="92.344" height="92.344" fill="none"/>
    </clipPath>
    <clipPath id="clip-path-2">
      <rect id="Rect치ngulo_401973" data-name="Rect치ngulo 401973" width="46.449" height="57.12" fill="#fbfcfe"/>
    </clipPath>
  </defs>
  <g id="Grupo_1102116" data-name="Grupo 1102116" transform="translate(-4469.297 11155.344)">
    <g id="Grupo_1099827" data-name="Grupo 1099827" transform="translate(4469.297 -11155.344)" clip-path="url(#clip-path)">
      <path id="Trazado_883915" data-name="Trazado 883915" d="M92.344,46.173A46.172,46.172,0,1,1,46.172,0,46.172,46.172,0,0,1,92.344,46.173" transform="translate(0 -0.001)" fill="#464442"/>
    </g>
    <g id="Grupo_1102074" data-name="Grupo 1102074" transform="translate(4493.902 -11137.764)">
      <g id="Grupo_1102073" data-name="Grupo 1102073" clip-path="url(#clip-path-2)">
        <path id="Trazado_895055" data-name="Trazado 895055" d="M45.1,57.12H1.355A2.2,2.2,0,0,1,0,54.818c.032-6.582.016-13.164.016-19.745q0-16.51,0-33.021A1.8,1.8,0,0,1,1.913,0Q23.224,0,44.536.016a2.338,2.338,0,0,1,1.186.377,1.834,1.834,0,0,1,.718,1.714q-.011,26.355.009,52.711a2.2,2.2,0,0,1-1.354,2.3M41.038,5.4H5.4V48.171H41.038ZM22.5,49.98H5.715c-1.455,0-2.128-.664-2.128-2.1q0-21.111,0-42.222A1.838,1.838,0,0,1,5.669,3.57H40.757c1.442,0,2.107.669,2.107,2.121q0,21.083,0,42.166c0,1.45-.667,2.123-2.105,2.123H23.949a2.822,2.822,0,0,1,1.939,2.58,2.716,2.716,0,0,1-2.037,2.74H44.609V1.83H1.831V55.3H22.62a2.718,2.718,0,0,1-2.059-2.718A2.822,2.822,0,0,1,22.5,49.98m1.616,2.683a.888.888,0,1,0-.895.882.9.9,0,0,0,.895-.882" transform="translate(0 0)" fill="#fbfcfe"/>
        <path id="Trazado_895056" data-name="Trazado 895056" d="M49.962,30.838A29.876,29.876,0,0,1,49.689,35c-.581,2.88-2.543,4.706-5.07,5.987a8.375,8.375,0,0,1-6.62.78,9.972,9.972,0,0,1-3-1.775,19.421,19.421,0,0,0-7.267-3.639c-.737-.185-1.5-.273-2.229-.487a5.44,5.44,0,0,1-4.179-5.6c0-1.413.058-2.828-.012-4.238a5.465,5.465,0,0,1,4.52-5.666,41.094,41.094,0,0,1,4.316-.46c2.5-.221,5-.483,7.5-.616a12.626,12.626,0,0,1,9.928,3.542,7.852,7.852,0,0,1,2.317,6.443c-.034.518-.005,1.041-.005,1.561l.076,0m-1.888,2.139a11.529,11.529,0,0,1-3.729,2.788,8.069,8.069,0,0,1-9.215-.989,32.136,32.136,0,0,0-4.247-2.636,20.571,20.571,0,0,0-2.159-.888.854.854,0,0,1-.52-1.09.865.865,0,0,1,1.107-.574c.108.026.211.069.316.1a22,22,0,0,1,6.865,3.848,5.706,5.706,0,0,0,4.824,1.368,9.29,9.29,0,0,0,4.506-2.2c3.063-2.7,3.055-6.522-.06-9.163a10.756,10.756,0,0,0-7.828-2.5c-3.6.211-7.189.564-10.782.869A4.923,4.923,0,0,0,24.3,23.058a3.042,3.042,0,0,0-.03,4.8,4.872,4.872,0,0,0,2.285,1.09.887.887,0,0,1,.8,1.074.847.847,0,0,1-1.151.658c-.9-.314-1.764-.746-2.639-1.136a3.09,3.09,0,0,1-.409-.268,10.528,10.528,0,0,0,.021,2.04,3.855,3.855,0,0,0,3.264,2.959c.811.2,1.646.3,2.445.54a21.332,21.332,0,0,1,7.565,4.045,5.6,5.6,0,0,0,4.646,1.426,8.759,8.759,0,0,0,6.271-4.122,5.172,5.172,0,0,0,.711-3.19" transform="translate(-12.378 -11.194)" fill="#fbfcfe"/>
        <path id="Trazado_895057" data-name="Trazado 895057" d="M48,99.988c-1.152,0-2.305.007-3.458,0A1.781,1.781,0,0,1,42.654,98.1q-.011-1.227,0-2.454a1.784,1.784,0,0,1,1.874-1.9q3.485-.013,6.971,0A1.773,1.773,0,0,1,53.362,95.6c.01.855.013,1.71,0,2.565a1.773,1.773,0,0,1-1.844,1.819c-1.171.012-2.343,0-3.514,0m-3.539-1.823h7.071v-2.61H44.463Z" transform="translate(-24.783 -54.47)" fill="#fbfcfe"/>
        <path id="Trazado_895058" data-name="Trazado 895058" d="M44.317,87c-2.269,0-4.538.006-6.806-.008a1.168,1.168,0,0,1-.777-.189,1.365,1.365,0,0,1-.339-.915.771.771,0,0,1,.836-.669c.558-.013,1.116-.005,1.674-.005H51.011c.149,0,.3-.005.447,0a.9.9,0,0,1,.945.889.882.882,0,0,1-.944.888c-1.134.015-2.269.005-3.4.005H44.317" transform="translate(-21.147 -49.52)" fill="#fbfcfe"/>
        <path id="Trazado_895059" data-name="Trazado 895059" d="M49.264,76.7c1.116,0,2.231,0,3.347,0,.7,0,1.11.34,1.105.9s-.411.885-1.118.886q-3.347,0-6.694,0c-.7,0-1.109-.34-1.1-.9s.409-.882,1.117-.885c1.116,0,2.231,0,3.347,0" transform="translate(-26.033 -44.569)" fill="#fbfcfe"/>
        <path id="Trazado_895060" data-name="Trazado 895060" d="M54.8,25.55a6.368,6.368,0,0,1,4.436,1.677,3.263,3.263,0,0,1,0,4.817,4.6,4.6,0,0,1-6.211.575,8.993,8.993,0,0,0-3.3-1.418,4.952,4.952,0,0,1-1.869-.779,2.3,2.3,0,0,1-.052-3.7,3.466,3.466,0,0,1,2.208-.8.915.915,0,0,1,1,.841c.032.488-.336.84-.9.944a3.2,3.2,0,0,0-1.09.356.562.562,0,0,0,0,1.035,2.493,2.493,0,0,0,.925.348,10.008,10.008,0,0,1,4.165,1.768,2.938,2.938,0,0,0,4.08-.7,1.49,1.49,0,0,0-.332-2.129,4.611,4.611,0,0,0-3.27-1.023c-.426.012-.851.081-1.278.1-.628.024-1.018-.29-1.053-.819a.911.911,0,0,1,.938-.958c.536-.047,1.074-.083,1.6-.124" transform="translate(-27.251 -14.847)" fill="#fbfcfe"/>
        <path id="Trazado_895061" data-name="Trazado 895061" d="M31.105,27.505a10.858,10.858,0,0,1,1.114.006,2.484,2.484,0,0,1,2.054,3.334,2.979,2.979,0,0,1-2.76,1.993,6.2,6.2,0,0,1-1.657-.121,2.728,2.728,0,0,1-2.087-2.358A2.2,2.2,0,0,1,28.906,27.9a9.637,9.637,0,0,1,2.164-.552c.012.054.023.107.036.16M31.1,29.28v0c-.222,0-.444.008-.666,0-.376-.016-.791.038-.841.446a1.444,1.444,0,0,0,.284,1,1.991,1.991,0,0,0,2.484-.088,1.3,1.3,0,0,0,.178-.279.691.691,0,0,0-.607-1.067c-.276-.021-.555,0-.832,0" transform="translate(-16.114 -15.89)" fill="#fbfcfe"/>
      </g>
    </g>
  </g>
</svg>
