<svg id="Grupo_1101876" data-name="Grupo 1101876" xmlns="http://www.w3.org/2000/svg" xmlns:xlink="http://www.w3.org/1999/xlink" width="92.344" height="92.344" viewBox="0 0 92.344 92.344">
  <defs>
    <clipPath id="clip-path">
      <rect id="Rectángulo_401506" data-name="Rectángulo 401506" width="92.344" height="92.344" fill="none"/>
    </clipPath>
  </defs>
  <g id="Grupo_1099827" data-name="Grupo 1099827" clip-path="url(#clip-path)">
    <path id="Trazado_883915" data-name="Trazado 883915" d="M92.344,46.173A46.172,46.172,0,1,1,46.172,0,46.172,46.172,0,0,1,92.344,46.173" transform="translate(0 -0.001)" fill="#464442"/>
    <path id="Trazado_883916" data-name="Trazado 883916" d="M329.319,359.251a1.855,1.855,0,0,0-.491.065,1.981,1.981,0,0,0-1.4,2.322,42.755,42.755,0,0,1,.4,7.336,1.946,1.946,0,0,0,.564,1.4,1.922,1.922,0,0,0,1.363.6l.078,0a2,2,0,0,0,1.931-1.944,47.981,47.981,0,0,0-.5-8.23,1.91,1.91,0,0,0-1.95-1.539m1.14,1.657a.815.815,0,0,0-.023-.1.811.811,0,0,1,.023.1m-.034-.136c-.008-.023-.016-.045-.025-.067.009.022.017.044.025.067m-.042-.1c-.01-.02-.02-.039-.032-.058.011.019.022.039.032.058m-.052-.092c-.013-.019-.026-.038-.04-.056.014.018.028.037.04.056m-.062-.084c-.018-.022-.038-.043-.058-.064.02.02.04.042.058.064m-.07-.077q-.038-.036-.079-.069.041.033.079.069m-.1-.088c-.02-.015-.041-.03-.062-.044.021.014.042.029.062.044m-.1-.065-.06-.035.06.035m-.1-.053-.064-.03.064.03m-.1-.045-.076-.027.076.027m-.1-.036q-.052-.016-.1-.028.052.012.1.028m-.127-.032-.082-.015.082.015m-.119-.019-.069-.006.069.006m-.109-.008h0m-.143.006-.039,0,.039,0m-.655,4.281c0-.044-.007-.088-.01-.131,0,.044.007.088.01.131m.107,4.749a.977.977,0,0,1,0-.111.977.977,0,0,0,0,.111m.016.11c0-.023-.007-.047-.01-.071,0,.024.006.047.01.071m.274.538c.013.015.026.03.04.044-.014-.014-.027-.029-.04-.044m-.263-.494c.005.021.01.043.016.063-.007-.021-.011-.042-.016-.063m.033.109c.007.02.014.04.022.059-.008-.019-.015-.039-.022-.059m.044.1c.009.019.017.037.027.055-.01-.018-.018-.037-.027-.055m.053.1c.011.017.021.035.032.052-.011-.017-.021-.034-.032-.052m.063.094c.012.016.023.032.036.048-.013-.015-.024-.032-.036-.048m.193.209-.044-.04.044.04m.693.271-.037,0c.026,0,.053,0,.079,0h-.042m-.651-.238.047.036-.047-.036m.091.065.05.031-.05-.031m.1.056.052.026-.052-.026m.1.046.054.02-.054-.02m.105.035.056.014-.056-.014m.108.023.057.008-.057-.008m1.07-.411a1.142,1.142,0,0,1-.154.152,1.144,1.144,0,0,0,.277-.332,1.133,1.133,0,0,1-.123.179m.269-.726a1.224,1.224,0,0,1-.058.343,1.224,1.224,0,0,0,.058-.343q.014-.508.017-1.016,0,.508-.017,1.016" transform="translate(-282.725 -310.226)" fill="#fff"/>
    <path id="Trazado_883917" data-name="Trazado 883917" d="M259.253,382.69a1.914,1.914,0,0,0-1.726-1.005,1.957,1.957,0,0,0-.988.262,1.977,1.977,0,0,0-.727,2.655,11.432,11.432,0,0,1,1.206,4.3,1.994,1.994,0,0,0,1.919,1.913l.083,0a2.128,2.128,0,0,0,1.464-.7,1.8,1.8,0,0,0,.466-1.328,15.538,15.538,0,0,0-1.7-6.1m-.891.151-.028-.028.028.028m.09.107-.025-.032.025.032m-.9-.444h0m.681.222h0m-.115-.072-.035-.018.035.018m-.126-.06-.037-.015.037.015m-.164-.054h0m-.136-.025-.039,0,.039,0m-.314,0h0m-.135.025-.038.01.038-.01m-.133.042-.037.014.037-.014m-.686,1.324a1.3,1.3,0,0,0,.067.217,1.3,1.3,0,0,1-.067-.217m1.412,4.948c0,.034.006.068.011.1-.005-.034-.009-.068-.011-.1m.019.142c0,.023.008.046.014.069-.005-.023-.009-.046-.014-.069m.027.115c.006.02.011.041.017.061-.007-.02-.012-.041-.017-.061m.035.109c.007.019.014.038.021.056-.008-.018-.014-.037-.021-.056m.043.1c.008.018.016.036.025.053-.009-.017-.017-.035-.025-.053m.051.1c.01.017.019.034.029.05-.01-.016-.02-.033-.029-.05m.059.094c.011.016.022.032.033.047-.012-.015-.022-.031-.033-.047m.067.088c.012.015.024.03.037.044-.013-.014-.025-.029-.037-.044m.074.081.04.04-.04-.04m.311.22-.051-.026.051.026m-.1-.051-.047-.031.047.031m-.09-.06-.044-.035.044.035m.6.2-.038,0c.028,0,.056,0,.085,0h-.047m-.367-.071.053.02-.053-.02m.1.035.056.014-.056-.014m.11.023.059.008-.059-.008" transform="translate(-220.696 -329.599)" fill="#fff"/>
    <path id="Trazado_883918" data-name="Trazado 883918" d="M396.869,381.859a2,2,0,0,0-1.916-1.891l-.085,0a2.139,2.139,0,0,0-1.491.725,1.749,1.749,0,0,0-.436,1.322l.12,1.238.239,2.475a2,2,0,0,0,1.916,1.891l.085,0a2.139,2.139,0,0,0,1.492-.725,1.748,1.748,0,0,0,.436-1.322Zm-.815.078c0-.037-.009-.073-.015-.109.006.036.011.073.015.109m-.022-.146c0-.024-.01-.049-.016-.073.006.024.011.048.016.073m-.028-.116c-.006-.021-.012-.043-.019-.063.007.021.013.042.019.063m-.036-.109c-.007-.02-.014-.039-.022-.059.008.019.015.039.022.059m-.043-.1c-.009-.019-.017-.037-.026-.055.009.018.018.037.026.055m-.051-.1c-.01-.017-.019-.035-.03-.052.01.017.02.034.03.052m-.058-.094c-.011-.016-.022-.033-.033-.048.012.016.022.032.033.048m-.065-.088-.037-.044.037.044m-.073-.081-.04-.04.04.04m-.687-.31c-.028,0-.057,0-.086,0h.048l.038,0m.608.237-.044-.036.044.036m-.086-.065-.047-.031.047.031m-.092-.056-.05-.026.05.026m-.1-.046-.053-.02.053.02m-.1-.035-.056-.014.056.014m-.111-.023-.059-.008.059.008m-.207,5.95-.054-.02.054.02m-.1-.04-.05-.026.05.026m-.1-.051-.047-.031.047.031m-.089-.06-.044-.036.044.036m-.227-.231c-.012-.016-.022-.032-.033-.048.011.016.022.033.033.048m-.062-.09c-.011-.017-.02-.035-.03-.052.01.017.019.035.03.052m-.054-.1c-.009-.018-.018-.037-.026-.055.009.019.017.037.026.055m-.047-.1c-.008-.019-.015-.039-.022-.059.007.02.014.039.022.059m-.039-.1c-.007-.021-.013-.042-.019-.063.006.021.012.042.019.063m-.031-.107c-.006-.023-.01-.047-.015-.07,0,.023.009.047.015.07m-.023-.109c-.006-.034-.01-.067-.014-.1,0,.034.008.068.014.1m.289.647c.012.015.024.03.037.044-.013-.014-.025-.029-.037-.044m.072.081.041.04-.041-.04m1.2.211a1.259,1.259,0,0,1-.43.1h-.048l-.038,0c.029,0,.057,0,.086,0a1.259,1.259,0,0,0,.43-.1,1.387,1.387,0,0,0,.2-.106,1.387,1.387,0,0,1-.2.106m-.743.065.057.014-.057-.014m.11.023.06.008-.06-.008" transform="translate(-339.311 -328.116)" fill="#fff"/>
    <path id="Trazado_883919" data-name="Trazado 883919" d="M164.493,149.45a11.975,11.975,0,0,0-5.225-5.89,10.647,10.647,0,0,0-5.1-1.254,11.988,11.988,0,0,0-2.278.221,14.529,14.529,0,0,0-9.913-11.734,16.378,16.378,0,0,0-5.264-.846,18.147,18.147,0,0,0-3.223.292,16.22,16.22,0,0,0-7.747,3.713,15.267,15.267,0,0,0-3.936,5.441,20.166,20.166,0,0,0-5.57-.825,14.434,14.434,0,0,0-13.745,9.231,20.651,20.651,0,0,0-1.463,10.9,17.251,17.251,0,0,0,4.536,9.838,14.86,14.86,0,0,0,9.743,4.359c.049.642.076,1.28.094,1.768.038,1,.06,2.03.081,3.022q.013.6.027,1.209l0,.1c.029,1.24.06,2.521.168,3.789.007.084.014.17.021.258a5.842,5.842,0,0,0,.673,2.693,2.747,2.747,0,0,0,2.591,1.092H119l.45,0c.526,0,1.043-.011,1.523-.022,2.138-.052,4.213-.156,5.961-.251,5.6-.3,10.61-.691,15.311-1.183,1.991-.208,4.349-.474,6.747-.864l.263-.043a15.591,15.591,0,0,0,4.115-1.059,2.708,2.708,0,0,0,1.566-1.788,9.893,9.893,0,0,0,.168-2.93c-.006-.13-.011-.258-.016-.384-.048-1.288-.131-2.591-.211-3.851-.113-1.78-.23-3.62-.25-5.424-.006-.547,0-1.016.016-1.448a14.44,14.44,0,0,0,6.22-2.6,12.026,12.026,0,0,0,4.546-7.267,14.115,14.115,0,0,0-.92-8.262m.2,3.659q.074.489.112.983-.038-.493-.112-.983t-.184-.973q.11.483.184.973m-.3-1.454q-.128-.48-.291-.951.163.471.291.951m-1.272-3.133q-.232-.406-.494-.794.263.387.494.794m-16.865,33.253h-.007l-.111.015q-.444.058-.888.113.444-.055.888-.113l.117-.016.364-.05-.363.05M124.629,140.69h0l0-.011.029-.067c.031-.069.062-.137.093-.206q.117-.254.245-.5-.128.249-.245.5c-.032.068-.062.137-.093.206-.012.025-.022.052-.033.078-.058.151-.117.3-.174.451.057-.151.116-.3.174-.451m27.749,4.916q.234-.051.47-.092l.217-.035.023,0h0l.038,0-.038,0-.024,0-.217.035q-.236.041-.47.092c-.118.026-.234.056-.35.085.117-.029.233-.06.35-.085m9.473,13.214c0,.006-.007.014-.011.02a.564.564,0,0,1-.024.052.566.566,0,0,0,.024-.052h0l0-.006h0l0,.008.005-.008h0l.008-.013h0m-1.761,1.453-.043.057-.028.037-.014.017c-.1.119-.187.225-.278.328-.188.212-.39.417-.6.611-.1.093-.2.185-.306.272q-.084.072-.17.141l-.033.026-.068.055q-.042.035-.077.07l-.013.007c-.054.031-.109.063-.163.1-.125.086-.255.172-.387.254-.266.166-.546.323-.834.468-.136.068-.277.136-.42.2l-.08.035-.047.021-.053.022-.1.042a13.4,13.4,0,0,1-2.073.614c-.179.038-.362.074-.545.106q-.149.026-.3.05l-.151.023-.071.009-.075.011-.092.01q-.159.018-.318.033c-.214.02-.434.038-.654.051-.416.025-.843.038-1.306.038h-.077a2,2,0,0,0-1.435.625,1.867,1.867,0,0,0-.535,1.38,2,2,0,0,0,1.954,1.931c-.066,2.126.08,4.263.223,6.338l.024.35a1.686,1.686,0,0,0-.376-.043c-.053,0-.107,0-.16.007-7.01.653-15.158,1.4-23.138,1.975-2.215.16-4.411.306-6.529.435a2.1,2.1,0,0,0-1.313.564c-.028-1.649-.063-3.348-.206-5.026,0-.051-.009-.1-.013-.149.017-.015.035-.029.052-.044a1.828,1.828,0,0,0,.6-1.44,2.138,2.138,0,0,0-.525-1.291,1.816,1.816,0,0,0-1.374-.643c-.042,0-.086,0-.128,0-.441.032-.877.048-1.3.048a15.354,15.354,0,0,1-1.61-.083c-.042,0-.087-.008-.133-.01l-.052-.009-.1-.015-.093-.014c-.222-.035-.445-.075-.661-.12-.407-.085-.81-.189-1.2-.31-.182-.057-.364-.118-.541-.183q-.132-.049-.264-.1l-.053-.021-.065-.026c-.308-.14-.665-.307-1-.494s-.647-.382-.953-.6c-.03-.021-.073-.056-.119-.093l-.046-.037a.916.916,0,0,0-.239-.184l-.059-.031c-.074-.06-.148-.123-.221-.185a12.461,12.461,0,0,1-1.544-1.61l-.013-.016-.006-.009-.051-.069-.109-.149c-.112-.155-.222-.316-.328-.477-.2-.306-.391-.627-.569-.954s-.338-.655-.49-.994l-.006-.017-.022-.078a.912.912,0,0,0-.12-.259c-.062-.159-.123-.321-.18-.483a16.419,16.419,0,0,1-.61-2.21c-.038-.187-.073-.379-.105-.569q-.023-.137-.044-.273l0-.024a6.964,6.964,0,0,0-.07-.747c-.022-.166-.042-.323-.052-.468a18.432,18.432,0,0,1,0-2.368c.02-.315.053-.652.1-1.091l.008-.057.006-.042q.02-.138.043-.275c.033-.2.069-.4.109-.6a17.3,17.3,0,0,1,.6-2.23c.059-.172.121-.344.185-.512q.053-.14.109-.278l.02-.05.019-.046c.181-.41.328-.719.475-1a14.044,14.044,0,0,1,1.193-1.906l.023-.031.014-.018.048-.06.09-.112c.121-.148.247-.295.373-.436.244-.272.5-.534.763-.778.126-.118.256-.233.387-.345q.1-.084.2-.166l.05-.04.045-.036c.34-.25.6-.431.857-.587a11.036,11.036,0,0,1,.968-.532q.131-.064.265-.124l.1-.045.024-.011.036-.015.105-.043c.1-.039.2-.078.3-.114a11.436,11.436,0,0,1,1.138-.341c.182-.045.369-.085.555-.121.051-.01.1-.024.178-.043l.135-.035h.036a1.2,1.2,0,0,0,.137-.009l.108-.013.081-.01q.148-.017.3-.03c.219-.019.445-.034.669-.042.174-.007.352-.01.529-.01.265,0,.536.008.806.022.218.012.44.029.662.051q.169.016.338.037l.071.008.027,0,.071.011c.54.084,1.03.177,1.5.286.336.078.675.168,1.024.268a1.96,1.96,0,0,0,1.441,2.25,2.027,2.027,0,0,0,.448.05,1.931,1.931,0,0,0,1.954-1.507,14.929,14.929,0,0,1,.52-2.077c.083-.249.178-.495.279-.755l.049-.127.011-.026.01-.024.035-.077.056-.123c.073-.158.151-.317.231-.472a12.542,12.542,0,0,1,.977-1.6l.093-.126.05-.068.005-.007.068-.083c.075-.093.146-.181.218-.265.2-.231.405-.459.62-.675s.434-.423.661-.622c.1-.091.212-.182.32-.271l.1-.082.052-.042.012-.009a13.827,13.827,0,0,1,1.51-.977c.25-.138.508-.27.767-.393.1-.049.207-.095.311-.141l.071-.032.1-.039.126-.05a14.087,14.087,0,0,1,1.671-.531c.287-.072.58-.136.872-.19.136-.025.273-.049.408-.07l.027,0a1.418,1.418,0,0,0,.226-.031h0a14.583,14.583,0,0,1,1.678-.1h.045c.3,0,.594.011.888.03.133.009.268.019.4.032l.073.014a2.351,2.351,0,0,0,.41.055h.09l.072.011c.145.023.291.05.435.077.288.056.577.122.858.2a13.9,13.9,0,0,1,1.626.54l.111.049.078.034c.132.06.264.123.394.187.26.129.518.268.765.413s.5.3.734.467c.11.076.221.155.329.235l.026.02.06.045.022.016.052.045a11.424,11.424,0,0,1,1.275,1.206c.092.1.184.206.271.311q.072.085.142.172a1.5,1.5,0,0,0,.162.176,4.021,4.021,0,0,1,.228.347c.045.073.088.144.131.211a12.214,12.214,0,0,1,.886,1.646c.016.042.029.072.037.092l.009.021c.013.031.025.062.037.092.059.151.116.307.17.462.109.315.207.641.293.968s.163.68.227,1.027c.027.147.05.3.075.453l.008.052,0,.014,0,.02,0,.021c.01.087.021.174.03.261.018.173.033.348.046.528a1.887,1.887,0,0,0-.082,1.255,2.058,2.058,0,0,0,1.892,1.465,1.635,1.635,0,0,0,.621-.121,11.857,11.857,0,0,1,1.947-.616c.145-.032.291-.06.434-.085l.126-.02.082-.013h.014c.254-.025.555-.052.86-.057h.148c.231,0,.464.01.69.029l.128.012c.1.021.193.033.271.043.047.006.091.012.122.018a6.944,6.944,0,0,1,.9.263c.191.065.387.132.594.192l.09.043c.121.058.242.12.361.185.213.116.425.245.63.382.079.053.157.108.235.164a1.165,1.165,0,0,0,.2.159c.187.155.371.321.547.494s.348.357.512.547c.075.087.151.18.218.262l.071.094.046.061a10.381,10.381,0,0,1,.825,1.35c.056.11.112.223.165.337q.037.08.073.16l.04.092.028.065,0,.009c.022.054.043.109.064.164.05.132.1.268.145.4a11.464,11.464,0,0,1,.4,1.547c.025.131.047.264.067.4l.007.058c0,.039.01.081.012.1.03.27.05.544.06.814a10.92,10.92,0,0,1-.058,1.6l-.01.084,0,.033v0c-.022.142-.047.285-.074.425-.052.266-.116.532-.188.788s-.153.5-.243.746l-.045.118a1.258,1.258,0,0,0-.143.322c-.013.031-.024.059-.033.078a9.029,9.029,0,0,1-.841,1.405m-8.139,20.5h0Zm.024-.2a.122.122,0,0,0,0-.019.1.1,0,0,1,0,.019m0-.02s0,.01,0,.015,0-.01,0-.015l0,0s0,0,0,0v0h0m.109.02.014-.009-.014.009m-.131.141h0c0-.011,0-.022,0-.033,0,.011,0,.022,0,.033h0m-.056.139a.184.184,0,0,1,0-.02c0,.007,0,.013,0,.02m.049-.181c0,.006,0,.013,0,.019s0-.013,0-.019m0-.012.015-.007h0Zm.017-.023h0l-.005,0h0l-.01,0h0c0-.008,0-.015,0-.022s0,.014,0,.021l.012,0,.006,0h0m-.009,0-.008,0h0l.008,0m-.016.094a.162.162,0,0,0-.01.016.179.179,0,0,1,.01-.016m-.022.042c0,.007-.006.013-.008.02s.005-.013.008-.02m.032-.057h0l0,0,0,0s0,.008,0,.012v.005c0,.011,0,.022-.007.033l.007-.035s0-.01,0-.014m0,0a.018.018,0,0,1,0,0v0h0v.007m.179-.2c0-.007,0-.011,0-.012s0,0,0,.012m-.02.029a.259.259,0,0,0,.02-.029.274.274,0,0,1-.02.029m-.03.02.02-.027-.02.027m.023-.03.012-.015-.012.015m.017-.02.006-.006-.006.006m.009-.009,0,0,0,0m-.161.12v0a.253.253,0,0,0,.007-.046.24.24,0,0,1-.007.046v0h0m0-.092a.005.005,0,0,0-.005,0s0,0,0,0v0m-.022.063a.276.276,0,0,1,0-.034.306.306,0,0,0,0,.034m.006-.04a.059.059,0,0,1,.008-.02.06.06,0,0,0-.008.02m-.767-.68c0,.054,0,.1,0,.153l-.09.027c-.654.187-1.343.323-1.93.432-.776.144-1.619.278-2.656.423l-.227.031-.133.018-.058.008-.056.007q-.441.058-.882.113c-.526.065-1.064.129-1.643.194-4.408.5-9.143.887-14.9,1.231-2.421.145-4.421.242-6.3.308l-.471.017c-.723.026-1.471.054-2.2.054-.02-.2-.037-.408-.054-.654-.047-.66-.073-1.321-.09-1.825a1.834,1.834,0,0,0,1.238.5c.036,0,.073,0,.109,0,8.542-.519,16.9-1.243,23.221-1.815,1.879-.17,3.883-.355,6.5-.6a2.33,2.33,0,0,0,.6-.137c.019.509.029,1.018.02,1.52m-36.5-10.162h0m-.174-.025h0m.161.023h0m.01,0h0m-.005,0h0m-.02,0h0m-.02,0-.013,0,.013,0m-.032,0-.014,0,.014,0m-.032,0h0m-.029,0h0m-.02,0h0m.243.031c-.058,0-.119-.007-.176-.015.057.009.118.012.176.015m4.276,1.306h0a1.016,1.016,0,0,0,0-.114c0-.036-.005-.072-.01-.108,0,.036.008.072.01.108a1.018,1.018,0,0,1,0,.114m-.349,9.868c.007.172.013.343.022.515-.008-.172-.015-.343-.022-.515m.321-10.2c.006.024.01.049.014.074,0-.025-.008-.049-.014-.074m-.465-.733.045.037-.045-.037m.084.07.042.041-.042-.041m.078.078.038.045-.038-.045m.071.085c.012.016.023.033.035.049-.011-.017-.023-.033-.035-.049m.063.091c.011.017.021.035.031.053-.01-.018-.02-.036-.031-.053m.055.1c.01.019.018.038.027.057-.009-.019-.017-.038-.027-.057m.047.1c.008.02.015.04.022.06-.007-.02-.014-.04-.022-.06m.038.1c.007.021.012.043.018.064-.006-.021-.011-.043-.018-.064m-3.142-.793h0m-.995-.072q.2.021.4.036-.2-.016-.4-.036m.534.046.268.017-.268-.017m3.647,14.31a.332.332,0,0,0,.027.034.346.346,0,0,1-.027-.034m0,0,0-.007,0,.008h0m-.162-.741v-.008c-.009-.082-.02-.164-.028-.246.009.083.019.167.029.25.006.038.011.076.017.113-.006-.036-.011-.073-.017-.109m25.124-5.064q3.249-.294,6.5-.6-3.248.3-6.5.6c-7.725.7-15.455,1.343-23.2,1.813l-.06,0-.031,0c.03,0,.06,0,.09,0,7.742-.47,15.472-1.114,23.2-1.813m7.133-.814h0q-.048.031-.1.058.051-.027.1-.058M151,175.494l-.047-.024.047.024h0m-.519-.111q.042,0,.084,0h.018a.911.911,0,0,0-.1,0m.154,0,.06.006-.06-.006m.111.016.057.014-.057-.014m.106.029.055.02-.055-.02m-23.526,1.931q-1.634.118-3.268.227,1.635-.109,3.268-.227,2.9-.209,5.793-.443-2.9.233-5.793.443m-6.683,2.731-.059-.007.059.007m-.112-.017-.057-.014.057.014m-.107-.029-.054-.02.054.02m-.1-.041-.051-.026.051.026m-.1-.051-.048-.031.048.031m-.091-.061-.045-.036.045.036m-.084-.07-.041-.04.041.04m-.078-.078c-.013-.014-.025-.029-.038-.044l.038.044m-.071-.085c-.012-.016-.023-.032-.034-.048.011.016.022.032.034.048m-.063-.091c-.011-.017-.02-.034-.03-.051.01.017.019.034.03.051m-.055-.1c-.009-.018-.017-.036-.026-.054.008.018.017.037.026.054m-.047-.1c-.008-.019-.015-.039-.022-.058.007.019.014.039.022.058m-.038-.1c-.007-.021-.012-.042-.017-.062.006.021.011.042.017.063m-.029-.107c-.005-.023-.009-.047-.013-.07,0,.023.008.047.013.07m-.02-.108q-.007-.052-.01-.1,0,.052.01.1m32.145-3.978q-.041-.61-.083-1.222-.038-.559-.074-1.119.035.56.074,1.119Q151.755,174.465,151.8,175.075Zm-.287-5.141q-.013-.56-.01-1.119,0,.559.01,1.119c.013.56.035,1.12.064,1.68-.029-.56-.052-1.12-.064-1.68m-.8-2.838h0m2.676-2.451h0m-.014,0h0m-.015,0-.017,0,.017,0m-.023,0-.063.006.063-.006.052-.005-.052.005m.054-.005h0m-.022,0,.039,0-.039,0m-.02,0h0m-.082.01h0m0,0h0m0,0h0m0,0-.1.011.1-.011m.042,0h0m-.83.079c.114-.009.228-.016.341-.027s.222-.022.333-.035q-.166.019-.333.035c-.114.011-.228.018-.341.027m-1.281.06c.08,0,.16,0,.24,0-.08,0-.16,0-.24,0m-1.645,1.155a1.279,1.279,0,0,0,.061.338,1.278,1.278,0,0,1-.061-.338m0,0a1,1,0,0,1,0-.114,1,1,0,0,0,0,.114m.007-.155c0-.024.005-.048.01-.072,0,.023-.007.048-.01.072m.022-.12c.005-.02.009-.041.015-.061-.006.02-.01.04-.015.061m.031-.1c.008-.021.014-.042.023-.062-.009.02-.016.041-.023.062m.042-.1c.01-.021.02-.042.031-.062-.011.02-.021.041-.031.063m.053-.1c.012-.02.024-.041.038-.061-.014.02-.026.04-.038.061m.063-.093c.014-.019.028-.038.044-.056-.015.018-.029.037-.044.056m.069-.084c.017-.019.033-.037.051-.055-.018.017-.034.036-.051.055m.082-.082c.018-.016.035-.033.054-.048-.019.015-.036.032-.054.048m.088-.073c.019-.014.037-.029.057-.042-.019.013-.038.028-.057.042m.093-.064c.02-.012.039-.025.06-.036-.02.011-.04.024-.06.036m.1-.055c.02-.01.041-.021.062-.03-.021.009-.041.02-.062.03m.1-.046c.021-.008.041-.016.062-.023-.021.007-.042.015-.062.023m.11-.036c.02-.005.04-.012.06-.016-.02,0-.04.011-.06.016m.109-.024c.021,0,.041-.008.062-.01-.021,0-.041.006-.062.01m.114-.013c.019,0,.039,0,.058,0h0c-.02,0-.041,0-.061,0m2.761-.162.014,0-.014,0m3.262-.841.142-.057-.142.057m.275-.114.012-.005-.012.005m.031-.014.014-.006-.014.006m2.151-1.259.016-.014-.016.014m-.1.073,0,0Zm0,0,.01-.006-.01.006m.015-.009.015-.011-.015.011m.022-.016.053-.042-.053.042m.091-.077a.066.066,0,0,1-.011.011.069.069,0,0,0,.011-.012h0m-.12.095.032-.027-.032.027m-47.588,6.39h0l.124.05-.123-.049m-2.6-1.539.036.026-.036-.026m.039.029.039.024-.039-.024m.043.027h0l0,0h0m.1.056h0m-.009,0,0,0,0,0m-.024-.012,0,0,0,0m-.029-.016-.007,0,.007,0m0,0,.01.005-.01-.005m.031.017.007,0-.007,0m.019.011,0,0,0,0M105.25,162.5c-.006-.022-.014-.044-.022-.066C105.236,162.451,105.244,162.473,105.25,162.5Zm-.019-.069,0-.006v0l0-.011,0,.011h0m-.03-.106h0m0,0v0m0,.016,0,.008,0-.008m.008.027,0,.015,0-.015m.006.024,0-.007,0,.007m-.011-.037v0m-.006-.023v0m.029.1.016.057-.016-.057m0,0,.018.054-.018-.054m1.7,2.935h0l-.017-.023.018.024.025.031-.025-.03m-1.659-2.832c-.006-.013-.012-.029-.018-.047.006.018.013.034.018.047m-.013-13.306,0,0-.04.1.038-.094m.147-.324c.032-.07.063-.141.1-.211-.033.07-.064.141-.1.211m9.142-7.147Zm-.173.019h0m.146-.023h0m.018,0h0m-.016-.007a.073.073,0,0,1,.025.01.073.073,0,0,0-.025-.01m-.01,0-.027,0,.027,0m-.039,0-.059,0,.059,0m-.143.017.072-.011-.072.011m.169-.007h0m-.027,0h0m-.026,0h0m-.029,0h0m-.02,0h0m-.015,0h0m-2.671.726-.084.034.084-.034m-.145.059-.111.049.111-.049m.145-.06.027-.011q.162-.063.327-.122.45-.161.911-.286.154-.042.308-.08.295-.072.593-.13h0q-.3.058-.593.13-.155.038-.308.08-.461.125-.911.286-.164.059-.327.122l-.027.011m2.206-.638.011,0-.011,0m.064-.017.16-.041-.16.041m.173-.045.079-.019-.079.019m.093-.022.081-.017-.081.017m.133,0h0m7.529,2.644a.976.976,0,0,0,.3.166,1.057,1.057,0,0,0,.116.033h0a1.092,1.092,0,0,1-.116-.034.976.976,0,0,1-.3-.166,1.015,1.015,0,0,1-.153-.156,1.015,1.015,0,0,0,.153.156m1.362.041-.06.034.06-.034m-.1.052-.062.028.062-.028m-.1.043-.068.024.068-.024m-.1.035c-.032.01-.064.018-.1.025.032-.007.064-.016.1-.025m-.1.027c-.035.008-.07.013-.1.018.035,0,.07-.011.1-.018m-.137.022-.073.007.073-.007m-.112.008h0m-.144,0-.04,0,.04,0m1.216-.687c-.008.023-.017.046-.027.068.01-.022.018-.045.027-.068m-.044.1c-.01.02-.021.039-.032.059.011-.019.022-.039.032-.059m-.053.092c-.013.019-.026.037-.04.055.014-.018.027-.036.04-.055m-.062.084c-.017.02-.035.039-.053.057.018-.019.036-.038.053-.057m-.071.076a.987.987,0,0,1-.078.069.987.987,0,0,0,.078-.069m-.1.082c-.022.016-.044.032-.067.047.023-.015.045-.031.067-.047m-2.518-2.034c-.193-.055-.387-.108-.582-.158C120.461,142.252,120.655,142.305,120.849,142.361Zm-2.623-.568.012,0-.013,0h0m.075.012c.392.061.782.13,1.169.212-.388-.082-.777-.151-1.169-.212l-.054-.009.054.009m-.089-.014-.109-.012.109.012m-1.553-.12c.131,0,.262.009.393.016.215.012.429.029.644.049-.214-.02-.429-.037-.644-.049-.131-.007-.262-.012-.393-.016m9.547-3.69h0l-.016.022.016-.022m8.671-4.817-.027,0,.027,0m-.15.023h0m.039,0h0m.04-.007h0m.033-.007h0m.493-.053.149-.011-.149.011m.455-.033.181-.008-.181.008m.456-.02.195,0-.195,0m3,.228q-.229-.045-.46-.082l-.013,0,.013,0q.231.037.46.082m-.707-.1h-.01a.238.238,0,0,0,.058-.007h0a.212.212,0,0,1-.044.006m-.008,0h0m.061-.009h0m0,0h0m-.118-.014h0m-.016,0,0,0,0,0m-.005,0a0,0,0,0,0,0,0,0,0,0,0,1,0,0m.026.016-.044,0,.044,0m-.025-.013,0,0,0,0m.046.014h0m-.04-.01.005,0-.005,0m.01,0,.008,0-.008,0m.014,0,.01,0-.01,0m-.008-.018.028,0-.028,0m.037,0,.043.005-.043-.005m3.407.918.028.011-.028-.011m.032.013.022.009-.022-.009m.031.012.015.006-.015-.006m.02.009.008,0-.008,0m.007,0-.009,0,.009,0m-.011,0-.018-.008.018.008m-.021-.009-.025-.011.025.011m-.03-.013-.026-.011.026.011m-.059-.025.008,0-.008,0m4.681,3.541s0,0,0,0h0s0,0,0,0h0m-.052-.047-.011-.012.011.012m.045.043-.005,0,.005,0m-.017-.015-.009-.009.009.009m1.453,2.5h0l0,.009,0-.01h0Zm.906,3.352,0,.028h0l0,.036,0-.037,0-.028c-.027-.175-.054-.35-.086-.525.032.174.059.349.086.525m-.872-3.266h0v0c.017.043.035.085.052.128-.017-.044-.036-.089-.054-.133v0h0m0,.005v0m-.031-.078.008.019-.008-.019m.016.038.005.013-.005-.013m.01.025,0,.008,0-.008m-.008-.016-.005-.014.005.014m9.07,5.808s0,0,0,0,0,0,0,0m0,0h0m.016,0,.009,0-.009,0m.032.012.013.005-.013-.005m.054.025-.03-.01.03.01m-.051-.017-.021-.008.021.008m-.034-.013-.011-.005.011.005m.092.033.009,0h0l-.1-.031.094.028m-1.861-.521-.074-.011.074.011m-.165-.03h.006l.043.01-.052-.011h0m.2.035.1.013-.1-.013m.421.077.069.018-.069-.018m.208.055.081.024-.081-.024m.205.062.088.029-.088-.029m.2.066.111.037-.111-.037m.276.093.122.041-.122-.041m.21.07.117.038-.117-.038m1.971,1.092,0,0c-.016-.012-.03-.025-.046-.037.015.012.029.024.044.035v0h0m.005.008h0s0,0,0,0h0m3.589,6.568h0v0m.022.178c0-.014-.005-.045-.009-.078,0,.033.008.063.009.078m-.013-.1,0-.034,0,.034m-.714,5.321h0m.028-.038h0l0,0h0c.008-.013.016-.027.024-.042-.008.015-.017.03-.024.043l-.017.04.015-.035h0m-.019.028h0m.024-.039c.011-.023.023-.045.034-.067-.012.022-.024.044-.034.067m-.032.042v0m.012-.023,0-.008,0,.008m.028-.048,0-.007,0,.007m.587-1.932q.045-.228.08-.458l0-.016,0,.016q-.035.23-.08.458c-.014.072-.031.143-.047.214.016-.072.032-.142.047-.214m.083-.476h0m.017-.138,0,.023,0-.023q.024-.214.039-.429-.016.215-.039.429m-.011.092.008-.068-.008.068m-.743-5.567-.008-.02v0h0l.008.02.034.088-.034-.088m-.046-.11-.02-.048.02.048m.024.057-.009-.021.009.021m-.02-.046,0-.01,0,.01m-.042-.1.015.035-.015-.035m-1.243-2.12-.028-.038.005.006.023.032m-1.462-1.5q.324.267.623.561-.3-.294-.623-.561m-.147-.116h0l-.012-.009h0l-.009-.007,0,0h0l.014.014-.015-.015h0l-.015-.015c.01.011.024.02.036.031l.039.031-.038-.029m.049.039.019.017-.019-.017m.024.027-.007,0,.007,0m-.016-.011-.013-.011.013.011m-.027-.023-.019-.017.019.017m-1.456-.893-.011-.005.011.005q.2.1.4.2-.2-.107-.4-.2m-.4-2.579q.214.061.426.131-.211-.071-.426-.131m.474.147c.145.05.29.1.433.16-.143-.057-.288-.111-.433-.16m-2.029-.458c.151.018.3.04.451.065-.15-.025-.3-.047-.451-.065m.526.077q.222.038.442.087-.22-.048-.442-.087m.53.107c.148.034.3.071.442.111-.147-.041-.294-.077-.442-.111m-1.54-.228c.155.011.31.025.464.043-.154-.018-.309-.032-.464-.043m-.514,2.26.136,0-.136,0m-1.584-2.2c.16-.02.321-.036.481-.049-.16.013-.321.029-.481.049m-.482.07c.112-.018.224-.035.335-.05-.112.015-.224.032-.335.05M148,140.112l-.005-.012-.008-.021.013.034m-1.428-2.488c.04.046.078.095.115.146-.037-.051-.075-.1-.115-.146m.13.166c.037.052.073.106.107.161-.035-.055-.07-.109-.107-.161m.129.195.1.168-.1-.168m-1.129-1.329q.165.168.323.343t.291.333q-.142-.169-.291-.333t-.323-.343q-.329-.337-.684-.647.354.31.684.647m-.423-3.312q.245.168.484.346-.238-.178-.484-.346m-.688,2.3-.007,0,.005,0h0m-.013-.007-.029-.019.029.019m.04.032c.014.014.028.027.04.036-.012-.009-.025-.022-.04-.036m-.5-.362q-.191-.132-.387-.257t-.4-.242c-.085-.05-.172-.1-.259-.146.087.048.173.1.259.146q.2.118.4.242t.387.257q.178.123.352.251-.174-.129-.352-.251m-2.224-1.229h0c.066.03.133.058.2.088-.068-.031-.137-.059-.2-.09m-.009,0h0c-.246-.1-.495-.19-.745-.276.25.086.5.177.745.276m-2.64-3.113.046.008-.046-.008m.573.1.183.038-.183-.038m-1.325-.2.176.019-.176-.019m-.4,2.261h0q-.217-.02-.434-.035t-.447-.022q.224.008.447.022t.434.035m-.215-2.316.2.016-.2-.016m.534,2.372-.065-.01.065.01m-.077-.012-.057-.011.057.011m-.1-.02-.033-.007.033.007m-.072-.014-.02,0,.02,0m-3.456-2.248q.21-.025.421-.045-.211.02-.421.045m.46-.049c.153-.014.306-.025.459-.035-.153.01-.306.021-.459.035m.592-.043q.17-.01.34-.016-.17.006-.34.016m.482-.021q.2-.006.4-.007-.2,0-.4.007m-1.623,2.426.1-.015h0l-.1.014q-.216.034-.432.074-.464.086-.922.2.458-.115.922-.2.215-.04.432-.074m-.386-2.251q.168-.025.336-.046-.168.021-.336.046m-2.736,3.088-.242.1h0l.241-.1q.433-.168.875-.309-.442.141-.875.309m-3.611,2.182q.168-.147.341-.288l.16-.129.013-.01h0l.025-.018-.026.019-.013.01-.16.129q-.173.141-.341.288-.365.318-.705.663t-.661.72c-.093.11-.183.223-.274.335.091-.112.181-.225.274-.335q.317-.372.661-.72t.705-.663m-3.6,5.408a15.254,15.254,0,0,0-.441,1.636q-.059.276-.108.555a.927.927,0,0,1-.026.107.9.9,0,0,0,.026-.107q.05-.278.108-.555a15.254,15.254,0,0,1,.441-1.636l0-.014,0,.014m-4.025-1.784.2.045-.2-.045m.371.085.205.051-.205-.051m-.743-.164.2.041-.2-.041m-.373-.072.193.037-.193-.037m-1.126-.171.191.025-.191-.025m.376.05.192.029-.192-.029m.375.057.193.033-.193-.033m-1.128-.149.192.021-.192-.021m-.377-.034.193.017-.193-.017m-.757-.045.2.008-.2-.008m.378.018.2.013-.2-.013m-.719,2.251-.271,0,.271,0m-.038-2.279.2,0-.2,0m-.855,2.285q-.178.007-.355.018t-.355.027q-.158.014-.316.032l-.188.022h0l.188-.022q.158-.018.316-.032.177-.016.355-.027t.355-.018c.167-.006.334-.009.5-.009-.167,0-.334,0-.5.009m-1.249.1h0m.953-2.364.187-.009-.187.009m-.391.026.188-.014-.188.014m-.39.036.189-.019-.189.019m-.775.1.189-.029-.189.029m.387-.057.19-.024-.19.024m-.772.123.188-.034-.188.034m-.383.077.187-.039-.187.039m-.761.187.181-.048-.181.048m.38-.1.184-.043-.184.043m-.757.209.178-.052-.178.052m-.375.121.173-.057-.173.057m-.892,2.884q.26-.143.527-.273.141-.069.284-.134l.023-.01-.023.01q-.143.065-.284.134-.267.13-.527.273t-.512.3l-.006,0,.006,0q.252-.156.512-.3m-.218-2.451.125-.053-.125.053m.367-.156.154-.06-.154.06m.37-.144.166-.06-.166.06m-1.692,3.495c.059-.043.118-.086.178-.128-.06.042-.119.085-.178.128m-.279.2,0,0-.1.083q-.108.087-.213.177.106-.09.213-.177l.1-.081m-2.137,2.171.043-.057,0,0,0,0c.05-.062.1-.124.148-.185-.051.062-.1.125-.15.187l-.047.062a14.82,14.82,0,0,0-1.262,2.017,14.83,14.83,0,0,1,1.262-2.017m-1.924,3.478q-.1.267-.195.538-.1.286-.187.576.088-.289.187-.576.093-.271.195-.538c.029-.076.059-.152.089-.228-.03.076-.06.152-.089.228m-.989,8.747h0s0,.01,0,.014,0-.01,0-.015m0,0v-.005c0-.005,0-.011,0-.016s0,.009,0,.013c0-.023,0-.046,0-.069,0,.026,0,.053,0,.079h0m-.021-.157s0,0,0,0,0,0,0,0m.027-4.8q.021-.144.045-.287-.024.144-.045.287c0,.03-.008.06-.013.09l0-.014.011-.076m-.023,4.659c0-.03-.006-.061-.009-.091,0,.03.007.061.009.091m-.016-.155c0-.034-.008-.068-.013-.1,0,.034.009.068.013.1m-.019-.156-.02-.152.02.152m-.03-.236c0-.024-.006-.049-.009-.073,0,.024.006.049.009.073m-.02-.169c0-.02,0-.039-.006-.059,0,.02,0,.039.006.059m.033-3.281c.007-.075.016-.149.024-.224-.008.075-.017.149-.024.224m.064,4.151c0-.029,0-.058-.006-.086,0,.029,0,.058.006.086m0,.12c0-.008,0-.016,0-.024,0,.008,0,.016,0,.024m0-.032,0-.017,0,.017m0-.025,0-.016,0,.016m0-.022,0-.019,0,.019m0-.019,0-.016,0,.016m0-.019,0-.008,0,.008m0-.01v0m.01.091-.006-.04.006.04m-.007-.05,0-.019,0,.019m0-.026c0-.006,0-.011,0-.014s0,.008,0,.014m.828,3.421c.051.143.105.284.16.426-.055-.141-.109-.283-.16-.426-.119-.335-.225-.675-.322-1.017.1.342.2.682.322,1.017m3.967,5.709h0a2.2,2.2,0,0,1,.346.251,2.193,2.193,0,0,0-.346-.251m1.48.974c-.245-.137-.484-.285-.719-.439.235.154.474.3.719.439m.367.194-.1-.049.1.049m.585.281-.134-.062.134.062m-.294-.138-.116-.055.116.055m2.694.885c.133.028.267.053.4.077-.134-.024-.267-.049-.4-.077q-.322-.067-.642-.149.319.083.642.149m1.489,2.514h0q-.3-.024-.591-.059.295.035.591.059m3.844,12.057c.008.008.013.012.016.012s-.008,0-.016-.012m.017.008s0,0,0,0,0,0,0,0m-.052-.071.023.028-.023-.028m.026.032.016.022-.016-.022m.019.026.006.011-.006-.011m-.118-.413c.207.005.415.007.623.008-.208,0-.415,0-.623-.008m2.665-.037-.507.017.507-.017m-.655.022q-.3.009-.6.015.3-.006.6-.015m-.739.017q-.241,0-.482,0,.241,0,.482,0m31.594-3.024-.157.055.157-.055m2.822-13.931.09-.017-.09.017h0m1.025-.226-.172.043.172-.043m-.312.076-.171.039.171-.039m-.311.069-.174.037.174-.037m1.543-.409-.171.054.171-.054m-.3.094-.172.051.172-.051m-.306.088-.174.047.174-.047m.911-.282-.168.058.168-.058m.6-.221-.165.065.165-.065m-.3.113-.168.062.168-.062m1.169-.5-.16.077.16-.077m-.288.135-.161.072.161-.072m-.291.128-.162.068.162-.068m1.145-.553-.156.085.156-.085m-.28.148-.159.081.159-.081m.56-.307-.158.092.158-.092m.281-.169c-.054.034-.108.068-.163.1.055-.033.109-.067.163-.1m.276-.177c-.056.037-.112.074-.168.11.056-.036.112-.073.168-.11m.27-.184c-.057.04-.114.08-.171.119.057-.039.114-.079.171-.119m.657-3.73-.009.011,0,.005-.029.036.033-.041.082-.109-.073.1m1.049-1.767c-.019.046-.038.092-.058.135.021-.043.04-.089.058-.135m-2.046-14.323a10.342,10.342,0,0,1,1.447,1.175q.335.325.642.679-.307-.353-.642-.679a10.342,10.342,0,0,0-1.447-1.175q-.387-.26-.8-.481c-.142-.076-.286-.148-.431-.216.145.068.289.14.431.216q.412.221.8.481m-1.722-.914q.212.086.42.182-.208-.1-.42-.182m-3.11-.7q-.225-.014-.45-.019.225,0,.45.019m-.537-.02c-.119,0-.237,0-.356,0,.073,0,.145,0,.218,0l.138,0m-.949.029q.217-.016.433-.024-.217.007-.433.024m-1.188.153-.163.032v0l.163-.029m-8.048-10.68c.212.117.419.241.623.368-.2-.127-.412-.251-.623-.368a14.648,14.648,0,0,0-1.909-.882,14.648,14.648,0,0,1,1.909.882m-3.733-1.439.2.049-.2-.049m.592.154.176.049-.176-.049m-4.2-.577h0m.691.018-.191-.008.191.008m-3.385.184c-.152.023-.3.048-.455.075.151-.027.3-.052.455-.075M121.5,140.156l-.135-.038.135.038h0m-.5-.137.216.057-.216-.057m-4.679-.632h0m-.581.008.186,0-.186,0m-5.7,1.346.006,0-.006,0a12.251,12.251,0,0,0-1.311.737,12.251,12.251,0,0,1,1.311-.737m-8.369,15.179q0,.668.046,1.336-.045-.668-.046-1.336m1.59,7.706q.267.6.582,1.173-.314-.574-.582-1.173m7.783,7.514c-.287-.108-.57-.225-.849-.351.279.127.562.243.849.351m2.785.752q-.666-.114-1.319-.284.651.171,1.319.284m2.4,2.74c-.012-.307-.025-.614-.041-.921-.014-.259-.031-.519-.05-.778.019.259.036.518.05.778.016.307.029.614.041.921.027.707.045,1.414.061,2.121-.016-.707-.035-1.414-.061-2.121m.346,8.9c-.012-.113-.022-.225-.031-.336-.014-.166-.026-.329-.039-.486-.082-.956-.118-1.916-.144-2.875-.009-.32-.016-.64-.024-.959q-.012-.53-.023-1.061.011.53.023,1.061c.008.32.015.639.024.959.026.959.062,1.919.144,2.875.014.157.026.32.039.486.009.111.019.223.031.336s.025.226.041.339c-.016-.113-.029-.226-.041-.339m.1.676c.022.111.048.221.078.329-.03-.108-.056-.218-.078-.329m1.178,1.675a2,2,0,0,0,.217.056,2,2,0,0,1-.217-.056m.348.078a4.048,4.048,0,0,0,.407.035,4.048,4.048,0,0,1-.407-.035m.822.044c.274,0,.547,0,.821,0-.127,0-.255,0-.382,0l-.439,0m1.942-.019q-.429.01-.858.017.429-.006.858-.017.742-.018,1.485-.044-.742.026-1.485.044m11.669-.605q-1.91.134-3.822.247,1.911-.113,3.822-.247,4.776-.335,9.538-.825-4.76.5-9.538.825m12.894-1.205q-.838.105-1.677.2.839-.095,1.677-.2t1.674-.223q-.836.119-1.674.223m5.729-.917c-.351.084-.706.155-1.061.22.355-.064.71-.135,1.061-.22q.263-.063.523-.137-.259.074-.523.137m1.036-.3q.254-.088.5-.191-.247.1-.5.191M153.87,182a1.729,1.729,0,0,0,.208-.377,1.729,1.729,0,0,1-.208.377m.279-.592a4.763,4.763,0,0,0,.11-.561,4.763,4.763,0,0,1-.11.561m.169-1.335c0,.13-.01.26-.019.39.01-.129.016-.259.019-.39q0-.1,0-.2,0,.1,0,.2m5.794-15.554q.13-.093.258-.191-.128.1-.258.191m4.253-5.962a11.01,11.01,0,0,1-.752,1.893,11.191,11.191,0,0,1-.781,1.306,11.191,11.191,0,0,0,.781-1.306,11.01,11.01,0,0,0,.752-1.893q.144-.492.243-1-.1.508-.243,1" transform="translate(-87.082 -112.214)" fill="#fff"/>
  </g>
</svg>
