<svg xmlns="http://www.w3.org/2000/svg" xmlns:xlink="http://www.w3.org/1999/xlink" width="92.344" height="92.344" viewBox="0 0 92.344 92.344">
  <defs>
    <clipPath id="clip-path">
      <rect id="Rect치ngulo_401506" data-name="Rect치ngulo 401506" width="92.344" height="92.344" fill="none"/>
    </clipPath>
    <clipPath id="clip-path-2">
      <rect id="Rect치ngulo_401976" data-name="Rect치ngulo 401976" width="62.1" height="59.24" fill="none"/>
    </clipPath>
  </defs>
  <g id="Grupo_1102119" data-name="Grupo 1102119" transform="translate(-4471 10678.344)">
    <g id="Grupo_1099827" data-name="Grupo 1099827" transform="translate(4471 -10678.344)" clip-path="url(#clip-path)">
      <path id="Trazado_883915" data-name="Trazado 883915" d="M92.344,46.173A46.172,46.172,0,1,1,46.172,0,46.172,46.172,0,0,1,92.344,46.173" transform="translate(0 -0.001)" fill="#464442"/>
    </g>
    <g id="Grupo_1102080" data-name="Grupo 1102080" transform="translate(4485 -10663.839)">
      <g id="Grupo_1102079" data-name="Grupo 1102079" clip-path="url(#clip-path-2)">
        <path id="Trazado_895073" data-name="Trazado 895073" d="M38.683,72.894H37.629V71.84a.91.91,0,0,0-1.819,0v1.054H34.756a.91.91,0,1,0,0,1.819H35.81v1.054a.91.91,0,0,0,1.819,0V74.713h1.054a.91.91,0,1,0,0-1.819" transform="translate(-20.426 -42.805)" fill="#fff"/>
        <path id="Trazado_895074" data-name="Trazado 895074" d="M71.878,31.374h1.054v1.054a.91.91,0,0,0,1.82,0V31.374h1.054a.91.91,0,1,0,0-1.819H74.751V28.5a.91.91,0,0,0-1.82,0v1.054H71.878a.91.91,0,1,0,0,1.819" transform="translate(-42.828 -16.651)" fill="#fff"/>
        <path id="Trazado_895075" data-name="Trazado 895075" d="M119.289,96.415a.863.863,0,1,0,.863.863.863.863,0,0,0-.863-.863" transform="translate(-71.468 -58.185)" fill="#fff"/>
        <path id="Trazado_895076" data-name="Trazado 895076" d="M32.649,114.948a.863.863,0,1,0,.863.863.863.863,0,0,0-.863-.863" transform="translate(-19.182 -69.37)" fill="#fff"/>
        <path id="Trazado_895077" data-name="Trazado 895077" d="M62.1,21.292a8.923,8.923,0,0,0-5.417-8.205V3.505a3.5,3.5,0,1,0-7.009,0v9.583a8.926,8.926,0,0,0-5.2,10.179H6.307v-2.5H40.995a.91.91,0,1,0,0-1.819H3.069a3.069,3.069,0,0,0,0,6.138H4.488V53.129A6.117,6.117,0,0,0,10.6,59.24H17.18a.91.91,0,0,0,0-1.819H10.6a4.3,4.3,0,0,1-4.29-4.291V25.086h1.7V53.129A2.6,2.6,0,0,0,10.6,55.722H51.5a2.6,2.6,0,0,0,2.593-2.593V30.168a8.868,8.868,0,0,0,1.7-.343v23.3A4.3,4.3,0,0,1,51.5,57.42H21.461a.91.91,0,0,0,0,1.819H51.5A6.117,6.117,0,0,0,57.6,53.129V29.036A8.927,8.927,0,0,0,62.1,21.292M3.069,23.267a1.25,1.25,0,1,1,0-2.5H4.488v2.5ZM51.493,3.505a1.685,1.685,0,1,1,3.371,0V5.613h-.792a.91.91,0,0,0,0,1.82h.792V9.255h-.792a.91.91,0,0,0,0,1.82h.792v6.549c0,.01,0,.019,0,.028s0,.034,0,.052,0,.03.005.044,0,.028.007.042.007.033.01.049.006.025.01.036.01.033.015.048.009.024.013.036.012.03.019.044.012.025.019.038.013.025.021.038.016.027.025.04.014.022.022.032l.03.04.025.03c.011.012.021.025.033.036l.031.03.033.03.04.032.022.017a3.585,3.585,0,1,1-4.137,0l.022-.017.04-.032.033-.03.031-.03c.011-.011.022-.024.033-.036l.025-.03.03-.04.022-.032c.009-.013.017-.027.025-.04s.014-.025.021-.038.013-.025.019-.038.013-.029.019-.044.009-.024.013-.036.011-.032.015-.048.006-.024.009-.036.008-.032.011-.049,0-.028.007-.042,0-.029.005-.044,0-.034,0-.052,0-.018,0-.028ZM25.351,25.086h11.39v2.781a.6.6,0,0,1-.6.6H25.95a.6.6,0,0,1-.6-.6ZM41.169,36.634a1.022,1.022,0,0,1,1.021,1.02V40.69a1.022,1.022,0,0,1-1.021,1.02H34.7a17,17,0,0,1,5.372-5.077ZM19.9,51.337a1.022,1.022,0,0,1,1.021-1.021H27.7a6.4,6.4,0,0,0,.8-.05,6.477,6.477,0,0,0,1.3-.3l2.588-.889c.1-.034.2-.064.3-.091a10.546,10.546,0,0,1-.608,1.49A6.441,6.441,0,0,1,28.432,53.9H20.924A1.022,1.022,0,0,1,19.9,52.882Zm0-3.861V44.55a1.022,1.022,0,0,1,1.021-1.021h6.392c-.573,1.466-1.805,3.945-3.88,4.967H20.924A1.022,1.022,0,0,1,19.9,47.475M42.19,45.986a1.022,1.022,0,0,1-1.021,1.02H33.9a6.469,6.469,0,0,0-2.1.35l-2.588.889a4.653,4.653,0,0,1-1.318.248c-.064,0-.128,0-.192,0H26.4a14.081,14.081,0,0,0,2.852-4.967H41.169A1.022,1.022,0,0,1,42.19,44.55Zm-8.459,5.255a12.519,12.519,0,0,0,.9-2.416h6.541a1.023,1.023,0,0,1,1.021,1.021v3.036A1.022,1.022,0,0,1,41.169,53.9h-9.35a9.609,9.609,0,0,0,1.912-2.662M32.614,41.71H20.924A1.022,1.022,0,0,1,19.9,40.69V39.144a1.022,1.022,0,0,1,1.021-1.02H27.7a6.44,6.44,0,0,0,2.1-.351l2.59-.888a4.617,4.617,0,0,1,1.509-.251H36.9a16.008,16.008,0,0,0-4.287,5.077M51.5,53.9H43.819a2.828,2.828,0,0,0,.191-1.021V49.846a2.83,2.83,0,0,0-.759-1.93,2.829,2.829,0,0,0,.759-1.93V44.55a2.83,2.83,0,0,0-.759-1.931,2.827,2.827,0,0,0,.759-1.929V37.653a2.843,2.843,0,0,0-2.84-2.839H33.9a6.437,6.437,0,0,0-2.1.35l-2.59.888A4.616,4.616,0,0,1,27.7,36.3H20.924a2.843,2.843,0,0,0-2.84,2.839V40.69a2.827,2.827,0,0,0,.759,1.929,2.83,2.83,0,0,0-.759,1.931v2.925a2.83,2.83,0,0,0,.759,1.931,2.83,2.83,0,0,0-.759,1.931v1.545a2.828,2.828,0,0,0,.19,1.021H10.6a.774.774,0,0,1-.772-.774V25.086H23.532v2.781a2.421,2.421,0,0,0,2.418,2.418H36.143a2.421,2.421,0,0,0,2.418-2.418V25.086h6.544a8.942,8.942,0,0,0,7.164,5.082V53.129a.774.774,0,0,1-.774.774m1.684-25.508a7.1,7.1,0,0,1-3.505-13.28v2.069a5.4,5.4,0,1,0,7.009,0V15.114a7.1,7.1,0,0,1-3.5,13.281" fill="#fff"/>
      </g>
    </g>
  </g>
</svg>
