<svg xmlns="http://www.w3.org/2000/svg" xmlns:xlink="http://www.w3.org/1999/xlink" width="92.344" height="92.344" viewBox="0 0 92.344 92.344">
  <defs>
    <clipPath id="clip-path">
      <rect id="Rect치ngulo_401506" data-name="Rect치ngulo 401506" width="92.344" height="92.344" fill="none"/>
    </clipPath>
    <clipPath id="clip-path-2">
      <rect id="Rect치ngulo_401979" data-name="Rect치ngulo 401979" width="59.368" height="59.413" fill="none"/>
    </clipPath>
  </defs>
  <g id="Grupo_1102122" data-name="Grupo 1102122" transform="translate(-4803 10208.796)">
    <g id="Grupo_1099827" data-name="Grupo 1099827" transform="translate(4803 -10208.796)" clip-path="url(#clip-path)">
      <path id="Trazado_883915" data-name="Trazado 883915" d="M92.344,46.173A46.172,46.172,0,1,1,46.172,0,46.172,46.172,0,0,1,92.344,46.173" transform="translate(0 -0.001)" fill="#464442"/>
    </g>
    <g id="Grupo_1102086" data-name="Grupo 1102086" transform="translate(4817.987 -10191.531)">
      <g id="Grupo_1102085" data-name="Grupo 1102085" clip-path="url(#clip-path-2)">
        <path id="Trazado_895082" data-name="Trazado 895082" d="M4.28,46.526c-.933-.808-1.832-1.562-2.7-2.35a8.724,8.724,0,0,1-1.227-1.3,1.43,1.43,0,0,1,.792-2.347,8.643,8.643,0,0,1,4.163,0,18.588,18.588,0,0,1,8.153,3.5A12.856,12.856,0,0,1,18.673,54.3a18.485,18.485,0,0,1-2.04,9.376c-.046.088-.082.18-.146.323h15.65l-3.187-5.5q-.2-.348-.4-.7c-.412-.726-.344-1.3.189-1.618s1.091-.1,1.508.607c.354.6.7,1.212,1.054,1.818.722,1.249,1.412,2.517,2.176,3.739a2.99,2.99,0,0,0,3.181,1.437,2.661,2.661,0,0,0,2.248-2.034,3.035,3.035,0,0,0-.369-2.492,12.182,12.182,0,0,1-1.652-7.235,13.893,13.893,0,0,1,1.085-4.165,6.905,6.905,0,0,0-2.762-8.538,6.818,6.818,0,0,0-8.2.743,7.133,7.133,0,0,0-1.489,8.5c.754,1.418,1.593,2.791,2.392,4.185a2.759,2.759,0,0,1,.257.492.93.93,0,0,1-.4,1.184.849.849,0,0,1-1.261-.219c-1.35-2.457-3.2-4.67-3.672-7.562a8.868,8.868,0,1,1,17.533-2.664,8.492,8.492,0,0,1-.572,4.6,10.574,10.574,0,0,0,.574,9.955,4.711,4.711,0,0,1-.124,5c-.081.137-.168.27-.31.5.734,0,1.385.032,2.029-.022.17-.014.385-.271.463-.464a6.5,6.5,0,0,0-.295-5.9,9.04,9.04,0,0,1-.487-8.4A10.837,10.837,0,1,0,20.79,44.682a11.512,11.512,0,0,0,1.575,6.386c1.783,3.062,3.546,6.136,5.316,9.206a2.505,2.505,0,0,1,.279.548.924.924,0,0,1-.442,1.168.944.944,0,0,1-1.27-.268,1.863,1.863,0,0,1-.165-.261c-1.885-3.265-3.807-6.509-5.644-9.8A13.1,13.1,0,0,1,24.346,34.6a12.819,12.819,0,0,1,15.271.591l.44.352c.462-.327.908-.612,1.314-.945a.735.735,0,0,0,.206-.506c.018-1.154.006-2.31.011-3.465,0-.781.371-1.232.989-1.232s.985.453.988,1.234c0,1.093,0,2.186,0,3.279,0,.319-.053.609.365.806a.874.874,0,0,0,.991-.025c1.542-.992,3.1-1.954,4.658-2.927.122-.076.242-.157.369-.225a.987.987,0,0,1,1.365.276.962.962,0,0,1-.32,1.4c-.861.565-1.744,1.1-2.617,1.643-.542.338-1.073.7-1.628,1.01a1.924,1.924,0,0,0-1.281,1.881,2.616,2.616,0,0,1-1.936,2.386c.272,1.218.6,2.385.783,3.574a11.9,11.9,0,0,1-.926,6.588,6.481,6.481,0,0,0,.36,6.153,8.7,8.7,0,0,1,.817,7.039c-.04.138-.08.276-.118.415a.64.64,0,0,0,.028.144H45.1q4.516,0,9.033,0c.977,0,1.31.326,1.311,1.286,0,2.5.007,4.991,0,7.487a2.961,2.961,0,0,1-3.117,3.1q-6.217.01-12.435,0c-.818,0-1.286-.381-1.269-1.015.017-.614.465-.962,1.258-.963q6.094,0,12.188,0c1.1,0,1.4-.3,1.4-1.388,0-.494,0-.988,0-1.582H30.34c-.186,0-.372.006-.557,0A.989.989,0,1,1,29.756,69c.185-.01.371,0,.557,0h23.11V66.058H9.958v2.936H10.6q3.96,0,7.919,0c.829,0,1.292.366,1.283,1s-.467.974-1.307.979H9.917c0,.728-.033,1.4.011,2.076a.922.922,0,0,0,.884.882,4.608,4.608,0,0,0,.618.011H35.125a4.027,4.027,0,0,1,.618.012.953.953,0,0,1,.885.951.974.974,0,0,1-.895,1.006,4.037,4.037,0,0,1-.494.01h-24a3,3,0,0,1-3.3-3.291q0-3.651,0-7.3c0-.964.33-1.285,1.309-1.288,1.131,0,2.263,0,3.409,0-.8-5.051-1.81-9.97-5.158-14.173A9.332,9.332,0,0,1,5.56,53.855a9.342,9.342,0,0,1-2.148,1.911A2.11,2.11,0,0,1,.034,53.781a8.736,8.736,0,0,1,3.462-6.7c.222-.181.467-.334.785-.56m10.2,16.625.166,0a1.227,1.227,0,0,0,.146-.188c.151-.293.309-.583.437-.886a17.941,17.941,0,0,0,1.466-7.711,10.8,10.8,0,0,0-4.319-8.652,17.463,17.463,0,0,0-8.148-3.327c-.546-.082-1.1-.095-1.653-.139l-.067.185a31.316,31.316,0,0,1,8.409,8.978,31.438,31.438,0,0,1,3.561,11.745M2.084,54.137c1.525-.053,4.163-4.456,3.39-5.907-1.6.288-3.931,4.3-3.39,5.907M42.6,36.327c-.465,0-1.089.469-.937.768a2.575,2.575,0,0,0,1.012,1.161c.415.2.926-.428.912-.971a.97.97,0,0,0-.987-.958" transform="translate(0 -16.513)" fill="#fff"/>
        <path id="Trazado_895083" data-name="Trazado 895083" d="M74.505,4.441c0-.538-.009-1.012,0-1.485A2.962,2.962,0,0,1,77.41.014q1.051-.028,2.1,0A2.96,2.96,0,0,1,82.42,2.952c.012.493,0,.986,0,1.5A16.749,16.749,0,0,1,87.585,6.7a16.42,16.42,0,0,1,7.588,12.441A16.792,16.792,0,0,1,82.289,37.191a3.6,3.6,0,0,1-.485.093.975.975,0,0,1-.39-1.91c1-.325,2-.643,2.99-.973a5.514,5.514,0,0,0,.6-.285c-.31-.541-.614-1.051-.9-1.57a.994.994,0,1,1,1.7-1c.153.244.291.5.436.747l.474.813a14.654,14.654,0,0,0,4.058-4.055c-.521-.3-1.014-.579-1.5-.868-.636-.379-.828-.911-.529-1.437a1.006,1.006,0,0,1,1.5-.285c.486.267.964.548,1.51.859a14.126,14.126,0,0,0,1.5-5.534H91.782c-.96,0-1.423-.316-1.434-.975s.462-1,1.4-1h1.481a14.042,14.042,0,0,0-1.459-5.545c-.518.293-1.008.575-1.5.849-.649.359-1.2.267-1.513-.244-.325-.533-.127-1.083.543-1.48.474-.281.954-.551,1.48-.854a14.782,14.782,0,0,0-4.056-4.071c-.307.533-.576,1.012-.857,1.486-.4.671-.947.87-1.481.547-.515-.311-.607-.862-.246-1.512.25-.451.508-.9.761-1.344a.887.887,0,0,0,.043-.171,14.088,14.088,0,0,0-5.493-1.459c0,.607.007,1.179,0,1.75-.011.717-.41,1.165-1.009,1.151a1.01,1.01,0,0,1-.966-1.13c-.01-.575,0-1.15,0-1.779a14.375,14.375,0,0,0-5.537,1.479c.3.524.578,1.016.852,1.513a1.015,1.015,0,0,1-.276,1.5c-.522.3-1.06.11-1.44-.522-.284-.474-.556-.956-.862-1.482a14.037,14.037,0,0,0-3.642,3.44c-.283.38-.533.784-.8,1.173a1.015,1.015,0,0,1-1.432.4.984.984,0,0,1-.225-1.461A16.844,16.844,0,0,1,73.931,4.6c.177-.053.355-.1.575-.163m2-.416h3.942c0-.3,0-.584,0-.869-.016-.8-.37-1.152-1.178-1.165-.37-.006-.74,0-1.11,0-1.485,0-1.7.219-1.67,1.722,0,.1.01.2.016.314" transform="translate(-35.888 0)" fill="#fff"/>
        <path id="Trazado_895084" data-name="Trazado 895084" d="M44.578,4.256q-3.619,0-7.238,0c-.678,0-1.094-.32-1.166-.864a1,1,0,0,1,1.1-1.11c1.134-.012,2.269,0,3.4,0,3.671,0,7.341-.005,11.011.01a1.336,1.336,0,0,1,.908.247,1.431,1.431,0,0,1,.309,1.03c-.076.5-.521.7-1.029.694q-2.536,0-5.073,0H44.578" transform="translate(-20.314 -1.277)" fill="#fff"/>
        <path id="Trazado_895085" data-name="Trazado 895085" d="M26.447,13.292q-3.588,0-7.176,0c-.679,0-1.094-.32-1.166-.863a1,1,0,0,1,1.1-1.111c1.134-.012,2.268,0,3.4,0,3.671,0,7.341-.005,11.011.01a1.336,1.336,0,0,1,.908.246,1.43,1.43,0,0,1,.309,1.03c-.075.5-.521.7-1.029.694q-2.505,0-5.011,0H26.447" transform="translate(-10.165 -6.352)" fill="#fff"/>
        <path id="Trazado_895086" data-name="Trazado 895086" d="M71.193,59.5a2.967,2.967,0,1,1-2.965-3,2.968,2.968,0,0,1,2.965,3m-2.978.959a.987.987,0,1,0,0-1.973.987.987,0,0,0,0,1.973" transform="translate(-36.658 -31.737)" fill="#fff"/>
        <path id="Trazado_895087" data-name="Trazado 895087" d="M24,42.66q-2.32,0-4.64,0c-.793,0-1.243-.349-1.261-.961-.019-.636.448-1.017,1.265-1.017q4.67,0,9.341,0c.794,0,1.243.348,1.262.959.02.633-.451,1.017-1.266,1.019q-2.351,0-4.7,0" transform="translate(-10.168 -22.85)" fill="#fff"/>
        <path id="Trazado_895088" data-name="Trazado 895088" d="M6.31,27.125c.907,0,1.814-.006,2.721,0,.727.006,1.172.389,1.171.988s-.446.985-1.172.988q-2.783.01-5.567,0c-.728,0-1.17-.388-1.17-.989s.439-.981,1.171-.987c.948-.007,1.9,0,2.845,0" transform="translate(-1.289 -15.236)" fill="#fff"/>
        <path id="Trazado_895089" data-name="Trazado 895089" d="M33.312,29.1c-.928,0-1.856.007-2.784,0a1.006,1.006,0,0,1-1.132-.964c-.015-.6.43-1.007,1.147-1.01q2.814-.011,5.629,0a1,1,0,0,1,1.133.962c.015.6-.433,1-1.148,1.012-.948.009-1.9,0-2.845,0" transform="translate(-16.512 -15.235)" fill="#fff"/>
        <path id="Trazado_895090" data-name="Trazado 895090" d="M111.414,96.866c-.639,0-1.279.014-1.917,0a.986.986,0,1,1,0-1.969q1.917-.024,3.835,0a.986.986,0,1,1,0,1.969c-.639.018-1.278,0-1.917,0" transform="translate(-60.918 -53.297)" fill="#fff"/>
        <path id="Trazado_895091" data-name="Trazado 895091" d="M119.951,87.829c-.474,0-.949.014-1.423,0a.987.987,0,1,1,0-1.97q1.423-.025,2.845,0a.987.987,0,1,1,0,1.97c-.474.016-.948,0-1.423,0" transform="translate(-65.992 -48.22)" fill="#fff"/>
        <path id="Trazado_895092" data-name="Trazado 895092" d="M53.935,24.564c-.351,0-.7.027-1.051-.006a.959.959,0,0,1-.895-1,.912.912,0,0,1,.883-.944,18.169,18.169,0,0,1,2.163,0,.977.977,0,0,1,.012,1.947,9.31,9.31,0,0,1-1.112.009" transform="translate(-29.203 -12.682)" fill="#fff"/>
      </g>
    </g>
  </g>
</svg>
