<svg xmlns="http://www.w3.org/2000/svg" xmlns:xlink="http://www.w3.org/1999/xlink" width="92.344" height="92.344" viewBox="0 0 92.344 92.344">
  <defs>
    <clipPath id="clip-path">
      <rect id="Rect치ngulo_401506" data-name="Rect치ngulo 401506" width="92.344" height="92.344" fill="none"/>
    </clipPath>
    <clipPath id="clip-path-2">
      <rect id="Rect치ngulo_401978" data-name="Rect치ngulo 401978" width="52.699" height="52.706" fill="none"/>
    </clipPath>
  </defs>
  <g id="Grupo_1102121" data-name="Grupo 1102121" transform="translate(-5138 10678.344)">
    <g id="Grupo_1101882" data-name="Grupo 1101882" transform="translate(5138 -10678.344)">
      <g id="Grupo_1099827" data-name="Grupo 1099827" clip-path="url(#clip-path)">
        <path id="Trazado_883915" data-name="Trazado 883915" d="M92.344,46.173A46.172,46.172,0,1,1,46.172,0,46.172,46.172,0,0,1,92.344,46.173" transform="translate(0 -0.001)" fill="#464442"/>
      </g>
    </g>
    <g id="Grupo_1102084" data-name="Grupo 1102084" transform="translate(5156.301 -10658.175)">
      <g id="Grupo_1102083" data-name="Grupo 1102083" clip-path="url(#clip-path-2)">
        <path id="Trazado_895080" data-name="Trazado 895080" d="M11.9,45.065H9.351v.559q0,2.975,0,5.95c0,.833-.288,1.124-1.109,1.128-.743,0-1.487.01-2.231,0A2.549,2.549,0,0,1,3.4,50.066q-.011-6.216.009-12.431a.772.772,0,0,0-.53-.835c-.5-.217-.99-.471-1.473-.731A2.492,2.492,0,0,1,0,33.745Q0,26.36,0,18.977a2.518,2.518,0,0,1,1.431-2.365c.484-.257.968-.521,1.473-.729a.722.722,0,0,0,.5-.795C3.393,11.015,3.4,6.942,3.4,2.869A2.583,2.583,0,0,1,6.251,0c.691,0,1.381,0,2.071,0C9.044.01,9.348.315,9.349,1.047q.007,2.975,0,5.95v.617H11.9V5.24c0-.868-.006-1.735,0-2.6A2.536,2.536,0,0,1,14.5.005Q32.3,0,50.093.005A2.54,2.54,0,0,1,52.7,2.69q.006,10.253,0,20.506V49.758a2.613,2.613,0,0,1-2.94,2.943H14.807A2.605,2.605,0,0,1,11.9,49.779c0-1.555,0-3.11,0-4.715m5.161-21.293c-.129-.156-.214-.26-.3-.362a5.8,5.8,0,0,1-1.452-3.678A5.981,5.981,0,0,1,20.5,13.6c2.34-.375,4.686-.726,7-1.209a20.97,20.97,0,0,0,8.132-3.966,8.65,8.65,0,0,1,13.254,4.36,10.938,10.938,0,0,1,.19,4.936,8.785,8.785,0,0,1-3.151,5.826,2.443,2.443,0,0,0-.211.229H51V23.22q0-10.147,0-20.292C51,1.951,50.751,1.7,49.78,1.7H14.83c-.981,0-1.23.245-1.23,1.215q0,10.146,0,20.292v.562Zm2.472,12.812a3.527,3.527,0,0,0,0,.429,2.312,2.312,0,0,1-.9,2.281,2.388,2.388,0,0,0-.784,1.956c.008,2.337,0,4.675,0,7.012A2.546,2.546,0,0,0,20.6,51.005q11.686,0,23.37,0a2.557,2.557,0,0,0,2.77-2.782c0-2.125-.044-4.251.018-6.374a3.628,3.628,0,0,0-1.255-3.064,1.856,1.856,0,0,1-.432-1.016,6.521,6.521,0,0,1-.016-1.186ZM13.6,28.929v.454q0,10.253,0,20.505c0,.124-.044.286.018.365.2.261.427.677.676.7a23.962,23.962,0,0,0,2.477.034,12.1,12.1,0,0,1-.592-2.453c-.077-2.494-.039-4.993-.023-7.489a3.8,3.8,0,0,1,1.156-2.825A1.588,1.588,0,0,0,17.8,36.61c-1.388-.472-1.647-.837-1.647-2.317q0-.425,0-.85a1.747,1.747,0,0,1,1.977-1.993H35.656c3.647,0,7.295,0,10.942,0a1.761,1.761,0,0,1,1.552.752,4.624,4.624,0,0,1-.044,3.623,7.344,7.344,0,0,1-1.331.936,1.563,1.563,0,0,0,.523,1.479,3.9,3.9,0,0,1,1.15,2.934c0,2.408,0,4.817,0,7.225a4.274,4.274,0,0,1-.605,2.224c-.064.109-.11.229-.185.386h2.085c1.014,0,1.255-.238,1.255-1.244q0-10.119,0-20.24v-.593ZM7.633,1.7H6.424C5.308,1.7,5.1,1.911,5.1,3.035V49.663a4.053,4.053,0,0,0,.012.584.777.777,0,0,0,.72.736c.591.044,1.188.011,1.8.011ZM42.893,8.87a7.087,7.087,0,0,0-6.319.935c-1.156.781-2.319,1.555-3.508,2.284a.827.827,0,0,0-.457.787,10.413,10.413,0,0,0,1.023,4.3,7.135,7.135,0,0,1,.561,3.685c-.141.983-.452,1.941-.693,2.938,1.741,0,3.575,0,5.408-.011a.561.561,0,0,0,.358-.254,6.1,6.1,0,0,0,1.2-3.187c.055-1.57-.017-3.146-.044-4.718a10,10,0,0,1,.5-3.606A9.093,9.093,0,0,1,42.893,8.87M30.92,13.093c-2.784,1.177-5.688,1.39-8.6,1.957a5.825,5.825,0,0,0,.443.572c.72.706,1.454,1.4,2.177,2.1a5.142,5.142,0,0,1,1.629,4.466c-.06.533-.192,1.057-.3,1.616,1.532,0,3.036-.014,4.539.01a.8.8,0,0,0,.77-.421,5.827,5.827,0,0,0,.478-5.533,12.5,12.5,0,0,1-1.14-4.767M13.626,27.168H50.957V25.529H13.626ZM9.387,38.212h2.487V14.478H9.387ZM44.546,9.671a6.008,6.008,0,0,0-2.235,3.821,27.131,27.131,0,0,0-.068,4.333,10.778,10.778,0,0,1-.977,5.673.821.821,0,0,0-.035.221,3.732,3.732,0,0,0,.5-.039,6.7,6.7,0,0,0,5.192-4.368A12.981,12.981,0,0,0,47.55,16.1a6.775,6.775,0,0,0-3-6.43M17.881,34.821H46.709V33.178H17.881Zm2.685-19.465a1.664,1.664,0,0,0-.189.011A4.264,4.264,0,0,0,17,19.46a4.158,4.158,0,0,0,3.3,4.189,25.255,25.255,0,0,0,3.86.137c.115,0,.277-.189.344-.326a3.877,3.877,0,0,0-.76-4.54c-.237-.238-.483-.467-.734-.691a8.919,8.919,0,0,1-2.449-2.874M3.367,35.17v-17.6c-.38.185-.707.352-1.042.5a.99.99,0,0,0-.629,1c.008,4.868,0,9.735.021,14.6a1.166,1.166,0,0,0,.372.812,7.653,7.653,0,0,0,1.278.684M9.388,12.71h2.484V9.376H9.388ZM9.4,43.32H11.86V39.967H9.4Z" transform="translate(0 0)" fill="#fff"/>
        <path id="Trazado_895081" data-name="Trazado 895081" d="M55.708,98.463c-1.629,0-3.258,0-4.886,0-.761,0-1.06-.3-1.061-1.062q-.005-3.187,0-6.374c0-.762.3-1.061,1.061-1.061q4.886,0,9.773,0c.761,0,1.061.3,1.062,1.061q.006,3.187,0,6.374c0,.76-.3,1.06-1.063,1.062-1.629,0-3.258,0-4.886,0m-4.2-1.736h8.414V91.674H51.5Z" transform="translate(-27.659 -50.008)" fill="#fff"/>
      </g>
    </g>
  </g>
</svg>
